M48
; DRILL file {KiCad (5.1.7)-1} date 09/09/21 12:13:52
; FORMAT={-:-/ absolute / inch / decimal}
; #@! TF.CreationDate,2021-09-09T12:13:52+02:00
; #@! TF.GenerationSoftware,Kicad,Pcbnew,(5.1.7)-1
FMAT,2
INCH
T1C0.0118
T2C0.0157
T3C0.0197
T4C0.0256
%
G90
G05
T1
X6.3362Y-3.6155
X6.3731Y-3.5795
X6.3918Y-3.7027
X6.4056Y-3.5399
X6.409Y-3.2877
X6.4223Y-3.4914
X6.4232Y-3.337
X6.4238Y-3.3885
X6.4238Y-3.44
X6.4315Y-3.6659
X6.4691Y-3.627
X6.4854Y-3.2157
X6.4991Y-3.5822
X6.5102Y-3.2637
X6.5185Y-3.5317
X6.5238Y-3.316
X6.526Y-3.4783
X6.5262Y-3.37
X6.5262Y-3.4241
T2
X4.85Y-3.85
X4.85Y-4.125
X4.9Y-3.825
X4.9Y-4.1
X4.98Y-3.73
X4.98Y-3.83
X4.98Y-4.03
X4.98Y-4.13
X5.055Y-4.215
X5.08Y-3.67
X5.1Y-3.986
X5.18Y-4.215
X5.205Y-3.67
X5.305Y-4.215
X5.325Y-3.55
X5.33Y-3.67
X5.3915Y-4.064
X5.43Y-4.215
X5.455Y-3.67
X5.5Y-3.83
X5.5Y-3.87
X5.555Y-4.215
X5.58Y-3.67
X5.68Y-4.215
X5.705Y-3.67
X5.805Y-4.215
X5.83Y-3.67
X5.93Y-4.215
X5.955Y-3.67
X5.97Y-3.975
X6.055Y-4.215
X6.08Y-3.67
X6.18Y-4.215
X6.199Y-3.96
X6.205Y-3.67
X6.315Y-3.815
X6.315Y-3.94
X6.315Y-4.12
X6.315Y-4.215
X6.4Y-3.9
X6.4Y-4.15
X6.4144Y-3.2106
X6.45Y-3.9
X6.45Y-4.15
T4
X4.9467Y-3.2333
T3
G00X4.675Y-3.1982
M15
G01X4.6514Y-3.1982
M16
G05
G00X4.675Y-3.5518
M15
G01X4.6514Y-3.5518
M16
G05
G00X4.9093Y-3.2124
M15
G01X4.8856Y-3.2124
M16
G05
G00X4.9093Y-3.5376
M15
G01X4.8856Y-3.5376
M16
G05
T4
G00X4.9467Y-3.5108
M15
G01X4.9467Y-3.5226
M16
G05
T0
M30
