%TF.GenerationSoftware,KiCad,Pcbnew,(5.1.7)-1*%
%TF.CreationDate,2021-09-09T12:13:45+02:00*%
%TF.ProjectId,SAW LNA Combo NOAA,53415720-4c4e-4412-9043-6f6d626f204e,rev?*%
%TF.SameCoordinates,Original*%
%TF.FileFunction,Legend,Top*%
%TF.FilePolarity,Positive*%
%FSLAX46Y46*%
G04 Gerber Fmt 4.6, Leading zero omitted, Abs format (unit mm)*
G04 Created by KiCad (PCBNEW (5.1.7)-1) date 2021-09-09 12:13:45*
%MOMM*%
%LPD*%
G01*
G04 APERTURE LIST*
%ADD10C,0.150000*%
%ADD11C,0.300000*%
%ADD12C,0.010000*%
%ADD13C,0.120000*%
%ADD14C,0.100000*%
G04 APERTURE END LIST*
D10*
X142613142Y-95702380D02*
X142136952Y-95702380D01*
X142136952Y-94702380D01*
X142946476Y-95702380D02*
X142946476Y-94702380D01*
X143517904Y-95702380D01*
X143517904Y-94702380D01*
X143946476Y-95416666D02*
X144422666Y-95416666D01*
X143851238Y-95702380D02*
X144184571Y-94702380D01*
X144517904Y-95702380D01*
X150479285Y-97432761D02*
X150622142Y-97480380D01*
X150860238Y-97480380D01*
X150955476Y-97432761D01*
X151003095Y-97385142D01*
X151050714Y-97289904D01*
X151050714Y-97194666D01*
X151003095Y-97099428D01*
X150955476Y-97051809D01*
X150860238Y-97004190D01*
X150669761Y-96956571D01*
X150574523Y-96908952D01*
X150526904Y-96861333D01*
X150479285Y-96766095D01*
X150479285Y-96670857D01*
X150526904Y-96575619D01*
X150574523Y-96528000D01*
X150669761Y-96480380D01*
X150907857Y-96480380D01*
X151050714Y-96528000D01*
X151431666Y-97194666D02*
X151907857Y-97194666D01*
X151336428Y-97480380D02*
X151669761Y-96480380D01*
X152003095Y-97480380D01*
X152241190Y-96480380D02*
X152479285Y-97480380D01*
X152669761Y-96766095D01*
X152860238Y-97480380D01*
X153098333Y-96480380D01*
X117927857Y-92527380D02*
X117927857Y-91527380D01*
X118165952Y-91527380D01*
X118308809Y-91575000D01*
X118404047Y-91670238D01*
X118451666Y-91765476D01*
X118499285Y-91955952D01*
X118499285Y-92098809D01*
X118451666Y-92289285D01*
X118404047Y-92384523D01*
X118308809Y-92479761D01*
X118165952Y-92527380D01*
X117927857Y-92527380D01*
X119499285Y-92432142D02*
X119451666Y-92479761D01*
X119308809Y-92527380D01*
X119213571Y-92527380D01*
X119070714Y-92479761D01*
X118975476Y-92384523D01*
X118927857Y-92289285D01*
X118880238Y-92098809D01*
X118880238Y-91955952D01*
X118927857Y-91765476D01*
X118975476Y-91670238D01*
X119070714Y-91575000D01*
X119213571Y-91527380D01*
X119308809Y-91527380D01*
X119451666Y-91575000D01*
X119499285Y-91622619D01*
X120689761Y-92527380D02*
X120689761Y-91527380D01*
X121070714Y-91527380D01*
X121165952Y-91575000D01*
X121213571Y-91622619D01*
X121261190Y-91717857D01*
X121261190Y-91860714D01*
X121213571Y-91955952D01*
X121165952Y-92003571D01*
X121070714Y-92051190D01*
X120689761Y-92051190D01*
X121832619Y-92527380D02*
X121737380Y-92479761D01*
X121689761Y-92432142D01*
X121642142Y-92336904D01*
X121642142Y-92051190D01*
X121689761Y-91955952D01*
X121737380Y-91908333D01*
X121832619Y-91860714D01*
X121975476Y-91860714D01*
X122070714Y-91908333D01*
X122118333Y-91955952D01*
X122165952Y-92051190D01*
X122165952Y-92336904D01*
X122118333Y-92432142D01*
X122070714Y-92479761D01*
X121975476Y-92527380D01*
X121832619Y-92527380D01*
X122499285Y-91860714D02*
X122689761Y-92527380D01*
X122880238Y-92051190D01*
X123070714Y-92527380D01*
X123261190Y-91860714D01*
X124023095Y-92479761D02*
X123927857Y-92527380D01*
X123737380Y-92527380D01*
X123642142Y-92479761D01*
X123594523Y-92384523D01*
X123594523Y-92003571D01*
X123642142Y-91908333D01*
X123737380Y-91860714D01*
X123927857Y-91860714D01*
X124023095Y-91908333D01*
X124070714Y-92003571D01*
X124070714Y-92098809D01*
X123594523Y-92194047D01*
X124499285Y-92527380D02*
X124499285Y-91860714D01*
X124499285Y-92051190D02*
X124546904Y-91955952D01*
X124594523Y-91908333D01*
X124689761Y-91860714D01*
X124785000Y-91860714D01*
X165616190Y-94702380D02*
X165806666Y-94702380D01*
X165901904Y-94750000D01*
X165997142Y-94845238D01*
X166044761Y-95035714D01*
X166044761Y-95369047D01*
X165997142Y-95559523D01*
X165901904Y-95654761D01*
X165806666Y-95702380D01*
X165616190Y-95702380D01*
X165520952Y-95654761D01*
X165425714Y-95559523D01*
X165378095Y-95369047D01*
X165378095Y-95035714D01*
X165425714Y-94845238D01*
X165520952Y-94750000D01*
X165616190Y-94702380D01*
X166901904Y-95035714D02*
X166901904Y-95702380D01*
X166473333Y-95035714D02*
X166473333Y-95559523D01*
X166520952Y-95654761D01*
X166616190Y-95702380D01*
X166759047Y-95702380D01*
X166854285Y-95654761D01*
X166901904Y-95607142D01*
X167235238Y-95035714D02*
X167616190Y-95035714D01*
X167378095Y-94702380D02*
X167378095Y-95559523D01*
X167425714Y-95654761D01*
X167520952Y-95702380D01*
X167616190Y-95702380D01*
X167949523Y-95035714D02*
X167949523Y-96035714D01*
X167949523Y-95083333D02*
X168044761Y-95035714D01*
X168235238Y-95035714D01*
X168330476Y-95083333D01*
X168378095Y-95130952D01*
X168425714Y-95226190D01*
X168425714Y-95511904D01*
X168378095Y-95607142D01*
X168330476Y-95654761D01*
X168235238Y-95702380D01*
X168044761Y-95702380D01*
X167949523Y-95654761D01*
X169282857Y-95035714D02*
X169282857Y-95702380D01*
X168854285Y-95035714D02*
X168854285Y-95559523D01*
X168901904Y-95654761D01*
X168997142Y-95702380D01*
X169140000Y-95702380D01*
X169235238Y-95654761D01*
X169282857Y-95607142D01*
X169616190Y-95035714D02*
X169997142Y-95035714D01*
X169759047Y-94702380D02*
X169759047Y-95559523D01*
X169806666Y-95654761D01*
X169901904Y-95702380D01*
X169997142Y-95702380D01*
X117737142Y-95702380D02*
X117737142Y-94702380D01*
X118213333Y-95035714D02*
X118213333Y-95702380D01*
X118213333Y-95130952D02*
X118260952Y-95083333D01*
X118356190Y-95035714D01*
X118499047Y-95035714D01*
X118594285Y-95083333D01*
X118641904Y-95178571D01*
X118641904Y-95702380D01*
X119118095Y-95035714D02*
X119118095Y-96035714D01*
X119118095Y-95083333D02*
X119213333Y-95035714D01*
X119403809Y-95035714D01*
X119499047Y-95083333D01*
X119546666Y-95130952D01*
X119594285Y-95226190D01*
X119594285Y-95511904D01*
X119546666Y-95607142D01*
X119499047Y-95654761D01*
X119403809Y-95702380D01*
X119213333Y-95702380D01*
X119118095Y-95654761D01*
X120451428Y-95035714D02*
X120451428Y-95702380D01*
X120022857Y-95035714D02*
X120022857Y-95559523D01*
X120070476Y-95654761D01*
X120165714Y-95702380D01*
X120308571Y-95702380D01*
X120403809Y-95654761D01*
X120451428Y-95607142D01*
X120784761Y-95035714D02*
X121165714Y-95035714D01*
X120927619Y-94702380D02*
X120927619Y-95559523D01*
X120975238Y-95654761D01*
X121070476Y-95702380D01*
X121165714Y-95702380D01*
X131572047Y-81351428D02*
X132333952Y-81351428D01*
D11*
X146685000Y-85725000D02*
X146665000Y-85725000D01*
X147320000Y-102235000D02*
X147300000Y-102235000D01*
D12*
%TO.C,G\u002A\u002A\u002A*%
G36*
X149987676Y-109151863D02*
G01*
X150009970Y-109168595D01*
X150041950Y-109221025D01*
X150038574Y-109271964D01*
X150007680Y-109314131D01*
X149957107Y-109340243D01*
X149894694Y-109343017D01*
X149842558Y-109324138D01*
X149811675Y-109285487D01*
X149804913Y-109231079D01*
X149821811Y-109180122D01*
X149846575Y-109157245D01*
X149921346Y-109136496D01*
X149987676Y-109151863D01*
G37*
X149987676Y-109151863D02*
X150009970Y-109168595D01*
X150041950Y-109221025D01*
X150038574Y-109271964D01*
X150007680Y-109314131D01*
X149957107Y-109340243D01*
X149894694Y-109343017D01*
X149842558Y-109324138D01*
X149811675Y-109285487D01*
X149804913Y-109231079D01*
X149821811Y-109180122D01*
X149846575Y-109157245D01*
X149921346Y-109136496D01*
X149987676Y-109151863D01*
G36*
X144222944Y-109685667D02*
G01*
X144506378Y-109685667D01*
X144506378Y-109833834D01*
X144222944Y-109833834D01*
X144222944Y-110087834D01*
X144048524Y-110087834D01*
X144048524Y-109833834D01*
X143765090Y-109833834D01*
X143765090Y-109685667D01*
X144048524Y-109685667D01*
X144048524Y-109410500D01*
X144222944Y-109410500D01*
X144222944Y-109685667D01*
G37*
X144222944Y-109685667D02*
X144506378Y-109685667D01*
X144506378Y-109833834D01*
X144222944Y-109833834D01*
X144222944Y-110087834D01*
X144048524Y-110087834D01*
X144048524Y-109833834D01*
X143765090Y-109833834D01*
X143765090Y-109685667D01*
X144048524Y-109685667D01*
X144048524Y-109410500D01*
X144222944Y-109410500D01*
X144222944Y-109685667D01*
G36*
X152965777Y-109543696D02*
G01*
X152961143Y-109595456D01*
X152939076Y-109620837D01*
X152895238Y-109633844D01*
X152817172Y-109656355D01*
X152760307Y-109689772D01*
X152721517Y-109740309D01*
X152697677Y-109814179D01*
X152685661Y-109917598D01*
X152682343Y-110056778D01*
X152682343Y-110299500D01*
X152486120Y-110299500D01*
X152486120Y-109474000D01*
X152584232Y-109474000D01*
X152645481Y-109476734D01*
X152674453Y-109488179D01*
X152682292Y-109513201D01*
X152682343Y-109516821D01*
X152685935Y-109545484D01*
X152704704Y-109544314D01*
X152731399Y-109528475D01*
X152784676Y-109505084D01*
X152855412Y-109486086D01*
X152873116Y-109482948D01*
X152965777Y-109468590D01*
X152965777Y-109543696D01*
G37*
X152965777Y-109543696D02*
X152961143Y-109595456D01*
X152939076Y-109620837D01*
X152895238Y-109633844D01*
X152817172Y-109656355D01*
X152760307Y-109689772D01*
X152721517Y-109740309D01*
X152697677Y-109814179D01*
X152685661Y-109917598D01*
X152682343Y-110056778D01*
X152682343Y-110299500D01*
X152486120Y-110299500D01*
X152486120Y-109474000D01*
X152584232Y-109474000D01*
X152645481Y-109476734D01*
X152674453Y-109488179D01*
X152682292Y-109513201D01*
X152682343Y-109516821D01*
X152685935Y-109545484D01*
X152704704Y-109544314D01*
X152731399Y-109528475D01*
X152784676Y-109505084D01*
X152855412Y-109486086D01*
X152873116Y-109482948D01*
X152965777Y-109468590D01*
X152965777Y-109543696D01*
G36*
X151878866Y-109479920D02*
G01*
X152017300Y-109509201D01*
X152126377Y-109569423D01*
X152204900Y-109659481D01*
X152251674Y-109778274D01*
X152261079Y-109832374D01*
X152274168Y-109939667D01*
X151933191Y-109939667D01*
X151816828Y-109940772D01*
X151717534Y-109943822D01*
X151642689Y-109948421D01*
X151599675Y-109954172D01*
X151592214Y-109957979D01*
X151608096Y-109994480D01*
X151647716Y-110042475D01*
X151699036Y-110089252D01*
X151745675Y-110120006D01*
X151842780Y-110148628D01*
X151945131Y-110137636D01*
X152017365Y-110109000D01*
X152089539Y-110077278D01*
X152135807Y-110070208D01*
X152166250Y-110088543D01*
X152185772Y-110121547D01*
X152199617Y-110164200D01*
X152184720Y-110194084D01*
X152159311Y-110214665D01*
X152049484Y-110269887D01*
X151917683Y-110294717D01*
X151773322Y-110288149D01*
X151676231Y-110266274D01*
X151567759Y-110213205D01*
X151482925Y-110130585D01*
X151425599Y-110026594D01*
X151399647Y-109909412D01*
X151408774Y-109789384D01*
X151592214Y-109789384D01*
X151613909Y-109801283D01*
X151678992Y-109808970D01*
X151787464Y-109812445D01*
X151832043Y-109812667D01*
X151944647Y-109811280D01*
X152018733Y-109806752D01*
X152059310Y-109798529D01*
X152071386Y-109786209D01*
X152054261Y-109743485D01*
X152012947Y-109694009D01*
X151960651Y-109652799D01*
X151947940Y-109645811D01*
X151852462Y-109620154D01*
X151757845Y-109634978D01*
X151671808Y-109688958D01*
X151666343Y-109694134D01*
X151622673Y-109741029D01*
X151596039Y-109778305D01*
X151592214Y-109789384D01*
X151408774Y-109789384D01*
X151408939Y-109787220D01*
X151424903Y-109734724D01*
X151487418Y-109627862D01*
X151580420Y-109546943D01*
X151697285Y-109495687D01*
X151831390Y-109477810D01*
X151878866Y-109479920D01*
G37*
X151878866Y-109479920D02*
X152017300Y-109509201D01*
X152126377Y-109569423D01*
X152204900Y-109659481D01*
X152251674Y-109778274D01*
X152261079Y-109832374D01*
X152274168Y-109939667D01*
X151933191Y-109939667D01*
X151816828Y-109940772D01*
X151717534Y-109943822D01*
X151642689Y-109948421D01*
X151599675Y-109954172D01*
X151592214Y-109957979D01*
X151608096Y-109994480D01*
X151647716Y-110042475D01*
X151699036Y-110089252D01*
X151745675Y-110120006D01*
X151842780Y-110148628D01*
X151945131Y-110137636D01*
X152017365Y-110109000D01*
X152089539Y-110077278D01*
X152135807Y-110070208D01*
X152166250Y-110088543D01*
X152185772Y-110121547D01*
X152199617Y-110164200D01*
X152184720Y-110194084D01*
X152159311Y-110214665D01*
X152049484Y-110269887D01*
X151917683Y-110294717D01*
X151773322Y-110288149D01*
X151676231Y-110266274D01*
X151567759Y-110213205D01*
X151482925Y-110130585D01*
X151425599Y-110026594D01*
X151399647Y-109909412D01*
X151408774Y-109789384D01*
X151592214Y-109789384D01*
X151613909Y-109801283D01*
X151678992Y-109808970D01*
X151787464Y-109812445D01*
X151832043Y-109812667D01*
X151944647Y-109811280D01*
X152018733Y-109806752D01*
X152059310Y-109798529D01*
X152071386Y-109786209D01*
X152054261Y-109743485D01*
X152012947Y-109694009D01*
X151960651Y-109652799D01*
X151947940Y-109645811D01*
X151852462Y-109620154D01*
X151757845Y-109634978D01*
X151671808Y-109688958D01*
X151666343Y-109694134D01*
X151622673Y-109741029D01*
X151596039Y-109778305D01*
X151592214Y-109789384D01*
X151408774Y-109789384D01*
X151408939Y-109787220D01*
X151424903Y-109734724D01*
X151487418Y-109627862D01*
X151580420Y-109546943D01*
X151697285Y-109495687D01*
X151831390Y-109477810D01*
X151878866Y-109479920D01*
G36*
X151025348Y-109474000D02*
G01*
X151265176Y-109474000D01*
X151265176Y-109622167D01*
X151025348Y-109622167D01*
X151025348Y-109853488D01*
X151027431Y-109974251D01*
X151035812Y-110058390D01*
X151053688Y-110111508D01*
X151084252Y-110139208D01*
X151130703Y-110147092D01*
X151189773Y-110141725D01*
X151248135Y-110135467D01*
X151277659Y-110143032D01*
X151292300Y-110170108D01*
X151296486Y-110185227D01*
X151300831Y-110233556D01*
X151291291Y-110261447D01*
X151250023Y-110279334D01*
X151181215Y-110289313D01*
X151100233Y-110291033D01*
X151022443Y-110284143D01*
X150964574Y-110268905D01*
X150911452Y-110236189D01*
X150873408Y-110187841D01*
X150848392Y-110117611D01*
X150834357Y-110019251D01*
X150829253Y-109886511D01*
X150829124Y-109855680D01*
X150829124Y-109622167D01*
X150763717Y-109622167D01*
X150719772Y-109618037D01*
X150701747Y-109597089D01*
X150698309Y-109548084D01*
X150701955Y-109498310D01*
X150720450Y-109477895D01*
X150763717Y-109474000D01*
X150805657Y-109470657D01*
X150824301Y-109452539D01*
X150829021Y-109407514D01*
X150829124Y-109389334D01*
X150829124Y-109304667D01*
X151025348Y-109304667D01*
X151025348Y-109474000D01*
G37*
X151025348Y-109474000D02*
X151265176Y-109474000D01*
X151265176Y-109622167D01*
X151025348Y-109622167D01*
X151025348Y-109853488D01*
X151027431Y-109974251D01*
X151035812Y-110058390D01*
X151053688Y-110111508D01*
X151084252Y-110139208D01*
X151130703Y-110147092D01*
X151189773Y-110141725D01*
X151248135Y-110135467D01*
X151277659Y-110143032D01*
X151292300Y-110170108D01*
X151296486Y-110185227D01*
X151300831Y-110233556D01*
X151291291Y-110261447D01*
X151250023Y-110279334D01*
X151181215Y-110289313D01*
X151100233Y-110291033D01*
X151022443Y-110284143D01*
X150964574Y-110268905D01*
X150911452Y-110236189D01*
X150873408Y-110187841D01*
X150848392Y-110117611D01*
X150834357Y-110019251D01*
X150829253Y-109886511D01*
X150829124Y-109855680D01*
X150829124Y-109622167D01*
X150763717Y-109622167D01*
X150719772Y-109618037D01*
X150701747Y-109597089D01*
X150698309Y-109548084D01*
X150701955Y-109498310D01*
X150720450Y-109477895D01*
X150763717Y-109474000D01*
X150805657Y-109470657D01*
X150824301Y-109452539D01*
X150829021Y-109407514D01*
X150829124Y-109389334D01*
X150829124Y-109304667D01*
X151025348Y-109304667D01*
X151025348Y-109474000D01*
G36*
X150502086Y-110299500D02*
G01*
X150305863Y-110299500D01*
X150305863Y-109156500D01*
X150502086Y-109156500D01*
X150502086Y-110299500D01*
G37*
X150502086Y-110299500D02*
X150305863Y-110299500D01*
X150305863Y-109156500D01*
X150502086Y-109156500D01*
X150502086Y-110299500D01*
G36*
X150022429Y-110299500D02*
G01*
X149826206Y-110299500D01*
X149826206Y-109474000D01*
X150022429Y-109474000D01*
X150022429Y-110299500D01*
G37*
X150022429Y-110299500D02*
X149826206Y-110299500D01*
X149826206Y-109474000D01*
X150022429Y-109474000D01*
X150022429Y-110299500D01*
G36*
X149505279Y-109161853D02*
G01*
X149589869Y-109175149D01*
X149635545Y-109197821D01*
X149646603Y-109233565D01*
X149634078Y-109272643D01*
X149613044Y-109306636D01*
X149583331Y-109318518D01*
X149528915Y-109314009D01*
X149521414Y-109312864D01*
X149439812Y-109311422D01*
X149389710Y-109338396D01*
X149369122Y-109395086D01*
X149368352Y-109413092D01*
X149370541Y-109447771D01*
X149384220Y-109465910D01*
X149420055Y-109472868D01*
X149488714Y-109474000D01*
X149610943Y-109474000D01*
X149604111Y-109542792D01*
X149597735Y-109582951D01*
X149581180Y-109604167D01*
X149542802Y-109613658D01*
X149482815Y-109617981D01*
X149368352Y-109624379D01*
X149368352Y-110299500D01*
X149172129Y-110299500D01*
X149172129Y-109622167D01*
X149106721Y-109622167D01*
X149062776Y-109618037D01*
X149044752Y-109597089D01*
X149041313Y-109548084D01*
X149044959Y-109498310D01*
X149063454Y-109477895D01*
X149106721Y-109474000D01*
X149153426Y-109468344D01*
X149170528Y-109444122D01*
X149172129Y-109420404D01*
X149190600Y-109317007D01*
X149243198Y-109237036D01*
X149325703Y-109183766D01*
X149433893Y-109160475D01*
X149505279Y-109161853D01*
G37*
X149505279Y-109161853D02*
X149589869Y-109175149D01*
X149635545Y-109197821D01*
X149646603Y-109233565D01*
X149634078Y-109272643D01*
X149613044Y-109306636D01*
X149583331Y-109318518D01*
X149528915Y-109314009D01*
X149521414Y-109312864D01*
X149439812Y-109311422D01*
X149389710Y-109338396D01*
X149369122Y-109395086D01*
X149368352Y-109413092D01*
X149370541Y-109447771D01*
X149384220Y-109465910D01*
X149420055Y-109472868D01*
X149488714Y-109474000D01*
X149610943Y-109474000D01*
X149604111Y-109542792D01*
X149597735Y-109582951D01*
X149581180Y-109604167D01*
X149542802Y-109613658D01*
X149482815Y-109617981D01*
X149368352Y-109624379D01*
X149368352Y-110299500D01*
X149172129Y-110299500D01*
X149172129Y-109622167D01*
X149106721Y-109622167D01*
X149062776Y-109618037D01*
X149044752Y-109597089D01*
X149041313Y-109548084D01*
X149044959Y-109498310D01*
X149063454Y-109477895D01*
X149106721Y-109474000D01*
X149153426Y-109468344D01*
X149170528Y-109444122D01*
X149172129Y-109420404D01*
X149190600Y-109317007D01*
X149243198Y-109237036D01*
X149325703Y-109183766D01*
X149433893Y-109160475D01*
X149505279Y-109161853D01*
G36*
X147123142Y-109612910D02*
G01*
X147165001Y-109732895D01*
X147202622Y-109837074D01*
X147233771Y-109919553D01*
X147256213Y-109974440D01*
X147267714Y-109995842D01*
X147268352Y-109995806D01*
X147278469Y-109973587D01*
X147300450Y-109917750D01*
X147331881Y-109834678D01*
X147370348Y-109730752D01*
X147413438Y-109612354D01*
X147414942Y-109608187D01*
X147551218Y-109230584D01*
X147740459Y-109230584D01*
X147873368Y-109604812D01*
X147915868Y-109723313D01*
X147954077Y-109827659D01*
X147985561Y-109911376D01*
X148007884Y-109967987D01*
X148018610Y-109991015D01*
X148018623Y-109991028D01*
X148029048Y-109975751D01*
X148050868Y-109926132D01*
X148081781Y-109848021D01*
X148119484Y-109747267D01*
X148161674Y-109629717D01*
X148168068Y-109611507D01*
X148305168Y-109220000D01*
X148400708Y-109220000D01*
X148458350Y-109221180D01*
X148492361Y-109224157D01*
X148496249Y-109225788D01*
X148489609Y-109247006D01*
X148471196Y-109301786D01*
X148443273Y-109383609D01*
X148408099Y-109485956D01*
X148367938Y-109602308D01*
X148325050Y-109726146D01*
X148281696Y-109850951D01*
X148240138Y-109970205D01*
X148202638Y-110077388D01*
X148171457Y-110165981D01*
X148148856Y-110229465D01*
X148137097Y-110261322D01*
X148136629Y-110262459D01*
X148113092Y-110287088D01*
X148063101Y-110298074D01*
X148019710Y-110299498D01*
X147918481Y-110299496D01*
X147790291Y-109928636D01*
X147748870Y-109810694D01*
X147711276Y-109707186D01*
X147679966Y-109624600D01*
X147657397Y-109569423D01*
X147646156Y-109548208D01*
X147633801Y-109563483D01*
X147611048Y-109612022D01*
X147580864Y-109686793D01*
X147546212Y-109780761D01*
X147536671Y-109807946D01*
X147497596Y-109919717D01*
X147459323Y-110027930D01*
X147426113Y-110120612D01*
X147402229Y-110185788D01*
X147401256Y-110188375D01*
X147359382Y-110299500D01*
X147155390Y-110299142D01*
X146974325Y-109775446D01*
X146925744Y-109634223D01*
X146882179Y-109506214D01*
X146845453Y-109396885D01*
X146817387Y-109311704D01*
X146799805Y-109256136D01*
X146794454Y-109235875D01*
X146814698Y-109226320D01*
X146864411Y-109220663D01*
X146891948Y-109220000D01*
X146988248Y-109220000D01*
X147123142Y-109612910D01*
G37*
X147123142Y-109612910D02*
X147165001Y-109732895D01*
X147202622Y-109837074D01*
X147233771Y-109919553D01*
X147256213Y-109974440D01*
X147267714Y-109995842D01*
X147268352Y-109995806D01*
X147278469Y-109973587D01*
X147300450Y-109917750D01*
X147331881Y-109834678D01*
X147370348Y-109730752D01*
X147413438Y-109612354D01*
X147414942Y-109608187D01*
X147551218Y-109230584D01*
X147740459Y-109230584D01*
X147873368Y-109604812D01*
X147915868Y-109723313D01*
X147954077Y-109827659D01*
X147985561Y-109911376D01*
X148007884Y-109967987D01*
X148018610Y-109991015D01*
X148018623Y-109991028D01*
X148029048Y-109975751D01*
X148050868Y-109926132D01*
X148081781Y-109848021D01*
X148119484Y-109747267D01*
X148161674Y-109629717D01*
X148168068Y-109611507D01*
X148305168Y-109220000D01*
X148400708Y-109220000D01*
X148458350Y-109221180D01*
X148492361Y-109224157D01*
X148496249Y-109225788D01*
X148489609Y-109247006D01*
X148471196Y-109301786D01*
X148443273Y-109383609D01*
X148408099Y-109485956D01*
X148367938Y-109602308D01*
X148325050Y-109726146D01*
X148281696Y-109850951D01*
X148240138Y-109970205D01*
X148202638Y-110077388D01*
X148171457Y-110165981D01*
X148148856Y-110229465D01*
X148137097Y-110261322D01*
X148136629Y-110262459D01*
X148113092Y-110287088D01*
X148063101Y-110298074D01*
X148019710Y-110299498D01*
X147918481Y-110299496D01*
X147790291Y-109928636D01*
X147748870Y-109810694D01*
X147711276Y-109707186D01*
X147679966Y-109624600D01*
X147657397Y-109569423D01*
X147646156Y-109548208D01*
X147633801Y-109563483D01*
X147611048Y-109612022D01*
X147580864Y-109686793D01*
X147546212Y-109780761D01*
X147536671Y-109807946D01*
X147497596Y-109919717D01*
X147459323Y-110027930D01*
X147426113Y-110120612D01*
X147402229Y-110185788D01*
X147401256Y-110188375D01*
X147359382Y-110299500D01*
X147155390Y-110299142D01*
X146974325Y-109775446D01*
X146925744Y-109634223D01*
X146882179Y-109506214D01*
X146845453Y-109396885D01*
X146817387Y-109311704D01*
X146799805Y-109256136D01*
X146794454Y-109235875D01*
X146814698Y-109226320D01*
X146864411Y-109220663D01*
X146891948Y-109220000D01*
X146988248Y-109220000D01*
X147123142Y-109612910D01*
G36*
X146511882Y-109689924D02*
G01*
X146575816Y-109824851D01*
X146635163Y-109950493D01*
X146686988Y-110060600D01*
X146728353Y-110148925D01*
X146756321Y-110209217D01*
X146766054Y-110230709D01*
X146796233Y-110299500D01*
X146583577Y-110299500D01*
X146524871Y-110172500D01*
X146466164Y-110045500D01*
X146189404Y-110045591D01*
X145912644Y-110045683D01*
X145858137Y-110172500D01*
X145803631Y-110299318D01*
X145700069Y-110299409D01*
X145639670Y-110298024D01*
X145602350Y-110294397D01*
X145596506Y-110291886D01*
X145605167Y-110271395D01*
X145629601Y-110217411D01*
X145667491Y-110134961D01*
X145716516Y-110029069D01*
X145774358Y-109904761D01*
X145790190Y-109870875D01*
X145995766Y-109870875D01*
X146000991Y-109883733D01*
X146033731Y-109891932D01*
X146099495Y-109896214D01*
X146192225Y-109897334D01*
X146400162Y-109897334D01*
X146299426Y-109674873D01*
X146258658Y-109588847D01*
X146223075Y-109521158D01*
X146196619Y-109478823D01*
X146183510Y-109468498D01*
X146168996Y-109493730D01*
X146141201Y-109550081D01*
X146103802Y-109629670D01*
X146060477Y-109724616D01*
X146014904Y-109827038D01*
X145995766Y-109870875D01*
X145790190Y-109870875D01*
X145838696Y-109767060D01*
X145843205Y-109757428D01*
X146089904Y-109230584D01*
X146188897Y-109224257D01*
X146287889Y-109217930D01*
X146511882Y-109689924D01*
G37*
X146511882Y-109689924D02*
X146575816Y-109824851D01*
X146635163Y-109950493D01*
X146686988Y-110060600D01*
X146728353Y-110148925D01*
X146756321Y-110209217D01*
X146766054Y-110230709D01*
X146796233Y-110299500D01*
X146583577Y-110299500D01*
X146524871Y-110172500D01*
X146466164Y-110045500D01*
X146189404Y-110045591D01*
X145912644Y-110045683D01*
X145858137Y-110172500D01*
X145803631Y-110299318D01*
X145700069Y-110299409D01*
X145639670Y-110298024D01*
X145602350Y-110294397D01*
X145596506Y-110291886D01*
X145605167Y-110271395D01*
X145629601Y-110217411D01*
X145667491Y-110134961D01*
X145716516Y-110029069D01*
X145774358Y-109904761D01*
X145790190Y-109870875D01*
X145995766Y-109870875D01*
X146000991Y-109883733D01*
X146033731Y-109891932D01*
X146099495Y-109896214D01*
X146192225Y-109897334D01*
X146400162Y-109897334D01*
X146299426Y-109674873D01*
X146258658Y-109588847D01*
X146223075Y-109521158D01*
X146196619Y-109478823D01*
X146183510Y-109468498D01*
X146168996Y-109493730D01*
X146141201Y-109550081D01*
X146103802Y-109629670D01*
X146060477Y-109724616D01*
X146014904Y-109827038D01*
X145995766Y-109870875D01*
X145790190Y-109870875D01*
X145838696Y-109767060D01*
X145843205Y-109757428D01*
X146089904Y-109230584D01*
X146188897Y-109224257D01*
X146287889Y-109217930D01*
X146511882Y-109689924D01*
G36*
X143168434Y-109234872D02*
G01*
X143191634Y-109265921D01*
X143197327Y-109277206D01*
X143217419Y-109319171D01*
X143250904Y-109389871D01*
X143293146Y-109479495D01*
X143339513Y-109578230D01*
X143340264Y-109579834D01*
X143392317Y-109690634D01*
X143445839Y-109804137D01*
X143493969Y-109905812D01*
X143525196Y-109971417D01*
X143566312Y-110058231D01*
X143606135Y-110143669D01*
X143636075Y-110209300D01*
X143636183Y-110209542D01*
X143676330Y-110299500D01*
X143465809Y-110299500D01*
X143407102Y-110172500D01*
X143348396Y-110045500D01*
X143071636Y-110046200D01*
X142794875Y-110046900D01*
X142677381Y-110299500D01*
X142578059Y-110299500D01*
X142519105Y-110297918D01*
X142483511Y-110293911D01*
X142478738Y-110291451D01*
X142487437Y-110270859D01*
X142511980Y-110216811D01*
X142550037Y-110134334D01*
X142599279Y-110028452D01*
X142657375Y-109904192D01*
X142673020Y-109870875D01*
X142877998Y-109870875D01*
X142883223Y-109883733D01*
X142915962Y-109891932D01*
X142981727Y-109896214D01*
X143074456Y-109897334D01*
X143282393Y-109897334D01*
X143181658Y-109674873D01*
X143140890Y-109588847D01*
X143105307Y-109521158D01*
X143078851Y-109478823D01*
X143065742Y-109468498D01*
X143051228Y-109493730D01*
X143023432Y-109550081D01*
X142986034Y-109629670D01*
X142942709Y-109724616D01*
X142897136Y-109827038D01*
X142877998Y-109870875D01*
X142673020Y-109870875D01*
X142721996Y-109766578D01*
X142726508Y-109756993D01*
X142974277Y-109230584D01*
X143071379Y-109224289D01*
X143133601Y-109223201D01*
X143168434Y-109234872D01*
G37*
X143168434Y-109234872D02*
X143191634Y-109265921D01*
X143197327Y-109277206D01*
X143217419Y-109319171D01*
X143250904Y-109389871D01*
X143293146Y-109479495D01*
X143339513Y-109578230D01*
X143340264Y-109579834D01*
X143392317Y-109690634D01*
X143445839Y-109804137D01*
X143493969Y-109905812D01*
X143525196Y-109971417D01*
X143566312Y-110058231D01*
X143606135Y-110143669D01*
X143636075Y-110209300D01*
X143636183Y-110209542D01*
X143676330Y-110299500D01*
X143465809Y-110299500D01*
X143407102Y-110172500D01*
X143348396Y-110045500D01*
X143071636Y-110046200D01*
X142794875Y-110046900D01*
X142677381Y-110299500D01*
X142578059Y-110299500D01*
X142519105Y-110297918D01*
X142483511Y-110293911D01*
X142478738Y-110291451D01*
X142487437Y-110270859D01*
X142511980Y-110216811D01*
X142550037Y-110134334D01*
X142599279Y-110028452D01*
X142657375Y-109904192D01*
X142673020Y-109870875D01*
X142877998Y-109870875D01*
X142883223Y-109883733D01*
X142915962Y-109891932D01*
X142981727Y-109896214D01*
X143074456Y-109897334D01*
X143282393Y-109897334D01*
X143181658Y-109674873D01*
X143140890Y-109588847D01*
X143105307Y-109521158D01*
X143078851Y-109478823D01*
X143065742Y-109468498D01*
X143051228Y-109493730D01*
X143023432Y-109550081D01*
X142986034Y-109629670D01*
X142942709Y-109724616D01*
X142897136Y-109827038D01*
X142877998Y-109870875D01*
X142673020Y-109870875D01*
X142721996Y-109766578D01*
X142726508Y-109756993D01*
X142974277Y-109230584D01*
X143071379Y-109224289D01*
X143133601Y-109223201D01*
X143168434Y-109234872D01*
G36*
X141456496Y-109221025D02*
G01*
X141481828Y-109226800D01*
X141508788Y-109241376D01*
X141541680Y-109268802D01*
X141584807Y-109313129D01*
X141642473Y-109378407D01*
X141718980Y-109468687D01*
X141815486Y-109584241D01*
X142118996Y-109948481D01*
X142124961Y-109584241D01*
X142130927Y-109220000D01*
X142326120Y-109220000D01*
X142326120Y-110299500D01*
X142243429Y-110299500D01*
X142215628Y-110298413D01*
X142190323Y-110292456D01*
X142163216Y-110277583D01*
X142130004Y-110249749D01*
X142086389Y-110204909D01*
X142028070Y-110139019D01*
X141950746Y-110048032D01*
X141856433Y-109935459D01*
X141552129Y-109571417D01*
X141546163Y-109935459D01*
X141540198Y-110299500D01*
X141345004Y-110299500D01*
X141345004Y-109220000D01*
X141428490Y-109220000D01*
X141456496Y-109221025D01*
G37*
X141456496Y-109221025D02*
X141481828Y-109226800D01*
X141508788Y-109241376D01*
X141541680Y-109268802D01*
X141584807Y-109313129D01*
X141642473Y-109378407D01*
X141718980Y-109468687D01*
X141815486Y-109584241D01*
X142118996Y-109948481D01*
X142124961Y-109584241D01*
X142130927Y-109220000D01*
X142326120Y-109220000D01*
X142326120Y-110299500D01*
X142243429Y-110299500D01*
X142215628Y-110298413D01*
X142190323Y-110292456D01*
X142163216Y-110277583D01*
X142130004Y-110249749D01*
X142086389Y-110204909D01*
X142028070Y-110139019D01*
X141950746Y-110048032D01*
X141856433Y-109935459D01*
X141552129Y-109571417D01*
X141546163Y-109935459D01*
X141540198Y-110299500D01*
X141345004Y-110299500D01*
X141345004Y-109220000D01*
X141428490Y-109220000D01*
X141456496Y-109221025D01*
G36*
X140560111Y-110151334D02*
G01*
X141148781Y-110151334D01*
X141148781Y-110299500D01*
X140363888Y-110299500D01*
X140363888Y-109220000D01*
X140560111Y-109220000D01*
X140560111Y-110151334D01*
G37*
X140560111Y-110151334D02*
X141148781Y-110151334D01*
X141148781Y-110299500D01*
X140363888Y-110299500D01*
X140363888Y-109220000D01*
X140560111Y-109220000D01*
X140560111Y-110151334D01*
G36*
X139644403Y-109538762D02*
G01*
X139636128Y-109580507D01*
X139608523Y-109633210D01*
X139557425Y-109703603D01*
X139497079Y-109776887D01*
X139424737Y-109862295D01*
X139352469Y-109948087D01*
X139291212Y-110021261D01*
X139266693Y-110050792D01*
X139183630Y-110151334D01*
X139666206Y-110151334D01*
X139666206Y-110299500D01*
X138924918Y-110299500D01*
X138924918Y-110244479D01*
X138936757Y-110206818D01*
X138973359Y-110146182D01*
X139036356Y-110060227D01*
X139127378Y-109946609D01*
X139156788Y-109911104D01*
X139388657Y-109632750D01*
X138946721Y-109620686D01*
X138946721Y-109474000D01*
X139644403Y-109474000D01*
X139644403Y-109538762D01*
G37*
X139644403Y-109538762D02*
X139636128Y-109580507D01*
X139608523Y-109633210D01*
X139557425Y-109703603D01*
X139497079Y-109776887D01*
X139424737Y-109862295D01*
X139352469Y-109948087D01*
X139291212Y-110021261D01*
X139266693Y-110050792D01*
X139183630Y-110151334D01*
X139666206Y-110151334D01*
X139666206Y-110299500D01*
X138924918Y-110299500D01*
X138924918Y-110244479D01*
X138936757Y-110206818D01*
X138973359Y-110146182D01*
X139036356Y-110060227D01*
X139127378Y-109946609D01*
X139156788Y-109911104D01*
X139388657Y-109632750D01*
X138946721Y-109620686D01*
X138946721Y-109474000D01*
X139644403Y-109474000D01*
X139644403Y-109538762D01*
G36*
X137922000Y-109664500D02*
G01*
X138510669Y-109664500D01*
X138510669Y-109220000D01*
X138706893Y-109220000D01*
X138706893Y-110299500D01*
X138510669Y-110299500D01*
X138510669Y-109812667D01*
X137922000Y-109812667D01*
X137922000Y-110299500D01*
X137725777Y-110299500D01*
X137725777Y-109220000D01*
X137922000Y-109220000D01*
X137922000Y-109664500D01*
G37*
X137922000Y-109664500D02*
X138510669Y-109664500D01*
X138510669Y-109220000D01*
X138706893Y-109220000D01*
X138706893Y-110299500D01*
X138510669Y-110299500D01*
X138510669Y-109812667D01*
X137922000Y-109812667D01*
X137922000Y-110299500D01*
X137725777Y-110299500D01*
X137725777Y-109220000D01*
X137922000Y-109220000D01*
X137922000Y-109664500D01*
G36*
X136561191Y-109571770D02*
G01*
X136635086Y-109693147D01*
X136690560Y-109781942D01*
X136730851Y-109842317D01*
X136759194Y-109878432D01*
X136778827Y-109894449D01*
X136792986Y-109894528D01*
X136804055Y-109883978D01*
X136824645Y-109852979D01*
X136862663Y-109792282D01*
X136913801Y-109708894D01*
X136973755Y-109609819D01*
X137020259Y-109532208D01*
X137206563Y-109220000D01*
X137376936Y-109220000D01*
X137376936Y-110299500D01*
X137181793Y-110299500D01*
X137169811Y-109611584D01*
X137000265Y-109892042D01*
X136924420Y-110016335D01*
X136865289Y-110104361D01*
X136817149Y-110156151D01*
X136774278Y-110171737D01*
X136730955Y-110151153D01*
X136681457Y-110094431D01*
X136620063Y-110001602D01*
X136554389Y-109894561D01*
X136384918Y-109616622D01*
X136378928Y-109958061D01*
X136372937Y-110299500D01*
X136177794Y-110299500D01*
X136177794Y-109220000D01*
X136348228Y-109220000D01*
X136561191Y-109571770D01*
G37*
X136561191Y-109571770D02*
X136635086Y-109693147D01*
X136690560Y-109781942D01*
X136730851Y-109842317D01*
X136759194Y-109878432D01*
X136778827Y-109894449D01*
X136792986Y-109894528D01*
X136804055Y-109883978D01*
X136824645Y-109852979D01*
X136862663Y-109792282D01*
X136913801Y-109708894D01*
X136973755Y-109609819D01*
X137020259Y-109532208D01*
X137206563Y-109220000D01*
X137376936Y-109220000D01*
X137376936Y-110299500D01*
X137181793Y-110299500D01*
X137169811Y-109611584D01*
X137000265Y-109892042D01*
X136924420Y-110016335D01*
X136865289Y-110104361D01*
X136817149Y-110156151D01*
X136774278Y-110171737D01*
X136730955Y-110151153D01*
X136681457Y-110094431D01*
X136620063Y-110001602D01*
X136554389Y-109894561D01*
X136384918Y-109616622D01*
X136378928Y-109958061D01*
X136372937Y-110299500D01*
X136177794Y-110299500D01*
X136177794Y-109220000D01*
X136348228Y-109220000D01*
X136561191Y-109571770D01*
G36*
X135480318Y-109278209D02*
G01*
X135471675Y-109313180D01*
X135447272Y-109380603D01*
X135409579Y-109474469D01*
X135361063Y-109588773D01*
X135304196Y-109717508D01*
X135258452Y-109817959D01*
X135036379Y-110299500D01*
X134931207Y-110299500D01*
X134870268Y-110298023D01*
X134832306Y-110294258D01*
X134826034Y-110291565D01*
X134834723Y-110270894D01*
X134859083Y-110217286D01*
X134896553Y-110136264D01*
X134944574Y-110033347D01*
X135000585Y-109914055D01*
X135033159Y-109844969D01*
X135092544Y-109718395D01*
X135145281Y-109604453D01*
X135188790Y-109508841D01*
X135220495Y-109437257D01*
X135237816Y-109395397D01*
X135240283Y-109387237D01*
X135220023Y-109379232D01*
X135165394Y-109372882D01*
X135085624Y-109368993D01*
X135022257Y-109368167D01*
X134804232Y-109368167D01*
X134804232Y-109558667D01*
X134608008Y-109558667D01*
X134608008Y-109220000D01*
X135480111Y-109220000D01*
X135480318Y-109278209D01*
G37*
X135480318Y-109278209D02*
X135471675Y-109313180D01*
X135447272Y-109380603D01*
X135409579Y-109474469D01*
X135361063Y-109588773D01*
X135304196Y-109717508D01*
X135258452Y-109817959D01*
X135036379Y-110299500D01*
X134931207Y-110299500D01*
X134870268Y-110298023D01*
X134832306Y-110294258D01*
X134826034Y-110291565D01*
X134834723Y-110270894D01*
X134859083Y-110217286D01*
X134896553Y-110136264D01*
X134944574Y-110033347D01*
X135000585Y-109914055D01*
X135033159Y-109844969D01*
X135092544Y-109718395D01*
X135145281Y-109604453D01*
X135188790Y-109508841D01*
X135220495Y-109437257D01*
X135237816Y-109395397D01*
X135240283Y-109387237D01*
X135220023Y-109379232D01*
X135165394Y-109372882D01*
X135085624Y-109368993D01*
X135022257Y-109368167D01*
X134804232Y-109368167D01*
X134804232Y-109558667D01*
X134608008Y-109558667D01*
X134608008Y-109220000D01*
X135480111Y-109220000D01*
X135480318Y-109278209D01*
G36*
X133474275Y-110299500D02*
G01*
X133278051Y-110299500D01*
X133278051Y-109368167D01*
X133038223Y-109368167D01*
X133038223Y-109220000D01*
X133474275Y-109220000D01*
X133474275Y-110299500D01*
G37*
X133474275Y-110299500D02*
X133278051Y-110299500D01*
X133278051Y-109368167D01*
X133038223Y-109368167D01*
X133038223Y-109220000D01*
X133474275Y-109220000D01*
X133474275Y-110299500D01*
G36*
X145277262Y-109220651D02*
G01*
X145383931Y-109248209D01*
X145442682Y-109271224D01*
X145480210Y-109287863D01*
X145487493Y-109292676D01*
X145479824Y-109323628D01*
X145461965Y-109368579D01*
X145441638Y-109410241D01*
X145426569Y-109431328D01*
X145425404Y-109431656D01*
X145398852Y-109424651D01*
X145344718Y-109406520D01*
X145291270Y-109387260D01*
X145168089Y-109355708D01*
X145054076Y-109353026D01*
X144958271Y-109378650D01*
X144909014Y-109411149D01*
X144861232Y-109471497D01*
X144855718Y-109527213D01*
X144892749Y-109578618D01*
X144972604Y-109626029D01*
X145095563Y-109669766D01*
X145147358Y-109683888D01*
X145294245Y-109728093D01*
X145401473Y-109776967D01*
X145472978Y-109834177D01*
X145512694Y-109903392D01*
X145524557Y-109988277D01*
X145521820Y-110032904D01*
X145493679Y-110136609D01*
X145431866Y-110216870D01*
X145348687Y-110271580D01*
X145285061Y-110291321D01*
X145192861Y-110305074D01*
X145086801Y-110311940D01*
X144981596Y-110311023D01*
X144891961Y-110301427D01*
X144884138Y-110299897D01*
X144803942Y-110277826D01*
X144728320Y-110247906D01*
X144671294Y-110216337D01*
X144649738Y-110196249D01*
X144647914Y-110165674D01*
X144659337Y-110118772D01*
X144677853Y-110073298D01*
X144697309Y-110047007D01*
X144701987Y-110045500D01*
X144728965Y-110055132D01*
X144780633Y-110079951D01*
X144825219Y-110103463D01*
X144899784Y-110138368D01*
X144972141Y-110156101D01*
X145063645Y-110161599D01*
X145076880Y-110161672D01*
X145160375Y-110159505D01*
X145214891Y-110150182D01*
X145254910Y-110129989D01*
X145279545Y-110109698D01*
X145323595Y-110047830D01*
X145325209Y-109985208D01*
X145284689Y-109927628D01*
X145269468Y-109915727D01*
X145224041Y-109892436D01*
X145149664Y-109863557D01*
X145059614Y-109834062D01*
X145023075Y-109823454D01*
X144899252Y-109785869D01*
X144810902Y-109750617D01*
X144750451Y-109713293D01*
X144710321Y-109669494D01*
X144688725Y-109629103D01*
X144662523Y-109519823D01*
X144677753Y-109417429D01*
X144732250Y-109328016D01*
X144819965Y-109259789D01*
X144908981Y-109227862D01*
X145024542Y-109210498D01*
X145152139Y-109207995D01*
X145277262Y-109220651D01*
G37*
X145277262Y-109220651D02*
X145383931Y-109248209D01*
X145442682Y-109271224D01*
X145480210Y-109287863D01*
X145487493Y-109292676D01*
X145479824Y-109323628D01*
X145461965Y-109368579D01*
X145441638Y-109410241D01*
X145426569Y-109431328D01*
X145425404Y-109431656D01*
X145398852Y-109424651D01*
X145344718Y-109406520D01*
X145291270Y-109387260D01*
X145168089Y-109355708D01*
X145054076Y-109353026D01*
X144958271Y-109378650D01*
X144909014Y-109411149D01*
X144861232Y-109471497D01*
X144855718Y-109527213D01*
X144892749Y-109578618D01*
X144972604Y-109626029D01*
X145095563Y-109669766D01*
X145147358Y-109683888D01*
X145294245Y-109728093D01*
X145401473Y-109776967D01*
X145472978Y-109834177D01*
X145512694Y-109903392D01*
X145524557Y-109988277D01*
X145521820Y-110032904D01*
X145493679Y-110136609D01*
X145431866Y-110216870D01*
X145348687Y-110271580D01*
X145285061Y-110291321D01*
X145192861Y-110305074D01*
X145086801Y-110311940D01*
X144981596Y-110311023D01*
X144891961Y-110301427D01*
X144884138Y-110299897D01*
X144803942Y-110277826D01*
X144728320Y-110247906D01*
X144671294Y-110216337D01*
X144649738Y-110196249D01*
X144647914Y-110165674D01*
X144659337Y-110118772D01*
X144677853Y-110073298D01*
X144697309Y-110047007D01*
X144701987Y-110045500D01*
X144728965Y-110055132D01*
X144780633Y-110079951D01*
X144825219Y-110103463D01*
X144899784Y-110138368D01*
X144972141Y-110156101D01*
X145063645Y-110161599D01*
X145076880Y-110161672D01*
X145160375Y-110159505D01*
X145214891Y-110150182D01*
X145254910Y-110129989D01*
X145279545Y-110109698D01*
X145323595Y-110047830D01*
X145325209Y-109985208D01*
X145284689Y-109927628D01*
X145269468Y-109915727D01*
X145224041Y-109892436D01*
X145149664Y-109863557D01*
X145059614Y-109834062D01*
X145023075Y-109823454D01*
X144899252Y-109785869D01*
X144810902Y-109750617D01*
X144750451Y-109713293D01*
X144710321Y-109669494D01*
X144688725Y-109629103D01*
X144662523Y-109519823D01*
X144677753Y-109417429D01*
X144732250Y-109328016D01*
X144819965Y-109259789D01*
X144908981Y-109227862D01*
X145024542Y-109210498D01*
X145152139Y-109207995D01*
X145277262Y-109220651D01*
G36*
X134477193Y-109280953D02*
G01*
X134464455Y-109330543D01*
X134424476Y-109398888D01*
X134354609Y-109490451D01*
X134348667Y-109497679D01*
X134220142Y-109653452D01*
X134332316Y-109706601D01*
X134431688Y-109769626D01*
X134491766Y-109848210D01*
X134515431Y-109947160D01*
X134514149Y-110010035D01*
X134486366Y-110124159D01*
X134425479Y-110211201D01*
X134331165Y-110271409D01*
X134203101Y-110305032D01*
X134120463Y-110312196D01*
X134036328Y-110313833D01*
X133964865Y-110312342D01*
X133921436Y-110308048D01*
X133921227Y-110307999D01*
X133865107Y-110290434D01*
X133799460Y-110263838D01*
X133736801Y-110234152D01*
X133689646Y-110207316D01*
X133670509Y-110189268D01*
X133670498Y-110188998D01*
X133679765Y-110157645D01*
X133701555Y-110112519D01*
X133726850Y-110070007D01*
X133746636Y-110046497D01*
X133749452Y-110045500D01*
X133773828Y-110056620D01*
X133817320Y-110083883D01*
X133824537Y-110088816D01*
X133883061Y-110118542D01*
X133961632Y-110145555D01*
X134003839Y-110155884D01*
X134078488Y-110168144D01*
X134132071Y-110166283D01*
X134185216Y-110148584D01*
X134206064Y-110139027D01*
X134282275Y-110084655D01*
X134319362Y-110013894D01*
X134316490Y-109932441D01*
X134280442Y-109875426D01*
X134210560Y-109834758D01*
X134114684Y-109814322D01*
X134074928Y-109812667D01*
X134014208Y-109811044D01*
X133985292Y-109800628D01*
X133976384Y-109773098D01*
X133975734Y-109742702D01*
X133983548Y-109696008D01*
X134010387Y-109642414D01*
X134061348Y-109572950D01*
X134095648Y-109531600D01*
X134149689Y-109466791D01*
X134191081Y-109414859D01*
X134213407Y-109383954D01*
X134215562Y-109379315D01*
X134195195Y-109374926D01*
X134139832Y-109371350D01*
X134058080Y-109368971D01*
X133964833Y-109368167D01*
X133714103Y-109368167D01*
X133714103Y-109220000D01*
X134477193Y-109220000D01*
X134477193Y-109280953D01*
G37*
X134477193Y-109280953D02*
X134464455Y-109330543D01*
X134424476Y-109398888D01*
X134354609Y-109490451D01*
X134348667Y-109497679D01*
X134220142Y-109653452D01*
X134332316Y-109706601D01*
X134431688Y-109769626D01*
X134491766Y-109848210D01*
X134515431Y-109947160D01*
X134514149Y-110010035D01*
X134486366Y-110124159D01*
X134425479Y-110211201D01*
X134331165Y-110271409D01*
X134203101Y-110305032D01*
X134120463Y-110312196D01*
X134036328Y-110313833D01*
X133964865Y-110312342D01*
X133921436Y-110308048D01*
X133921227Y-110307999D01*
X133865107Y-110290434D01*
X133799460Y-110263838D01*
X133736801Y-110234152D01*
X133689646Y-110207316D01*
X133670509Y-110189268D01*
X133670498Y-110188998D01*
X133679765Y-110157645D01*
X133701555Y-110112519D01*
X133726850Y-110070007D01*
X133746636Y-110046497D01*
X133749452Y-110045500D01*
X133773828Y-110056620D01*
X133817320Y-110083883D01*
X133824537Y-110088816D01*
X133883061Y-110118542D01*
X133961632Y-110145555D01*
X134003839Y-110155884D01*
X134078488Y-110168144D01*
X134132071Y-110166283D01*
X134185216Y-110148584D01*
X134206064Y-110139027D01*
X134282275Y-110084655D01*
X134319362Y-110013894D01*
X134316490Y-109932441D01*
X134280442Y-109875426D01*
X134210560Y-109834758D01*
X134114684Y-109814322D01*
X134074928Y-109812667D01*
X134014208Y-109811044D01*
X133985292Y-109800628D01*
X133976384Y-109773098D01*
X133975734Y-109742702D01*
X133983548Y-109696008D01*
X134010387Y-109642414D01*
X134061348Y-109572950D01*
X134095648Y-109531600D01*
X134149689Y-109466791D01*
X134191081Y-109414859D01*
X134213407Y-109383954D01*
X134215562Y-109379315D01*
X134195195Y-109374926D01*
X134139832Y-109371350D01*
X134058080Y-109368971D01*
X133964833Y-109368167D01*
X133714103Y-109368167D01*
X133714103Y-109220000D01*
X134477193Y-109220000D01*
X134477193Y-109280953D01*
G36*
X169078206Y-81928713D02*
G01*
X169110902Y-81995458D01*
X169135425Y-82053227D01*
X169136773Y-82056829D01*
X169190733Y-82221762D01*
X169228661Y-82383143D01*
X169250743Y-82543276D01*
X169257164Y-82704462D01*
X169248113Y-82869007D01*
X169223773Y-83039212D01*
X169218487Y-83067054D01*
X169208003Y-83116851D01*
X169199301Y-83149825D01*
X169192149Y-83166643D01*
X169186311Y-83167969D01*
X169184184Y-83164041D01*
X169180258Y-83152935D01*
X169172377Y-83130029D01*
X169162766Y-83101797D01*
X169146962Y-83057845D01*
X169125274Y-83001336D01*
X169099210Y-82935925D01*
X169070275Y-82865269D01*
X169039980Y-82793024D01*
X169009830Y-82722843D01*
X168981334Y-82658385D01*
X168966281Y-82625328D01*
X168912169Y-82510219D01*
X168859292Y-82402465D01*
X168805473Y-82297978D01*
X168748540Y-82192675D01*
X168686317Y-82082471D01*
X168616632Y-81963281D01*
X168590509Y-81919410D01*
X168503677Y-81776490D01*
X168421598Y-81646520D01*
X168341928Y-81526108D01*
X168262327Y-81411862D01*
X168180453Y-81300389D01*
X168093965Y-81188296D01*
X168034303Y-81113670D01*
X168005922Y-81078095D01*
X167982219Y-81047406D01*
X167965170Y-81024239D01*
X167956752Y-81011229D01*
X167956216Y-81009534D01*
X167964851Y-81008519D01*
X167986926Y-81013663D01*
X168019797Y-81023950D01*
X168060823Y-81038362D01*
X168107362Y-81055880D01*
X168156772Y-81075489D01*
X168206411Y-81096169D01*
X168253639Y-81116902D01*
X168295813Y-81136673D01*
X168325072Y-81151615D01*
X168447069Y-81222744D01*
X168558694Y-81299740D01*
X168663326Y-81385396D01*
X168764339Y-81482506D01*
X168865111Y-81593865D01*
X168878147Y-81609269D01*
X168914839Y-81657071D01*
X168955650Y-81717172D01*
X168998121Y-81785316D01*
X169039791Y-81857248D01*
X169078206Y-81928713D01*
G37*
X169078206Y-81928713D02*
X169110902Y-81995458D01*
X169135425Y-82053227D01*
X169136773Y-82056829D01*
X169190733Y-82221762D01*
X169228661Y-82383143D01*
X169250743Y-82543276D01*
X169257164Y-82704462D01*
X169248113Y-82869007D01*
X169223773Y-83039212D01*
X169218487Y-83067054D01*
X169208003Y-83116851D01*
X169199301Y-83149825D01*
X169192149Y-83166643D01*
X169186311Y-83167969D01*
X169184184Y-83164041D01*
X169180258Y-83152935D01*
X169172377Y-83130029D01*
X169162766Y-83101797D01*
X169146962Y-83057845D01*
X169125274Y-83001336D01*
X169099210Y-82935925D01*
X169070275Y-82865269D01*
X169039980Y-82793024D01*
X169009830Y-82722843D01*
X168981334Y-82658385D01*
X168966281Y-82625328D01*
X168912169Y-82510219D01*
X168859292Y-82402465D01*
X168805473Y-82297978D01*
X168748540Y-82192675D01*
X168686317Y-82082471D01*
X168616632Y-81963281D01*
X168590509Y-81919410D01*
X168503677Y-81776490D01*
X168421598Y-81646520D01*
X168341928Y-81526108D01*
X168262327Y-81411862D01*
X168180453Y-81300389D01*
X168093965Y-81188296D01*
X168034303Y-81113670D01*
X168005922Y-81078095D01*
X167982219Y-81047406D01*
X167965170Y-81024239D01*
X167956752Y-81011229D01*
X167956216Y-81009534D01*
X167964851Y-81008519D01*
X167986926Y-81013663D01*
X168019797Y-81023950D01*
X168060823Y-81038362D01*
X168107362Y-81055880D01*
X168156772Y-81075489D01*
X168206411Y-81096169D01*
X168253639Y-81116902D01*
X168295813Y-81136673D01*
X168325072Y-81151615D01*
X168447069Y-81222744D01*
X168558694Y-81299740D01*
X168663326Y-81385396D01*
X168764339Y-81482506D01*
X168865111Y-81593865D01*
X168878147Y-81609269D01*
X168914839Y-81657071D01*
X168955650Y-81717172D01*
X168998121Y-81785316D01*
X169039791Y-81857248D01*
X169078206Y-81928713D01*
G36*
X168606389Y-82202943D02*
G01*
X168707868Y-82388288D01*
X168805282Y-82576054D01*
X168897996Y-82765413D01*
X168898154Y-82765747D01*
X168984087Y-82952391D01*
X169061808Y-83132767D01*
X169131153Y-83306192D01*
X169191956Y-83471984D01*
X169244054Y-83629463D01*
X169287283Y-83777946D01*
X169321479Y-83916753D01*
X169346477Y-84045201D01*
X169362112Y-84162608D01*
X169368221Y-84268293D01*
X169364639Y-84361574D01*
X169351202Y-84441770D01*
X169327745Y-84508199D01*
X169321261Y-84520828D01*
X169288126Y-84563754D01*
X169244166Y-84594265D01*
X169192920Y-84610316D01*
X169162929Y-84612241D01*
X169095064Y-84602802D01*
X169020164Y-84577676D01*
X168938734Y-84537325D01*
X168851274Y-84482208D01*
X168758288Y-84412788D01*
X168660278Y-84329526D01*
X168557744Y-84232882D01*
X168451191Y-84123318D01*
X168341118Y-84001294D01*
X168228031Y-83867273D01*
X168112428Y-83721716D01*
X167994813Y-83565082D01*
X167939770Y-83488873D01*
X167905862Y-83441107D01*
X167873281Y-83394750D01*
X167844324Y-83353106D01*
X167821292Y-83319481D01*
X167806987Y-83297969D01*
X167775628Y-83249182D01*
X167807030Y-83197538D01*
X167823889Y-83170469D01*
X167835724Y-83155060D01*
X167846414Y-83148069D01*
X167859837Y-83146253D01*
X167868353Y-83146268D01*
X167897153Y-83140349D01*
X167915248Y-83121262D01*
X167923087Y-83088288D01*
X167922893Y-83059065D01*
X167914156Y-82993760D01*
X167896172Y-82922358D01*
X167868336Y-82843204D01*
X167830042Y-82754646D01*
X167780685Y-82655029D01*
X167761717Y-82619170D01*
X167699580Y-82509512D01*
X167636486Y-82410060D01*
X167573519Y-82322229D01*
X167511760Y-82247438D01*
X167452294Y-82187102D01*
X167398769Y-82144367D01*
X167358957Y-82120950D01*
X167328378Y-82111771D01*
X167305542Y-82116839D01*
X167288959Y-82136162D01*
X167284826Y-82145122D01*
X167273552Y-82172917D01*
X167218509Y-82175342D01*
X167188943Y-82175980D01*
X167166588Y-82175229D01*
X167157067Y-82173515D01*
X167151239Y-82164374D01*
X167139358Y-82141944D01*
X167122878Y-82109099D01*
X167103255Y-82068710D01*
X167091464Y-82043931D01*
X167006303Y-81857814D01*
X166929243Y-81677411D01*
X166860511Y-81503554D01*
X166800333Y-81337070D01*
X166748937Y-81178790D01*
X166706548Y-81029540D01*
X166673394Y-80890152D01*
X166649700Y-80761455D01*
X166635694Y-80644277D01*
X166631602Y-80539447D01*
X166637651Y-80447795D01*
X166644352Y-80408111D01*
X166659227Y-80350948D01*
X166678038Y-80307697D01*
X166703061Y-80274636D01*
X166736574Y-80248039D01*
X166745617Y-80242507D01*
X166786538Y-80224323D01*
X166830298Y-80217479D01*
X166880342Y-80221951D01*
X166940114Y-80237717D01*
X166950486Y-80241176D01*
X167030248Y-80275367D01*
X167116152Y-80325205D01*
X167207557Y-80389863D01*
X167303828Y-80468515D01*
X167404326Y-80560334D01*
X167508412Y-80664493D01*
X167615451Y-80780166D01*
X167724804Y-80906526D01*
X167835832Y-81042746D01*
X167947898Y-81188000D01*
X168060365Y-81341462D01*
X168172595Y-81502303D01*
X168283950Y-81669698D01*
X168393793Y-81842821D01*
X168501485Y-82020846D01*
X168606389Y-82202943D01*
G37*
X168606389Y-82202943D02*
X168707868Y-82388288D01*
X168805282Y-82576054D01*
X168897996Y-82765413D01*
X168898154Y-82765747D01*
X168984087Y-82952391D01*
X169061808Y-83132767D01*
X169131153Y-83306192D01*
X169191956Y-83471984D01*
X169244054Y-83629463D01*
X169287283Y-83777946D01*
X169321479Y-83916753D01*
X169346477Y-84045201D01*
X169362112Y-84162608D01*
X169368221Y-84268293D01*
X169364639Y-84361574D01*
X169351202Y-84441770D01*
X169327745Y-84508199D01*
X169321261Y-84520828D01*
X169288126Y-84563754D01*
X169244166Y-84594265D01*
X169192920Y-84610316D01*
X169162929Y-84612241D01*
X169095064Y-84602802D01*
X169020164Y-84577676D01*
X168938734Y-84537325D01*
X168851274Y-84482208D01*
X168758288Y-84412788D01*
X168660278Y-84329526D01*
X168557744Y-84232882D01*
X168451191Y-84123318D01*
X168341118Y-84001294D01*
X168228031Y-83867273D01*
X168112428Y-83721716D01*
X167994813Y-83565082D01*
X167939770Y-83488873D01*
X167905862Y-83441107D01*
X167873281Y-83394750D01*
X167844324Y-83353106D01*
X167821292Y-83319481D01*
X167806987Y-83297969D01*
X167775628Y-83249182D01*
X167807030Y-83197538D01*
X167823889Y-83170469D01*
X167835724Y-83155060D01*
X167846414Y-83148069D01*
X167859837Y-83146253D01*
X167868353Y-83146268D01*
X167897153Y-83140349D01*
X167915248Y-83121262D01*
X167923087Y-83088288D01*
X167922893Y-83059065D01*
X167914156Y-82993760D01*
X167896172Y-82922358D01*
X167868336Y-82843204D01*
X167830042Y-82754646D01*
X167780685Y-82655029D01*
X167761717Y-82619170D01*
X167699580Y-82509512D01*
X167636486Y-82410060D01*
X167573519Y-82322229D01*
X167511760Y-82247438D01*
X167452294Y-82187102D01*
X167398769Y-82144367D01*
X167358957Y-82120950D01*
X167328378Y-82111771D01*
X167305542Y-82116839D01*
X167288959Y-82136162D01*
X167284826Y-82145122D01*
X167273552Y-82172917D01*
X167218509Y-82175342D01*
X167188943Y-82175980D01*
X167166588Y-82175229D01*
X167157067Y-82173515D01*
X167151239Y-82164374D01*
X167139358Y-82141944D01*
X167122878Y-82109099D01*
X167103255Y-82068710D01*
X167091464Y-82043931D01*
X167006303Y-81857814D01*
X166929243Y-81677411D01*
X166860511Y-81503554D01*
X166800333Y-81337070D01*
X166748937Y-81178790D01*
X166706548Y-81029540D01*
X166673394Y-80890152D01*
X166649700Y-80761455D01*
X166635694Y-80644277D01*
X166631602Y-80539447D01*
X166637651Y-80447795D01*
X166644352Y-80408111D01*
X166659227Y-80350948D01*
X166678038Y-80307697D01*
X166703061Y-80274636D01*
X166736574Y-80248039D01*
X166745617Y-80242507D01*
X166786538Y-80224323D01*
X166830298Y-80217479D01*
X166880342Y-80221951D01*
X166940114Y-80237717D01*
X166950486Y-80241176D01*
X167030248Y-80275367D01*
X167116152Y-80325205D01*
X167207557Y-80389863D01*
X167303828Y-80468515D01*
X167404326Y-80560334D01*
X167508412Y-80664493D01*
X167615451Y-80780166D01*
X167724804Y-80906526D01*
X167835832Y-81042746D01*
X167947898Y-81188000D01*
X168060365Y-81341462D01*
X168172595Y-81502303D01*
X168283950Y-81669698D01*
X168393793Y-81842821D01*
X168501485Y-82020846D01*
X168606389Y-82202943D01*
D13*
%TO.C,C9*%
X145950000Y-81018748D02*
X145950000Y-81541252D01*
X147420000Y-81018748D02*
X147420000Y-81541252D01*
%TO.C,C8*%
X136188750Y-89133750D02*
X136976250Y-89133750D01*
X136582500Y-89527500D02*
X136582500Y-88740000D01*
X140775563Y-88500000D02*
X141840000Y-87435563D01*
X136084437Y-88500000D02*
X135020000Y-87435563D01*
X136084437Y-88500000D02*
X137370000Y-88500000D01*
X140775563Y-88500000D02*
X139490000Y-88500000D01*
X141840000Y-87435563D02*
X141840000Y-81680000D01*
X135020000Y-87435563D02*
X135020000Y-81680000D01*
X135020000Y-81680000D02*
X137370000Y-81680000D01*
X141840000Y-81680000D02*
X139490000Y-81680000D01*
%TO.C,U1*%
X145195000Y-85165000D02*
X143505000Y-85165000D01*
X145195000Y-84420000D02*
X145195000Y-85165000D01*
X147955000Y-84420000D02*
X145195000Y-84420000D01*
X150715000Y-84420000D02*
X150715000Y-85165000D01*
X147955000Y-84420000D02*
X150715000Y-84420000D01*
X145195000Y-90840000D02*
X145195000Y-90095000D01*
X147955000Y-90840000D02*
X145195000Y-90840000D01*
X150715000Y-90840000D02*
X150715000Y-90095000D01*
X147955000Y-90840000D02*
X150715000Y-90840000D01*
%TO.C,C7*%
X155040000Y-86301252D02*
X155040000Y-85778748D01*
X153570000Y-86301252D02*
X153570000Y-85778748D01*
%TO.C,C6*%
X153613752Y-81815000D02*
X153091248Y-81815000D01*
X153613752Y-83285000D02*
X153091248Y-83285000D01*
%TO.C,J1*%
X123090000Y-101985000D02*
X122590000Y-102235000D01*
X123090000Y-102485000D02*
X123090000Y-101985000D01*
X122590000Y-102235000D02*
X123090000Y-102485000D01*
%TO.C,R1*%
X132475500Y-87679298D02*
X132475500Y-87204782D01*
X131430500Y-87679298D02*
X131430500Y-87204782D01*
%TO.C,D4*%
X130993000Y-81947040D02*
X130993000Y-84632040D01*
X132913000Y-81947040D02*
X130993000Y-81947040D01*
X132913000Y-84632040D02*
X132913000Y-81947040D01*
%TO.C,J2*%
X163930000Y-102485000D02*
X164430000Y-102235000D01*
X163930000Y-101985000D02*
X163930000Y-102485000D01*
X164430000Y-102235000D02*
X163930000Y-101985000D01*
%TO.C,L3*%
X139768948Y-104335600D02*
X140291452Y-104335600D01*
X139768948Y-102115600D02*
X140291452Y-102115600D01*
%TO.C,U2*%
X142060000Y-99104000D02*
X141830000Y-99104000D01*
X137340000Y-99104000D02*
X137570000Y-99104000D01*
X137340000Y-99104000D02*
X137340000Y-96384000D01*
X137340000Y-96384000D02*
X138650000Y-96384000D01*
X137570000Y-100244000D02*
X137570000Y-99104000D01*
X142060000Y-96384000D02*
X142060000Y-99104000D01*
X140750000Y-96384000D02*
X142060000Y-96384000D01*
%TO.C,P1*%
X126655000Y-80975000D02*
X126655000Y-82475000D01*
X126655000Y-80975000D02*
X119395000Y-80975000D01*
X126655000Y-90475000D02*
X119395000Y-90475000D01*
X126655000Y-88975000D02*
X126655000Y-90475000D01*
D14*
%TO.C,D3*%
X157504600Y-102777500D02*
G75*
G03*
X157504600Y-102777500I-50000J0D01*
G01*
%TO.C,D2*%
X130044660Y-88804960D02*
G75*
G03*
X130044660Y-88804960I-50000J0D01*
G01*
%TO.C,D1*%
X129590000Y-99155000D02*
G75*
G03*
X129590000Y-99155000I-50000J0D01*
G01*
D13*
%TO.C,C5*%
X158912928Y-82284860D02*
X159435432Y-82284860D01*
X158912928Y-80814860D02*
X159435432Y-80814860D01*
%TO.C,C4*%
X145041252Y-98960000D02*
X144518748Y-98960000D01*
X145041252Y-100430000D02*
X144518748Y-100430000D01*
%TO.C,C3*%
X158912928Y-87284860D02*
X159435432Y-87284860D01*
X158912928Y-85814860D02*
X159435432Y-85814860D01*
%TO.C,C2*%
X149125000Y-81018748D02*
X149125000Y-81541252D01*
X150595000Y-81018748D02*
X150595000Y-81541252D01*
%TO.C,C1*%
X132849252Y-98960000D02*
X132326748Y-98960000D01*
X132849252Y-100430000D02*
X132326748Y-100430000D01*
%TD*%
%TO.C,C9*%
D10*
X143978333Y-81637142D02*
X143930714Y-81684761D01*
X143787857Y-81732380D01*
X143692619Y-81732380D01*
X143549761Y-81684761D01*
X143454523Y-81589523D01*
X143406904Y-81494285D01*
X143359285Y-81303809D01*
X143359285Y-81160952D01*
X143406904Y-80970476D01*
X143454523Y-80875238D01*
X143549761Y-80780000D01*
X143692619Y-80732380D01*
X143787857Y-80732380D01*
X143930714Y-80780000D01*
X143978333Y-80827619D01*
X144454523Y-81732380D02*
X144645000Y-81732380D01*
X144740238Y-81684761D01*
X144787857Y-81637142D01*
X144883095Y-81494285D01*
X144930714Y-81303809D01*
X144930714Y-80922857D01*
X144883095Y-80827619D01*
X144835476Y-80780000D01*
X144740238Y-80732380D01*
X144549761Y-80732380D01*
X144454523Y-80780000D01*
X144406904Y-80827619D01*
X144359285Y-80922857D01*
X144359285Y-81160952D01*
X144406904Y-81256190D01*
X144454523Y-81303809D01*
X144549761Y-81351428D01*
X144740238Y-81351428D01*
X144835476Y-81303809D01*
X144883095Y-81256190D01*
X144930714Y-81160952D01*
%TO.C,C8*%
X135723333Y-81002142D02*
X135675714Y-81049761D01*
X135532857Y-81097380D01*
X135437619Y-81097380D01*
X135294761Y-81049761D01*
X135199523Y-80954523D01*
X135151904Y-80859285D01*
X135104285Y-80668809D01*
X135104285Y-80525952D01*
X135151904Y-80335476D01*
X135199523Y-80240238D01*
X135294761Y-80145000D01*
X135437619Y-80097380D01*
X135532857Y-80097380D01*
X135675714Y-80145000D01*
X135723333Y-80192619D01*
X136294761Y-80525952D02*
X136199523Y-80478333D01*
X136151904Y-80430714D01*
X136104285Y-80335476D01*
X136104285Y-80287857D01*
X136151904Y-80192619D01*
X136199523Y-80145000D01*
X136294761Y-80097380D01*
X136485238Y-80097380D01*
X136580476Y-80145000D01*
X136628095Y-80192619D01*
X136675714Y-80287857D01*
X136675714Y-80335476D01*
X136628095Y-80430714D01*
X136580476Y-80478333D01*
X136485238Y-80525952D01*
X136294761Y-80525952D01*
X136199523Y-80573571D01*
X136151904Y-80621190D01*
X136104285Y-80716428D01*
X136104285Y-80906904D01*
X136151904Y-81002142D01*
X136199523Y-81049761D01*
X136294761Y-81097380D01*
X136485238Y-81097380D01*
X136580476Y-81049761D01*
X136628095Y-81002142D01*
X136675714Y-80906904D01*
X136675714Y-80716428D01*
X136628095Y-80621190D01*
X136580476Y-80573571D01*
X136485238Y-80525952D01*
%TO.C,Shield*%
X155106952Y-95146761D02*
X155249809Y-95194380D01*
X155487904Y-95194380D01*
X155583142Y-95146761D01*
X155630761Y-95099142D01*
X155678380Y-95003904D01*
X155678380Y-94908666D01*
X155630761Y-94813428D01*
X155583142Y-94765809D01*
X155487904Y-94718190D01*
X155297428Y-94670571D01*
X155202190Y-94622952D01*
X155154571Y-94575333D01*
X155106952Y-94480095D01*
X155106952Y-94384857D01*
X155154571Y-94289619D01*
X155202190Y-94242000D01*
X155297428Y-94194380D01*
X155535523Y-94194380D01*
X155678380Y-94242000D01*
X156106952Y-95194380D02*
X156106952Y-94194380D01*
X156535523Y-95194380D02*
X156535523Y-94670571D01*
X156487904Y-94575333D01*
X156392666Y-94527714D01*
X156249809Y-94527714D01*
X156154571Y-94575333D01*
X156106952Y-94622952D01*
X157011714Y-95194380D02*
X157011714Y-94527714D01*
X157011714Y-94194380D02*
X156964095Y-94242000D01*
X157011714Y-94289619D01*
X157059333Y-94242000D01*
X157011714Y-94194380D01*
X157011714Y-94289619D01*
X157868857Y-95146761D02*
X157773619Y-95194380D01*
X157583142Y-95194380D01*
X157487904Y-95146761D01*
X157440285Y-95051523D01*
X157440285Y-94670571D01*
X157487904Y-94575333D01*
X157583142Y-94527714D01*
X157773619Y-94527714D01*
X157868857Y-94575333D01*
X157916476Y-94670571D01*
X157916476Y-94765809D01*
X157440285Y-94861047D01*
X158487904Y-95194380D02*
X158392666Y-95146761D01*
X158345047Y-95051523D01*
X158345047Y-94194380D01*
X159297428Y-95194380D02*
X159297428Y-94194380D01*
X159297428Y-95146761D02*
X159202190Y-95194380D01*
X159011714Y-95194380D01*
X158916476Y-95146761D01*
X158868857Y-95099142D01*
X158821238Y-95003904D01*
X158821238Y-94718190D01*
X158868857Y-94622952D01*
X158916476Y-94575333D01*
X159011714Y-94527714D01*
X159202190Y-94527714D01*
X159297428Y-94575333D01*
%TO.C,U1*%
X141478095Y-90257380D02*
X141478095Y-91066904D01*
X141525714Y-91162142D01*
X141573333Y-91209761D01*
X141668571Y-91257380D01*
X141859047Y-91257380D01*
X141954285Y-91209761D01*
X142001904Y-91162142D01*
X142049523Y-91066904D01*
X142049523Y-90257380D01*
X143049523Y-91257380D02*
X142478095Y-91257380D01*
X142763809Y-91257380D02*
X142763809Y-90257380D01*
X142668571Y-90400238D01*
X142573333Y-90495476D01*
X142478095Y-90543095D01*
%TO.C,C7*%
X154138333Y-89257142D02*
X154090714Y-89304761D01*
X153947857Y-89352380D01*
X153852619Y-89352380D01*
X153709761Y-89304761D01*
X153614523Y-89209523D01*
X153566904Y-89114285D01*
X153519285Y-88923809D01*
X153519285Y-88780952D01*
X153566904Y-88590476D01*
X153614523Y-88495238D01*
X153709761Y-88400000D01*
X153852619Y-88352380D01*
X153947857Y-88352380D01*
X154090714Y-88400000D01*
X154138333Y-88447619D01*
X154471666Y-88352380D02*
X155138333Y-88352380D01*
X154709761Y-89352380D01*
%TO.C,C6*%
X154773333Y-81002142D02*
X154725714Y-81049761D01*
X154582857Y-81097380D01*
X154487619Y-81097380D01*
X154344761Y-81049761D01*
X154249523Y-80954523D01*
X154201904Y-80859285D01*
X154154285Y-80668809D01*
X154154285Y-80525952D01*
X154201904Y-80335476D01*
X154249523Y-80240238D01*
X154344761Y-80145000D01*
X154487619Y-80097380D01*
X154582857Y-80097380D01*
X154725714Y-80145000D01*
X154773333Y-80192619D01*
X155630476Y-80097380D02*
X155440000Y-80097380D01*
X155344761Y-80145000D01*
X155297142Y-80192619D01*
X155201904Y-80335476D01*
X155154285Y-80525952D01*
X155154285Y-80906904D01*
X155201904Y-81002142D01*
X155249523Y-81049761D01*
X155344761Y-81097380D01*
X155535238Y-81097380D01*
X155630476Y-81049761D01*
X155678095Y-81002142D01*
X155725714Y-80906904D01*
X155725714Y-80668809D01*
X155678095Y-80573571D01*
X155630476Y-80525952D01*
X155535238Y-80478333D01*
X155344761Y-80478333D01*
X155249523Y-80525952D01*
X155201904Y-80573571D01*
X155154285Y-80668809D01*
%TO.C,J1*%
X123491666Y-105497380D02*
X123491666Y-106211666D01*
X123444047Y-106354523D01*
X123348809Y-106449761D01*
X123205952Y-106497380D01*
X123110714Y-106497380D01*
X124491666Y-106497380D02*
X123920238Y-106497380D01*
X124205952Y-106497380D02*
X124205952Y-105497380D01*
X124110714Y-105640238D01*
X124015476Y-105735476D01*
X123920238Y-105783095D01*
%TO.C,R1*%
X133183333Y-90622380D02*
X132850000Y-90146190D01*
X132611904Y-90622380D02*
X132611904Y-89622380D01*
X132992857Y-89622380D01*
X133088095Y-89670000D01*
X133135714Y-89717619D01*
X133183333Y-89812857D01*
X133183333Y-89955714D01*
X133135714Y-90050952D01*
X133088095Y-90098571D01*
X132992857Y-90146190D01*
X132611904Y-90146190D01*
X134135714Y-90622380D02*
X133564285Y-90622380D01*
X133850000Y-90622380D02*
X133850000Y-89622380D01*
X133754761Y-89765238D01*
X133659523Y-89860476D01*
X133564285Y-89908095D01*
%TO.C,D4*%
X129436904Y-81732380D02*
X129436904Y-80732380D01*
X129675000Y-80732380D01*
X129817857Y-80780000D01*
X129913095Y-80875238D01*
X129960714Y-80970476D01*
X130008333Y-81160952D01*
X130008333Y-81303809D01*
X129960714Y-81494285D01*
X129913095Y-81589523D01*
X129817857Y-81684761D01*
X129675000Y-81732380D01*
X129436904Y-81732380D01*
X130865476Y-81065714D02*
X130865476Y-81732380D01*
X130627380Y-80684761D02*
X130389285Y-81399047D01*
X131008333Y-81399047D01*
%TO.C,J2*%
X163242666Y-99782380D02*
X163242666Y-100496666D01*
X163195047Y-100639523D01*
X163099809Y-100734761D01*
X162956952Y-100782380D01*
X162861714Y-100782380D01*
X163671238Y-99877619D02*
X163718857Y-99830000D01*
X163814095Y-99782380D01*
X164052190Y-99782380D01*
X164147428Y-99830000D01*
X164195047Y-99877619D01*
X164242666Y-99972857D01*
X164242666Y-100068095D01*
X164195047Y-100210952D01*
X163623619Y-100782380D01*
X164242666Y-100782380D01*
%TO.C,L3*%
X136358333Y-105227380D02*
X135882142Y-105227380D01*
X135882142Y-104227380D01*
X136596428Y-104227380D02*
X137215476Y-104227380D01*
X136882142Y-104608333D01*
X137025000Y-104608333D01*
X137120238Y-104655952D01*
X137167857Y-104703571D01*
X137215476Y-104798809D01*
X137215476Y-105036904D01*
X137167857Y-105132142D01*
X137120238Y-105179761D01*
X137025000Y-105227380D01*
X136739285Y-105227380D01*
X136644047Y-105179761D01*
X136596428Y-105132142D01*
%TO.C,U3*%
X145288095Y-104100380D02*
X145288095Y-104909904D01*
X145335714Y-105005142D01*
X145383333Y-105052761D01*
X145478571Y-105100380D01*
X145669047Y-105100380D01*
X145764285Y-105052761D01*
X145811904Y-105005142D01*
X145859523Y-104909904D01*
X145859523Y-104100380D01*
X146240476Y-104100380D02*
X146859523Y-104100380D01*
X146526190Y-104481333D01*
X146669047Y-104481333D01*
X146764285Y-104528952D01*
X146811904Y-104576571D01*
X146859523Y-104671809D01*
X146859523Y-104909904D01*
X146811904Y-105005142D01*
X146764285Y-105052761D01*
X146669047Y-105100380D01*
X146383333Y-105100380D01*
X146288095Y-105052761D01*
X146240476Y-105005142D01*
%TO.C,U2*%
X135763095Y-94702380D02*
X135763095Y-95511904D01*
X135810714Y-95607142D01*
X135858333Y-95654761D01*
X135953571Y-95702380D01*
X136144047Y-95702380D01*
X136239285Y-95654761D01*
X136286904Y-95607142D01*
X136334523Y-95511904D01*
X136334523Y-94702380D01*
X136763095Y-94797619D02*
X136810714Y-94750000D01*
X136905952Y-94702380D01*
X137144047Y-94702380D01*
X137239285Y-94750000D01*
X137286904Y-94797619D01*
X137334523Y-94892857D01*
X137334523Y-94988095D01*
X137286904Y-95130952D01*
X136715476Y-95702380D01*
X137334523Y-95702380D01*
%TO.C,P1*%
X128166904Y-86177380D02*
X128166904Y-85177380D01*
X128547857Y-85177380D01*
X128643095Y-85225000D01*
X128690714Y-85272619D01*
X128738333Y-85367857D01*
X128738333Y-85510714D01*
X128690714Y-85605952D01*
X128643095Y-85653571D01*
X128547857Y-85701190D01*
X128166904Y-85701190D01*
X129690714Y-86177380D02*
X129119285Y-86177380D01*
X129405000Y-86177380D02*
X129405000Y-85177380D01*
X129309761Y-85320238D01*
X129214523Y-85415476D01*
X129119285Y-85463095D01*
%TO.C,L4*%
X161758333Y-84502240D02*
X161282142Y-84502240D01*
X161282142Y-83502240D01*
X162520238Y-83835574D02*
X162520238Y-84502240D01*
X162282142Y-83454621D02*
X162044047Y-84168907D01*
X162663095Y-84168907D01*
%TO.C,L2*%
X161758333Y-89352380D02*
X161282142Y-89352380D01*
X161282142Y-88352380D01*
X162044047Y-88447619D02*
X162091666Y-88400000D01*
X162186904Y-88352380D01*
X162425000Y-88352380D01*
X162520238Y-88400000D01*
X162567857Y-88447619D01*
X162615476Y-88542857D01*
X162615476Y-88638095D01*
X162567857Y-88780952D01*
X161996428Y-89352380D01*
X162615476Y-89352380D01*
%TO.C,L1*%
X135596333Y-98977380D02*
X135120142Y-98977380D01*
X135120142Y-97977380D01*
X136453476Y-98977380D02*
X135882047Y-98977380D01*
X136167761Y-98977380D02*
X136167761Y-97977380D01*
X136072523Y-98120238D01*
X135977285Y-98215476D01*
X135882047Y-98263095D01*
%TO.C,D3*%
X156741904Y-104592380D02*
X156741904Y-103592380D01*
X156980000Y-103592380D01*
X157122857Y-103640000D01*
X157218095Y-103735238D01*
X157265714Y-103830476D01*
X157313333Y-104020952D01*
X157313333Y-104163809D01*
X157265714Y-104354285D01*
X157218095Y-104449523D01*
X157122857Y-104544761D01*
X156980000Y-104592380D01*
X156741904Y-104592380D01*
X157646666Y-103592380D02*
X158265714Y-103592380D01*
X157932380Y-103973333D01*
X158075238Y-103973333D01*
X158170476Y-104020952D01*
X158218095Y-104068571D01*
X158265714Y-104163809D01*
X158265714Y-104401904D01*
X158218095Y-104497142D01*
X158170476Y-104544761D01*
X158075238Y-104592380D01*
X157789523Y-104592380D01*
X157694285Y-104544761D01*
X157646666Y-104497142D01*
%TO.C,D2*%
X128801904Y-90622380D02*
X128801904Y-89622380D01*
X129040000Y-89622380D01*
X129182857Y-89670000D01*
X129278095Y-89765238D01*
X129325714Y-89860476D01*
X129373333Y-90050952D01*
X129373333Y-90193809D01*
X129325714Y-90384285D01*
X129278095Y-90479523D01*
X129182857Y-90574761D01*
X129040000Y-90622380D01*
X128801904Y-90622380D01*
X129754285Y-89717619D02*
X129801904Y-89670000D01*
X129897142Y-89622380D01*
X130135238Y-89622380D01*
X130230476Y-89670000D01*
X130278095Y-89717619D01*
X130325714Y-89812857D01*
X130325714Y-89908095D01*
X130278095Y-90050952D01*
X129706666Y-90622380D01*
X130325714Y-90622380D01*
%TO.C,D1*%
X128801904Y-98242380D02*
X128801904Y-97242380D01*
X129040000Y-97242380D01*
X129182857Y-97290000D01*
X129278095Y-97385238D01*
X129325714Y-97480476D01*
X129373333Y-97670952D01*
X129373333Y-97813809D01*
X129325714Y-98004285D01*
X129278095Y-98099523D01*
X129182857Y-98194761D01*
X129040000Y-98242380D01*
X128801904Y-98242380D01*
X130325714Y-98242380D02*
X129754285Y-98242380D01*
X130040000Y-98242380D02*
X130040000Y-97242380D01*
X129944761Y-97385238D01*
X129849523Y-97480476D01*
X129754285Y-97528095D01*
%TO.C,C5*%
X159007513Y-80227002D02*
X158959894Y-80274621D01*
X158817037Y-80322240D01*
X158721799Y-80322240D01*
X158578941Y-80274621D01*
X158483703Y-80179383D01*
X158436084Y-80084145D01*
X158388465Y-79893669D01*
X158388465Y-79750812D01*
X158436084Y-79560336D01*
X158483703Y-79465098D01*
X158578941Y-79369860D01*
X158721799Y-79322240D01*
X158817037Y-79322240D01*
X158959894Y-79369860D01*
X159007513Y-79417479D01*
X159912275Y-79322240D02*
X159436084Y-79322240D01*
X159388465Y-79798431D01*
X159436084Y-79750812D01*
X159531322Y-79703193D01*
X159769418Y-79703193D01*
X159864656Y-79750812D01*
X159912275Y-79798431D01*
X159959894Y-79893669D01*
X159959894Y-80131764D01*
X159912275Y-80227002D01*
X159864656Y-80274621D01*
X159769418Y-80322240D01*
X159531322Y-80322240D01*
X159436084Y-80274621D01*
X159388465Y-80227002D01*
%TO.C,C4*%
X144613333Y-98147142D02*
X144565714Y-98194761D01*
X144422857Y-98242380D01*
X144327619Y-98242380D01*
X144184761Y-98194761D01*
X144089523Y-98099523D01*
X144041904Y-98004285D01*
X143994285Y-97813809D01*
X143994285Y-97670952D01*
X144041904Y-97480476D01*
X144089523Y-97385238D01*
X144184761Y-97290000D01*
X144327619Y-97242380D01*
X144422857Y-97242380D01*
X144565714Y-97290000D01*
X144613333Y-97337619D01*
X145470476Y-97575714D02*
X145470476Y-98242380D01*
X145232380Y-97194761D02*
X144994285Y-97909047D01*
X145613333Y-97909047D01*
%TO.C,C3*%
X157313333Y-89257142D02*
X157265714Y-89304761D01*
X157122857Y-89352380D01*
X157027619Y-89352380D01*
X156884761Y-89304761D01*
X156789523Y-89209523D01*
X156741904Y-89114285D01*
X156694285Y-88923809D01*
X156694285Y-88780952D01*
X156741904Y-88590476D01*
X156789523Y-88495238D01*
X156884761Y-88400000D01*
X157027619Y-88352380D01*
X157122857Y-88352380D01*
X157265714Y-88400000D01*
X157313333Y-88447619D01*
X157646666Y-88352380D02*
X158265714Y-88352380D01*
X157932380Y-88733333D01*
X158075238Y-88733333D01*
X158170476Y-88780952D01*
X158218095Y-88828571D01*
X158265714Y-88923809D01*
X158265714Y-89161904D01*
X158218095Y-89257142D01*
X158170476Y-89304761D01*
X158075238Y-89352380D01*
X157789523Y-89352380D01*
X157694285Y-89304761D01*
X157646666Y-89257142D01*
%TO.C,C2*%
X151598333Y-80367142D02*
X151550714Y-80414761D01*
X151407857Y-80462380D01*
X151312619Y-80462380D01*
X151169761Y-80414761D01*
X151074523Y-80319523D01*
X151026904Y-80224285D01*
X150979285Y-80033809D01*
X150979285Y-79890952D01*
X151026904Y-79700476D01*
X151074523Y-79605238D01*
X151169761Y-79510000D01*
X151312619Y-79462380D01*
X151407857Y-79462380D01*
X151550714Y-79510000D01*
X151598333Y-79557619D01*
X151979285Y-79557619D02*
X152026904Y-79510000D01*
X152122142Y-79462380D01*
X152360238Y-79462380D01*
X152455476Y-79510000D01*
X152503095Y-79557619D01*
X152550714Y-79652857D01*
X152550714Y-79748095D01*
X152503095Y-79890952D01*
X151931666Y-80462380D01*
X152550714Y-80462380D01*
%TO.C,C1*%
X132421333Y-101957142D02*
X132373714Y-102004761D01*
X132230857Y-102052380D01*
X132135619Y-102052380D01*
X131992761Y-102004761D01*
X131897523Y-101909523D01*
X131849904Y-101814285D01*
X131802285Y-101623809D01*
X131802285Y-101480952D01*
X131849904Y-101290476D01*
X131897523Y-101195238D01*
X131992761Y-101100000D01*
X132135619Y-101052380D01*
X132230857Y-101052380D01*
X132373714Y-101100000D01*
X132421333Y-101147619D01*
X133373714Y-102052380D02*
X132802285Y-102052380D01*
X133088000Y-102052380D02*
X133088000Y-101052380D01*
X132992761Y-101195238D01*
X132897523Y-101290476D01*
X132802285Y-101338095D01*
%TD*%
M02*
