%TF.GenerationSoftware,KiCad,Pcbnew,(5.1.7)-1*%
%TF.CreationDate,2021-09-09T12:13:45+02:00*%
%TF.ProjectId,SAW LNA Combo NOAA,53415720-4c4e-4412-9043-6f6d626f204e,rev?*%
%TF.SameCoordinates,Original*%
%TF.FileFunction,Soldermask,Bot*%
%TF.FilePolarity,Negative*%
%FSLAX46Y46*%
G04 Gerber Fmt 4.6, Leading zero omitted, Abs format (unit mm)*
G04 Created by KiCad (PCBNEW (5.1.7)-1) date 2021-09-09 12:13:45*
%MOMM*%
%LPD*%
G01*
G04 APERTURE LIST*
%ADD10C,0.010000*%
%ADD11R,2.000000X5.000000*%
%ADD12R,5.080000X1.500000*%
%ADD13C,0.650000*%
%ADD14O,0.650000X0.950000*%
%ADD15O,1.400000X0.800000*%
G04 APERTURE END LIST*
D10*
%TO.C,G\u002A\u002A\u002A*%
G36*
X130720350Y-100672586D02*
G01*
X130976523Y-100648434D01*
X131210275Y-100605340D01*
X131395082Y-100548440D01*
X131504417Y-100482870D01*
X131514271Y-100470171D01*
X131519664Y-100389390D01*
X131486920Y-100272680D01*
X131433643Y-100164303D01*
X131377439Y-100108519D01*
X131369984Y-100107422D01*
X131297291Y-100123119D01*
X131155543Y-100164086D01*
X130991892Y-100216107D01*
X130704304Y-100281129D01*
X130445149Y-100283601D01*
X130232315Y-100227453D01*
X130083692Y-100116617D01*
X130026153Y-100003921D01*
X130035017Y-99863164D01*
X130142521Y-99736144D01*
X130351264Y-99620931D01*
X130663843Y-99515595D01*
X130694621Y-99507213D01*
X131014072Y-99413038D01*
X131245984Y-99322258D01*
X131408932Y-99225207D01*
X131521488Y-99112221D01*
X131558068Y-99057914D01*
X131628739Y-98855455D01*
X131638607Y-98616836D01*
X131588083Y-98391782D01*
X131551947Y-98318174D01*
X131411868Y-98143738D01*
X131225981Y-98025621D01*
X130975837Y-97955967D01*
X130642989Y-97926921D01*
X130632536Y-97926622D01*
X130409304Y-97923713D01*
X130217440Y-97926958D01*
X130089609Y-97935624D01*
X130068053Y-97939305D01*
X129908783Y-97989426D01*
X129738334Y-98061946D01*
X129586254Y-98141708D01*
X129482089Y-98213557D01*
X129453105Y-98254735D01*
X129477967Y-98370339D01*
X129536959Y-98490395D01*
X129606692Y-98573580D01*
X129642111Y-98588660D01*
X129723976Y-98564781D01*
X129859520Y-98504020D01*
X129941002Y-98461883D01*
X130201439Y-98355279D01*
X130466953Y-98305754D01*
X130714590Y-98311994D01*
X130921393Y-98372686D01*
X131064411Y-98486517D01*
X131089840Y-98527617D01*
X131128459Y-98687399D01*
X131069447Y-98826556D01*
X130910502Y-98947087D01*
X130649321Y-99050987D01*
X130415632Y-99112371D01*
X130047718Y-99221768D01*
X129778369Y-99362903D01*
X129603068Y-99539595D01*
X129517300Y-99755664D01*
X129506579Y-99881416D01*
X129546456Y-100162400D01*
X129667733Y-100380319D01*
X129872877Y-100537202D01*
X130164353Y-100635080D01*
X130468282Y-100672662D01*
X130720350Y-100672586D01*
G37*
X130720350Y-100672586D02*
X130976523Y-100648434D01*
X131210275Y-100605340D01*
X131395082Y-100548440D01*
X131504417Y-100482870D01*
X131514271Y-100470171D01*
X131519664Y-100389390D01*
X131486920Y-100272680D01*
X131433643Y-100164303D01*
X131377439Y-100108519D01*
X131369984Y-100107422D01*
X131297291Y-100123119D01*
X131155543Y-100164086D01*
X130991892Y-100216107D01*
X130704304Y-100281129D01*
X130445149Y-100283601D01*
X130232315Y-100227453D01*
X130083692Y-100116617D01*
X130026153Y-100003921D01*
X130035017Y-99863164D01*
X130142521Y-99736144D01*
X130351264Y-99620931D01*
X130663843Y-99515595D01*
X130694621Y-99507213D01*
X131014072Y-99413038D01*
X131245984Y-99322258D01*
X131408932Y-99225207D01*
X131521488Y-99112221D01*
X131558068Y-99057914D01*
X131628739Y-98855455D01*
X131638607Y-98616836D01*
X131588083Y-98391782D01*
X131551947Y-98318174D01*
X131411868Y-98143738D01*
X131225981Y-98025621D01*
X130975837Y-97955967D01*
X130642989Y-97926921D01*
X130632536Y-97926622D01*
X130409304Y-97923713D01*
X130217440Y-97926958D01*
X130089609Y-97935624D01*
X130068053Y-97939305D01*
X129908783Y-97989426D01*
X129738334Y-98061946D01*
X129586254Y-98141708D01*
X129482089Y-98213557D01*
X129453105Y-98254735D01*
X129477967Y-98370339D01*
X129536959Y-98490395D01*
X129606692Y-98573580D01*
X129642111Y-98588660D01*
X129723976Y-98564781D01*
X129859520Y-98504020D01*
X129941002Y-98461883D01*
X130201439Y-98355279D01*
X130466953Y-98305754D01*
X130714590Y-98311994D01*
X130921393Y-98372686D01*
X131064411Y-98486517D01*
X131089840Y-98527617D01*
X131128459Y-98687399D01*
X131069447Y-98826556D01*
X130910502Y-98947087D01*
X130649321Y-99050987D01*
X130415632Y-99112371D01*
X130047718Y-99221768D01*
X129778369Y-99362903D01*
X129603068Y-99539595D01*
X129517300Y-99755664D01*
X129506579Y-99881416D01*
X129546456Y-100162400D01*
X129667733Y-100380319D01*
X129872877Y-100537202D01*
X130164353Y-100635080D01*
X130468282Y-100672662D01*
X130720350Y-100672586D01*
G36*
X144592403Y-100672149D02*
G01*
X144850600Y-100647696D01*
X145045647Y-100601304D01*
X145220736Y-100522145D01*
X145244692Y-100508649D01*
X145420392Y-100400521D01*
X145509262Y-100318765D01*
X145520931Y-100244512D01*
X145465025Y-100158891D01*
X145438018Y-100129731D01*
X145311465Y-100027806D01*
X145191248Y-100014193D01*
X145043980Y-100086624D01*
X145022202Y-100101479D01*
X144789850Y-100218358D01*
X144533423Y-100276929D01*
X144308054Y-100267911D01*
X143991797Y-100158675D01*
X143754974Y-99983692D01*
X143586383Y-99732707D01*
X143512869Y-99539897D01*
X143479014Y-99265368D01*
X143530126Y-98986096D01*
X143654529Y-98730445D01*
X143840547Y-98526782D01*
X143962058Y-98448633D01*
X144282818Y-98332780D01*
X144587662Y-98320188D01*
X144879865Y-98411076D01*
X145059509Y-98521987D01*
X145238755Y-98654514D01*
X145575421Y-98322566D01*
X145441737Y-98218278D01*
X145245946Y-98082093D01*
X145057168Y-97995724D01*
X144838441Y-97947194D01*
X144552802Y-97924526D01*
X144532684Y-97923725D01*
X144176988Y-97926560D01*
X143919737Y-97966182D01*
X143871081Y-97981679D01*
X143544965Y-98154845D01*
X143277537Y-98411082D01*
X143129000Y-98639955D01*
X143006852Y-98978262D01*
X142974164Y-99333614D01*
X143026355Y-99684515D01*
X143158844Y-100009471D01*
X143367049Y-100286985D01*
X143505564Y-100406771D01*
X143759590Y-100558541D01*
X144035930Y-100646518D01*
X144363089Y-100677663D01*
X144592403Y-100672149D01*
G37*
X144592403Y-100672149D02*
X144850600Y-100647696D01*
X145045647Y-100601304D01*
X145220736Y-100522145D01*
X145244692Y-100508649D01*
X145420392Y-100400521D01*
X145509262Y-100318765D01*
X145520931Y-100244512D01*
X145465025Y-100158891D01*
X145438018Y-100129731D01*
X145311465Y-100027806D01*
X145191248Y-100014193D01*
X145043980Y-100086624D01*
X145022202Y-100101479D01*
X144789850Y-100218358D01*
X144533423Y-100276929D01*
X144308054Y-100267911D01*
X143991797Y-100158675D01*
X143754974Y-99983692D01*
X143586383Y-99732707D01*
X143512869Y-99539897D01*
X143479014Y-99265368D01*
X143530126Y-98986096D01*
X143654529Y-98730445D01*
X143840547Y-98526782D01*
X143962058Y-98448633D01*
X144282818Y-98332780D01*
X144587662Y-98320188D01*
X144879865Y-98411076D01*
X145059509Y-98521987D01*
X145238755Y-98654514D01*
X145575421Y-98322566D01*
X145441737Y-98218278D01*
X145245946Y-98082093D01*
X145057168Y-97995724D01*
X144838441Y-97947194D01*
X144552802Y-97924526D01*
X144532684Y-97923725D01*
X144176988Y-97926560D01*
X143919737Y-97966182D01*
X143871081Y-97981679D01*
X143544965Y-98154845D01*
X143277537Y-98411082D01*
X143129000Y-98639955D01*
X143006852Y-98978262D01*
X142974164Y-99333614D01*
X143026355Y-99684515D01*
X143158844Y-100009471D01*
X143367049Y-100286985D01*
X143505564Y-100406771D01*
X143759590Y-100558541D01*
X144035930Y-100646518D01*
X144363089Y-100677663D01*
X144592403Y-100672149D01*
G36*
X156366144Y-104546590D02*
G01*
X156451729Y-104488652D01*
X156521142Y-104435680D01*
X156525247Y-104432242D01*
X156703609Y-104269002D01*
X156859775Y-104098160D01*
X156995535Y-103917008D01*
X157112680Y-103722847D01*
X157212999Y-103512971D01*
X157298284Y-103284679D01*
X157310623Y-103246358D01*
X157331422Y-103177051D01*
X157343027Y-103129842D01*
X157345594Y-103103735D01*
X157339285Y-103097733D01*
X157333999Y-103100991D01*
X157321626Y-103111765D01*
X157296379Y-103134146D01*
X157265384Y-103161807D01*
X157216097Y-103204243D01*
X157151035Y-103257779D01*
X157074541Y-103319030D01*
X156990951Y-103384611D01*
X156904602Y-103451136D01*
X156819834Y-103515219D01*
X156740983Y-103573476D01*
X156700003Y-103603025D01*
X156555214Y-103704649D01*
X156416931Y-103798119D01*
X156279701Y-103886852D01*
X156138073Y-103974263D01*
X155986596Y-104063769D01*
X155819816Y-104158786D01*
X155757846Y-104193405D01*
X155553822Y-104304893D01*
X155364441Y-104403950D01*
X155184511Y-104493010D01*
X155008844Y-104574511D01*
X154832250Y-104650889D01*
X154649539Y-104724581D01*
X154525329Y-104772086D01*
X154466190Y-104794777D01*
X154416138Y-104814934D01*
X154379397Y-104830783D01*
X154360191Y-104840548D01*
X154358379Y-104842239D01*
X154368352Y-104849950D01*
X154399086Y-104860105D01*
X154446630Y-104871986D01*
X154507035Y-104884873D01*
X154576352Y-104898048D01*
X154650628Y-104910790D01*
X154725914Y-104922381D01*
X154798259Y-104932102D01*
X154863714Y-104939232D01*
X154909954Y-104942667D01*
X155108738Y-104946088D01*
X155298697Y-104934514D01*
X155485888Y-104907020D01*
X155676376Y-104862682D01*
X155876220Y-104800576D01*
X155902748Y-104791310D01*
X155980430Y-104759740D01*
X156071529Y-104716070D01*
X156170126Y-104663712D01*
X156270304Y-104606081D01*
X156366144Y-104546590D01*
G37*
X156366144Y-104546590D02*
X156451729Y-104488652D01*
X156521142Y-104435680D01*
X156525247Y-104432242D01*
X156703609Y-104269002D01*
X156859775Y-104098160D01*
X156995535Y-103917008D01*
X157112680Y-103722847D01*
X157212999Y-103512971D01*
X157298284Y-103284679D01*
X157310623Y-103246358D01*
X157331422Y-103177051D01*
X157343027Y-103129842D01*
X157345594Y-103103735D01*
X157339285Y-103097733D01*
X157333999Y-103100991D01*
X157321626Y-103111765D01*
X157296379Y-103134146D01*
X157265384Y-103161807D01*
X157216097Y-103204243D01*
X157151035Y-103257779D01*
X157074541Y-103319030D01*
X156990951Y-103384611D01*
X156904602Y-103451136D01*
X156819834Y-103515219D01*
X156740983Y-103573476D01*
X156700003Y-103603025D01*
X156555214Y-103704649D01*
X156416931Y-103798119D01*
X156279701Y-103886852D01*
X156138073Y-103974263D01*
X155986596Y-104063769D01*
X155819816Y-104158786D01*
X155757846Y-104193405D01*
X155553822Y-104304893D01*
X155364441Y-104403950D01*
X155184511Y-104493010D01*
X155008844Y-104574511D01*
X154832250Y-104650889D01*
X154649539Y-104724581D01*
X154525329Y-104772086D01*
X154466190Y-104794777D01*
X154416138Y-104814934D01*
X154379397Y-104830783D01*
X154360191Y-104840548D01*
X154358379Y-104842239D01*
X154368352Y-104849950D01*
X154399086Y-104860105D01*
X154446630Y-104871986D01*
X154507035Y-104884873D01*
X154576352Y-104898048D01*
X154650628Y-104910790D01*
X154725914Y-104922381D01*
X154798259Y-104932102D01*
X154863714Y-104939232D01*
X154909954Y-104942667D01*
X155108738Y-104946088D01*
X155298697Y-104934514D01*
X155485888Y-104907020D01*
X155676376Y-104862682D01*
X155876220Y-104800576D01*
X155902748Y-104791310D01*
X155980430Y-104759740D01*
X156071529Y-104716070D01*
X156170126Y-104663712D01*
X156270304Y-104606081D01*
X156366144Y-104546590D01*
G36*
X155969565Y-103855297D02*
G01*
X156220413Y-103702393D01*
X156467885Y-103543462D01*
X156710635Y-103379049D01*
X156711057Y-103378756D01*
X156943596Y-103212624D01*
X157161750Y-103048090D01*
X157364856Y-102885872D01*
X157552249Y-102726687D01*
X157723263Y-102571258D01*
X157877233Y-102420299D01*
X158013496Y-102274531D01*
X158131386Y-102134673D01*
X158230240Y-102001440D01*
X158309390Y-101875555D01*
X158368175Y-101757733D01*
X158405928Y-101648694D01*
X158421984Y-101549158D01*
X158422539Y-101528722D01*
X158410725Y-101450957D01*
X158377135Y-101380426D01*
X158324754Y-101322294D01*
X158289039Y-101297494D01*
X158198872Y-101258398D01*
X158089394Y-101233408D01*
X157961538Y-101222328D01*
X157816235Y-101224966D01*
X157654419Y-101241126D01*
X157477020Y-101270616D01*
X157284973Y-101313242D01*
X157079208Y-101368810D01*
X156860659Y-101437126D01*
X156630256Y-101517996D01*
X156388933Y-101611227D01*
X156137622Y-101716625D01*
X156018040Y-101769537D01*
X155943819Y-101803144D01*
X155872192Y-101836003D01*
X155808232Y-101865755D01*
X155757019Y-101890038D01*
X155724785Y-101905896D01*
X155653018Y-101942668D01*
X155656787Y-102029896D01*
X155659255Y-102075914D01*
X155663423Y-102103784D01*
X155671882Y-102120408D01*
X155687220Y-102132687D01*
X155697742Y-102139037D01*
X155729282Y-102167878D01*
X155738684Y-102204968D01*
X155726017Y-102251529D01*
X155705977Y-102287457D01*
X155650943Y-102361533D01*
X155580363Y-102436223D01*
X155492370Y-102513113D01*
X155385095Y-102593793D01*
X155256672Y-102679849D01*
X155208962Y-102709929D01*
X155057959Y-102798825D01*
X154912691Y-102874408D01*
X154775453Y-102935740D01*
X154648543Y-102981881D01*
X154534259Y-103011892D01*
X154439232Y-103024619D01*
X154374223Y-103023755D01*
X154330258Y-103012221D01*
X154305503Y-102988891D01*
X154298128Y-102952639D01*
X154299097Y-102938489D01*
X154304014Y-102895750D01*
X154237716Y-102851598D01*
X154201651Y-102828704D01*
X154173549Y-102812915D01*
X154160634Y-102807911D01*
X154147246Y-102814836D01*
X154117383Y-102833639D01*
X154074786Y-102861861D01*
X154023197Y-102897042D01*
X153991853Y-102918811D01*
X153760623Y-103084870D01*
X153543265Y-103249932D01*
X153340622Y-103413141D01*
X153153534Y-103573646D01*
X152982843Y-103730591D01*
X152829393Y-103883123D01*
X152694021Y-104030387D01*
X152577570Y-104171530D01*
X152480884Y-104305698D01*
X152404802Y-104432036D01*
X152350167Y-104549692D01*
X152331548Y-104603686D01*
X152311177Y-104685369D01*
X152305091Y-104752821D01*
X152313577Y-104812342D01*
X152336922Y-104870231D01*
X152344335Y-104883822D01*
X152382526Y-104936865D01*
X152431904Y-104978034D01*
X152496706Y-105009933D01*
X152581170Y-105035165D01*
X152596316Y-105038651D01*
X152717940Y-105056089D01*
X152857746Y-105058803D01*
X153014385Y-105047340D01*
X153186511Y-105022239D01*
X153372777Y-104984047D01*
X153571834Y-104933307D01*
X153782336Y-104870561D01*
X154002936Y-104796354D01*
X154232285Y-104711228D01*
X154469038Y-104615728D01*
X154711847Y-104510396D01*
X154959363Y-104395778D01*
X155210240Y-104272415D01*
X155463131Y-104140851D01*
X155716689Y-104001632D01*
X155969565Y-103855297D01*
G37*
X155969565Y-103855297D02*
X156220413Y-103702393D01*
X156467885Y-103543462D01*
X156710635Y-103379049D01*
X156711057Y-103378756D01*
X156943596Y-103212624D01*
X157161750Y-103048090D01*
X157364856Y-102885872D01*
X157552249Y-102726687D01*
X157723263Y-102571258D01*
X157877233Y-102420299D01*
X158013496Y-102274531D01*
X158131386Y-102134673D01*
X158230240Y-102001440D01*
X158309390Y-101875555D01*
X158368175Y-101757733D01*
X158405928Y-101648694D01*
X158421984Y-101549158D01*
X158422539Y-101528722D01*
X158410725Y-101450957D01*
X158377135Y-101380426D01*
X158324754Y-101322294D01*
X158289039Y-101297494D01*
X158198872Y-101258398D01*
X158089394Y-101233408D01*
X157961538Y-101222328D01*
X157816235Y-101224966D01*
X157654419Y-101241126D01*
X157477020Y-101270616D01*
X157284973Y-101313242D01*
X157079208Y-101368810D01*
X156860659Y-101437126D01*
X156630256Y-101517996D01*
X156388933Y-101611227D01*
X156137622Y-101716625D01*
X156018040Y-101769537D01*
X155943819Y-101803144D01*
X155872192Y-101836003D01*
X155808232Y-101865755D01*
X155757019Y-101890038D01*
X155724785Y-101905896D01*
X155653018Y-101942668D01*
X155656787Y-102029896D01*
X155659255Y-102075914D01*
X155663423Y-102103784D01*
X155671882Y-102120408D01*
X155687220Y-102132687D01*
X155697742Y-102139037D01*
X155729282Y-102167878D01*
X155738684Y-102204968D01*
X155726017Y-102251529D01*
X155705977Y-102287457D01*
X155650943Y-102361533D01*
X155580363Y-102436223D01*
X155492370Y-102513113D01*
X155385095Y-102593793D01*
X155256672Y-102679849D01*
X155208962Y-102709929D01*
X155057959Y-102798825D01*
X154912691Y-102874408D01*
X154775453Y-102935740D01*
X154648543Y-102981881D01*
X154534259Y-103011892D01*
X154439232Y-103024619D01*
X154374223Y-103023755D01*
X154330258Y-103012221D01*
X154305503Y-102988891D01*
X154298128Y-102952639D01*
X154299097Y-102938489D01*
X154304014Y-102895750D01*
X154237716Y-102851598D01*
X154201651Y-102828704D01*
X154173549Y-102812915D01*
X154160634Y-102807911D01*
X154147246Y-102814836D01*
X154117383Y-102833639D01*
X154074786Y-102861861D01*
X154023197Y-102897042D01*
X153991853Y-102918811D01*
X153760623Y-103084870D01*
X153543265Y-103249932D01*
X153340622Y-103413141D01*
X153153534Y-103573646D01*
X152982843Y-103730591D01*
X152829393Y-103883123D01*
X152694021Y-104030387D01*
X152577570Y-104171530D01*
X152480884Y-104305698D01*
X152404802Y-104432036D01*
X152350167Y-104549692D01*
X152331548Y-104603686D01*
X152311177Y-104685369D01*
X152305091Y-104752821D01*
X152313577Y-104812342D01*
X152336922Y-104870231D01*
X152344335Y-104883822D01*
X152382526Y-104936865D01*
X152431904Y-104978034D01*
X152496706Y-105009933D01*
X152581170Y-105035165D01*
X152596316Y-105038651D01*
X152717940Y-105056089D01*
X152857746Y-105058803D01*
X153014385Y-105047340D01*
X153186511Y-105022239D01*
X153372777Y-104984047D01*
X153571834Y-104933307D01*
X153782336Y-104870561D01*
X154002936Y-104796354D01*
X154232285Y-104711228D01*
X154469038Y-104615728D01*
X154711847Y-104510396D01*
X154959363Y-104395778D01*
X155210240Y-104272415D01*
X155463131Y-104140851D01*
X155716689Y-104001632D01*
X155969565Y-103855297D01*
%TD*%
D11*
%TO.C,GND*%
X137795000Y-82550000D03*
%TD*%
%TO.C,Vcc*%
X132029200Y-82550000D03*
%TD*%
D12*
%TO.C,J1*%
X119380000Y-97985000D03*
X119380000Y-106485000D03*
%TD*%
%TO.C,J2*%
X167640000Y-106485000D03*
X167640000Y-97985000D03*
%TD*%
D13*
%TO.C,P1*%
X125645000Y-82125000D03*
D14*
X125645000Y-89325000D03*
D15*
X118445000Y-81235000D03*
X118445000Y-90215000D03*
X124395000Y-89855000D03*
X124395000Y-81595000D03*
%TD*%
M02*
