%TF.GenerationSoftware,KiCad,Pcbnew,(5.1.7)-1*%
%TF.CreationDate,2021-09-09T12:13:45+02:00*%
%TF.ProjectId,SAW LNA Combo NOAA,53415720-4c4e-4412-9043-6f6d626f204e,rev?*%
%TF.SameCoordinates,Original*%
%TF.FileFunction,Copper,L4,Bot*%
%TF.FilePolarity,Positive*%
%FSLAX46Y46*%
G04 Gerber Fmt 4.6, Leading zero omitted, Abs format (unit mm)*
G04 Created by KiCad (PCBNEW (5.1.7)-1) date 2021-09-09 12:13:45*
%MOMM*%
%LPD*%
G01*
G04 APERTURE LIST*
%TA.AperFunction,SMDPad,CuDef*%
%ADD10R,2.000000X5.000000*%
%TD*%
%TA.AperFunction,SMDPad,CuDef*%
%ADD11R,5.080000X1.500000*%
%TD*%
%TA.AperFunction,ComponentPad*%
%ADD12O,1.400000X0.800000*%
%TD*%
%TA.AperFunction,ViaPad*%
%ADD13C,0.800000*%
%TD*%
%TA.AperFunction,ViaPad*%
%ADD14C,0.600000*%
%TD*%
%TA.AperFunction,Conductor*%
%ADD15C,0.500000*%
%TD*%
%TA.AperFunction,Conductor*%
%ADD16C,0.254000*%
%TD*%
%TA.AperFunction,Conductor*%
%ADD17C,0.100000*%
%TD*%
G04 APERTURE END LIST*
D10*
%TO.P,GND,1*%
%TO.N,GND*%
X137795000Y-82550000D03*
%TD*%
%TO.P,Vcc,1*%
%TO.N,Net-(C2-Pad2)*%
X132029200Y-82550000D03*
%TD*%
D11*
%TO.P,J1,2*%
%TO.N,GND*%
X119380000Y-97985000D03*
X119380000Y-106485000D03*
%TD*%
%TO.P,J2,2*%
%TO.N,GND*%
X167640000Y-106485000D03*
X167640000Y-97985000D03*
%TD*%
D12*
%TO.P,P1,S1*%
%TO.N,GND*%
X118445000Y-81235000D03*
X118445000Y-90215000D03*
X124395000Y-89855000D03*
X124395000Y-81595000D03*
%TD*%
D13*
%TO.N,Net-(C2-Pad2)*%
X135255000Y-90170000D03*
%TO.N,GND*%
X157454600Y-100584000D03*
X139700000Y-97282000D03*
X139700000Y-98298000D03*
X151638000Y-100965000D03*
D14*
X162351081Y-94048146D03*
X163359218Y-93114258D03*
X164314986Y-92126738D03*
X165078068Y-90986865D03*
X165568806Y-89705836D03*
X165761030Y-88347625D03*
X165765000Y-86972919D03*
X165765000Y-85598166D03*
X165703477Y-84226277D03*
X165358383Y-82898625D03*
X164728740Y-81679837D03*
X162789318Y-83508656D03*
X163148727Y-84758933D03*
X163165000Y-86066980D03*
X163165000Y-87375511D03*
X163127089Y-88682255D03*
X162703205Y-89912215D03*
X161876661Y-90919859D03*
X160939142Y-91832430D03*
D13*
X126492000Y-97282000D03*
X126492000Y-94742000D03*
X126492000Y-102362000D03*
X126492000Y-104902000D03*
X129032000Y-93218000D03*
X132207000Y-93218000D03*
X135382000Y-93218000D03*
X138557000Y-93218000D03*
X141732000Y-93218000D03*
X144907000Y-93218000D03*
X148082000Y-93218000D03*
X151257000Y-93218000D03*
X154432000Y-93218000D03*
X157607000Y-93218000D03*
X128397000Y-107061000D03*
X131572000Y-107061000D03*
X134747000Y-107061000D03*
X137922000Y-107061000D03*
X141097000Y-107061000D03*
X144272000Y-107061000D03*
X147447000Y-107061000D03*
X150622000Y-107061000D03*
X153797000Y-107061000D03*
X156972000Y-107061000D03*
X160401000Y-96901000D03*
X160401000Y-100076000D03*
X160401000Y-107061000D03*
X160401000Y-104648000D03*
X162560000Y-99060000D03*
X162560000Y-105410000D03*
X124460000Y-97155000D03*
X124460000Y-104140000D03*
X129540000Y-101244400D03*
X163830000Y-99060000D03*
X163830000Y-105410000D03*
X123190000Y-104775000D03*
X123190000Y-97790000D03*
%TO.N,+5V*%
X162925140Y-81549860D03*
X136944100Y-103225600D03*
%TD*%
D15*
%TO.N,Net-(C2-Pad2)*%
X135255000Y-90170000D02*
X135255000Y-88900000D01*
X132029200Y-85674200D02*
X132029200Y-82550000D01*
X135255000Y-88900000D02*
X132029200Y-85674200D01*
%TD*%
D16*
%TO.N,GND*%
X169786204Y-79426815D02*
X170018226Y-79496867D01*
X170232222Y-79610650D01*
X170420041Y-79763832D01*
X170574530Y-79950577D01*
X170689801Y-80163769D01*
X170761472Y-80395300D01*
X170790001Y-80666734D01*
X170790000Y-90772581D01*
X170790000Y-97058393D01*
X170769502Y-96990820D01*
X170710537Y-96880506D01*
X170631185Y-96783815D01*
X170534494Y-96704463D01*
X170424180Y-96645498D01*
X170304482Y-96609188D01*
X170180000Y-96596928D01*
X167925750Y-96600000D01*
X167767000Y-96758750D01*
X167767000Y-97858000D01*
X167787000Y-97858000D01*
X167787000Y-98112000D01*
X167767000Y-98112000D01*
X167767000Y-99211250D01*
X167925750Y-99370000D01*
X170180000Y-99373072D01*
X170304482Y-99360812D01*
X170424180Y-99324502D01*
X170534494Y-99265537D01*
X170631185Y-99186185D01*
X170710537Y-99089494D01*
X170769502Y-98979180D01*
X170790000Y-98911607D01*
X170790001Y-105558395D01*
X170769502Y-105490820D01*
X170710537Y-105380506D01*
X170631185Y-105283815D01*
X170534494Y-105204463D01*
X170424180Y-105145498D01*
X170304482Y-105109188D01*
X170180000Y-105096928D01*
X167925750Y-105100000D01*
X167767000Y-105258750D01*
X167767000Y-106358000D01*
X167787000Y-106358000D01*
X167787000Y-106612000D01*
X167767000Y-106612000D01*
X167767000Y-107711250D01*
X167925750Y-107870000D01*
X170180000Y-107873072D01*
X170304482Y-107860812D01*
X170424180Y-107824502D01*
X170534494Y-107765537D01*
X170631185Y-107686185D01*
X170710537Y-107589494D01*
X170769502Y-107479180D01*
X170790001Y-107411604D01*
X170790001Y-109822712D01*
X170763185Y-110096205D01*
X170693133Y-110328226D01*
X170579350Y-110542222D01*
X170426169Y-110730039D01*
X170239424Y-110884529D01*
X170026231Y-110999802D01*
X169794701Y-111071472D01*
X169523276Y-111100000D01*
X117507277Y-111100000D01*
X117233795Y-111073185D01*
X117001774Y-111003133D01*
X116787778Y-110889350D01*
X116599961Y-110736169D01*
X116445471Y-110549424D01*
X116330198Y-110336231D01*
X116258528Y-110104701D01*
X116230000Y-109833276D01*
X116230000Y-107411607D01*
X116250498Y-107479180D01*
X116309463Y-107589494D01*
X116388815Y-107686185D01*
X116485506Y-107765537D01*
X116595820Y-107824502D01*
X116715518Y-107860812D01*
X116840000Y-107873072D01*
X119094250Y-107870000D01*
X119253000Y-107711250D01*
X119253000Y-106612000D01*
X119507000Y-106612000D01*
X119507000Y-107711250D01*
X119665750Y-107870000D01*
X121920000Y-107873072D01*
X122044482Y-107860812D01*
X122164180Y-107824502D01*
X122274494Y-107765537D01*
X122371185Y-107686185D01*
X122450537Y-107589494D01*
X122509502Y-107479180D01*
X122545812Y-107359482D01*
X122558072Y-107235000D01*
X164461928Y-107235000D01*
X164474188Y-107359482D01*
X164510498Y-107479180D01*
X164569463Y-107589494D01*
X164648815Y-107686185D01*
X164745506Y-107765537D01*
X164855820Y-107824502D01*
X164975518Y-107860812D01*
X165100000Y-107873072D01*
X167354250Y-107870000D01*
X167513000Y-107711250D01*
X167513000Y-106612000D01*
X164623750Y-106612000D01*
X164465000Y-106770750D01*
X164461928Y-107235000D01*
X122558072Y-107235000D01*
X122555000Y-106770750D01*
X122396250Y-106612000D01*
X119507000Y-106612000D01*
X119253000Y-106612000D01*
X119233000Y-106612000D01*
X119233000Y-106358000D01*
X119253000Y-106358000D01*
X119253000Y-105258750D01*
X119507000Y-105258750D01*
X119507000Y-106358000D01*
X122396250Y-106358000D01*
X122555000Y-106199250D01*
X122558072Y-105735000D01*
X164461928Y-105735000D01*
X164465000Y-106199250D01*
X164623750Y-106358000D01*
X167513000Y-106358000D01*
X167513000Y-105258750D01*
X167354250Y-105100000D01*
X165100000Y-105096928D01*
X164975518Y-105109188D01*
X164855820Y-105145498D01*
X164745506Y-105204463D01*
X164648815Y-105283815D01*
X164569463Y-105380506D01*
X164510498Y-105490820D01*
X164474188Y-105610518D01*
X164461928Y-105735000D01*
X122558072Y-105735000D01*
X122545812Y-105610518D01*
X122509502Y-105490820D01*
X122450537Y-105380506D01*
X122371185Y-105283815D01*
X122274494Y-105204463D01*
X122164180Y-105145498D01*
X122044482Y-105109188D01*
X121920000Y-105096928D01*
X119665750Y-105100000D01*
X119507000Y-105258750D01*
X119253000Y-105258750D01*
X119094250Y-105100000D01*
X116840000Y-105096928D01*
X116715518Y-105109188D01*
X116595820Y-105145498D01*
X116485506Y-105204463D01*
X116388815Y-105283815D01*
X116309463Y-105380506D01*
X116250498Y-105490820D01*
X116230000Y-105558393D01*
X116230000Y-103123661D01*
X135909100Y-103123661D01*
X135909100Y-103327539D01*
X135948874Y-103527498D01*
X136026895Y-103715856D01*
X136140163Y-103885374D01*
X136284326Y-104029537D01*
X136453844Y-104142805D01*
X136642202Y-104220826D01*
X136842161Y-104260600D01*
X137046039Y-104260600D01*
X137245998Y-104220826D01*
X137434356Y-104142805D01*
X137603874Y-104029537D01*
X137748037Y-103885374D01*
X137861305Y-103715856D01*
X137939326Y-103527498D01*
X137979100Y-103327539D01*
X137979100Y-103123661D01*
X137939326Y-102923702D01*
X137861305Y-102735344D01*
X137748037Y-102565826D01*
X137603874Y-102421663D01*
X137434356Y-102308395D01*
X137245998Y-102230374D01*
X137046039Y-102190600D01*
X136842161Y-102190600D01*
X136642202Y-102230374D01*
X136453844Y-102308395D01*
X136284326Y-102421663D01*
X136140163Y-102565826D01*
X136026895Y-102735344D01*
X135948874Y-102923702D01*
X135909100Y-103123661D01*
X116230000Y-103123661D01*
X116230000Y-98911607D01*
X116250498Y-98979180D01*
X116309463Y-99089494D01*
X116388815Y-99186185D01*
X116485506Y-99265537D01*
X116595820Y-99324502D01*
X116715518Y-99360812D01*
X116840000Y-99373072D01*
X119094250Y-99370000D01*
X119253000Y-99211250D01*
X119253000Y-98112000D01*
X119507000Y-98112000D01*
X119507000Y-99211250D01*
X119665750Y-99370000D01*
X121920000Y-99373072D01*
X122044482Y-99360812D01*
X122164180Y-99324502D01*
X122274494Y-99265537D01*
X122371185Y-99186185D01*
X122450537Y-99089494D01*
X122509502Y-98979180D01*
X122545812Y-98859482D01*
X122558072Y-98735000D01*
X164461928Y-98735000D01*
X164474188Y-98859482D01*
X164510498Y-98979180D01*
X164569463Y-99089494D01*
X164648815Y-99186185D01*
X164745506Y-99265537D01*
X164855820Y-99324502D01*
X164975518Y-99360812D01*
X165100000Y-99373072D01*
X167354250Y-99370000D01*
X167513000Y-99211250D01*
X167513000Y-98112000D01*
X164623750Y-98112000D01*
X164465000Y-98270750D01*
X164461928Y-98735000D01*
X122558072Y-98735000D01*
X122555000Y-98270750D01*
X122396250Y-98112000D01*
X119507000Y-98112000D01*
X119253000Y-98112000D01*
X119233000Y-98112000D01*
X119233000Y-97858000D01*
X119253000Y-97858000D01*
X119253000Y-96758750D01*
X119507000Y-96758750D01*
X119507000Y-97858000D01*
X122396250Y-97858000D01*
X122555000Y-97699250D01*
X122558072Y-97235000D01*
X164461928Y-97235000D01*
X164465000Y-97699250D01*
X164623750Y-97858000D01*
X167513000Y-97858000D01*
X167513000Y-96758750D01*
X167354250Y-96600000D01*
X165100000Y-96596928D01*
X164975518Y-96609188D01*
X164855820Y-96645498D01*
X164745506Y-96704463D01*
X164648815Y-96783815D01*
X164569463Y-96880506D01*
X164510498Y-96990820D01*
X164474188Y-97110518D01*
X164461928Y-97235000D01*
X122558072Y-97235000D01*
X122545812Y-97110518D01*
X122509502Y-96990820D01*
X122450537Y-96880506D01*
X122371185Y-96783815D01*
X122274494Y-96704463D01*
X122164180Y-96645498D01*
X122044482Y-96609188D01*
X121920000Y-96596928D01*
X119665750Y-96600000D01*
X119507000Y-96758750D01*
X119253000Y-96758750D01*
X119094250Y-96600000D01*
X116840000Y-96596928D01*
X116715518Y-96609188D01*
X116595820Y-96645498D01*
X116485506Y-96704463D01*
X116388815Y-96783815D01*
X116309463Y-96880506D01*
X116250498Y-96990820D01*
X116230000Y-97058393D01*
X116230000Y-90501123D01*
X117150334Y-90501123D01*
X117213872Y-90684418D01*
X117323342Y-90857052D01*
X117464388Y-91005013D01*
X117631590Y-91122614D01*
X117818522Y-91205336D01*
X118018000Y-91250000D01*
X118318000Y-91250000D01*
X118318000Y-90342000D01*
X118572000Y-90342000D01*
X118572000Y-91250000D01*
X118872000Y-91250000D01*
X119071478Y-91205336D01*
X119258410Y-91122614D01*
X119425612Y-91005013D01*
X119566658Y-90857052D01*
X119676128Y-90684418D01*
X119739666Y-90501123D01*
X119611998Y-90342000D01*
X118572000Y-90342000D01*
X118318000Y-90342000D01*
X117278002Y-90342000D01*
X117150334Y-90501123D01*
X116230000Y-90501123D01*
X116230000Y-90141123D01*
X123100334Y-90141123D01*
X123163872Y-90324418D01*
X123273342Y-90497052D01*
X123414388Y-90645013D01*
X123581590Y-90762614D01*
X123768522Y-90845336D01*
X123968000Y-90890000D01*
X124268000Y-90890000D01*
X124268000Y-89982000D01*
X123228002Y-89982000D01*
X123100334Y-90141123D01*
X116230000Y-90141123D01*
X116230000Y-89928877D01*
X117150334Y-89928877D01*
X117278002Y-90088000D01*
X118318000Y-90088000D01*
X118318000Y-89180000D01*
X118572000Y-89180000D01*
X118572000Y-90088000D01*
X119611998Y-90088000D01*
X119739666Y-89928877D01*
X119676128Y-89745582D01*
X119566658Y-89572948D01*
X119562778Y-89568877D01*
X123100334Y-89568877D01*
X123228002Y-89728000D01*
X124268000Y-89728000D01*
X124268000Y-88820000D01*
X124522000Y-88820000D01*
X124522000Y-89728000D01*
X124542000Y-89728000D01*
X124542000Y-89982000D01*
X124522000Y-89982000D01*
X124522000Y-90890000D01*
X124822000Y-90890000D01*
X125021478Y-90845336D01*
X125208410Y-90762614D01*
X125375612Y-90645013D01*
X125516658Y-90497052D01*
X125558465Y-90431122D01*
X125645000Y-90439645D01*
X125833192Y-90421110D01*
X126014153Y-90366216D01*
X126180928Y-90277073D01*
X126327107Y-90157107D01*
X126447073Y-90010928D01*
X126536216Y-89844154D01*
X126591110Y-89663193D01*
X126605000Y-89522162D01*
X126605000Y-89127839D01*
X126591110Y-88986808D01*
X126536216Y-88805846D01*
X126447073Y-88639072D01*
X126327107Y-88492893D01*
X126180928Y-88372927D01*
X126014154Y-88283784D01*
X125833193Y-88228890D01*
X125645000Y-88210355D01*
X125456808Y-88228890D01*
X125275847Y-88283784D01*
X125109073Y-88372927D01*
X124962894Y-88492893D01*
X124842927Y-88639072D01*
X124753784Y-88805846D01*
X124749490Y-88820000D01*
X124522000Y-88820000D01*
X124268000Y-88820000D01*
X123968000Y-88820000D01*
X123768522Y-88864664D01*
X123581590Y-88947386D01*
X123414388Y-89064987D01*
X123273342Y-89212948D01*
X123163872Y-89385582D01*
X123100334Y-89568877D01*
X119562778Y-89568877D01*
X119425612Y-89424987D01*
X119258410Y-89307386D01*
X119071478Y-89224664D01*
X118872000Y-89180000D01*
X118572000Y-89180000D01*
X118318000Y-89180000D01*
X118018000Y-89180000D01*
X117818522Y-89224664D01*
X117631590Y-89307386D01*
X117464388Y-89424987D01*
X117323342Y-89572948D01*
X117213872Y-89745582D01*
X117150334Y-89928877D01*
X116230000Y-89928877D01*
X116230000Y-81521123D01*
X117150334Y-81521123D01*
X117213872Y-81704418D01*
X117323342Y-81877052D01*
X117464388Y-82025013D01*
X117631590Y-82142614D01*
X117818522Y-82225336D01*
X118018000Y-82270000D01*
X118318000Y-82270000D01*
X118318000Y-81362000D01*
X118572000Y-81362000D01*
X118572000Y-82270000D01*
X118872000Y-82270000D01*
X119071478Y-82225336D01*
X119258410Y-82142614D01*
X119425612Y-82025013D01*
X119562777Y-81881123D01*
X123100334Y-81881123D01*
X123163872Y-82064418D01*
X123273342Y-82237052D01*
X123414388Y-82385013D01*
X123581590Y-82502614D01*
X123768522Y-82585336D01*
X123968000Y-82630000D01*
X124268000Y-82630000D01*
X124268000Y-81722000D01*
X123228002Y-81722000D01*
X123100334Y-81881123D01*
X119562777Y-81881123D01*
X119566658Y-81877052D01*
X119676128Y-81704418D01*
X119739666Y-81521123D01*
X119611998Y-81362000D01*
X118572000Y-81362000D01*
X118318000Y-81362000D01*
X117278002Y-81362000D01*
X117150334Y-81521123D01*
X116230000Y-81521123D01*
X116230000Y-81308877D01*
X123100334Y-81308877D01*
X123228002Y-81468000D01*
X124268000Y-81468000D01*
X124268000Y-80560000D01*
X124522000Y-80560000D01*
X124522000Y-81468000D01*
X124542000Y-81468000D01*
X124542000Y-81722000D01*
X124522000Y-81722000D01*
X124522000Y-82630000D01*
X124822000Y-82630000D01*
X124827087Y-82628861D01*
X124899319Y-82736964D01*
X125033036Y-82870681D01*
X125190269Y-82975741D01*
X125364978Y-83048108D01*
X125550448Y-83085000D01*
X125739552Y-83085000D01*
X125925022Y-83048108D01*
X126099731Y-82975741D01*
X126256964Y-82870681D01*
X126390681Y-82736964D01*
X126495741Y-82579731D01*
X126568108Y-82405022D01*
X126605000Y-82219552D01*
X126605000Y-82030448D01*
X126568108Y-81844978D01*
X126495741Y-81670269D01*
X126390681Y-81513036D01*
X126256964Y-81379319D01*
X126099731Y-81274259D01*
X125925022Y-81201892D01*
X125739552Y-81165000D01*
X125639792Y-81165000D01*
X125626128Y-81125582D01*
X125516658Y-80952948D01*
X125375612Y-80804987D01*
X125208410Y-80687386D01*
X125021478Y-80604664D01*
X124822000Y-80560000D01*
X124522000Y-80560000D01*
X124268000Y-80560000D01*
X123968000Y-80560000D01*
X123768522Y-80604664D01*
X123581590Y-80687386D01*
X123414388Y-80804987D01*
X123273342Y-80952948D01*
X123163872Y-81125582D01*
X123100334Y-81308877D01*
X116230000Y-81308877D01*
X116230000Y-80948877D01*
X117150334Y-80948877D01*
X117278002Y-81108000D01*
X118318000Y-81108000D01*
X118318000Y-80200000D01*
X118572000Y-80200000D01*
X118572000Y-81108000D01*
X119611998Y-81108000D01*
X119739666Y-80948877D01*
X119676128Y-80765582D01*
X119566658Y-80592948D01*
X119425612Y-80444987D01*
X119258410Y-80327386D01*
X119071478Y-80244664D01*
X118872000Y-80200000D01*
X118572000Y-80200000D01*
X118318000Y-80200000D01*
X118018000Y-80200000D01*
X117818522Y-80244664D01*
X117631590Y-80327386D01*
X117464388Y-80444987D01*
X117323342Y-80592948D01*
X117213872Y-80765582D01*
X117150334Y-80948877D01*
X116230000Y-80948877D01*
X116230000Y-80677277D01*
X116256815Y-80403796D01*
X116326867Y-80171774D01*
X116391614Y-80050000D01*
X130391128Y-80050000D01*
X130391128Y-85050000D01*
X130403388Y-85174482D01*
X130439698Y-85294180D01*
X130498663Y-85404494D01*
X130578015Y-85501185D01*
X130674706Y-85580537D01*
X130785020Y-85639502D01*
X130904718Y-85675812D01*
X131029200Y-85688072D01*
X131141285Y-85688072D01*
X131144200Y-85717669D01*
X131144200Y-85717676D01*
X131157005Y-85847689D01*
X131207611Y-86014512D01*
X131289789Y-86168258D01*
X131400383Y-86303017D01*
X131434156Y-86330734D01*
X134370001Y-89266580D01*
X134370000Y-89631545D01*
X134337795Y-89679744D01*
X134259774Y-89868102D01*
X134220000Y-90068061D01*
X134220000Y-90271939D01*
X134259774Y-90471898D01*
X134337795Y-90660256D01*
X134451063Y-90829774D01*
X134595226Y-90973937D01*
X134764744Y-91087205D01*
X134953102Y-91165226D01*
X135153061Y-91205000D01*
X135356939Y-91205000D01*
X135556898Y-91165226D01*
X135745256Y-91087205D01*
X135914774Y-90973937D01*
X136058937Y-90829774D01*
X136172205Y-90660256D01*
X136250226Y-90471898D01*
X136290000Y-90271939D01*
X136290000Y-90068061D01*
X136250226Y-89868102D01*
X136172205Y-89679744D01*
X136140000Y-89631546D01*
X136140000Y-88943465D01*
X136144281Y-88899999D01*
X136140000Y-88856533D01*
X136140000Y-88856523D01*
X136127195Y-88726510D01*
X136076589Y-88559687D01*
X135994411Y-88405941D01*
X135883817Y-88271183D01*
X135850049Y-88243470D01*
X133252434Y-85645856D01*
X133273380Y-85639502D01*
X133383694Y-85580537D01*
X133480385Y-85501185D01*
X133559737Y-85404494D01*
X133618702Y-85294180D01*
X133655012Y-85174482D01*
X133667272Y-85050000D01*
X136156928Y-85050000D01*
X136169188Y-85174482D01*
X136205498Y-85294180D01*
X136264463Y-85404494D01*
X136343815Y-85501185D01*
X136440506Y-85580537D01*
X136550820Y-85639502D01*
X136670518Y-85675812D01*
X136795000Y-85688072D01*
X137509250Y-85685000D01*
X137668000Y-85526250D01*
X137668000Y-82677000D01*
X137922000Y-82677000D01*
X137922000Y-85526250D01*
X138080750Y-85685000D01*
X138795000Y-85688072D01*
X138919482Y-85675812D01*
X139039180Y-85639502D01*
X139149494Y-85580537D01*
X139246185Y-85501185D01*
X139325537Y-85404494D01*
X139384502Y-85294180D01*
X139420812Y-85174482D01*
X139433072Y-85050000D01*
X139430000Y-82835750D01*
X139271250Y-82677000D01*
X137922000Y-82677000D01*
X137668000Y-82677000D01*
X136318750Y-82677000D01*
X136160000Y-82835750D01*
X136156928Y-85050000D01*
X133667272Y-85050000D01*
X133667272Y-80050000D01*
X136156928Y-80050000D01*
X136160000Y-82264250D01*
X136318750Y-82423000D01*
X137668000Y-82423000D01*
X137668000Y-79573750D01*
X137922000Y-79573750D01*
X137922000Y-82423000D01*
X139271250Y-82423000D01*
X139430000Y-82264250D01*
X139431132Y-81447921D01*
X161890140Y-81447921D01*
X161890140Y-81651799D01*
X161929914Y-81851758D01*
X162007935Y-82040116D01*
X162121203Y-82209634D01*
X162265366Y-82353797D01*
X162434884Y-82467065D01*
X162623242Y-82545086D01*
X162823201Y-82584860D01*
X163027079Y-82584860D01*
X163227038Y-82545086D01*
X163415396Y-82467065D01*
X163584914Y-82353797D01*
X163729077Y-82209634D01*
X163842345Y-82040116D01*
X163920366Y-81851758D01*
X163960140Y-81651799D01*
X163960140Y-81447921D01*
X163920366Y-81247962D01*
X163842345Y-81059604D01*
X163729077Y-80890086D01*
X163584914Y-80745923D01*
X163415396Y-80632655D01*
X163227038Y-80554634D01*
X163027079Y-80514860D01*
X162823201Y-80514860D01*
X162623242Y-80554634D01*
X162434884Y-80632655D01*
X162265366Y-80745923D01*
X162121203Y-80890086D01*
X162007935Y-81059604D01*
X161929914Y-81247962D01*
X161890140Y-81447921D01*
X139431132Y-81447921D01*
X139433072Y-80050000D01*
X139420812Y-79925518D01*
X139384502Y-79805820D01*
X139325537Y-79695506D01*
X139246185Y-79598815D01*
X139149494Y-79519463D01*
X139039180Y-79460498D01*
X138919482Y-79424188D01*
X138795000Y-79411928D01*
X138080750Y-79415000D01*
X137922000Y-79573750D01*
X137668000Y-79573750D01*
X137509250Y-79415000D01*
X136795000Y-79411928D01*
X136670518Y-79424188D01*
X136550820Y-79460498D01*
X136440506Y-79519463D01*
X136343815Y-79598815D01*
X136264463Y-79695506D01*
X136205498Y-79805820D01*
X136169188Y-79925518D01*
X136156928Y-80050000D01*
X133667272Y-80050000D01*
X133655012Y-79925518D01*
X133618702Y-79805820D01*
X133559737Y-79695506D01*
X133480385Y-79598815D01*
X133383694Y-79519463D01*
X133273380Y-79460498D01*
X133153682Y-79424188D01*
X133029200Y-79411928D01*
X131029200Y-79411928D01*
X130904718Y-79424188D01*
X130785020Y-79460498D01*
X130674706Y-79519463D01*
X130578015Y-79598815D01*
X130498663Y-79695506D01*
X130439698Y-79805820D01*
X130403388Y-79925518D01*
X130391128Y-80050000D01*
X116391614Y-80050000D01*
X116440650Y-79957778D01*
X116593832Y-79769959D01*
X116780577Y-79615470D01*
X116993769Y-79500199D01*
X117225300Y-79428528D01*
X117496725Y-79400000D01*
X169512723Y-79400000D01*
X169786204Y-79426815D01*
%TA.AperFunction,Conductor*%
D17*
G36*
X169786204Y-79426815D02*
G01*
X170018226Y-79496867D01*
X170232222Y-79610650D01*
X170420041Y-79763832D01*
X170574530Y-79950577D01*
X170689801Y-80163769D01*
X170761472Y-80395300D01*
X170790001Y-80666734D01*
X170790000Y-90772581D01*
X170790000Y-97058393D01*
X170769502Y-96990820D01*
X170710537Y-96880506D01*
X170631185Y-96783815D01*
X170534494Y-96704463D01*
X170424180Y-96645498D01*
X170304482Y-96609188D01*
X170180000Y-96596928D01*
X167925750Y-96600000D01*
X167767000Y-96758750D01*
X167767000Y-97858000D01*
X167787000Y-97858000D01*
X167787000Y-98112000D01*
X167767000Y-98112000D01*
X167767000Y-99211250D01*
X167925750Y-99370000D01*
X170180000Y-99373072D01*
X170304482Y-99360812D01*
X170424180Y-99324502D01*
X170534494Y-99265537D01*
X170631185Y-99186185D01*
X170710537Y-99089494D01*
X170769502Y-98979180D01*
X170790000Y-98911607D01*
X170790001Y-105558395D01*
X170769502Y-105490820D01*
X170710537Y-105380506D01*
X170631185Y-105283815D01*
X170534494Y-105204463D01*
X170424180Y-105145498D01*
X170304482Y-105109188D01*
X170180000Y-105096928D01*
X167925750Y-105100000D01*
X167767000Y-105258750D01*
X167767000Y-106358000D01*
X167787000Y-106358000D01*
X167787000Y-106612000D01*
X167767000Y-106612000D01*
X167767000Y-107711250D01*
X167925750Y-107870000D01*
X170180000Y-107873072D01*
X170304482Y-107860812D01*
X170424180Y-107824502D01*
X170534494Y-107765537D01*
X170631185Y-107686185D01*
X170710537Y-107589494D01*
X170769502Y-107479180D01*
X170790001Y-107411604D01*
X170790001Y-109822712D01*
X170763185Y-110096205D01*
X170693133Y-110328226D01*
X170579350Y-110542222D01*
X170426169Y-110730039D01*
X170239424Y-110884529D01*
X170026231Y-110999802D01*
X169794701Y-111071472D01*
X169523276Y-111100000D01*
X117507277Y-111100000D01*
X117233795Y-111073185D01*
X117001774Y-111003133D01*
X116787778Y-110889350D01*
X116599961Y-110736169D01*
X116445471Y-110549424D01*
X116330198Y-110336231D01*
X116258528Y-110104701D01*
X116230000Y-109833276D01*
X116230000Y-107411607D01*
X116250498Y-107479180D01*
X116309463Y-107589494D01*
X116388815Y-107686185D01*
X116485506Y-107765537D01*
X116595820Y-107824502D01*
X116715518Y-107860812D01*
X116840000Y-107873072D01*
X119094250Y-107870000D01*
X119253000Y-107711250D01*
X119253000Y-106612000D01*
X119507000Y-106612000D01*
X119507000Y-107711250D01*
X119665750Y-107870000D01*
X121920000Y-107873072D01*
X122044482Y-107860812D01*
X122164180Y-107824502D01*
X122274494Y-107765537D01*
X122371185Y-107686185D01*
X122450537Y-107589494D01*
X122509502Y-107479180D01*
X122545812Y-107359482D01*
X122558072Y-107235000D01*
X164461928Y-107235000D01*
X164474188Y-107359482D01*
X164510498Y-107479180D01*
X164569463Y-107589494D01*
X164648815Y-107686185D01*
X164745506Y-107765537D01*
X164855820Y-107824502D01*
X164975518Y-107860812D01*
X165100000Y-107873072D01*
X167354250Y-107870000D01*
X167513000Y-107711250D01*
X167513000Y-106612000D01*
X164623750Y-106612000D01*
X164465000Y-106770750D01*
X164461928Y-107235000D01*
X122558072Y-107235000D01*
X122555000Y-106770750D01*
X122396250Y-106612000D01*
X119507000Y-106612000D01*
X119253000Y-106612000D01*
X119233000Y-106612000D01*
X119233000Y-106358000D01*
X119253000Y-106358000D01*
X119253000Y-105258750D01*
X119507000Y-105258750D01*
X119507000Y-106358000D01*
X122396250Y-106358000D01*
X122555000Y-106199250D01*
X122558072Y-105735000D01*
X164461928Y-105735000D01*
X164465000Y-106199250D01*
X164623750Y-106358000D01*
X167513000Y-106358000D01*
X167513000Y-105258750D01*
X167354250Y-105100000D01*
X165100000Y-105096928D01*
X164975518Y-105109188D01*
X164855820Y-105145498D01*
X164745506Y-105204463D01*
X164648815Y-105283815D01*
X164569463Y-105380506D01*
X164510498Y-105490820D01*
X164474188Y-105610518D01*
X164461928Y-105735000D01*
X122558072Y-105735000D01*
X122545812Y-105610518D01*
X122509502Y-105490820D01*
X122450537Y-105380506D01*
X122371185Y-105283815D01*
X122274494Y-105204463D01*
X122164180Y-105145498D01*
X122044482Y-105109188D01*
X121920000Y-105096928D01*
X119665750Y-105100000D01*
X119507000Y-105258750D01*
X119253000Y-105258750D01*
X119094250Y-105100000D01*
X116840000Y-105096928D01*
X116715518Y-105109188D01*
X116595820Y-105145498D01*
X116485506Y-105204463D01*
X116388815Y-105283815D01*
X116309463Y-105380506D01*
X116250498Y-105490820D01*
X116230000Y-105558393D01*
X116230000Y-103123661D01*
X135909100Y-103123661D01*
X135909100Y-103327539D01*
X135948874Y-103527498D01*
X136026895Y-103715856D01*
X136140163Y-103885374D01*
X136284326Y-104029537D01*
X136453844Y-104142805D01*
X136642202Y-104220826D01*
X136842161Y-104260600D01*
X137046039Y-104260600D01*
X137245998Y-104220826D01*
X137434356Y-104142805D01*
X137603874Y-104029537D01*
X137748037Y-103885374D01*
X137861305Y-103715856D01*
X137939326Y-103527498D01*
X137979100Y-103327539D01*
X137979100Y-103123661D01*
X137939326Y-102923702D01*
X137861305Y-102735344D01*
X137748037Y-102565826D01*
X137603874Y-102421663D01*
X137434356Y-102308395D01*
X137245998Y-102230374D01*
X137046039Y-102190600D01*
X136842161Y-102190600D01*
X136642202Y-102230374D01*
X136453844Y-102308395D01*
X136284326Y-102421663D01*
X136140163Y-102565826D01*
X136026895Y-102735344D01*
X135948874Y-102923702D01*
X135909100Y-103123661D01*
X116230000Y-103123661D01*
X116230000Y-98911607D01*
X116250498Y-98979180D01*
X116309463Y-99089494D01*
X116388815Y-99186185D01*
X116485506Y-99265537D01*
X116595820Y-99324502D01*
X116715518Y-99360812D01*
X116840000Y-99373072D01*
X119094250Y-99370000D01*
X119253000Y-99211250D01*
X119253000Y-98112000D01*
X119507000Y-98112000D01*
X119507000Y-99211250D01*
X119665750Y-99370000D01*
X121920000Y-99373072D01*
X122044482Y-99360812D01*
X122164180Y-99324502D01*
X122274494Y-99265537D01*
X122371185Y-99186185D01*
X122450537Y-99089494D01*
X122509502Y-98979180D01*
X122545812Y-98859482D01*
X122558072Y-98735000D01*
X164461928Y-98735000D01*
X164474188Y-98859482D01*
X164510498Y-98979180D01*
X164569463Y-99089494D01*
X164648815Y-99186185D01*
X164745506Y-99265537D01*
X164855820Y-99324502D01*
X164975518Y-99360812D01*
X165100000Y-99373072D01*
X167354250Y-99370000D01*
X167513000Y-99211250D01*
X167513000Y-98112000D01*
X164623750Y-98112000D01*
X164465000Y-98270750D01*
X164461928Y-98735000D01*
X122558072Y-98735000D01*
X122555000Y-98270750D01*
X122396250Y-98112000D01*
X119507000Y-98112000D01*
X119253000Y-98112000D01*
X119233000Y-98112000D01*
X119233000Y-97858000D01*
X119253000Y-97858000D01*
X119253000Y-96758750D01*
X119507000Y-96758750D01*
X119507000Y-97858000D01*
X122396250Y-97858000D01*
X122555000Y-97699250D01*
X122558072Y-97235000D01*
X164461928Y-97235000D01*
X164465000Y-97699250D01*
X164623750Y-97858000D01*
X167513000Y-97858000D01*
X167513000Y-96758750D01*
X167354250Y-96600000D01*
X165100000Y-96596928D01*
X164975518Y-96609188D01*
X164855820Y-96645498D01*
X164745506Y-96704463D01*
X164648815Y-96783815D01*
X164569463Y-96880506D01*
X164510498Y-96990820D01*
X164474188Y-97110518D01*
X164461928Y-97235000D01*
X122558072Y-97235000D01*
X122545812Y-97110518D01*
X122509502Y-96990820D01*
X122450537Y-96880506D01*
X122371185Y-96783815D01*
X122274494Y-96704463D01*
X122164180Y-96645498D01*
X122044482Y-96609188D01*
X121920000Y-96596928D01*
X119665750Y-96600000D01*
X119507000Y-96758750D01*
X119253000Y-96758750D01*
X119094250Y-96600000D01*
X116840000Y-96596928D01*
X116715518Y-96609188D01*
X116595820Y-96645498D01*
X116485506Y-96704463D01*
X116388815Y-96783815D01*
X116309463Y-96880506D01*
X116250498Y-96990820D01*
X116230000Y-97058393D01*
X116230000Y-90501123D01*
X117150334Y-90501123D01*
X117213872Y-90684418D01*
X117323342Y-90857052D01*
X117464388Y-91005013D01*
X117631590Y-91122614D01*
X117818522Y-91205336D01*
X118018000Y-91250000D01*
X118318000Y-91250000D01*
X118318000Y-90342000D01*
X118572000Y-90342000D01*
X118572000Y-91250000D01*
X118872000Y-91250000D01*
X119071478Y-91205336D01*
X119258410Y-91122614D01*
X119425612Y-91005013D01*
X119566658Y-90857052D01*
X119676128Y-90684418D01*
X119739666Y-90501123D01*
X119611998Y-90342000D01*
X118572000Y-90342000D01*
X118318000Y-90342000D01*
X117278002Y-90342000D01*
X117150334Y-90501123D01*
X116230000Y-90501123D01*
X116230000Y-90141123D01*
X123100334Y-90141123D01*
X123163872Y-90324418D01*
X123273342Y-90497052D01*
X123414388Y-90645013D01*
X123581590Y-90762614D01*
X123768522Y-90845336D01*
X123968000Y-90890000D01*
X124268000Y-90890000D01*
X124268000Y-89982000D01*
X123228002Y-89982000D01*
X123100334Y-90141123D01*
X116230000Y-90141123D01*
X116230000Y-89928877D01*
X117150334Y-89928877D01*
X117278002Y-90088000D01*
X118318000Y-90088000D01*
X118318000Y-89180000D01*
X118572000Y-89180000D01*
X118572000Y-90088000D01*
X119611998Y-90088000D01*
X119739666Y-89928877D01*
X119676128Y-89745582D01*
X119566658Y-89572948D01*
X119562778Y-89568877D01*
X123100334Y-89568877D01*
X123228002Y-89728000D01*
X124268000Y-89728000D01*
X124268000Y-88820000D01*
X124522000Y-88820000D01*
X124522000Y-89728000D01*
X124542000Y-89728000D01*
X124542000Y-89982000D01*
X124522000Y-89982000D01*
X124522000Y-90890000D01*
X124822000Y-90890000D01*
X125021478Y-90845336D01*
X125208410Y-90762614D01*
X125375612Y-90645013D01*
X125516658Y-90497052D01*
X125558465Y-90431122D01*
X125645000Y-90439645D01*
X125833192Y-90421110D01*
X126014153Y-90366216D01*
X126180928Y-90277073D01*
X126327107Y-90157107D01*
X126447073Y-90010928D01*
X126536216Y-89844154D01*
X126591110Y-89663193D01*
X126605000Y-89522162D01*
X126605000Y-89127839D01*
X126591110Y-88986808D01*
X126536216Y-88805846D01*
X126447073Y-88639072D01*
X126327107Y-88492893D01*
X126180928Y-88372927D01*
X126014154Y-88283784D01*
X125833193Y-88228890D01*
X125645000Y-88210355D01*
X125456808Y-88228890D01*
X125275847Y-88283784D01*
X125109073Y-88372927D01*
X124962894Y-88492893D01*
X124842927Y-88639072D01*
X124753784Y-88805846D01*
X124749490Y-88820000D01*
X124522000Y-88820000D01*
X124268000Y-88820000D01*
X123968000Y-88820000D01*
X123768522Y-88864664D01*
X123581590Y-88947386D01*
X123414388Y-89064987D01*
X123273342Y-89212948D01*
X123163872Y-89385582D01*
X123100334Y-89568877D01*
X119562778Y-89568877D01*
X119425612Y-89424987D01*
X119258410Y-89307386D01*
X119071478Y-89224664D01*
X118872000Y-89180000D01*
X118572000Y-89180000D01*
X118318000Y-89180000D01*
X118018000Y-89180000D01*
X117818522Y-89224664D01*
X117631590Y-89307386D01*
X117464388Y-89424987D01*
X117323342Y-89572948D01*
X117213872Y-89745582D01*
X117150334Y-89928877D01*
X116230000Y-89928877D01*
X116230000Y-81521123D01*
X117150334Y-81521123D01*
X117213872Y-81704418D01*
X117323342Y-81877052D01*
X117464388Y-82025013D01*
X117631590Y-82142614D01*
X117818522Y-82225336D01*
X118018000Y-82270000D01*
X118318000Y-82270000D01*
X118318000Y-81362000D01*
X118572000Y-81362000D01*
X118572000Y-82270000D01*
X118872000Y-82270000D01*
X119071478Y-82225336D01*
X119258410Y-82142614D01*
X119425612Y-82025013D01*
X119562777Y-81881123D01*
X123100334Y-81881123D01*
X123163872Y-82064418D01*
X123273342Y-82237052D01*
X123414388Y-82385013D01*
X123581590Y-82502614D01*
X123768522Y-82585336D01*
X123968000Y-82630000D01*
X124268000Y-82630000D01*
X124268000Y-81722000D01*
X123228002Y-81722000D01*
X123100334Y-81881123D01*
X119562777Y-81881123D01*
X119566658Y-81877052D01*
X119676128Y-81704418D01*
X119739666Y-81521123D01*
X119611998Y-81362000D01*
X118572000Y-81362000D01*
X118318000Y-81362000D01*
X117278002Y-81362000D01*
X117150334Y-81521123D01*
X116230000Y-81521123D01*
X116230000Y-81308877D01*
X123100334Y-81308877D01*
X123228002Y-81468000D01*
X124268000Y-81468000D01*
X124268000Y-80560000D01*
X124522000Y-80560000D01*
X124522000Y-81468000D01*
X124542000Y-81468000D01*
X124542000Y-81722000D01*
X124522000Y-81722000D01*
X124522000Y-82630000D01*
X124822000Y-82630000D01*
X124827087Y-82628861D01*
X124899319Y-82736964D01*
X125033036Y-82870681D01*
X125190269Y-82975741D01*
X125364978Y-83048108D01*
X125550448Y-83085000D01*
X125739552Y-83085000D01*
X125925022Y-83048108D01*
X126099731Y-82975741D01*
X126256964Y-82870681D01*
X126390681Y-82736964D01*
X126495741Y-82579731D01*
X126568108Y-82405022D01*
X126605000Y-82219552D01*
X126605000Y-82030448D01*
X126568108Y-81844978D01*
X126495741Y-81670269D01*
X126390681Y-81513036D01*
X126256964Y-81379319D01*
X126099731Y-81274259D01*
X125925022Y-81201892D01*
X125739552Y-81165000D01*
X125639792Y-81165000D01*
X125626128Y-81125582D01*
X125516658Y-80952948D01*
X125375612Y-80804987D01*
X125208410Y-80687386D01*
X125021478Y-80604664D01*
X124822000Y-80560000D01*
X124522000Y-80560000D01*
X124268000Y-80560000D01*
X123968000Y-80560000D01*
X123768522Y-80604664D01*
X123581590Y-80687386D01*
X123414388Y-80804987D01*
X123273342Y-80952948D01*
X123163872Y-81125582D01*
X123100334Y-81308877D01*
X116230000Y-81308877D01*
X116230000Y-80948877D01*
X117150334Y-80948877D01*
X117278002Y-81108000D01*
X118318000Y-81108000D01*
X118318000Y-80200000D01*
X118572000Y-80200000D01*
X118572000Y-81108000D01*
X119611998Y-81108000D01*
X119739666Y-80948877D01*
X119676128Y-80765582D01*
X119566658Y-80592948D01*
X119425612Y-80444987D01*
X119258410Y-80327386D01*
X119071478Y-80244664D01*
X118872000Y-80200000D01*
X118572000Y-80200000D01*
X118318000Y-80200000D01*
X118018000Y-80200000D01*
X117818522Y-80244664D01*
X117631590Y-80327386D01*
X117464388Y-80444987D01*
X117323342Y-80592948D01*
X117213872Y-80765582D01*
X117150334Y-80948877D01*
X116230000Y-80948877D01*
X116230000Y-80677277D01*
X116256815Y-80403796D01*
X116326867Y-80171774D01*
X116391614Y-80050000D01*
X130391128Y-80050000D01*
X130391128Y-85050000D01*
X130403388Y-85174482D01*
X130439698Y-85294180D01*
X130498663Y-85404494D01*
X130578015Y-85501185D01*
X130674706Y-85580537D01*
X130785020Y-85639502D01*
X130904718Y-85675812D01*
X131029200Y-85688072D01*
X131141285Y-85688072D01*
X131144200Y-85717669D01*
X131144200Y-85717676D01*
X131157005Y-85847689D01*
X131207611Y-86014512D01*
X131289789Y-86168258D01*
X131400383Y-86303017D01*
X131434156Y-86330734D01*
X134370001Y-89266580D01*
X134370000Y-89631545D01*
X134337795Y-89679744D01*
X134259774Y-89868102D01*
X134220000Y-90068061D01*
X134220000Y-90271939D01*
X134259774Y-90471898D01*
X134337795Y-90660256D01*
X134451063Y-90829774D01*
X134595226Y-90973937D01*
X134764744Y-91087205D01*
X134953102Y-91165226D01*
X135153061Y-91205000D01*
X135356939Y-91205000D01*
X135556898Y-91165226D01*
X135745256Y-91087205D01*
X135914774Y-90973937D01*
X136058937Y-90829774D01*
X136172205Y-90660256D01*
X136250226Y-90471898D01*
X136290000Y-90271939D01*
X136290000Y-90068061D01*
X136250226Y-89868102D01*
X136172205Y-89679744D01*
X136140000Y-89631546D01*
X136140000Y-88943465D01*
X136144281Y-88899999D01*
X136140000Y-88856533D01*
X136140000Y-88856523D01*
X136127195Y-88726510D01*
X136076589Y-88559687D01*
X135994411Y-88405941D01*
X135883817Y-88271183D01*
X135850049Y-88243470D01*
X133252434Y-85645856D01*
X133273380Y-85639502D01*
X133383694Y-85580537D01*
X133480385Y-85501185D01*
X133559737Y-85404494D01*
X133618702Y-85294180D01*
X133655012Y-85174482D01*
X133667272Y-85050000D01*
X136156928Y-85050000D01*
X136169188Y-85174482D01*
X136205498Y-85294180D01*
X136264463Y-85404494D01*
X136343815Y-85501185D01*
X136440506Y-85580537D01*
X136550820Y-85639502D01*
X136670518Y-85675812D01*
X136795000Y-85688072D01*
X137509250Y-85685000D01*
X137668000Y-85526250D01*
X137668000Y-82677000D01*
X137922000Y-82677000D01*
X137922000Y-85526250D01*
X138080750Y-85685000D01*
X138795000Y-85688072D01*
X138919482Y-85675812D01*
X139039180Y-85639502D01*
X139149494Y-85580537D01*
X139246185Y-85501185D01*
X139325537Y-85404494D01*
X139384502Y-85294180D01*
X139420812Y-85174482D01*
X139433072Y-85050000D01*
X139430000Y-82835750D01*
X139271250Y-82677000D01*
X137922000Y-82677000D01*
X137668000Y-82677000D01*
X136318750Y-82677000D01*
X136160000Y-82835750D01*
X136156928Y-85050000D01*
X133667272Y-85050000D01*
X133667272Y-80050000D01*
X136156928Y-80050000D01*
X136160000Y-82264250D01*
X136318750Y-82423000D01*
X137668000Y-82423000D01*
X137668000Y-79573750D01*
X137922000Y-79573750D01*
X137922000Y-82423000D01*
X139271250Y-82423000D01*
X139430000Y-82264250D01*
X139431132Y-81447921D01*
X161890140Y-81447921D01*
X161890140Y-81651799D01*
X161929914Y-81851758D01*
X162007935Y-82040116D01*
X162121203Y-82209634D01*
X162265366Y-82353797D01*
X162434884Y-82467065D01*
X162623242Y-82545086D01*
X162823201Y-82584860D01*
X163027079Y-82584860D01*
X163227038Y-82545086D01*
X163415396Y-82467065D01*
X163584914Y-82353797D01*
X163729077Y-82209634D01*
X163842345Y-82040116D01*
X163920366Y-81851758D01*
X163960140Y-81651799D01*
X163960140Y-81447921D01*
X163920366Y-81247962D01*
X163842345Y-81059604D01*
X163729077Y-80890086D01*
X163584914Y-80745923D01*
X163415396Y-80632655D01*
X163227038Y-80554634D01*
X163027079Y-80514860D01*
X162823201Y-80514860D01*
X162623242Y-80554634D01*
X162434884Y-80632655D01*
X162265366Y-80745923D01*
X162121203Y-80890086D01*
X162007935Y-81059604D01*
X161929914Y-81247962D01*
X161890140Y-81447921D01*
X139431132Y-81447921D01*
X139433072Y-80050000D01*
X139420812Y-79925518D01*
X139384502Y-79805820D01*
X139325537Y-79695506D01*
X139246185Y-79598815D01*
X139149494Y-79519463D01*
X139039180Y-79460498D01*
X138919482Y-79424188D01*
X138795000Y-79411928D01*
X138080750Y-79415000D01*
X137922000Y-79573750D01*
X137668000Y-79573750D01*
X137509250Y-79415000D01*
X136795000Y-79411928D01*
X136670518Y-79424188D01*
X136550820Y-79460498D01*
X136440506Y-79519463D01*
X136343815Y-79598815D01*
X136264463Y-79695506D01*
X136205498Y-79805820D01*
X136169188Y-79925518D01*
X136156928Y-80050000D01*
X133667272Y-80050000D01*
X133655012Y-79925518D01*
X133618702Y-79805820D01*
X133559737Y-79695506D01*
X133480385Y-79598815D01*
X133383694Y-79519463D01*
X133273380Y-79460498D01*
X133153682Y-79424188D01*
X133029200Y-79411928D01*
X131029200Y-79411928D01*
X130904718Y-79424188D01*
X130785020Y-79460498D01*
X130674706Y-79519463D01*
X130578015Y-79598815D01*
X130498663Y-79695506D01*
X130439698Y-79805820D01*
X130403388Y-79925518D01*
X130391128Y-80050000D01*
X116391614Y-80050000D01*
X116440650Y-79957778D01*
X116593832Y-79769959D01*
X116780577Y-79615470D01*
X116993769Y-79500199D01*
X117225300Y-79428528D01*
X117496725Y-79400000D01*
X169512723Y-79400000D01*
X169786204Y-79426815D01*
G37*
%TD.AperFunction*%
%TD*%
M02*
