%TF.GenerationSoftware,KiCad,Pcbnew,(5.1.7)-1*%
%TF.CreationDate,2021-09-09T12:13:45+02:00*%
%TF.ProjectId,SAW LNA Combo NOAA,53415720-4c4e-4412-9043-6f6d626f204e,rev?*%
%TF.SameCoordinates,Original*%
%TF.FileFunction,Copper,L1,Top*%
%TF.FilePolarity,Positive*%
%FSLAX46Y46*%
G04 Gerber Fmt 4.6, Leading zero omitted, Abs format (unit mm)*
G04 Created by KiCad (PCBNEW (5.1.7)-1) date 2021-09-09 12:13:45*
%MOMM*%
%LPD*%
G01*
G04 APERTURE LIST*
%TA.AperFunction,EtchedComponent*%
%ADD10C,1.000000*%
%TD*%
%TA.AperFunction,SMDPad,CuDef*%
%ADD11R,5.080000X1.500000*%
%TD*%
%TA.AperFunction,SMDPad,CuDef*%
%ADD12R,1.350000X0.710000*%
%TD*%
%TA.AperFunction,SMDPad,CuDef*%
%ADD13R,0.710000X1.350000*%
%TD*%
%TA.AperFunction,SMDPad,CuDef*%
%ADD14C,0.100000*%
%TD*%
%TA.AperFunction,SMDPad,CuDef*%
%ADD15R,0.900000X1.300000*%
%TD*%
%TA.AperFunction,SMDPad,CuDef*%
%ADD16R,0.700000X0.300000*%
%TD*%
%TA.AperFunction,ComponentPad*%
%ADD17O,1.400000X0.800000*%
%TD*%
%TA.AperFunction,ViaPad*%
%ADD18C,0.800000*%
%TD*%
%TA.AperFunction,ViaPad*%
%ADD19C,0.600000*%
%TD*%
%TA.AperFunction,Conductor*%
%ADD20C,0.345470*%
%TD*%
%TA.AperFunction,Conductor*%
%ADD21C,0.500000*%
%TD*%
%TA.AperFunction,Conductor*%
%ADD22C,0.250000*%
%TD*%
%TA.AperFunction,Conductor*%
%ADD23C,0.900000*%
%TD*%
%TA.AperFunction,Conductor*%
%ADD24C,0.254000*%
%TD*%
%TA.AperFunction,Conductor*%
%ADD25C,0.100000*%
%TD*%
G04 APERTURE END LIST*
D10*
%TO.C,Shield*%
X160392000Y-104618000D02*
X160392000Y-107118000D01*
X126492000Y-101918000D02*
X126492000Y-107118000D01*
X160392000Y-93218000D02*
X160392000Y-100118000D01*
X126492000Y-93218000D02*
X126492000Y-97518000D01*
X126492000Y-107118000D02*
X160392000Y-107118000D01*
X126492000Y-93218000D02*
X160392000Y-93218000D01*
%TD*%
%TO.P,C9,2*%
%TO.N,Net-(C2-Pad2)*%
%TA.AperFunction,SMDPad,CuDef*%
G36*
G01*
X146210000Y-81730000D02*
X147160000Y-81730000D01*
G75*
G02*
X147410000Y-81980000I0J-250000D01*
G01*
X147410000Y-82480000D01*
G75*
G02*
X147160000Y-82730000I-250000J0D01*
G01*
X146210000Y-82730000D01*
G75*
G02*
X145960000Y-82480000I0J250000D01*
G01*
X145960000Y-81980000D01*
G75*
G02*
X146210000Y-81730000I250000J0D01*
G01*
G37*
%TD.AperFunction*%
%TO.P,C9,1*%
%TO.N,GND*%
%TA.AperFunction,SMDPad,CuDef*%
G36*
G01*
X146210000Y-79830000D02*
X147160000Y-79830000D01*
G75*
G02*
X147410000Y-80080000I0J-250000D01*
G01*
X147410000Y-80580000D01*
G75*
G02*
X147160000Y-80830000I-250000J0D01*
G01*
X146210000Y-80830000D01*
G75*
G02*
X145960000Y-80580000I0J250000D01*
G01*
X145960000Y-80080000D01*
G75*
G02*
X146210000Y-79830000I250000J0D01*
G01*
G37*
%TD.AperFunction*%
%TD*%
%TO.P,C8,2*%
%TO.N,GND*%
%TA.AperFunction,SMDPad,CuDef*%
G36*
G01*
X138980000Y-84140000D02*
X137880000Y-84140000D01*
G75*
G02*
X137630000Y-83890000I0J250000D01*
G01*
X137630000Y-80890000D01*
G75*
G02*
X137880000Y-80640000I250000J0D01*
G01*
X138980000Y-80640000D01*
G75*
G02*
X139230000Y-80890000I0J-250000D01*
G01*
X139230000Y-83890000D01*
G75*
G02*
X138980000Y-84140000I-250000J0D01*
G01*
G37*
%TD.AperFunction*%
%TO.P,C8,1*%
%TO.N,Net-(C2-Pad2)*%
%TA.AperFunction,SMDPad,CuDef*%
G36*
G01*
X138980000Y-89540000D02*
X137880000Y-89540000D01*
G75*
G02*
X137630000Y-89290000I0J250000D01*
G01*
X137630000Y-86290000D01*
G75*
G02*
X137880000Y-86040000I250000J0D01*
G01*
X138980000Y-86040000D01*
G75*
G02*
X139230000Y-86290000I0J-250000D01*
G01*
X139230000Y-89290000D01*
G75*
G02*
X138980000Y-89540000I-250000J0D01*
G01*
G37*
%TD.AperFunction*%
%TD*%
%TO.P,U1,8*%
%TO.N,Net-(C6-Pad2)*%
%TA.AperFunction,SMDPad,CuDef*%
G36*
G01*
X150505000Y-85875000D02*
X150505000Y-85575000D01*
G75*
G02*
X150655000Y-85425000I150000J0D01*
G01*
X152255000Y-85425000D01*
G75*
G02*
X152405000Y-85575000I0J-150000D01*
G01*
X152405000Y-85875000D01*
G75*
G02*
X152255000Y-86025000I-150000J0D01*
G01*
X150655000Y-86025000D01*
G75*
G02*
X150505000Y-85875000I0J150000D01*
G01*
G37*
%TD.AperFunction*%
%TO.P,U1,7*%
%TO.N,GND*%
%TA.AperFunction,SMDPad,CuDef*%
G36*
G01*
X150505000Y-87145000D02*
X150505000Y-86845000D01*
G75*
G02*
X150655000Y-86695000I150000J0D01*
G01*
X152255000Y-86695000D01*
G75*
G02*
X152405000Y-86845000I0J-150000D01*
G01*
X152405000Y-87145000D01*
G75*
G02*
X152255000Y-87295000I-150000J0D01*
G01*
X150655000Y-87295000D01*
G75*
G02*
X150505000Y-87145000I0J150000D01*
G01*
G37*
%TD.AperFunction*%
%TO.P,U1,6*%
%TO.N,Net-(U1-Pad6)*%
%TA.AperFunction,SMDPad,CuDef*%
G36*
G01*
X150505000Y-88415000D02*
X150505000Y-88115000D01*
G75*
G02*
X150655000Y-87965000I150000J0D01*
G01*
X152255000Y-87965000D01*
G75*
G02*
X152405000Y-88115000I0J-150000D01*
G01*
X152405000Y-88415000D01*
G75*
G02*
X152255000Y-88565000I-150000J0D01*
G01*
X150655000Y-88565000D01*
G75*
G02*
X150505000Y-88415000I0J150000D01*
G01*
G37*
%TD.AperFunction*%
%TO.P,U1,5*%
%TO.N,Net-(C6-Pad1)*%
%TA.AperFunction,SMDPad,CuDef*%
G36*
G01*
X150505000Y-89685000D02*
X150505000Y-89385000D01*
G75*
G02*
X150655000Y-89235000I150000J0D01*
G01*
X152255000Y-89235000D01*
G75*
G02*
X152405000Y-89385000I0J-150000D01*
G01*
X152405000Y-89685000D01*
G75*
G02*
X152255000Y-89835000I-150000J0D01*
G01*
X150655000Y-89835000D01*
G75*
G02*
X150505000Y-89685000I0J150000D01*
G01*
G37*
%TD.AperFunction*%
%TO.P,U1,4*%
%TO.N,Net-(U1-Pad4)*%
%TA.AperFunction,SMDPad,CuDef*%
G36*
G01*
X143505000Y-89685000D02*
X143505000Y-89385000D01*
G75*
G02*
X143655000Y-89235000I150000J0D01*
G01*
X145255000Y-89235000D01*
G75*
G02*
X145405000Y-89385000I0J-150000D01*
G01*
X145405000Y-89685000D01*
G75*
G02*
X145255000Y-89835000I-150000J0D01*
G01*
X143655000Y-89835000D01*
G75*
G02*
X143505000Y-89685000I0J150000D01*
G01*
G37*
%TD.AperFunction*%
%TO.P,U1,3*%
%TO.N,Net-(C2-Pad2)*%
%TA.AperFunction,SMDPad,CuDef*%
G36*
G01*
X143505000Y-88415000D02*
X143505000Y-88115000D01*
G75*
G02*
X143655000Y-87965000I150000J0D01*
G01*
X145255000Y-87965000D01*
G75*
G02*
X145405000Y-88115000I0J-150000D01*
G01*
X145405000Y-88415000D01*
G75*
G02*
X145255000Y-88565000I-150000J0D01*
G01*
X143655000Y-88565000D01*
G75*
G02*
X143505000Y-88415000I0J150000D01*
G01*
G37*
%TD.AperFunction*%
%TO.P,U1,2*%
%TO.N,GND*%
%TA.AperFunction,SMDPad,CuDef*%
G36*
G01*
X143505000Y-87145000D02*
X143505000Y-86845000D01*
G75*
G02*
X143655000Y-86695000I150000J0D01*
G01*
X145255000Y-86695000D01*
G75*
G02*
X145405000Y-86845000I0J-150000D01*
G01*
X145405000Y-87145000D01*
G75*
G02*
X145255000Y-87295000I-150000J0D01*
G01*
X143655000Y-87295000D01*
G75*
G02*
X143505000Y-87145000I0J150000D01*
G01*
G37*
%TD.AperFunction*%
%TO.P,U1,1*%
%TO.N,Net-(U1-Pad1)*%
%TA.AperFunction,SMDPad,CuDef*%
G36*
G01*
X143505000Y-85875000D02*
X143505000Y-85575000D01*
G75*
G02*
X143655000Y-85425000I150000J0D01*
G01*
X145255000Y-85425000D01*
G75*
G02*
X145405000Y-85575000I0J-150000D01*
G01*
X145405000Y-85875000D01*
G75*
G02*
X145255000Y-86025000I-150000J0D01*
G01*
X143655000Y-86025000D01*
G75*
G02*
X143505000Y-85875000I0J150000D01*
G01*
G37*
%TD.AperFunction*%
%TD*%
%TO.P,C7,2*%
%TO.N,Net-(C6-Pad1)*%
%TA.AperFunction,SMDPad,CuDef*%
G36*
G01*
X154780000Y-85590000D02*
X153830000Y-85590000D01*
G75*
G02*
X153580000Y-85340000I0J250000D01*
G01*
X153580000Y-84840000D01*
G75*
G02*
X153830000Y-84590000I250000J0D01*
G01*
X154780000Y-84590000D01*
G75*
G02*
X155030000Y-84840000I0J-250000D01*
G01*
X155030000Y-85340000D01*
G75*
G02*
X154780000Y-85590000I-250000J0D01*
G01*
G37*
%TD.AperFunction*%
%TO.P,C7,1*%
%TO.N,GND*%
%TA.AperFunction,SMDPad,CuDef*%
G36*
G01*
X154780000Y-87490000D02*
X153830000Y-87490000D01*
G75*
G02*
X153580000Y-87240000I0J250000D01*
G01*
X153580000Y-86740000D01*
G75*
G02*
X153830000Y-86490000I250000J0D01*
G01*
X154780000Y-86490000D01*
G75*
G02*
X155030000Y-86740000I0J-250000D01*
G01*
X155030000Y-87240000D01*
G75*
G02*
X154780000Y-87490000I-250000J0D01*
G01*
G37*
%TD.AperFunction*%
%TD*%
%TO.P,C6,2*%
%TO.N,Net-(C6-Pad2)*%
%TA.AperFunction,SMDPad,CuDef*%
G36*
G01*
X152902500Y-82075000D02*
X152902500Y-83025000D01*
G75*
G02*
X152652500Y-83275000I-250000J0D01*
G01*
X152152500Y-83275000D01*
G75*
G02*
X151902500Y-83025000I0J250000D01*
G01*
X151902500Y-82075000D01*
G75*
G02*
X152152500Y-81825000I250000J0D01*
G01*
X152652500Y-81825000D01*
G75*
G02*
X152902500Y-82075000I0J-250000D01*
G01*
G37*
%TD.AperFunction*%
%TO.P,C6,1*%
%TO.N,Net-(C6-Pad1)*%
%TA.AperFunction,SMDPad,CuDef*%
G36*
G01*
X154802500Y-82075000D02*
X154802500Y-83025000D01*
G75*
G02*
X154552500Y-83275000I-250000J0D01*
G01*
X154052500Y-83275000D01*
G75*
G02*
X153802500Y-83025000I0J250000D01*
G01*
X153802500Y-82075000D01*
G75*
G02*
X154052500Y-81825000I250000J0D01*
G01*
X154552500Y-81825000D01*
G75*
G02*
X154802500Y-82075000I0J-250000D01*
G01*
G37*
%TD.AperFunction*%
%TD*%
D11*
%TO.P,J1,2*%
%TO.N,GND*%
X119380000Y-97985000D03*
X119380000Y-106485000D03*
%TO.P,J1,1*%
%TO.N,Net-(C1-Pad2)*%
X119380000Y-102235000D03*
%TD*%
%TO.P,R1,2*%
%TO.N,Net-(D4-Pad2)*%
%TA.AperFunction,SMDPad,CuDef*%
G36*
G01*
X132228000Y-87017040D02*
X131678000Y-87017040D01*
G75*
G02*
X131478000Y-86817040I0J200000D01*
G01*
X131478000Y-86417040D01*
G75*
G02*
X131678000Y-86217040I200000J0D01*
G01*
X132228000Y-86217040D01*
G75*
G02*
X132428000Y-86417040I0J-200000D01*
G01*
X132428000Y-86817040D01*
G75*
G02*
X132228000Y-87017040I-200000J0D01*
G01*
G37*
%TD.AperFunction*%
%TO.P,R1,1*%
%TO.N,Net-(C2-Pad2)*%
%TA.AperFunction,SMDPad,CuDef*%
G36*
G01*
X132228000Y-88667040D02*
X131678000Y-88667040D01*
G75*
G02*
X131478000Y-88467040I0J200000D01*
G01*
X131478000Y-88067040D01*
G75*
G02*
X131678000Y-87867040I200000J0D01*
G01*
X132228000Y-87867040D01*
G75*
G02*
X132428000Y-88067040I0J-200000D01*
G01*
X132428000Y-88467040D01*
G75*
G02*
X132228000Y-88667040I-200000J0D01*
G01*
G37*
%TD.AperFunction*%
%TD*%
%TO.P,D4,2*%
%TO.N,Net-(D4-Pad2)*%
%TA.AperFunction,SMDPad,CuDef*%
G36*
G01*
X131496750Y-84082040D02*
X132409250Y-84082040D01*
G75*
G02*
X132653000Y-84325790I0J-243750D01*
G01*
X132653000Y-84813290D01*
G75*
G02*
X132409250Y-85057040I-243750J0D01*
G01*
X131496750Y-85057040D01*
G75*
G02*
X131253000Y-84813290I0J243750D01*
G01*
X131253000Y-84325790D01*
G75*
G02*
X131496750Y-84082040I243750J0D01*
G01*
G37*
%TD.AperFunction*%
%TO.P,D4,1*%
%TO.N,GND*%
%TA.AperFunction,SMDPad,CuDef*%
G36*
G01*
X131496750Y-82207040D02*
X132409250Y-82207040D01*
G75*
G02*
X132653000Y-82450790I0J-243750D01*
G01*
X132653000Y-82938290D01*
G75*
G02*
X132409250Y-83182040I-243750J0D01*
G01*
X131496750Y-83182040D01*
G75*
G02*
X131253000Y-82938290I0J243750D01*
G01*
X131253000Y-82450790D01*
G75*
G02*
X131496750Y-82207040I243750J0D01*
G01*
G37*
%TD.AperFunction*%
%TD*%
%TO.P,J2,2*%
%TO.N,GND*%
X167640000Y-106485000D03*
X167640000Y-97985000D03*
%TO.P,J2,1*%
%TO.N,Net-(D3-Pad1)*%
X167640000Y-102235000D03*
%TD*%
%TO.P,L3,2*%
%TO.N,Net-(C4-Pad2)*%
%TA.AperFunction,SMDPad,CuDef*%
G36*
G01*
X140480200Y-104075600D02*
X140480200Y-102375600D01*
G75*
G02*
X140730200Y-102125600I250000J0D01*
G01*
X141655200Y-102125600D01*
G75*
G02*
X141905200Y-102375600I0J-250000D01*
G01*
X141905200Y-104075600D01*
G75*
G02*
X141655200Y-104325600I-250000J0D01*
G01*
X140730200Y-104325600D01*
G75*
G02*
X140480200Y-104075600I0J250000D01*
G01*
G37*
%TD.AperFunction*%
%TO.P,L3,1*%
%TO.N,+5V*%
%TA.AperFunction,SMDPad,CuDef*%
G36*
G01*
X138155200Y-104075600D02*
X138155200Y-102375600D01*
G75*
G02*
X138405200Y-102125600I250000J0D01*
G01*
X139330200Y-102125600D01*
G75*
G02*
X139580200Y-102375600I0J-250000D01*
G01*
X139580200Y-104075600D01*
G75*
G02*
X139330200Y-104325600I-250000J0D01*
G01*
X138405200Y-104325600D01*
G75*
G02*
X138155200Y-104075600I0J250000D01*
G01*
G37*
%TD.AperFunction*%
%TD*%
D12*
%TO.P,U3,10*%
%TO.N,Net-(C4-Pad1)*%
X148513000Y-99695000D03*
D13*
%TO.P,U3,9*%
%TO.N,GND*%
X150368000Y-98840000D03*
%TO.P,U3,8*%
X151638000Y-98840000D03*
%TO.P,U3,7*%
X152908000Y-98840000D03*
D12*
%TO.P,U3,6*%
X154763000Y-99695000D03*
%TO.P,U3,5*%
%TO.N,Net-(D3-Pad1)*%
X154763000Y-102235000D03*
D13*
%TO.P,U3,4*%
%TO.N,GND*%
X152908000Y-103090000D03*
%TO.P,U3,3*%
X151638000Y-103090000D03*
%TO.P,U3,2*%
X150368000Y-103090000D03*
D12*
%TO.P,U3,1*%
X148513000Y-102235000D03*
%TD*%
%TA.AperFunction,SMDPad,CuDef*%
D14*
%TO.P,U2,2*%
%TO.N,GND*%
G36*
X140566500Y-95744000D02*
G01*
X140566500Y-98869000D01*
X140150000Y-98869000D01*
X140150000Y-100344000D01*
X139250000Y-100344000D01*
X139250000Y-98869000D01*
X138833500Y-98869000D01*
X138833500Y-95744000D01*
X140566500Y-95744000D01*
G37*
%TD.AperFunction*%
D15*
%TO.P,U2,3*%
%TO.N,Net-(C4-Pad2)*%
X141200000Y-99694000D03*
%TO.P,U2,1*%
%TO.N,Net-(L1-Pad2)*%
X138200000Y-99694000D03*
%TD*%
D16*
%TO.P,P1,B12*%
%TO.N,GND*%
X124605000Y-82725000D03*
%TO.P,P1,B11*%
%TO.N,N/C*%
X124605000Y-83225000D03*
%TO.P,P1,B10*%
X124605000Y-83725000D03*
%TO.P,P1,B9*%
%TO.N,Net-(C2-Pad2)*%
X124605000Y-84225000D03*
%TO.P,P1,B8*%
%TO.N,N/C*%
X124605000Y-84725000D03*
%TO.P,P1,B7*%
X124605000Y-85225000D03*
%TO.P,P1,B6*%
X124605000Y-85725000D03*
%TO.P,P1,B5*%
%TO.N,Net-(P1-PadB5)*%
X124605000Y-86225000D03*
%TO.P,P1,B4*%
%TO.N,Net-(C2-Pad2)*%
X124605000Y-86725000D03*
%TO.P,P1,B3*%
%TO.N,N/C*%
X124605000Y-87225000D03*
%TO.P,P1,B2*%
X124605000Y-87725000D03*
D17*
%TO.P,P1,S1*%
%TO.N,GND*%
X118445000Y-81235000D03*
X118445000Y-90215000D03*
X124395000Y-89855000D03*
D16*
%TO.P,P1,B1*%
X124605000Y-88225000D03*
%TO.P,P1,A11*%
%TO.N,N/C*%
X126305000Y-87975000D03*
%TO.P,P1,A8*%
X126305000Y-86475000D03*
%TO.P,P1,A9*%
%TO.N,Net-(C2-Pad2)*%
X126305000Y-86975000D03*
%TO.P,P1,A10*%
%TO.N,N/C*%
X126305000Y-87475000D03*
%TO.P,P1,A12*%
%TO.N,GND*%
X126305000Y-88475000D03*
%TO.P,P1,A7*%
%TO.N,Net-(P1-PadA7)*%
X126305000Y-85975000D03*
%TO.P,P1,A6*%
%TO.N,Net-(P1-PadA6)*%
X126305000Y-85475000D03*
%TO.P,P1,A5*%
%TO.N,Net-(P1-PadA5)*%
X126305000Y-84975000D03*
%TO.P,P1,A4*%
%TO.N,Net-(C2-Pad2)*%
X126305000Y-84475000D03*
%TO.P,P1,A3*%
%TO.N,N/C*%
X126305000Y-83975000D03*
%TO.P,P1,A2*%
X126305000Y-83475000D03*
%TO.P,P1,A1*%
%TO.N,GND*%
X126305000Y-82975000D03*
D17*
%TO.P,P1,S1*%
X124395000Y-81595000D03*
%TD*%
%TO.P,L4,2*%
%TO.N,+5V*%
%TA.AperFunction,SMDPad,CuDef*%
G36*
G01*
X160296640Y-83859860D02*
X159951640Y-83859860D01*
G75*
G02*
X159804140Y-83712360I0J147500D01*
G01*
X159804140Y-83417360D01*
G75*
G02*
X159951640Y-83269860I147500J0D01*
G01*
X160296640Y-83269860D01*
G75*
G02*
X160444140Y-83417360I0J-147500D01*
G01*
X160444140Y-83712360D01*
G75*
G02*
X160296640Y-83859860I-147500J0D01*
G01*
G37*
%TD.AperFunction*%
%TO.P,L4,1*%
%TO.N,Net-(C3-Pad2)*%
%TA.AperFunction,SMDPad,CuDef*%
G36*
G01*
X160296640Y-84829860D02*
X159951640Y-84829860D01*
G75*
G02*
X159804140Y-84682360I0J147500D01*
G01*
X159804140Y-84387360D01*
G75*
G02*
X159951640Y-84239860I147500J0D01*
G01*
X160296640Y-84239860D01*
G75*
G02*
X160444140Y-84387360I0J-147500D01*
G01*
X160444140Y-84682360D01*
G75*
G02*
X160296640Y-84829860I-147500J0D01*
G01*
G37*
%TD.AperFunction*%
%TD*%
%TO.P,L2,2*%
%TO.N,Net-(C3-Pad2)*%
%TA.AperFunction,SMDPad,CuDef*%
G36*
G01*
X160296640Y-88859860D02*
X159951640Y-88859860D01*
G75*
G02*
X159804140Y-88712360I0J147500D01*
G01*
X159804140Y-88417360D01*
G75*
G02*
X159951640Y-88269860I147500J0D01*
G01*
X160296640Y-88269860D01*
G75*
G02*
X160444140Y-88417360I0J-147500D01*
G01*
X160444140Y-88712360D01*
G75*
G02*
X160296640Y-88859860I-147500J0D01*
G01*
G37*
%TD.AperFunction*%
%TO.P,L2,1*%
%TO.N,Net-(C6-Pad1)*%
%TA.AperFunction,SMDPad,CuDef*%
G36*
G01*
X160296640Y-89829860D02*
X159951640Y-89829860D01*
G75*
G02*
X159804140Y-89682360I0J147500D01*
G01*
X159804140Y-89387360D01*
G75*
G02*
X159951640Y-89239860I147500J0D01*
G01*
X160296640Y-89239860D01*
G75*
G02*
X160444140Y-89387360I0J-147500D01*
G01*
X160444140Y-89682360D01*
G75*
G02*
X160296640Y-89829860I-147500J0D01*
G01*
G37*
%TD.AperFunction*%
%TD*%
%TO.P,L1,2*%
%TO.N,Net-(L1-Pad2)*%
%TA.AperFunction,SMDPad,CuDef*%
G36*
G01*
X135953000Y-99867500D02*
X135953000Y-99522500D01*
G75*
G02*
X136100500Y-99375000I147500J0D01*
G01*
X136395500Y-99375000D01*
G75*
G02*
X136543000Y-99522500I0J-147500D01*
G01*
X136543000Y-99867500D01*
G75*
G02*
X136395500Y-100015000I-147500J0D01*
G01*
X136100500Y-100015000D01*
G75*
G02*
X135953000Y-99867500I0J147500D01*
G01*
G37*
%TD.AperFunction*%
%TO.P,L1,1*%
%TO.N,Net-(C1-Pad1)*%
%TA.AperFunction,SMDPad,CuDef*%
G36*
G01*
X134983000Y-99867500D02*
X134983000Y-99522500D01*
G75*
G02*
X135130500Y-99375000I147500J0D01*
G01*
X135425500Y-99375000D01*
G75*
G02*
X135573000Y-99522500I0J-147500D01*
G01*
X135573000Y-99867500D01*
G75*
G02*
X135425500Y-100015000I-147500J0D01*
G01*
X135130500Y-100015000D01*
G75*
G02*
X134983000Y-99867500I0J147500D01*
G01*
G37*
%TD.AperFunction*%
%TD*%
%TO.P,D3,2*%
%TO.N,GND*%
%TA.AperFunction,SMDPad,CuDef*%
G36*
G01*
X157554600Y-101827500D02*
X157354600Y-101827500D01*
G75*
G02*
X157254600Y-101727500I0J100000D01*
G01*
X157254600Y-101467500D01*
G75*
G02*
X157354600Y-101367500I100000J0D01*
G01*
X157554600Y-101367500D01*
G75*
G02*
X157654600Y-101467500I0J-100000D01*
G01*
X157654600Y-101727500D01*
G75*
G02*
X157554600Y-101827500I-100000J0D01*
G01*
G37*
%TD.AperFunction*%
%TO.P,D3,1*%
%TO.N,Net-(D3-Pad1)*%
%TA.AperFunction,SMDPad,CuDef*%
G36*
G01*
X157554600Y-102467500D02*
X157354600Y-102467500D01*
G75*
G02*
X157254600Y-102367500I0J100000D01*
G01*
X157254600Y-102107500D01*
G75*
G02*
X157354600Y-102007500I100000J0D01*
G01*
X157554600Y-102007500D01*
G75*
G02*
X157654600Y-102107500I0J-100000D01*
G01*
X157654600Y-102367500D01*
G75*
G02*
X157554600Y-102467500I-100000J0D01*
G01*
G37*
%TD.AperFunction*%
%TD*%
%TO.P,D2,2*%
%TO.N,GND*%
%TA.AperFunction,SMDPad,CuDef*%
G36*
G01*
X130094660Y-87854960D02*
X129894660Y-87854960D01*
G75*
G02*
X129794660Y-87754960I0J100000D01*
G01*
X129794660Y-87494960D01*
G75*
G02*
X129894660Y-87394960I100000J0D01*
G01*
X130094660Y-87394960D01*
G75*
G02*
X130194660Y-87494960I0J-100000D01*
G01*
X130194660Y-87754960D01*
G75*
G02*
X130094660Y-87854960I-100000J0D01*
G01*
G37*
%TD.AperFunction*%
%TO.P,D2,1*%
%TO.N,Net-(C2-Pad2)*%
%TA.AperFunction,SMDPad,CuDef*%
G36*
G01*
X130094660Y-88494960D02*
X129894660Y-88494960D01*
G75*
G02*
X129794660Y-88394960I0J100000D01*
G01*
X129794660Y-88134960D01*
G75*
G02*
X129894660Y-88034960I100000J0D01*
G01*
X130094660Y-88034960D01*
G75*
G02*
X130194660Y-88134960I0J-100000D01*
G01*
X130194660Y-88394960D01*
G75*
G02*
X130094660Y-88494960I-100000J0D01*
G01*
G37*
%TD.AperFunction*%
%TD*%
%TO.P,D1,2*%
%TO.N,GND*%
%TA.AperFunction,SMDPad,CuDef*%
G36*
G01*
X129440000Y-100105000D02*
X129640000Y-100105000D01*
G75*
G02*
X129740000Y-100205000I0J-100000D01*
G01*
X129740000Y-100465000D01*
G75*
G02*
X129640000Y-100565000I-100000J0D01*
G01*
X129440000Y-100565000D01*
G75*
G02*
X129340000Y-100465000I0J100000D01*
G01*
X129340000Y-100205000D01*
G75*
G02*
X129440000Y-100105000I100000J0D01*
G01*
G37*
%TD.AperFunction*%
%TO.P,D1,1*%
%TO.N,Net-(C1-Pad2)*%
%TA.AperFunction,SMDPad,CuDef*%
G36*
G01*
X129440000Y-99465000D02*
X129640000Y-99465000D01*
G75*
G02*
X129740000Y-99565000I0J-100000D01*
G01*
X129740000Y-99825000D01*
G75*
G02*
X129640000Y-99925000I-100000J0D01*
G01*
X129440000Y-99925000D01*
G75*
G02*
X129340000Y-99825000I0J100000D01*
G01*
X129340000Y-99565000D01*
G75*
G02*
X129440000Y-99465000I100000J0D01*
G01*
G37*
%TD.AperFunction*%
%TD*%
%TO.P,C5,2*%
%TO.N,+5V*%
%TA.AperFunction,SMDPad,CuDef*%
G36*
G01*
X159624180Y-82024860D02*
X159624180Y-81074860D01*
G75*
G02*
X159874180Y-80824860I250000J0D01*
G01*
X160374180Y-80824860D01*
G75*
G02*
X160624180Y-81074860I0J-250000D01*
G01*
X160624180Y-82024860D01*
G75*
G02*
X160374180Y-82274860I-250000J0D01*
G01*
X159874180Y-82274860D01*
G75*
G02*
X159624180Y-82024860I0J250000D01*
G01*
G37*
%TD.AperFunction*%
%TO.P,C5,1*%
%TO.N,GND*%
%TA.AperFunction,SMDPad,CuDef*%
G36*
G01*
X157724180Y-82024860D02*
X157724180Y-81074860D01*
G75*
G02*
X157974180Y-80824860I250000J0D01*
G01*
X158474180Y-80824860D01*
G75*
G02*
X158724180Y-81074860I0J-250000D01*
G01*
X158724180Y-82024860D01*
G75*
G02*
X158474180Y-82274860I-250000J0D01*
G01*
X157974180Y-82274860D01*
G75*
G02*
X157724180Y-82024860I0J250000D01*
G01*
G37*
%TD.AperFunction*%
%TD*%
%TO.P,C4,2*%
%TO.N,Net-(C4-Pad2)*%
%TA.AperFunction,SMDPad,CuDef*%
G36*
G01*
X144330000Y-99220000D02*
X144330000Y-100170000D01*
G75*
G02*
X144080000Y-100420000I-250000J0D01*
G01*
X143580000Y-100420000D01*
G75*
G02*
X143330000Y-100170000I0J250000D01*
G01*
X143330000Y-99220000D01*
G75*
G02*
X143580000Y-98970000I250000J0D01*
G01*
X144080000Y-98970000D01*
G75*
G02*
X144330000Y-99220000I0J-250000D01*
G01*
G37*
%TD.AperFunction*%
%TO.P,C4,1*%
%TO.N,Net-(C4-Pad1)*%
%TA.AperFunction,SMDPad,CuDef*%
G36*
G01*
X146230000Y-99220000D02*
X146230000Y-100170000D01*
G75*
G02*
X145980000Y-100420000I-250000J0D01*
G01*
X145480000Y-100420000D01*
G75*
G02*
X145230000Y-100170000I0J250000D01*
G01*
X145230000Y-99220000D01*
G75*
G02*
X145480000Y-98970000I250000J0D01*
G01*
X145980000Y-98970000D01*
G75*
G02*
X146230000Y-99220000I0J-250000D01*
G01*
G37*
%TD.AperFunction*%
%TD*%
%TO.P,C3,2*%
%TO.N,Net-(C3-Pad2)*%
%TA.AperFunction,SMDPad,CuDef*%
G36*
G01*
X159624180Y-87024860D02*
X159624180Y-86074860D01*
G75*
G02*
X159874180Y-85824860I250000J0D01*
G01*
X160374180Y-85824860D01*
G75*
G02*
X160624180Y-86074860I0J-250000D01*
G01*
X160624180Y-87024860D01*
G75*
G02*
X160374180Y-87274860I-250000J0D01*
G01*
X159874180Y-87274860D01*
G75*
G02*
X159624180Y-87024860I0J250000D01*
G01*
G37*
%TD.AperFunction*%
%TO.P,C3,1*%
%TO.N,GND*%
%TA.AperFunction,SMDPad,CuDef*%
G36*
G01*
X157724180Y-87024860D02*
X157724180Y-86074860D01*
G75*
G02*
X157974180Y-85824860I250000J0D01*
G01*
X158474180Y-85824860D01*
G75*
G02*
X158724180Y-86074860I0J-250000D01*
G01*
X158724180Y-87024860D01*
G75*
G02*
X158474180Y-87274860I-250000J0D01*
G01*
X157974180Y-87274860D01*
G75*
G02*
X157724180Y-87024860I0J250000D01*
G01*
G37*
%TD.AperFunction*%
%TD*%
%TO.P,C2,2*%
%TO.N,Net-(C2-Pad2)*%
%TA.AperFunction,SMDPad,CuDef*%
G36*
G01*
X149385000Y-81730000D02*
X150335000Y-81730000D01*
G75*
G02*
X150585000Y-81980000I0J-250000D01*
G01*
X150585000Y-82480000D01*
G75*
G02*
X150335000Y-82730000I-250000J0D01*
G01*
X149385000Y-82730000D01*
G75*
G02*
X149135000Y-82480000I0J250000D01*
G01*
X149135000Y-81980000D01*
G75*
G02*
X149385000Y-81730000I250000J0D01*
G01*
G37*
%TD.AperFunction*%
%TO.P,C2,1*%
%TO.N,GND*%
%TA.AperFunction,SMDPad,CuDef*%
G36*
G01*
X149385000Y-79830000D02*
X150335000Y-79830000D01*
G75*
G02*
X150585000Y-80080000I0J-250000D01*
G01*
X150585000Y-80580000D01*
G75*
G02*
X150335000Y-80830000I-250000J0D01*
G01*
X149385000Y-80830000D01*
G75*
G02*
X149135000Y-80580000I0J250000D01*
G01*
X149135000Y-80080000D01*
G75*
G02*
X149385000Y-79830000I250000J0D01*
G01*
G37*
%TD.AperFunction*%
%TD*%
%TO.P,C1,2*%
%TO.N,Net-(C1-Pad2)*%
%TA.AperFunction,SMDPad,CuDef*%
G36*
G01*
X132138000Y-99220000D02*
X132138000Y-100170000D01*
G75*
G02*
X131888000Y-100420000I-250000J0D01*
G01*
X131388000Y-100420000D01*
G75*
G02*
X131138000Y-100170000I0J250000D01*
G01*
X131138000Y-99220000D01*
G75*
G02*
X131388000Y-98970000I250000J0D01*
G01*
X131888000Y-98970000D01*
G75*
G02*
X132138000Y-99220000I0J-250000D01*
G01*
G37*
%TD.AperFunction*%
%TO.P,C1,1*%
%TO.N,Net-(C1-Pad1)*%
%TA.AperFunction,SMDPad,CuDef*%
G36*
G01*
X134038000Y-99220000D02*
X134038000Y-100170000D01*
G75*
G02*
X133788000Y-100420000I-250000J0D01*
G01*
X133288000Y-100420000D01*
G75*
G02*
X133038000Y-100170000I0J250000D01*
G01*
X133038000Y-99220000D01*
G75*
G02*
X133288000Y-98970000I250000J0D01*
G01*
X133788000Y-98970000D01*
G75*
G02*
X134038000Y-99220000I0J-250000D01*
G01*
G37*
%TD.AperFunction*%
%TD*%
D18*
%TO.N,Net-(C2-Pad2)*%
X135255000Y-90170000D03*
%TO.N,GND*%
X157454600Y-100584000D03*
X139700000Y-97282000D03*
X139700000Y-98298000D03*
X151638000Y-100965000D03*
D19*
X162351081Y-94048146D03*
X163359218Y-93114258D03*
X164314986Y-92126738D03*
X165078068Y-90986865D03*
X165568806Y-89705836D03*
X165761030Y-88347625D03*
X165765000Y-86972919D03*
X165765000Y-85598166D03*
X165703477Y-84226277D03*
X165358383Y-82898625D03*
X164728740Y-81679837D03*
X162789318Y-83508656D03*
X163148727Y-84758933D03*
X163165000Y-86066980D03*
X163165000Y-87375511D03*
X163127089Y-88682255D03*
X162703205Y-89912215D03*
X161876661Y-90919859D03*
X160939142Y-91832430D03*
D18*
X126492000Y-97282000D03*
X126492000Y-94742000D03*
X126492000Y-102362000D03*
X126492000Y-104902000D03*
X129032000Y-93218000D03*
X132207000Y-93218000D03*
X135382000Y-93218000D03*
X138557000Y-93218000D03*
X141732000Y-93218000D03*
X144907000Y-93218000D03*
X148082000Y-93218000D03*
X151257000Y-93218000D03*
X154432000Y-93218000D03*
X157607000Y-93218000D03*
X128397000Y-107061000D03*
X131572000Y-107061000D03*
X134747000Y-107061000D03*
X137922000Y-107061000D03*
X141097000Y-107061000D03*
X144272000Y-107061000D03*
X147447000Y-107061000D03*
X150622000Y-107061000D03*
X153797000Y-107061000D03*
X156972000Y-107061000D03*
X160401000Y-96901000D03*
X160401000Y-100076000D03*
X160401000Y-107061000D03*
X160401000Y-104648000D03*
X162560000Y-99060000D03*
X162560000Y-105410000D03*
X124460000Y-97155000D03*
X124460000Y-104140000D03*
X129540000Y-101244400D03*
X163830000Y-99060000D03*
X163830000Y-105410000D03*
X123190000Y-104775000D03*
X123190000Y-97790000D03*
%TO.N,+5V*%
X162925140Y-81549860D03*
X136944100Y-103225600D03*
%TD*%
D20*
%TO.N,Net-(C1-Pad2)*%
X126349000Y-99695000D02*
X126230540Y-99697907D01*
X126230540Y-99697907D02*
X126112365Y-99706624D01*
X126112365Y-99706624D02*
X125994761Y-99721129D01*
X125994761Y-99721129D02*
X125878010Y-99741387D01*
X125878010Y-99741387D02*
X125762393Y-99767350D01*
X125762393Y-99767350D02*
X125648190Y-99798954D01*
X125648190Y-99798954D02*
X125535675Y-99836124D01*
X125535675Y-99836124D02*
X125425120Y-99878770D01*
X125425120Y-99878770D02*
X125316790Y-99926789D01*
X125316790Y-99926789D02*
X125210947Y-99980066D01*
X125210947Y-99980066D02*
X125107846Y-100038472D01*
X125107846Y-100038472D02*
X125007734Y-100101867D01*
X125007734Y-100101867D02*
X124910854Y-100170098D01*
X124910854Y-100170098D02*
X124817438Y-100243000D01*
X124817438Y-100243000D02*
X124727713Y-100320398D01*
X124727713Y-100320398D02*
X124641893Y-100402106D01*
X121809000Y-102235000D02*
X121927459Y-102232091D01*
X121927459Y-102232091D02*
X122045634Y-102223374D01*
X122045634Y-102223374D02*
X122163238Y-102208869D01*
X122163238Y-102208869D02*
X122279989Y-102188611D01*
X122279989Y-102188611D02*
X122395605Y-102162648D01*
X122395605Y-102162648D02*
X122509808Y-102131044D01*
X122509808Y-102131044D02*
X122622323Y-102093874D01*
X122622323Y-102093874D02*
X122732879Y-102051228D01*
X122732879Y-102051228D02*
X122841208Y-102003209D01*
X122841208Y-102003209D02*
X122947051Y-101949932D01*
X122947051Y-101949932D02*
X123050153Y-101891525D01*
X123050153Y-101891525D02*
X123150264Y-101828131D01*
X123150264Y-101828131D02*
X123247144Y-101759900D01*
X123247144Y-101759900D02*
X123340559Y-101686998D01*
X123340559Y-101686998D02*
X123430285Y-101609600D01*
X123430285Y-101609600D02*
X123516106Y-101527893D01*
X123516106Y-101527893D02*
X124641893Y-100402106D01*
X126349000Y-99695000D02*
X129540000Y-99695000D01*
X119380000Y-102235000D02*
X121285000Y-102235000D01*
X121285000Y-102235000D02*
X120015000Y-102235000D01*
X121809000Y-102235000D02*
X121285000Y-102235000D01*
X129540000Y-99695000D02*
X131638000Y-99695000D01*
%TO.N,Net-(C1-Pad1)*%
X135278000Y-99695000D02*
X133538000Y-99695000D01*
D21*
%TO.N,Net-(C2-Pad2)*%
X138905000Y-88265000D02*
X138430000Y-87790000D01*
X146685000Y-86985000D02*
X146685000Y-82230000D01*
X145405000Y-88265000D02*
X146685000Y-86985000D01*
X144455000Y-88265000D02*
X145405000Y-88265000D01*
X146685000Y-82230000D02*
X149860000Y-82230000D01*
D22*
X126280001Y-84499999D02*
X126305000Y-84475000D01*
X125744997Y-84499999D02*
X126280001Y-84499999D01*
X125469998Y-84225000D02*
X125744997Y-84499999D01*
X124605000Y-84225000D02*
X125469998Y-84225000D01*
X125719998Y-86975000D02*
X126305000Y-86975000D01*
X125469998Y-86725000D02*
X125719998Y-86975000D01*
X124605000Y-86725000D02*
X125469998Y-86725000D01*
X127147000Y-84475000D02*
X126305000Y-84475000D01*
X127762000Y-85090000D02*
X127147000Y-84475000D01*
X127147000Y-86975000D02*
X127762000Y-86360000D01*
X126305000Y-86975000D02*
X127147000Y-86975000D01*
X127762000Y-85598000D02*
X127762000Y-85090000D01*
X127762000Y-86360000D02*
X127762000Y-85598000D01*
X131950920Y-88264960D02*
X131953000Y-88267040D01*
X129994660Y-88264960D02*
X131950920Y-88264960D01*
D21*
X144455000Y-88265000D02*
X139700000Y-88265000D01*
X139700000Y-88265000D02*
X138905000Y-88265000D01*
X137952960Y-88267040D02*
X138430000Y-87790000D01*
X131953000Y-88267040D02*
X137952960Y-88267040D01*
D22*
X129666960Y-88264960D02*
X129994660Y-88264960D01*
X127762000Y-86360000D02*
X129666960Y-88264960D01*
D21*
X133352040Y-88267040D02*
X135255000Y-90170000D01*
X131953000Y-88267040D02*
X133352040Y-88267040D01*
D22*
%TO.N,GND*%
X125190002Y-82725000D02*
X124605000Y-82725000D01*
X125440002Y-82975000D02*
X125190002Y-82725000D01*
X126305000Y-82975000D02*
X125440002Y-82975000D01*
X126305000Y-88475000D02*
X125559000Y-88475000D01*
X125309000Y-88225000D02*
X124605000Y-88225000D01*
X125559000Y-88475000D02*
X125309000Y-88225000D01*
X126305000Y-88475000D02*
X127679000Y-88475000D01*
X126305000Y-82975000D02*
X127679000Y-82975000D01*
D20*
X150368000Y-98840000D02*
X151638000Y-98840000D01*
X151638000Y-98840000D02*
X152908000Y-98840000D01*
X150368000Y-103090000D02*
X151638000Y-103090000D01*
X151638000Y-103090000D02*
X152908000Y-103090000D01*
X153908000Y-98840000D02*
X154763000Y-99695000D01*
X152908000Y-98840000D02*
X153908000Y-98840000D01*
X149368000Y-103090000D02*
X148513000Y-102235000D01*
X150368000Y-103090000D02*
X149368000Y-103090000D01*
X151638000Y-98840000D02*
X151638000Y-100965000D01*
X151638000Y-100965000D02*
X151638000Y-103090000D01*
X129994660Y-87624960D02*
X129994660Y-86667340D01*
D22*
X129540000Y-100335000D02*
X129540000Y-101244400D01*
X157454600Y-101597500D02*
X157454600Y-100584000D01*
D21*
%TO.N,Net-(C3-Pad2)*%
X160124140Y-86549900D02*
X160124180Y-86549860D01*
X160124140Y-88564860D02*
X160124140Y-86549900D01*
X160124180Y-84534900D02*
X160124140Y-84534860D01*
X160124180Y-86549860D02*
X160124180Y-84534900D01*
D23*
%TO.N,Net-(C4-Pad2)*%
X141192700Y-103225600D02*
X141192700Y-99701300D01*
D20*
X141201000Y-99695000D02*
X141200000Y-99694000D01*
D23*
X141192700Y-99701300D02*
X141200000Y-99694000D01*
D20*
X143830000Y-99695000D02*
X141201000Y-99695000D01*
%TO.N,Net-(C4-Pad1)*%
X148513000Y-99695000D02*
X145730000Y-99695000D01*
D21*
%TO.N,+5V*%
X160124140Y-81549900D02*
X160124180Y-81549860D01*
X160124140Y-83564860D02*
X160124140Y-81549900D01*
X160124180Y-81549860D02*
X162925140Y-81549860D01*
X162925140Y-81549860D02*
X162925140Y-81549860D01*
D23*
X138867700Y-103225600D02*
X136944100Y-103225600D01*
X136944100Y-103225600D02*
X136944100Y-103225600D01*
X136944100Y-103225600D02*
X136944100Y-103225600D01*
D20*
%TO.N,Net-(D3-Pad1)*%
X157452100Y-102235000D02*
X157454600Y-102237500D01*
X154763000Y-102235000D02*
X157452100Y-102235000D01*
X167002500Y-102237500D02*
X167005000Y-102235000D01*
X167637500Y-102237500D02*
X167640000Y-102235000D01*
X157454600Y-102237500D02*
X167637500Y-102237500D01*
%TO.N,Net-(L1-Pad2)*%
X136249000Y-99694000D02*
X136248000Y-99695000D01*
X138200000Y-99694000D02*
X136249000Y-99694000D01*
D21*
%TO.N,Net-(D4-Pad2)*%
X131953000Y-86617040D02*
X131953000Y-84569540D01*
%TO.N,Net-(C6-Pad2)*%
X151455000Y-83497500D02*
X152402500Y-82550000D01*
X151455000Y-85725000D02*
X151455000Y-83497500D01*
%TO.N,Net-(C6-Pad1)*%
X154302500Y-85087500D02*
X154305000Y-85090000D01*
X154302500Y-82550000D02*
X154302500Y-85087500D01*
X151455000Y-89535000D02*
X157480000Y-89535000D01*
X154305000Y-85090000D02*
X155575000Y-85090000D01*
X155575000Y-85090000D02*
X156210000Y-85725000D01*
X156210000Y-88265000D02*
X157480000Y-89535000D01*
X156210000Y-85725000D02*
X156210000Y-88265000D01*
X160124000Y-89535000D02*
X160124140Y-89534860D01*
X157480000Y-89535000D02*
X160124000Y-89535000D01*
%TD*%
D24*
%TO.N,GND*%
X125357001Y-107062238D02*
X125351509Y-107118000D01*
X125373423Y-107340499D01*
X125438324Y-107554447D01*
X125543716Y-107751623D01*
X125685551Y-107924449D01*
X125858377Y-108066284D01*
X126055553Y-108171676D01*
X126269501Y-108236577D01*
X126436248Y-108253000D01*
X126436249Y-108253000D01*
X126492000Y-108258491D01*
X126547752Y-108253000D01*
X160336249Y-108253000D01*
X160392000Y-108258491D01*
X160614499Y-108236577D01*
X160828447Y-108171676D01*
X161025623Y-108066284D01*
X161198449Y-107924449D01*
X161340284Y-107751623D01*
X161445676Y-107554447D01*
X161510577Y-107340499D01*
X161520967Y-107235000D01*
X164461928Y-107235000D01*
X164474188Y-107359482D01*
X164510498Y-107479180D01*
X164569463Y-107589494D01*
X164648815Y-107686185D01*
X164745506Y-107765537D01*
X164855820Y-107824502D01*
X164975518Y-107860812D01*
X165100000Y-107873072D01*
X167354250Y-107870000D01*
X167513000Y-107711250D01*
X167513000Y-106612000D01*
X164623750Y-106612000D01*
X164465000Y-106770750D01*
X164461928Y-107235000D01*
X161520967Y-107235000D01*
X161527000Y-107173752D01*
X161532491Y-107118000D01*
X161527000Y-107062248D01*
X161527000Y-105735000D01*
X164461928Y-105735000D01*
X164465000Y-106199250D01*
X164623750Y-106358000D01*
X167513000Y-106358000D01*
X167513000Y-105258750D01*
X167354250Y-105100000D01*
X165100000Y-105096928D01*
X164975518Y-105109188D01*
X164855820Y-105145498D01*
X164745506Y-105204463D01*
X164648815Y-105283815D01*
X164569463Y-105380506D01*
X164510498Y-105490820D01*
X164474188Y-105610518D01*
X164461928Y-105735000D01*
X161527000Y-105735000D01*
X161527000Y-104562248D01*
X161525439Y-104546400D01*
X170790001Y-104546400D01*
X170790001Y-105558395D01*
X170769502Y-105490820D01*
X170710537Y-105380506D01*
X170631185Y-105283815D01*
X170534494Y-105204463D01*
X170424180Y-105145498D01*
X170304482Y-105109188D01*
X170180000Y-105096928D01*
X167925750Y-105100000D01*
X167767000Y-105258750D01*
X167767000Y-106358000D01*
X167787000Y-106358000D01*
X167787000Y-106612000D01*
X167767000Y-106612000D01*
X167767000Y-107711250D01*
X167925750Y-107870000D01*
X170180000Y-107873072D01*
X170304482Y-107860812D01*
X170424180Y-107824502D01*
X170534494Y-107765537D01*
X170631185Y-107686185D01*
X170710537Y-107589494D01*
X170769502Y-107479180D01*
X170790001Y-107411604D01*
X170790001Y-109822712D01*
X170763185Y-110096205D01*
X170693133Y-110328226D01*
X170579350Y-110542222D01*
X170426169Y-110730039D01*
X170239424Y-110884529D01*
X170026231Y-110999802D01*
X169794701Y-111071472D01*
X169523276Y-111100000D01*
X117507277Y-111100000D01*
X117233795Y-111073185D01*
X117001774Y-111003133D01*
X116787778Y-110889350D01*
X116599961Y-110736169D01*
X116445471Y-110549424D01*
X116330198Y-110336231D01*
X116258528Y-110104701D01*
X116230000Y-109833276D01*
X116230000Y-107411607D01*
X116250498Y-107479180D01*
X116309463Y-107589494D01*
X116388815Y-107686185D01*
X116485506Y-107765537D01*
X116595820Y-107824502D01*
X116715518Y-107860812D01*
X116840000Y-107873072D01*
X119094250Y-107870000D01*
X119253000Y-107711250D01*
X119253000Y-106612000D01*
X119507000Y-106612000D01*
X119507000Y-107711250D01*
X119665750Y-107870000D01*
X121920000Y-107873072D01*
X122044482Y-107860812D01*
X122164180Y-107824502D01*
X122274494Y-107765537D01*
X122371185Y-107686185D01*
X122450537Y-107589494D01*
X122509502Y-107479180D01*
X122545812Y-107359482D01*
X122558072Y-107235000D01*
X122555000Y-106770750D01*
X122396250Y-106612000D01*
X119507000Y-106612000D01*
X119253000Y-106612000D01*
X119233000Y-106612000D01*
X119233000Y-106358000D01*
X119253000Y-106358000D01*
X119253000Y-105258750D01*
X119507000Y-105258750D01*
X119507000Y-106358000D01*
X122396250Y-106358000D01*
X122555000Y-106199250D01*
X122558072Y-105735000D01*
X122545812Y-105610518D01*
X122509502Y-105490820D01*
X122450537Y-105380506D01*
X122371185Y-105283815D01*
X122274494Y-105204463D01*
X122164180Y-105145498D01*
X122044482Y-105109188D01*
X121920000Y-105096928D01*
X119665750Y-105100000D01*
X119507000Y-105258750D01*
X119253000Y-105258750D01*
X119094250Y-105100000D01*
X116840000Y-105096928D01*
X116715518Y-105109188D01*
X116595820Y-105145498D01*
X116485506Y-105204463D01*
X116388815Y-105283815D01*
X116309463Y-105380506D01*
X116250498Y-105490820D01*
X116230000Y-105558393D01*
X116230000Y-104546400D01*
X121640600Y-104546400D01*
X121653237Y-104545770D01*
X121763587Y-104534735D01*
X121809000Y-104534735D01*
X121819488Y-104534301D01*
X121837206Y-104532833D01*
X121854962Y-104533866D01*
X121865457Y-104534042D01*
X121983916Y-104531133D01*
X122007102Y-104528417D01*
X122016916Y-104525308D01*
X122086144Y-104525934D01*
X122096636Y-104525595D01*
X122214811Y-104516878D01*
X122234812Y-104513785D01*
X122247438Y-104509441D01*
X122316682Y-104506667D01*
X122327144Y-104505814D01*
X122444748Y-104491309D01*
X122461570Y-104488070D01*
X122477202Y-104482260D01*
X122545993Y-104476112D01*
X122556400Y-104474746D01*
X122673151Y-104454488D01*
X122686811Y-104451333D01*
X122705705Y-104443777D01*
X122773546Y-104434339D01*
X122783873Y-104432464D01*
X122899489Y-104406501D01*
X122932429Y-104394027D01*
X122998746Y-104381458D01*
X123008969Y-104379079D01*
X123123172Y-104347475D01*
X123153249Y-104334800D01*
X123155056Y-104333494D01*
X123221099Y-104317584D01*
X123231194Y-104314706D01*
X123343709Y-104277536D01*
X123370494Y-104265068D01*
X123374292Y-104262178D01*
X123440042Y-104242881D01*
X123449984Y-104239511D01*
X123560540Y-104196865D01*
X123584089Y-104184830D01*
X123589911Y-104180170D01*
X123655063Y-104157521D01*
X123664827Y-104153668D01*
X123773156Y-104105649D01*
X123793538Y-104094267D01*
X123801421Y-104087634D01*
X123865633Y-104061714D01*
X123875196Y-104057386D01*
X123981039Y-104004109D01*
X123998334Y-103993598D01*
X124008335Y-103984755D01*
X124071253Y-103955690D01*
X124080592Y-103950898D01*
X124183694Y-103892491D01*
X124197996Y-103883061D01*
X124210212Y-103871713D01*
X124271405Y-103839713D01*
X124280497Y-103834469D01*
X124380608Y-103771075D01*
X124392021Y-103762932D01*
X124406588Y-103748718D01*
X124465651Y-103714039D01*
X124474475Y-103708355D01*
X124571355Y-103640124D01*
X124597021Y-103615986D01*
X124653481Y-103578995D01*
X124662016Y-103572885D01*
X124755431Y-103499983D01*
X124778367Y-103476763D01*
X124779535Y-103474867D01*
X124834456Y-103434900D01*
X124842681Y-103428379D01*
X124932407Y-103350981D01*
X124952382Y-103329211D01*
X124954785Y-103325088D01*
X125008136Y-103282106D01*
X125016031Y-103275189D01*
X125101852Y-103193482D01*
X125116038Y-103176831D01*
X125134541Y-103161160D01*
X125142264Y-103154051D01*
X125357000Y-102939315D01*
X125357001Y-107062238D01*
%TA.AperFunction,Conductor*%
D25*
G36*
X125357001Y-107062238D02*
G01*
X125351509Y-107118000D01*
X125373423Y-107340499D01*
X125438324Y-107554447D01*
X125543716Y-107751623D01*
X125685551Y-107924449D01*
X125858377Y-108066284D01*
X126055553Y-108171676D01*
X126269501Y-108236577D01*
X126436248Y-108253000D01*
X126436249Y-108253000D01*
X126492000Y-108258491D01*
X126547752Y-108253000D01*
X160336249Y-108253000D01*
X160392000Y-108258491D01*
X160614499Y-108236577D01*
X160828447Y-108171676D01*
X161025623Y-108066284D01*
X161198449Y-107924449D01*
X161340284Y-107751623D01*
X161445676Y-107554447D01*
X161510577Y-107340499D01*
X161520967Y-107235000D01*
X164461928Y-107235000D01*
X164474188Y-107359482D01*
X164510498Y-107479180D01*
X164569463Y-107589494D01*
X164648815Y-107686185D01*
X164745506Y-107765537D01*
X164855820Y-107824502D01*
X164975518Y-107860812D01*
X165100000Y-107873072D01*
X167354250Y-107870000D01*
X167513000Y-107711250D01*
X167513000Y-106612000D01*
X164623750Y-106612000D01*
X164465000Y-106770750D01*
X164461928Y-107235000D01*
X161520967Y-107235000D01*
X161527000Y-107173752D01*
X161532491Y-107118000D01*
X161527000Y-107062248D01*
X161527000Y-105735000D01*
X164461928Y-105735000D01*
X164465000Y-106199250D01*
X164623750Y-106358000D01*
X167513000Y-106358000D01*
X167513000Y-105258750D01*
X167354250Y-105100000D01*
X165100000Y-105096928D01*
X164975518Y-105109188D01*
X164855820Y-105145498D01*
X164745506Y-105204463D01*
X164648815Y-105283815D01*
X164569463Y-105380506D01*
X164510498Y-105490820D01*
X164474188Y-105610518D01*
X164461928Y-105735000D01*
X161527000Y-105735000D01*
X161527000Y-104562248D01*
X161525439Y-104546400D01*
X170790001Y-104546400D01*
X170790001Y-105558395D01*
X170769502Y-105490820D01*
X170710537Y-105380506D01*
X170631185Y-105283815D01*
X170534494Y-105204463D01*
X170424180Y-105145498D01*
X170304482Y-105109188D01*
X170180000Y-105096928D01*
X167925750Y-105100000D01*
X167767000Y-105258750D01*
X167767000Y-106358000D01*
X167787000Y-106358000D01*
X167787000Y-106612000D01*
X167767000Y-106612000D01*
X167767000Y-107711250D01*
X167925750Y-107870000D01*
X170180000Y-107873072D01*
X170304482Y-107860812D01*
X170424180Y-107824502D01*
X170534494Y-107765537D01*
X170631185Y-107686185D01*
X170710537Y-107589494D01*
X170769502Y-107479180D01*
X170790001Y-107411604D01*
X170790001Y-109822712D01*
X170763185Y-110096205D01*
X170693133Y-110328226D01*
X170579350Y-110542222D01*
X170426169Y-110730039D01*
X170239424Y-110884529D01*
X170026231Y-110999802D01*
X169794701Y-111071472D01*
X169523276Y-111100000D01*
X117507277Y-111100000D01*
X117233795Y-111073185D01*
X117001774Y-111003133D01*
X116787778Y-110889350D01*
X116599961Y-110736169D01*
X116445471Y-110549424D01*
X116330198Y-110336231D01*
X116258528Y-110104701D01*
X116230000Y-109833276D01*
X116230000Y-107411607D01*
X116250498Y-107479180D01*
X116309463Y-107589494D01*
X116388815Y-107686185D01*
X116485506Y-107765537D01*
X116595820Y-107824502D01*
X116715518Y-107860812D01*
X116840000Y-107873072D01*
X119094250Y-107870000D01*
X119253000Y-107711250D01*
X119253000Y-106612000D01*
X119507000Y-106612000D01*
X119507000Y-107711250D01*
X119665750Y-107870000D01*
X121920000Y-107873072D01*
X122044482Y-107860812D01*
X122164180Y-107824502D01*
X122274494Y-107765537D01*
X122371185Y-107686185D01*
X122450537Y-107589494D01*
X122509502Y-107479180D01*
X122545812Y-107359482D01*
X122558072Y-107235000D01*
X122555000Y-106770750D01*
X122396250Y-106612000D01*
X119507000Y-106612000D01*
X119253000Y-106612000D01*
X119233000Y-106612000D01*
X119233000Y-106358000D01*
X119253000Y-106358000D01*
X119253000Y-105258750D01*
X119507000Y-105258750D01*
X119507000Y-106358000D01*
X122396250Y-106358000D01*
X122555000Y-106199250D01*
X122558072Y-105735000D01*
X122545812Y-105610518D01*
X122509502Y-105490820D01*
X122450537Y-105380506D01*
X122371185Y-105283815D01*
X122274494Y-105204463D01*
X122164180Y-105145498D01*
X122044482Y-105109188D01*
X121920000Y-105096928D01*
X119665750Y-105100000D01*
X119507000Y-105258750D01*
X119253000Y-105258750D01*
X119094250Y-105100000D01*
X116840000Y-105096928D01*
X116715518Y-105109188D01*
X116595820Y-105145498D01*
X116485506Y-105204463D01*
X116388815Y-105283815D01*
X116309463Y-105380506D01*
X116250498Y-105490820D01*
X116230000Y-105558393D01*
X116230000Y-104546400D01*
X121640600Y-104546400D01*
X121653237Y-104545770D01*
X121763587Y-104534735D01*
X121809000Y-104534735D01*
X121819488Y-104534301D01*
X121837206Y-104532833D01*
X121854962Y-104533866D01*
X121865457Y-104534042D01*
X121983916Y-104531133D01*
X122007102Y-104528417D01*
X122016916Y-104525308D01*
X122086144Y-104525934D01*
X122096636Y-104525595D01*
X122214811Y-104516878D01*
X122234812Y-104513785D01*
X122247438Y-104509441D01*
X122316682Y-104506667D01*
X122327144Y-104505814D01*
X122444748Y-104491309D01*
X122461570Y-104488070D01*
X122477202Y-104482260D01*
X122545993Y-104476112D01*
X122556400Y-104474746D01*
X122673151Y-104454488D01*
X122686811Y-104451333D01*
X122705705Y-104443777D01*
X122773546Y-104434339D01*
X122783873Y-104432464D01*
X122899489Y-104406501D01*
X122932429Y-104394027D01*
X122998746Y-104381458D01*
X123008969Y-104379079D01*
X123123172Y-104347475D01*
X123153249Y-104334800D01*
X123155056Y-104333494D01*
X123221099Y-104317584D01*
X123231194Y-104314706D01*
X123343709Y-104277536D01*
X123370494Y-104265068D01*
X123374292Y-104262178D01*
X123440042Y-104242881D01*
X123449984Y-104239511D01*
X123560540Y-104196865D01*
X123584089Y-104184830D01*
X123589911Y-104180170D01*
X123655063Y-104157521D01*
X123664827Y-104153668D01*
X123773156Y-104105649D01*
X123793538Y-104094267D01*
X123801421Y-104087634D01*
X123865633Y-104061714D01*
X123875196Y-104057386D01*
X123981039Y-104004109D01*
X123998334Y-103993598D01*
X124008335Y-103984755D01*
X124071253Y-103955690D01*
X124080592Y-103950898D01*
X124183694Y-103892491D01*
X124197996Y-103883061D01*
X124210212Y-103871713D01*
X124271405Y-103839713D01*
X124280497Y-103834469D01*
X124380608Y-103771075D01*
X124392021Y-103762932D01*
X124406588Y-103748718D01*
X124465651Y-103714039D01*
X124474475Y-103708355D01*
X124571355Y-103640124D01*
X124597021Y-103615986D01*
X124653481Y-103578995D01*
X124662016Y-103572885D01*
X124755431Y-103499983D01*
X124778367Y-103476763D01*
X124779535Y-103474867D01*
X124834456Y-103434900D01*
X124842681Y-103428379D01*
X124932407Y-103350981D01*
X124952382Y-103329211D01*
X124954785Y-103325088D01*
X125008136Y-103282106D01*
X125016031Y-103275189D01*
X125101852Y-103193482D01*
X125116038Y-103176831D01*
X125134541Y-103161160D01*
X125142264Y-103154051D01*
X125357000Y-102939315D01*
X125357001Y-107062238D01*
G37*
%TD.AperFunction*%
D24*
X145429463Y-79475506D02*
X145370498Y-79585820D01*
X145334188Y-79705518D01*
X145321928Y-79830000D01*
X145325000Y-80044250D01*
X145483750Y-80203000D01*
X146558000Y-80203000D01*
X146558000Y-80183000D01*
X146812000Y-80183000D01*
X146812000Y-80203000D01*
X147886250Y-80203000D01*
X148045000Y-80044250D01*
X148048072Y-79830000D01*
X148035812Y-79705518D01*
X147999502Y-79585820D01*
X147940537Y-79475506D01*
X147878571Y-79400000D01*
X148666429Y-79400000D01*
X148604463Y-79475506D01*
X148545498Y-79585820D01*
X148509188Y-79705518D01*
X148496928Y-79830000D01*
X148500000Y-80044250D01*
X148658750Y-80203000D01*
X149733000Y-80203000D01*
X149733000Y-80183000D01*
X149987000Y-80183000D01*
X149987000Y-80203000D01*
X151061250Y-80203000D01*
X151220000Y-80044250D01*
X151223072Y-79830000D01*
X151210812Y-79705518D01*
X151174502Y-79585820D01*
X151115537Y-79475506D01*
X151053571Y-79400000D01*
X169512723Y-79400000D01*
X169786204Y-79426815D01*
X170018226Y-79496867D01*
X170232222Y-79610650D01*
X170420041Y-79763832D01*
X170574530Y-79950577D01*
X170689801Y-80163769D01*
X170761472Y-80395300D01*
X170790001Y-80666734D01*
X170790000Y-90772581D01*
X170790000Y-97058393D01*
X170769502Y-96990820D01*
X170710537Y-96880506D01*
X170631185Y-96783815D01*
X170534494Y-96704463D01*
X170424180Y-96645498D01*
X170304482Y-96609188D01*
X170180000Y-96596928D01*
X167925750Y-96600000D01*
X167767000Y-96758750D01*
X167767000Y-97858000D01*
X167787000Y-97858000D01*
X167787000Y-98112000D01*
X167767000Y-98112000D01*
X167767000Y-99211250D01*
X167925750Y-99370000D01*
X170180000Y-99373072D01*
X170304482Y-99360812D01*
X170424180Y-99324502D01*
X170534494Y-99265537D01*
X170631185Y-99186185D01*
X170710537Y-99089494D01*
X170769502Y-98979180D01*
X170790000Y-98911607D01*
X170790000Y-99923600D01*
X161527000Y-99923600D01*
X161527000Y-98735000D01*
X164461928Y-98735000D01*
X164474188Y-98859482D01*
X164510498Y-98979180D01*
X164569463Y-99089494D01*
X164648815Y-99186185D01*
X164745506Y-99265537D01*
X164855820Y-99324502D01*
X164975518Y-99360812D01*
X165100000Y-99373072D01*
X167354250Y-99370000D01*
X167513000Y-99211250D01*
X167513000Y-98112000D01*
X164623750Y-98112000D01*
X164465000Y-98270750D01*
X164461928Y-98735000D01*
X161527000Y-98735000D01*
X161527000Y-97235000D01*
X164461928Y-97235000D01*
X164465000Y-97699250D01*
X164623750Y-97858000D01*
X167513000Y-97858000D01*
X167513000Y-96758750D01*
X167354250Y-96600000D01*
X165100000Y-96596928D01*
X164975518Y-96609188D01*
X164855820Y-96645498D01*
X164745506Y-96704463D01*
X164648815Y-96783815D01*
X164569463Y-96880506D01*
X164510498Y-96990820D01*
X164474188Y-97110518D01*
X164461928Y-97235000D01*
X161527000Y-97235000D01*
X161527000Y-93273752D01*
X161532491Y-93218000D01*
X161510577Y-92995501D01*
X161445676Y-92781553D01*
X161340284Y-92584377D01*
X161198449Y-92411551D01*
X161025623Y-92269716D01*
X160828447Y-92164324D01*
X160614499Y-92099423D01*
X160447752Y-92083000D01*
X160447751Y-92083000D01*
X160392000Y-92077509D01*
X160336248Y-92083000D01*
X126547751Y-92083000D01*
X126492000Y-92077509D01*
X126436248Y-92083000D01*
X126269501Y-92099423D01*
X126055553Y-92164324D01*
X125858377Y-92269716D01*
X125685551Y-92411551D01*
X125543716Y-92584377D01*
X125438324Y-92781553D01*
X125373423Y-92995501D01*
X125351509Y-93218000D01*
X125357000Y-93273752D01*
X125357001Y-97501379D01*
X125258513Y-97523496D01*
X125225574Y-97535970D01*
X125159252Y-97548540D01*
X125149029Y-97550919D01*
X125034826Y-97582523D01*
X125004749Y-97595198D01*
X125002942Y-97596504D01*
X124936899Y-97612414D01*
X124926804Y-97615292D01*
X124814289Y-97652462D01*
X124787504Y-97664930D01*
X124783705Y-97667821D01*
X124717949Y-97687120D01*
X124708008Y-97690490D01*
X124597453Y-97733136D01*
X124573904Y-97745172D01*
X124568087Y-97749828D01*
X124502942Y-97772474D01*
X124493179Y-97776327D01*
X124384849Y-97824346D01*
X124364466Y-97835728D01*
X124356581Y-97842362D01*
X124292365Y-97868284D01*
X124282802Y-97872612D01*
X124176959Y-97925889D01*
X124159664Y-97936400D01*
X124149664Y-97945243D01*
X124086751Y-97974305D01*
X124077412Y-97979097D01*
X123974311Y-98037503D01*
X123960009Y-98046933D01*
X123947793Y-98058281D01*
X123886589Y-98090287D01*
X123877496Y-98095531D01*
X123777384Y-98158926D01*
X123765972Y-98167069D01*
X123751405Y-98181283D01*
X123692347Y-98215959D01*
X123683523Y-98221643D01*
X123586643Y-98289874D01*
X123560980Y-98314009D01*
X123504527Y-98350995D01*
X123495992Y-98357106D01*
X123402576Y-98430008D01*
X123379639Y-98453228D01*
X123378470Y-98455125D01*
X123323531Y-98495106D01*
X123315307Y-98501628D01*
X123225582Y-98579026D01*
X123205607Y-98600795D01*
X123203204Y-98604918D01*
X123149842Y-98647910D01*
X123141947Y-98654828D01*
X123056127Y-98736536D01*
X123038976Y-98756667D01*
X123037922Y-98758582D01*
X123034981Y-98760154D01*
X123015735Y-98775948D01*
X121909896Y-99881787D01*
X121885425Y-99905085D01*
X121881180Y-99908747D01*
X121876776Y-99912184D01*
X121872219Y-99915393D01*
X121867507Y-99918377D01*
X121862610Y-99921151D01*
X121857745Y-99923600D01*
X116230000Y-99923600D01*
X116230000Y-98911607D01*
X116250498Y-98979180D01*
X116309463Y-99089494D01*
X116388815Y-99186185D01*
X116485506Y-99265537D01*
X116595820Y-99324502D01*
X116715518Y-99360812D01*
X116840000Y-99373072D01*
X119094250Y-99370000D01*
X119253000Y-99211250D01*
X119253000Y-98112000D01*
X119507000Y-98112000D01*
X119507000Y-99211250D01*
X119665750Y-99370000D01*
X121920000Y-99373072D01*
X122044482Y-99360812D01*
X122164180Y-99324502D01*
X122274494Y-99265537D01*
X122371185Y-99186185D01*
X122450537Y-99089494D01*
X122509502Y-98979180D01*
X122545812Y-98859482D01*
X122558072Y-98735000D01*
X122555000Y-98270750D01*
X122396250Y-98112000D01*
X119507000Y-98112000D01*
X119253000Y-98112000D01*
X119233000Y-98112000D01*
X119233000Y-97858000D01*
X119253000Y-97858000D01*
X119253000Y-96758750D01*
X119507000Y-96758750D01*
X119507000Y-97858000D01*
X122396250Y-97858000D01*
X122555000Y-97699250D01*
X122558072Y-97235000D01*
X122545812Y-97110518D01*
X122509502Y-96990820D01*
X122450537Y-96880506D01*
X122371185Y-96783815D01*
X122274494Y-96704463D01*
X122164180Y-96645498D01*
X122044482Y-96609188D01*
X121920000Y-96596928D01*
X119665750Y-96600000D01*
X119507000Y-96758750D01*
X119253000Y-96758750D01*
X119094250Y-96600000D01*
X116840000Y-96596928D01*
X116715518Y-96609188D01*
X116595820Y-96645498D01*
X116485506Y-96704463D01*
X116388815Y-96783815D01*
X116309463Y-96880506D01*
X116250498Y-96990820D01*
X116230000Y-97058393D01*
X116230000Y-90501123D01*
X117150334Y-90501123D01*
X117213872Y-90684418D01*
X117323342Y-90857052D01*
X117464388Y-91005013D01*
X117631590Y-91122614D01*
X117818522Y-91205336D01*
X118018000Y-91250000D01*
X118318000Y-91250000D01*
X118318000Y-90342000D01*
X118572000Y-90342000D01*
X118572000Y-91250000D01*
X118872000Y-91250000D01*
X119071478Y-91205336D01*
X119258410Y-91122614D01*
X119425612Y-91005013D01*
X119566658Y-90857052D01*
X119676128Y-90684418D01*
X119739666Y-90501123D01*
X119611998Y-90342000D01*
X118572000Y-90342000D01*
X118318000Y-90342000D01*
X117278002Y-90342000D01*
X117150334Y-90501123D01*
X116230000Y-90501123D01*
X116230000Y-90141123D01*
X123100334Y-90141123D01*
X123163872Y-90324418D01*
X123273342Y-90497052D01*
X123414388Y-90645013D01*
X123581590Y-90762614D01*
X123768522Y-90845336D01*
X123968000Y-90890000D01*
X124268000Y-90890000D01*
X124268000Y-89982000D01*
X123228002Y-89982000D01*
X123100334Y-90141123D01*
X116230000Y-90141123D01*
X116230000Y-89928877D01*
X117150334Y-89928877D01*
X117278002Y-90088000D01*
X118318000Y-90088000D01*
X118318000Y-89180000D01*
X118572000Y-89180000D01*
X118572000Y-90088000D01*
X119611998Y-90088000D01*
X119739666Y-89928877D01*
X119676128Y-89745582D01*
X119566658Y-89572948D01*
X119425612Y-89424987D01*
X119258410Y-89307386D01*
X119071478Y-89224664D01*
X118872000Y-89180000D01*
X118572000Y-89180000D01*
X118318000Y-89180000D01*
X118018000Y-89180000D01*
X117818522Y-89224664D01*
X117631590Y-89307386D01*
X117464388Y-89424987D01*
X117323342Y-89572948D01*
X117213872Y-89745582D01*
X117150334Y-89928877D01*
X116230000Y-89928877D01*
X116230000Y-81521123D01*
X117150334Y-81521123D01*
X117213872Y-81704418D01*
X117323342Y-81877052D01*
X117464388Y-82025013D01*
X117631590Y-82142614D01*
X117818522Y-82225336D01*
X118018000Y-82270000D01*
X118318000Y-82270000D01*
X118318000Y-81362000D01*
X118572000Y-81362000D01*
X118572000Y-82270000D01*
X118872000Y-82270000D01*
X119071478Y-82225336D01*
X119258410Y-82142614D01*
X119425612Y-82025013D01*
X119562777Y-81881123D01*
X123100334Y-81881123D01*
X123163872Y-82064418D01*
X123273342Y-82237052D01*
X123414388Y-82385013D01*
X123581590Y-82502614D01*
X123622578Y-82520752D01*
X123620000Y-82543250D01*
X123757275Y-82680525D01*
X123724463Y-82720506D01*
X123665498Y-82830820D01*
X123652247Y-82874503D01*
X123620000Y-82906750D01*
X123627259Y-82970107D01*
X123616928Y-83075000D01*
X123616928Y-83375000D01*
X123626777Y-83475000D01*
X123616928Y-83575000D01*
X123616928Y-83875000D01*
X123626777Y-83975000D01*
X123616928Y-84075000D01*
X123616928Y-84375000D01*
X123626777Y-84475000D01*
X123616928Y-84575000D01*
X123616928Y-84875000D01*
X123626777Y-84975000D01*
X123616928Y-85075000D01*
X123616928Y-85375000D01*
X123626777Y-85475000D01*
X123616928Y-85575000D01*
X123616928Y-85875000D01*
X123626777Y-85975000D01*
X123616928Y-86075000D01*
X123616928Y-86375000D01*
X123626777Y-86475000D01*
X123616928Y-86575000D01*
X123616928Y-86875000D01*
X123626777Y-86974999D01*
X123616928Y-87075000D01*
X123616928Y-87375000D01*
X123626777Y-87475000D01*
X123616928Y-87575000D01*
X123616928Y-87875000D01*
X123627259Y-87979893D01*
X123620000Y-88043250D01*
X123652247Y-88075497D01*
X123665498Y-88119180D01*
X123724463Y-88229494D01*
X123757275Y-88269475D01*
X123620000Y-88406750D01*
X123632325Y-88514326D01*
X123671471Y-88633127D01*
X123733041Y-88742008D01*
X123814670Y-88836785D01*
X123832119Y-88850424D01*
X123768522Y-88864664D01*
X123581590Y-88947386D01*
X123414388Y-89064987D01*
X123273342Y-89212948D01*
X123163872Y-89385582D01*
X123100334Y-89568877D01*
X123228002Y-89728000D01*
X124268000Y-89728000D01*
X124268000Y-89708000D01*
X124522000Y-89708000D01*
X124522000Y-89728000D01*
X124542000Y-89728000D01*
X124542000Y-89982000D01*
X124522000Y-89982000D01*
X124522000Y-90890000D01*
X124822000Y-90890000D01*
X125021478Y-90845336D01*
X125208410Y-90762614D01*
X125375612Y-90645013D01*
X125516658Y-90497052D01*
X125558465Y-90431122D01*
X125645000Y-90439645D01*
X125833192Y-90421110D01*
X126014153Y-90366216D01*
X126180928Y-90277073D01*
X126327107Y-90157107D01*
X126447073Y-90010928D01*
X126536216Y-89844154D01*
X126591110Y-89663193D01*
X126605000Y-89522162D01*
X126605000Y-89260840D01*
X126639829Y-89262892D01*
X126764567Y-89253594D01*
X126885095Y-89220141D01*
X126996780Y-89163816D01*
X127095330Y-89086785D01*
X127176959Y-88992008D01*
X127238529Y-88883127D01*
X127277675Y-88764326D01*
X127290000Y-88656750D01*
X127152725Y-88519475D01*
X127185537Y-88479494D01*
X127244502Y-88369180D01*
X127257753Y-88325497D01*
X127290000Y-88293250D01*
X127282741Y-88229893D01*
X127293072Y-88125000D01*
X127293072Y-87825000D01*
X127283249Y-87725258D01*
X127295986Y-87724003D01*
X127439247Y-87680546D01*
X127571276Y-87609974D01*
X127687001Y-87515001D01*
X127710803Y-87485998D01*
X127762000Y-87434801D01*
X129103160Y-88775962D01*
X129126959Y-88804961D01*
X129242684Y-88899934D01*
X129374713Y-88970506D01*
X129475327Y-89001026D01*
X129484609Y-89008644D01*
X129612212Y-89076850D01*
X129750669Y-89118850D01*
X129894660Y-89133032D01*
X130094660Y-89133032D01*
X130238651Y-89118850D01*
X130377108Y-89076850D01*
X130474186Y-89024960D01*
X131056928Y-89024960D01*
X131085394Y-89059646D01*
X131212392Y-89163871D01*
X131357284Y-89241318D01*
X131514500Y-89289009D01*
X131678000Y-89305112D01*
X132228000Y-89305112D01*
X132391500Y-89289009D01*
X132548716Y-89241318D01*
X132693608Y-89163871D01*
X132708024Y-89152040D01*
X132985462Y-89152040D01*
X134248465Y-90415044D01*
X134259774Y-90471898D01*
X134337795Y-90660256D01*
X134451063Y-90829774D01*
X134595226Y-90973937D01*
X134764744Y-91087205D01*
X134953102Y-91165226D01*
X135153061Y-91205000D01*
X135356939Y-91205000D01*
X135556898Y-91165226D01*
X135745256Y-91087205D01*
X135914774Y-90973937D01*
X136058937Y-90829774D01*
X136172205Y-90660256D01*
X136250226Y-90471898D01*
X136290000Y-90271939D01*
X136290000Y-90068061D01*
X136250226Y-89868102D01*
X136172205Y-89679744D01*
X136058937Y-89510226D01*
X135914774Y-89366063D01*
X135745256Y-89252795D01*
X135556898Y-89174774D01*
X135500044Y-89163465D01*
X135488619Y-89152040D01*
X136991928Y-89152040D01*
X136991928Y-89290000D01*
X137008992Y-89463254D01*
X137059528Y-89629850D01*
X137141595Y-89783386D01*
X137252038Y-89917962D01*
X137386614Y-90028405D01*
X137540150Y-90110472D01*
X137706746Y-90161008D01*
X137880000Y-90178072D01*
X138980000Y-90178072D01*
X139153254Y-90161008D01*
X139319850Y-90110472D01*
X139473386Y-90028405D01*
X139607962Y-89917962D01*
X139718405Y-89783386D01*
X139800472Y-89629850D01*
X139851008Y-89463254D01*
X139868072Y-89290000D01*
X139868072Y-89150000D01*
X142906719Y-89150000D01*
X142882071Y-89231255D01*
X142866928Y-89385000D01*
X142866928Y-89685000D01*
X142882071Y-89838745D01*
X142926916Y-89986582D01*
X142999742Y-90122829D01*
X143097749Y-90242251D01*
X143217171Y-90340258D01*
X143353418Y-90413084D01*
X143501255Y-90457929D01*
X143655000Y-90473072D01*
X145255000Y-90473072D01*
X145408745Y-90457929D01*
X145556582Y-90413084D01*
X145692829Y-90340258D01*
X145812251Y-90242251D01*
X145910258Y-90122829D01*
X145983084Y-89986582D01*
X146027929Y-89838745D01*
X146043072Y-89685000D01*
X146043072Y-89385000D01*
X146027929Y-89231255D01*
X145983084Y-89083418D01*
X145928110Y-88980569D01*
X146033817Y-88893817D01*
X146061534Y-88860044D01*
X147280050Y-87641529D01*
X147313817Y-87613817D01*
X147359832Y-87557749D01*
X147424410Y-87479060D01*
X147424411Y-87479059D01*
X147506589Y-87325313D01*
X147557195Y-87158490D01*
X147570000Y-87028477D01*
X147570000Y-87028467D01*
X147574281Y-86985001D01*
X147570000Y-86941535D01*
X147570000Y-83262976D01*
X147653386Y-83218405D01*
X147779386Y-83115000D01*
X148765614Y-83115000D01*
X148891614Y-83218405D01*
X149045150Y-83300472D01*
X149211746Y-83351008D01*
X149385000Y-83368072D01*
X150335000Y-83368072D01*
X150508254Y-83351008D01*
X150582360Y-83328528D01*
X150565719Y-83497500D01*
X150570001Y-83540979D01*
X150570000Y-84795300D01*
X150501255Y-84802071D01*
X150353418Y-84846916D01*
X150217171Y-84919742D01*
X150097749Y-85017749D01*
X149999742Y-85137171D01*
X149926916Y-85273418D01*
X149882071Y-85421255D01*
X149866928Y-85575000D01*
X149866928Y-85875000D01*
X149882071Y-86028745D01*
X149926916Y-86176582D01*
X149998730Y-86310936D01*
X149974463Y-86340506D01*
X149915498Y-86450820D01*
X149879188Y-86570518D01*
X149866928Y-86695000D01*
X149870000Y-86709250D01*
X150028750Y-86868000D01*
X151328000Y-86868000D01*
X151328000Y-86848000D01*
X151582000Y-86848000D01*
X151582000Y-86868000D01*
X152881250Y-86868000D01*
X152995000Y-86754250D01*
X153103750Y-86863000D01*
X154178000Y-86863000D01*
X154178000Y-86843000D01*
X154432000Y-86843000D01*
X154432000Y-86863000D01*
X154452000Y-86863000D01*
X154452000Y-87117000D01*
X154432000Y-87117000D01*
X154432000Y-87966250D01*
X154590750Y-88125000D01*
X155030000Y-88128072D01*
X155154482Y-88115812D01*
X155274180Y-88079502D01*
X155325001Y-88052337D01*
X155325001Y-88221521D01*
X155320719Y-88265000D01*
X155337805Y-88438490D01*
X155388412Y-88605313D01*
X155412297Y-88650000D01*
X153003281Y-88650000D01*
X153027929Y-88568745D01*
X153043072Y-88415000D01*
X153043072Y-88115000D01*
X153027929Y-87961255D01*
X152983084Y-87813418D01*
X152911270Y-87679064D01*
X152935537Y-87649494D01*
X152954211Y-87614558D01*
X152990498Y-87734180D01*
X153049463Y-87844494D01*
X153128815Y-87941185D01*
X153225506Y-88020537D01*
X153335820Y-88079502D01*
X153455518Y-88115812D01*
X153580000Y-88128072D01*
X154019250Y-88125000D01*
X154178000Y-87966250D01*
X154178000Y-87117000D01*
X153103750Y-87117000D01*
X152990000Y-87230750D01*
X152881250Y-87122000D01*
X151582000Y-87122000D01*
X151582000Y-87142000D01*
X151328000Y-87142000D01*
X151328000Y-87122000D01*
X150028750Y-87122000D01*
X149870000Y-87280750D01*
X149866928Y-87295000D01*
X149879188Y-87419482D01*
X149915498Y-87539180D01*
X149974463Y-87649494D01*
X149998730Y-87679064D01*
X149926916Y-87813418D01*
X149882071Y-87961255D01*
X149866928Y-88115000D01*
X149866928Y-88415000D01*
X149882071Y-88568745D01*
X149926916Y-88716582D01*
X149999742Y-88852829D01*
X150038454Y-88900000D01*
X149999742Y-88947171D01*
X149926916Y-89083418D01*
X149882071Y-89231255D01*
X149866928Y-89385000D01*
X149866928Y-89685000D01*
X149882071Y-89838745D01*
X149926916Y-89986582D01*
X149999742Y-90122829D01*
X150097749Y-90242251D01*
X150217171Y-90340258D01*
X150353418Y-90413084D01*
X150501255Y-90457929D01*
X150655000Y-90473072D01*
X152255000Y-90473072D01*
X152408745Y-90457929D01*
X152533783Y-90420000D01*
X157436533Y-90420000D01*
X157479999Y-90424281D01*
X157523465Y-90420000D01*
X159690132Y-90420000D01*
X159798383Y-90452837D01*
X159951640Y-90467932D01*
X160296640Y-90467932D01*
X160449897Y-90452837D01*
X160597265Y-90408134D01*
X160733080Y-90335539D01*
X160852123Y-90237843D01*
X160949819Y-90118800D01*
X161022414Y-89982985D01*
X161067117Y-89835617D01*
X161082212Y-89682360D01*
X161082212Y-89387360D01*
X161067117Y-89234103D01*
X161022414Y-89086735D01*
X161002704Y-89049860D01*
X161022414Y-89012985D01*
X161067117Y-88865617D01*
X161082212Y-88712360D01*
X161082212Y-88417360D01*
X161067117Y-88264103D01*
X161022414Y-88116735D01*
X161009140Y-88091901D01*
X161009140Y-87644295D01*
X161112585Y-87518246D01*
X161194652Y-87364710D01*
X161245188Y-87198114D01*
X161262252Y-87024860D01*
X161262252Y-86074860D01*
X161245188Y-85901606D01*
X161194652Y-85735010D01*
X161112585Y-85581474D01*
X161009180Y-85455474D01*
X161009180Y-85007744D01*
X161022414Y-84982985D01*
X161067117Y-84835617D01*
X161082212Y-84682360D01*
X161082212Y-84387360D01*
X161067117Y-84234103D01*
X161022414Y-84086735D01*
X161002704Y-84049860D01*
X161022414Y-84012985D01*
X161067117Y-83865617D01*
X161082212Y-83712360D01*
X161082212Y-83417360D01*
X161067117Y-83264103D01*
X161022414Y-83116735D01*
X161009140Y-83091901D01*
X161009140Y-82644295D01*
X161112585Y-82518246D01*
X161157156Y-82434860D01*
X162386686Y-82434860D01*
X162434884Y-82467065D01*
X162623242Y-82545086D01*
X162823201Y-82584860D01*
X163027079Y-82584860D01*
X163227038Y-82545086D01*
X163415396Y-82467065D01*
X163584914Y-82353797D01*
X163729077Y-82209634D01*
X163842345Y-82040116D01*
X163920366Y-81851758D01*
X163960140Y-81651799D01*
X163960140Y-81447921D01*
X163920366Y-81247962D01*
X163842345Y-81059604D01*
X163729077Y-80890086D01*
X163584914Y-80745923D01*
X163415396Y-80632655D01*
X163227038Y-80554634D01*
X163027079Y-80514860D01*
X162823201Y-80514860D01*
X162623242Y-80554634D01*
X162434884Y-80632655D01*
X162386686Y-80664860D01*
X161157156Y-80664860D01*
X161112585Y-80581474D01*
X161002142Y-80446898D01*
X160867566Y-80336455D01*
X160714030Y-80254388D01*
X160547434Y-80203852D01*
X160374180Y-80186788D01*
X159874180Y-80186788D01*
X159700926Y-80203852D01*
X159534330Y-80254388D01*
X159380794Y-80336455D01*
X159246218Y-80446898D01*
X159240838Y-80453454D01*
X159175365Y-80373675D01*
X159078674Y-80294323D01*
X158968360Y-80235358D01*
X158848662Y-80199048D01*
X158724180Y-80186788D01*
X158509930Y-80189860D01*
X158351180Y-80348610D01*
X158351180Y-81422860D01*
X158371180Y-81422860D01*
X158371180Y-81676860D01*
X158351180Y-81676860D01*
X158351180Y-82751110D01*
X158509930Y-82909860D01*
X158724180Y-82912932D01*
X158848662Y-82900672D01*
X158968360Y-82864362D01*
X159078674Y-82805397D01*
X159175365Y-82726045D01*
X159239140Y-82648334D01*
X159239140Y-83091901D01*
X159225866Y-83116735D01*
X159181163Y-83264103D01*
X159166068Y-83417360D01*
X159166068Y-83712360D01*
X159181163Y-83865617D01*
X159225866Y-84012985D01*
X159245576Y-84049860D01*
X159225866Y-84086735D01*
X159181163Y-84234103D01*
X159166068Y-84387360D01*
X159166068Y-84682360D01*
X159181163Y-84835617D01*
X159225866Y-84982985D01*
X159239181Y-85007895D01*
X159239181Y-85451435D01*
X159175365Y-85373675D01*
X159078674Y-85294323D01*
X158968360Y-85235358D01*
X158848662Y-85199048D01*
X158724180Y-85186788D01*
X158509930Y-85189860D01*
X158351180Y-85348610D01*
X158351180Y-86422860D01*
X158371180Y-86422860D01*
X158371180Y-86676860D01*
X158351180Y-86676860D01*
X158351180Y-87751110D01*
X158509930Y-87909860D01*
X158724180Y-87912932D01*
X158848662Y-87900672D01*
X158968360Y-87864362D01*
X159078674Y-87805397D01*
X159175365Y-87726045D01*
X159239140Y-87648334D01*
X159239140Y-88091901D01*
X159225866Y-88116735D01*
X159181163Y-88264103D01*
X159166068Y-88417360D01*
X159166068Y-88650000D01*
X157846579Y-88650000D01*
X157095000Y-87898422D01*
X157095000Y-87365145D01*
X157098368Y-87399342D01*
X157134678Y-87519040D01*
X157193643Y-87629354D01*
X157272995Y-87726045D01*
X157369686Y-87805397D01*
X157480000Y-87864362D01*
X157599698Y-87900672D01*
X157724180Y-87912932D01*
X157938430Y-87909860D01*
X158097180Y-87751110D01*
X158097180Y-86676860D01*
X158077180Y-86676860D01*
X158077180Y-86422860D01*
X158097180Y-86422860D01*
X158097180Y-85348610D01*
X157938430Y-85189860D01*
X157724180Y-85186788D01*
X157599698Y-85199048D01*
X157480000Y-85235358D01*
X157369686Y-85294323D01*
X157272995Y-85373675D01*
X157193643Y-85470366D01*
X157134678Y-85580680D01*
X157098368Y-85700378D01*
X157097612Y-85708054D01*
X157095000Y-85681531D01*
X157095000Y-85681523D01*
X157082195Y-85551510D01*
X157057326Y-85469528D01*
X157031589Y-85384686D01*
X156949411Y-85230941D01*
X156866532Y-85129953D01*
X156866530Y-85129951D01*
X156838817Y-85096183D01*
X156805050Y-85068471D01*
X156231532Y-84494954D01*
X156203817Y-84461183D01*
X156069059Y-84350589D01*
X155915313Y-84268411D01*
X155748490Y-84217805D01*
X155618477Y-84205000D01*
X155618469Y-84205000D01*
X155575000Y-84200719D01*
X155531531Y-84205000D01*
X155399386Y-84205000D01*
X155273386Y-84101595D01*
X155187500Y-84055688D01*
X155187500Y-83644386D01*
X155290905Y-83518386D01*
X155372972Y-83364850D01*
X155423508Y-83198254D01*
X155440572Y-83025000D01*
X155440572Y-82274860D01*
X157086108Y-82274860D01*
X157098368Y-82399342D01*
X157134678Y-82519040D01*
X157193643Y-82629354D01*
X157272995Y-82726045D01*
X157369686Y-82805397D01*
X157480000Y-82864362D01*
X157599698Y-82900672D01*
X157724180Y-82912932D01*
X157938430Y-82909860D01*
X158097180Y-82751110D01*
X158097180Y-81676860D01*
X157247930Y-81676860D01*
X157089180Y-81835610D01*
X157086108Y-82274860D01*
X155440572Y-82274860D01*
X155440572Y-82075000D01*
X155423508Y-81901746D01*
X155372972Y-81735150D01*
X155290905Y-81581614D01*
X155180462Y-81447038D01*
X155045886Y-81336595D01*
X154892350Y-81254528D01*
X154725754Y-81203992D01*
X154552500Y-81186928D01*
X154052500Y-81186928D01*
X153879246Y-81203992D01*
X153712650Y-81254528D01*
X153559114Y-81336595D01*
X153424538Y-81447038D01*
X153352500Y-81534817D01*
X153280462Y-81447038D01*
X153145886Y-81336595D01*
X152992350Y-81254528D01*
X152825754Y-81203992D01*
X152652500Y-81186928D01*
X152152500Y-81186928D01*
X151979246Y-81203992D01*
X151812650Y-81254528D01*
X151659114Y-81336595D01*
X151524538Y-81447038D01*
X151414095Y-81581614D01*
X151332028Y-81735150D01*
X151281492Y-81901746D01*
X151264428Y-82075000D01*
X151264428Y-82436494D01*
X151223072Y-82477850D01*
X151223072Y-81980000D01*
X151206008Y-81806746D01*
X151155472Y-81640150D01*
X151073405Y-81486614D01*
X150962962Y-81352038D01*
X150956406Y-81346658D01*
X151036185Y-81281185D01*
X151115537Y-81184494D01*
X151174502Y-81074180D01*
X151210812Y-80954482D01*
X151223072Y-80830000D01*
X151222999Y-80824860D01*
X157086108Y-80824860D01*
X157089180Y-81264110D01*
X157247930Y-81422860D01*
X158097180Y-81422860D01*
X158097180Y-80348610D01*
X157938430Y-80189860D01*
X157724180Y-80186788D01*
X157599698Y-80199048D01*
X157480000Y-80235358D01*
X157369686Y-80294323D01*
X157272995Y-80373675D01*
X157193643Y-80470366D01*
X157134678Y-80580680D01*
X157098368Y-80700378D01*
X157086108Y-80824860D01*
X151222999Y-80824860D01*
X151220000Y-80615750D01*
X151061250Y-80457000D01*
X149987000Y-80457000D01*
X149987000Y-80477000D01*
X149733000Y-80477000D01*
X149733000Y-80457000D01*
X148658750Y-80457000D01*
X148500000Y-80615750D01*
X148496928Y-80830000D01*
X148509188Y-80954482D01*
X148545498Y-81074180D01*
X148604463Y-81184494D01*
X148683815Y-81281185D01*
X148761574Y-81345000D01*
X147783426Y-81345000D01*
X147861185Y-81281185D01*
X147940537Y-81184494D01*
X147999502Y-81074180D01*
X148035812Y-80954482D01*
X148048072Y-80830000D01*
X148045000Y-80615750D01*
X147886250Y-80457000D01*
X146812000Y-80457000D01*
X146812000Y-80477000D01*
X146558000Y-80477000D01*
X146558000Y-80457000D01*
X145483750Y-80457000D01*
X145325000Y-80615750D01*
X145321928Y-80830000D01*
X145334188Y-80954482D01*
X145370498Y-81074180D01*
X145429463Y-81184494D01*
X145508815Y-81281185D01*
X145588594Y-81346658D01*
X145582038Y-81352038D01*
X145471595Y-81486614D01*
X145389528Y-81640150D01*
X145338992Y-81806746D01*
X145321928Y-81980000D01*
X145321928Y-82480000D01*
X145338992Y-82653254D01*
X145389528Y-82819850D01*
X145471595Y-82973386D01*
X145582038Y-83107962D01*
X145716614Y-83218405D01*
X145800001Y-83262976D01*
X145800000Y-85007695D01*
X145692829Y-84919742D01*
X145556582Y-84846916D01*
X145408745Y-84802071D01*
X145255000Y-84786928D01*
X143655000Y-84786928D01*
X143501255Y-84802071D01*
X143353418Y-84846916D01*
X143217171Y-84919742D01*
X143097749Y-85017749D01*
X142999742Y-85137171D01*
X142926916Y-85273418D01*
X142882071Y-85421255D01*
X142866928Y-85575000D01*
X142866928Y-85875000D01*
X142882071Y-86028745D01*
X142926916Y-86176582D01*
X142998730Y-86310936D01*
X142974463Y-86340506D01*
X142915498Y-86450820D01*
X142879188Y-86570518D01*
X142866928Y-86695000D01*
X142870000Y-86709250D01*
X143028750Y-86868000D01*
X144328000Y-86868000D01*
X144328000Y-86848000D01*
X144582000Y-86848000D01*
X144582000Y-86868000D01*
X144602000Y-86868000D01*
X144602000Y-87122000D01*
X144582000Y-87122000D01*
X144582000Y-87142000D01*
X144328000Y-87142000D01*
X144328000Y-87122000D01*
X143028750Y-87122000D01*
X142870000Y-87280750D01*
X142866928Y-87295000D01*
X142875299Y-87380000D01*
X139868072Y-87380000D01*
X139868072Y-86290000D01*
X139851008Y-86116746D01*
X139800472Y-85950150D01*
X139718405Y-85796614D01*
X139607962Y-85662038D01*
X139473386Y-85551595D01*
X139319850Y-85469528D01*
X139153254Y-85418992D01*
X138980000Y-85401928D01*
X137880000Y-85401928D01*
X137706746Y-85418992D01*
X137540150Y-85469528D01*
X137386614Y-85551595D01*
X137252038Y-85662038D01*
X137141595Y-85796614D01*
X137059528Y-85950150D01*
X137008992Y-86116746D01*
X136991928Y-86290000D01*
X136991928Y-87382040D01*
X133395509Y-87382040D01*
X133352040Y-87377759D01*
X133308571Y-87382040D01*
X132843262Y-87382040D01*
X132924831Y-87282648D01*
X133002278Y-87137756D01*
X133049969Y-86980540D01*
X133066072Y-86817040D01*
X133066072Y-86417040D01*
X133049969Y-86253540D01*
X133002278Y-86096324D01*
X132924831Y-85951432D01*
X132838000Y-85845629D01*
X132838000Y-85579191D01*
X132899164Y-85546498D01*
X133032792Y-85436832D01*
X133142458Y-85303204D01*
X133223947Y-85150749D01*
X133274128Y-84985325D01*
X133291072Y-84813290D01*
X133291072Y-84325790D01*
X133274128Y-84153755D01*
X133269956Y-84140000D01*
X136991928Y-84140000D01*
X137004188Y-84264482D01*
X137040498Y-84384180D01*
X137099463Y-84494494D01*
X137178815Y-84591185D01*
X137275506Y-84670537D01*
X137385820Y-84729502D01*
X137505518Y-84765812D01*
X137630000Y-84778072D01*
X138144250Y-84775000D01*
X138303000Y-84616250D01*
X138303000Y-82517000D01*
X138557000Y-82517000D01*
X138557000Y-84616250D01*
X138715750Y-84775000D01*
X139230000Y-84778072D01*
X139354482Y-84765812D01*
X139474180Y-84729502D01*
X139584494Y-84670537D01*
X139681185Y-84591185D01*
X139760537Y-84494494D01*
X139819502Y-84384180D01*
X139855812Y-84264482D01*
X139868072Y-84140000D01*
X139865000Y-82675750D01*
X139706250Y-82517000D01*
X138557000Y-82517000D01*
X138303000Y-82517000D01*
X137153750Y-82517000D01*
X136995000Y-82675750D01*
X136991928Y-84140000D01*
X133269956Y-84140000D01*
X133223947Y-83988331D01*
X133142458Y-83835876D01*
X133032792Y-83702248D01*
X133026436Y-83697032D01*
X133104185Y-83633225D01*
X133183537Y-83536534D01*
X133242502Y-83426220D01*
X133278812Y-83306522D01*
X133291072Y-83182040D01*
X133288000Y-82980290D01*
X133129250Y-82821540D01*
X132080000Y-82821540D01*
X132080000Y-82841540D01*
X131826000Y-82841540D01*
X131826000Y-82821540D01*
X130776750Y-82821540D01*
X130618000Y-82980290D01*
X130614928Y-83182040D01*
X130627188Y-83306522D01*
X130663498Y-83426220D01*
X130722463Y-83536534D01*
X130801815Y-83633225D01*
X130879564Y-83697032D01*
X130873208Y-83702248D01*
X130763542Y-83835876D01*
X130682053Y-83988331D01*
X130631872Y-84153755D01*
X130614928Y-84325790D01*
X130614928Y-84813290D01*
X130631872Y-84985325D01*
X130682053Y-85150749D01*
X130763542Y-85303204D01*
X130873208Y-85436832D01*
X131006836Y-85546498D01*
X131068001Y-85579191D01*
X131068000Y-85845628D01*
X130981169Y-85951432D01*
X130903722Y-86096324D01*
X130856031Y-86253540D01*
X130839928Y-86417040D01*
X130839928Y-86817040D01*
X130856031Y-86980540D01*
X130903722Y-87137756D01*
X130981169Y-87282648D01*
X131085394Y-87409646D01*
X131124866Y-87442040D01*
X131085394Y-87474434D01*
X131060342Y-87504960D01*
X130829660Y-87504960D01*
X130829660Y-87497958D01*
X130694912Y-87497958D01*
X130829660Y-87363210D01*
X130823817Y-87288669D01*
X130790991Y-87167969D01*
X130735249Y-87055992D01*
X130658732Y-86957041D01*
X130564382Y-86874920D01*
X130455823Y-86812783D01*
X130337227Y-86773019D01*
X130226410Y-86759960D01*
X130067660Y-86918710D01*
X130067660Y-87396888D01*
X129921660Y-87396888D01*
X129921660Y-86918710D01*
X129762910Y-86759960D01*
X129652093Y-86773019D01*
X129533497Y-86812783D01*
X129424938Y-86874920D01*
X129385793Y-86908991D01*
X128522000Y-86045199D01*
X128522000Y-85127322D01*
X128525676Y-85089999D01*
X128522000Y-85052676D01*
X128522000Y-85052667D01*
X128511003Y-84941014D01*
X128467546Y-84797753D01*
X128396974Y-84665724D01*
X128302001Y-84549999D01*
X128273002Y-84526200D01*
X127710803Y-83964002D01*
X127687001Y-83934999D01*
X127571276Y-83840026D01*
X127439247Y-83769454D01*
X127295986Y-83725997D01*
X127283249Y-83724742D01*
X127293072Y-83625000D01*
X127293072Y-83325000D01*
X127282741Y-83220107D01*
X127290000Y-83156750D01*
X127257753Y-83124503D01*
X127244502Y-83080820D01*
X127185537Y-82970506D01*
X127152725Y-82930525D01*
X127290000Y-82793250D01*
X127277675Y-82685674D01*
X127238529Y-82566873D01*
X127176959Y-82457992D01*
X127095330Y-82363215D01*
X126996780Y-82286184D01*
X126885095Y-82229859D01*
X126802881Y-82207040D01*
X130614928Y-82207040D01*
X130618000Y-82408790D01*
X130776750Y-82567540D01*
X131826000Y-82567540D01*
X131826000Y-81730790D01*
X132080000Y-81730790D01*
X132080000Y-82567540D01*
X133129250Y-82567540D01*
X133288000Y-82408790D01*
X133291072Y-82207040D01*
X133278812Y-82082558D01*
X133242502Y-81962860D01*
X133183537Y-81852546D01*
X133104185Y-81755855D01*
X133007494Y-81676503D01*
X132897180Y-81617538D01*
X132777482Y-81581228D01*
X132653000Y-81568968D01*
X132238750Y-81572040D01*
X132080000Y-81730790D01*
X131826000Y-81730790D01*
X131667250Y-81572040D01*
X131253000Y-81568968D01*
X131128518Y-81581228D01*
X131008820Y-81617538D01*
X130898506Y-81676503D01*
X130801815Y-81755855D01*
X130722463Y-81852546D01*
X130663498Y-81962860D01*
X130627188Y-82082558D01*
X130614928Y-82207040D01*
X126802881Y-82207040D01*
X126764567Y-82196406D01*
X126639829Y-82187108D01*
X126605000Y-82189160D01*
X126605000Y-82030448D01*
X126568108Y-81844978D01*
X126495741Y-81670269D01*
X126390681Y-81513036D01*
X126256964Y-81379319D01*
X126099731Y-81274259D01*
X125925022Y-81201892D01*
X125739552Y-81165000D01*
X125639792Y-81165000D01*
X125626128Y-81125582D01*
X125516658Y-80952948D01*
X125375612Y-80804987D01*
X125208410Y-80687386D01*
X125101329Y-80640000D01*
X136991928Y-80640000D01*
X136995000Y-82104250D01*
X137153750Y-82263000D01*
X138303000Y-82263000D01*
X138303000Y-80163750D01*
X138557000Y-80163750D01*
X138557000Y-82263000D01*
X139706250Y-82263000D01*
X139865000Y-82104250D01*
X139868072Y-80640000D01*
X139855812Y-80515518D01*
X139819502Y-80395820D01*
X139760537Y-80285506D01*
X139681185Y-80188815D01*
X139584494Y-80109463D01*
X139474180Y-80050498D01*
X139354482Y-80014188D01*
X139230000Y-80001928D01*
X138715750Y-80005000D01*
X138557000Y-80163750D01*
X138303000Y-80163750D01*
X138144250Y-80005000D01*
X137630000Y-80001928D01*
X137505518Y-80014188D01*
X137385820Y-80050498D01*
X137275506Y-80109463D01*
X137178815Y-80188815D01*
X137099463Y-80285506D01*
X137040498Y-80395820D01*
X137004188Y-80515518D01*
X136991928Y-80640000D01*
X125101329Y-80640000D01*
X125021478Y-80604664D01*
X124822000Y-80560000D01*
X124522000Y-80560000D01*
X124522000Y-81468000D01*
X124542000Y-81468000D01*
X124542000Y-81722000D01*
X124522000Y-81722000D01*
X124522000Y-81742000D01*
X124268000Y-81742000D01*
X124268000Y-81722000D01*
X123228002Y-81722000D01*
X123100334Y-81881123D01*
X119562777Y-81881123D01*
X119566658Y-81877052D01*
X119676128Y-81704418D01*
X119739666Y-81521123D01*
X119611998Y-81362000D01*
X118572000Y-81362000D01*
X118318000Y-81362000D01*
X117278002Y-81362000D01*
X117150334Y-81521123D01*
X116230000Y-81521123D01*
X116230000Y-81308877D01*
X123100334Y-81308877D01*
X123228002Y-81468000D01*
X124268000Y-81468000D01*
X124268000Y-80560000D01*
X123968000Y-80560000D01*
X123768522Y-80604664D01*
X123581590Y-80687386D01*
X123414388Y-80804987D01*
X123273342Y-80952948D01*
X123163872Y-81125582D01*
X123100334Y-81308877D01*
X116230000Y-81308877D01*
X116230000Y-80948877D01*
X117150334Y-80948877D01*
X117278002Y-81108000D01*
X118318000Y-81108000D01*
X118318000Y-80200000D01*
X118572000Y-80200000D01*
X118572000Y-81108000D01*
X119611998Y-81108000D01*
X119739666Y-80948877D01*
X119676128Y-80765582D01*
X119566658Y-80592948D01*
X119425612Y-80444987D01*
X119258410Y-80327386D01*
X119071478Y-80244664D01*
X118872000Y-80200000D01*
X118572000Y-80200000D01*
X118318000Y-80200000D01*
X118018000Y-80200000D01*
X117818522Y-80244664D01*
X117631590Y-80327386D01*
X117464388Y-80444987D01*
X117323342Y-80592948D01*
X117213872Y-80765582D01*
X117150334Y-80948877D01*
X116230000Y-80948877D01*
X116230000Y-80677277D01*
X116256815Y-80403796D01*
X116326867Y-80171774D01*
X116440650Y-79957778D01*
X116593832Y-79769959D01*
X116780577Y-79615470D01*
X116993769Y-79500199D01*
X117225300Y-79428528D01*
X117496725Y-79400000D01*
X145491429Y-79400000D01*
X145429463Y-79475506D01*
%TA.AperFunction,Conductor*%
D25*
G36*
X145429463Y-79475506D02*
G01*
X145370498Y-79585820D01*
X145334188Y-79705518D01*
X145321928Y-79830000D01*
X145325000Y-80044250D01*
X145483750Y-80203000D01*
X146558000Y-80203000D01*
X146558000Y-80183000D01*
X146812000Y-80183000D01*
X146812000Y-80203000D01*
X147886250Y-80203000D01*
X148045000Y-80044250D01*
X148048072Y-79830000D01*
X148035812Y-79705518D01*
X147999502Y-79585820D01*
X147940537Y-79475506D01*
X147878571Y-79400000D01*
X148666429Y-79400000D01*
X148604463Y-79475506D01*
X148545498Y-79585820D01*
X148509188Y-79705518D01*
X148496928Y-79830000D01*
X148500000Y-80044250D01*
X148658750Y-80203000D01*
X149733000Y-80203000D01*
X149733000Y-80183000D01*
X149987000Y-80183000D01*
X149987000Y-80203000D01*
X151061250Y-80203000D01*
X151220000Y-80044250D01*
X151223072Y-79830000D01*
X151210812Y-79705518D01*
X151174502Y-79585820D01*
X151115537Y-79475506D01*
X151053571Y-79400000D01*
X169512723Y-79400000D01*
X169786204Y-79426815D01*
X170018226Y-79496867D01*
X170232222Y-79610650D01*
X170420041Y-79763832D01*
X170574530Y-79950577D01*
X170689801Y-80163769D01*
X170761472Y-80395300D01*
X170790001Y-80666734D01*
X170790000Y-90772581D01*
X170790000Y-97058393D01*
X170769502Y-96990820D01*
X170710537Y-96880506D01*
X170631185Y-96783815D01*
X170534494Y-96704463D01*
X170424180Y-96645498D01*
X170304482Y-96609188D01*
X170180000Y-96596928D01*
X167925750Y-96600000D01*
X167767000Y-96758750D01*
X167767000Y-97858000D01*
X167787000Y-97858000D01*
X167787000Y-98112000D01*
X167767000Y-98112000D01*
X167767000Y-99211250D01*
X167925750Y-99370000D01*
X170180000Y-99373072D01*
X170304482Y-99360812D01*
X170424180Y-99324502D01*
X170534494Y-99265537D01*
X170631185Y-99186185D01*
X170710537Y-99089494D01*
X170769502Y-98979180D01*
X170790000Y-98911607D01*
X170790000Y-99923600D01*
X161527000Y-99923600D01*
X161527000Y-98735000D01*
X164461928Y-98735000D01*
X164474188Y-98859482D01*
X164510498Y-98979180D01*
X164569463Y-99089494D01*
X164648815Y-99186185D01*
X164745506Y-99265537D01*
X164855820Y-99324502D01*
X164975518Y-99360812D01*
X165100000Y-99373072D01*
X167354250Y-99370000D01*
X167513000Y-99211250D01*
X167513000Y-98112000D01*
X164623750Y-98112000D01*
X164465000Y-98270750D01*
X164461928Y-98735000D01*
X161527000Y-98735000D01*
X161527000Y-97235000D01*
X164461928Y-97235000D01*
X164465000Y-97699250D01*
X164623750Y-97858000D01*
X167513000Y-97858000D01*
X167513000Y-96758750D01*
X167354250Y-96600000D01*
X165100000Y-96596928D01*
X164975518Y-96609188D01*
X164855820Y-96645498D01*
X164745506Y-96704463D01*
X164648815Y-96783815D01*
X164569463Y-96880506D01*
X164510498Y-96990820D01*
X164474188Y-97110518D01*
X164461928Y-97235000D01*
X161527000Y-97235000D01*
X161527000Y-93273752D01*
X161532491Y-93218000D01*
X161510577Y-92995501D01*
X161445676Y-92781553D01*
X161340284Y-92584377D01*
X161198449Y-92411551D01*
X161025623Y-92269716D01*
X160828447Y-92164324D01*
X160614499Y-92099423D01*
X160447752Y-92083000D01*
X160447751Y-92083000D01*
X160392000Y-92077509D01*
X160336248Y-92083000D01*
X126547751Y-92083000D01*
X126492000Y-92077509D01*
X126436248Y-92083000D01*
X126269501Y-92099423D01*
X126055553Y-92164324D01*
X125858377Y-92269716D01*
X125685551Y-92411551D01*
X125543716Y-92584377D01*
X125438324Y-92781553D01*
X125373423Y-92995501D01*
X125351509Y-93218000D01*
X125357000Y-93273752D01*
X125357001Y-97501379D01*
X125258513Y-97523496D01*
X125225574Y-97535970D01*
X125159252Y-97548540D01*
X125149029Y-97550919D01*
X125034826Y-97582523D01*
X125004749Y-97595198D01*
X125002942Y-97596504D01*
X124936899Y-97612414D01*
X124926804Y-97615292D01*
X124814289Y-97652462D01*
X124787504Y-97664930D01*
X124783705Y-97667821D01*
X124717949Y-97687120D01*
X124708008Y-97690490D01*
X124597453Y-97733136D01*
X124573904Y-97745172D01*
X124568087Y-97749828D01*
X124502942Y-97772474D01*
X124493179Y-97776327D01*
X124384849Y-97824346D01*
X124364466Y-97835728D01*
X124356581Y-97842362D01*
X124292365Y-97868284D01*
X124282802Y-97872612D01*
X124176959Y-97925889D01*
X124159664Y-97936400D01*
X124149664Y-97945243D01*
X124086751Y-97974305D01*
X124077412Y-97979097D01*
X123974311Y-98037503D01*
X123960009Y-98046933D01*
X123947793Y-98058281D01*
X123886589Y-98090287D01*
X123877496Y-98095531D01*
X123777384Y-98158926D01*
X123765972Y-98167069D01*
X123751405Y-98181283D01*
X123692347Y-98215959D01*
X123683523Y-98221643D01*
X123586643Y-98289874D01*
X123560980Y-98314009D01*
X123504527Y-98350995D01*
X123495992Y-98357106D01*
X123402576Y-98430008D01*
X123379639Y-98453228D01*
X123378470Y-98455125D01*
X123323531Y-98495106D01*
X123315307Y-98501628D01*
X123225582Y-98579026D01*
X123205607Y-98600795D01*
X123203204Y-98604918D01*
X123149842Y-98647910D01*
X123141947Y-98654828D01*
X123056127Y-98736536D01*
X123038976Y-98756667D01*
X123037922Y-98758582D01*
X123034981Y-98760154D01*
X123015735Y-98775948D01*
X121909896Y-99881787D01*
X121885425Y-99905085D01*
X121881180Y-99908747D01*
X121876776Y-99912184D01*
X121872219Y-99915393D01*
X121867507Y-99918377D01*
X121862610Y-99921151D01*
X121857745Y-99923600D01*
X116230000Y-99923600D01*
X116230000Y-98911607D01*
X116250498Y-98979180D01*
X116309463Y-99089494D01*
X116388815Y-99186185D01*
X116485506Y-99265537D01*
X116595820Y-99324502D01*
X116715518Y-99360812D01*
X116840000Y-99373072D01*
X119094250Y-99370000D01*
X119253000Y-99211250D01*
X119253000Y-98112000D01*
X119507000Y-98112000D01*
X119507000Y-99211250D01*
X119665750Y-99370000D01*
X121920000Y-99373072D01*
X122044482Y-99360812D01*
X122164180Y-99324502D01*
X122274494Y-99265537D01*
X122371185Y-99186185D01*
X122450537Y-99089494D01*
X122509502Y-98979180D01*
X122545812Y-98859482D01*
X122558072Y-98735000D01*
X122555000Y-98270750D01*
X122396250Y-98112000D01*
X119507000Y-98112000D01*
X119253000Y-98112000D01*
X119233000Y-98112000D01*
X119233000Y-97858000D01*
X119253000Y-97858000D01*
X119253000Y-96758750D01*
X119507000Y-96758750D01*
X119507000Y-97858000D01*
X122396250Y-97858000D01*
X122555000Y-97699250D01*
X122558072Y-97235000D01*
X122545812Y-97110518D01*
X122509502Y-96990820D01*
X122450537Y-96880506D01*
X122371185Y-96783815D01*
X122274494Y-96704463D01*
X122164180Y-96645498D01*
X122044482Y-96609188D01*
X121920000Y-96596928D01*
X119665750Y-96600000D01*
X119507000Y-96758750D01*
X119253000Y-96758750D01*
X119094250Y-96600000D01*
X116840000Y-96596928D01*
X116715518Y-96609188D01*
X116595820Y-96645498D01*
X116485506Y-96704463D01*
X116388815Y-96783815D01*
X116309463Y-96880506D01*
X116250498Y-96990820D01*
X116230000Y-97058393D01*
X116230000Y-90501123D01*
X117150334Y-90501123D01*
X117213872Y-90684418D01*
X117323342Y-90857052D01*
X117464388Y-91005013D01*
X117631590Y-91122614D01*
X117818522Y-91205336D01*
X118018000Y-91250000D01*
X118318000Y-91250000D01*
X118318000Y-90342000D01*
X118572000Y-90342000D01*
X118572000Y-91250000D01*
X118872000Y-91250000D01*
X119071478Y-91205336D01*
X119258410Y-91122614D01*
X119425612Y-91005013D01*
X119566658Y-90857052D01*
X119676128Y-90684418D01*
X119739666Y-90501123D01*
X119611998Y-90342000D01*
X118572000Y-90342000D01*
X118318000Y-90342000D01*
X117278002Y-90342000D01*
X117150334Y-90501123D01*
X116230000Y-90501123D01*
X116230000Y-90141123D01*
X123100334Y-90141123D01*
X123163872Y-90324418D01*
X123273342Y-90497052D01*
X123414388Y-90645013D01*
X123581590Y-90762614D01*
X123768522Y-90845336D01*
X123968000Y-90890000D01*
X124268000Y-90890000D01*
X124268000Y-89982000D01*
X123228002Y-89982000D01*
X123100334Y-90141123D01*
X116230000Y-90141123D01*
X116230000Y-89928877D01*
X117150334Y-89928877D01*
X117278002Y-90088000D01*
X118318000Y-90088000D01*
X118318000Y-89180000D01*
X118572000Y-89180000D01*
X118572000Y-90088000D01*
X119611998Y-90088000D01*
X119739666Y-89928877D01*
X119676128Y-89745582D01*
X119566658Y-89572948D01*
X119425612Y-89424987D01*
X119258410Y-89307386D01*
X119071478Y-89224664D01*
X118872000Y-89180000D01*
X118572000Y-89180000D01*
X118318000Y-89180000D01*
X118018000Y-89180000D01*
X117818522Y-89224664D01*
X117631590Y-89307386D01*
X117464388Y-89424987D01*
X117323342Y-89572948D01*
X117213872Y-89745582D01*
X117150334Y-89928877D01*
X116230000Y-89928877D01*
X116230000Y-81521123D01*
X117150334Y-81521123D01*
X117213872Y-81704418D01*
X117323342Y-81877052D01*
X117464388Y-82025013D01*
X117631590Y-82142614D01*
X117818522Y-82225336D01*
X118018000Y-82270000D01*
X118318000Y-82270000D01*
X118318000Y-81362000D01*
X118572000Y-81362000D01*
X118572000Y-82270000D01*
X118872000Y-82270000D01*
X119071478Y-82225336D01*
X119258410Y-82142614D01*
X119425612Y-82025013D01*
X119562777Y-81881123D01*
X123100334Y-81881123D01*
X123163872Y-82064418D01*
X123273342Y-82237052D01*
X123414388Y-82385013D01*
X123581590Y-82502614D01*
X123622578Y-82520752D01*
X123620000Y-82543250D01*
X123757275Y-82680525D01*
X123724463Y-82720506D01*
X123665498Y-82830820D01*
X123652247Y-82874503D01*
X123620000Y-82906750D01*
X123627259Y-82970107D01*
X123616928Y-83075000D01*
X123616928Y-83375000D01*
X123626777Y-83475000D01*
X123616928Y-83575000D01*
X123616928Y-83875000D01*
X123626777Y-83975000D01*
X123616928Y-84075000D01*
X123616928Y-84375000D01*
X123626777Y-84475000D01*
X123616928Y-84575000D01*
X123616928Y-84875000D01*
X123626777Y-84975000D01*
X123616928Y-85075000D01*
X123616928Y-85375000D01*
X123626777Y-85475000D01*
X123616928Y-85575000D01*
X123616928Y-85875000D01*
X123626777Y-85975000D01*
X123616928Y-86075000D01*
X123616928Y-86375000D01*
X123626777Y-86475000D01*
X123616928Y-86575000D01*
X123616928Y-86875000D01*
X123626777Y-86974999D01*
X123616928Y-87075000D01*
X123616928Y-87375000D01*
X123626777Y-87475000D01*
X123616928Y-87575000D01*
X123616928Y-87875000D01*
X123627259Y-87979893D01*
X123620000Y-88043250D01*
X123652247Y-88075497D01*
X123665498Y-88119180D01*
X123724463Y-88229494D01*
X123757275Y-88269475D01*
X123620000Y-88406750D01*
X123632325Y-88514326D01*
X123671471Y-88633127D01*
X123733041Y-88742008D01*
X123814670Y-88836785D01*
X123832119Y-88850424D01*
X123768522Y-88864664D01*
X123581590Y-88947386D01*
X123414388Y-89064987D01*
X123273342Y-89212948D01*
X123163872Y-89385582D01*
X123100334Y-89568877D01*
X123228002Y-89728000D01*
X124268000Y-89728000D01*
X124268000Y-89708000D01*
X124522000Y-89708000D01*
X124522000Y-89728000D01*
X124542000Y-89728000D01*
X124542000Y-89982000D01*
X124522000Y-89982000D01*
X124522000Y-90890000D01*
X124822000Y-90890000D01*
X125021478Y-90845336D01*
X125208410Y-90762614D01*
X125375612Y-90645013D01*
X125516658Y-90497052D01*
X125558465Y-90431122D01*
X125645000Y-90439645D01*
X125833192Y-90421110D01*
X126014153Y-90366216D01*
X126180928Y-90277073D01*
X126327107Y-90157107D01*
X126447073Y-90010928D01*
X126536216Y-89844154D01*
X126591110Y-89663193D01*
X126605000Y-89522162D01*
X126605000Y-89260840D01*
X126639829Y-89262892D01*
X126764567Y-89253594D01*
X126885095Y-89220141D01*
X126996780Y-89163816D01*
X127095330Y-89086785D01*
X127176959Y-88992008D01*
X127238529Y-88883127D01*
X127277675Y-88764326D01*
X127290000Y-88656750D01*
X127152725Y-88519475D01*
X127185537Y-88479494D01*
X127244502Y-88369180D01*
X127257753Y-88325497D01*
X127290000Y-88293250D01*
X127282741Y-88229893D01*
X127293072Y-88125000D01*
X127293072Y-87825000D01*
X127283249Y-87725258D01*
X127295986Y-87724003D01*
X127439247Y-87680546D01*
X127571276Y-87609974D01*
X127687001Y-87515001D01*
X127710803Y-87485998D01*
X127762000Y-87434801D01*
X129103160Y-88775962D01*
X129126959Y-88804961D01*
X129242684Y-88899934D01*
X129374713Y-88970506D01*
X129475327Y-89001026D01*
X129484609Y-89008644D01*
X129612212Y-89076850D01*
X129750669Y-89118850D01*
X129894660Y-89133032D01*
X130094660Y-89133032D01*
X130238651Y-89118850D01*
X130377108Y-89076850D01*
X130474186Y-89024960D01*
X131056928Y-89024960D01*
X131085394Y-89059646D01*
X131212392Y-89163871D01*
X131357284Y-89241318D01*
X131514500Y-89289009D01*
X131678000Y-89305112D01*
X132228000Y-89305112D01*
X132391500Y-89289009D01*
X132548716Y-89241318D01*
X132693608Y-89163871D01*
X132708024Y-89152040D01*
X132985462Y-89152040D01*
X134248465Y-90415044D01*
X134259774Y-90471898D01*
X134337795Y-90660256D01*
X134451063Y-90829774D01*
X134595226Y-90973937D01*
X134764744Y-91087205D01*
X134953102Y-91165226D01*
X135153061Y-91205000D01*
X135356939Y-91205000D01*
X135556898Y-91165226D01*
X135745256Y-91087205D01*
X135914774Y-90973937D01*
X136058937Y-90829774D01*
X136172205Y-90660256D01*
X136250226Y-90471898D01*
X136290000Y-90271939D01*
X136290000Y-90068061D01*
X136250226Y-89868102D01*
X136172205Y-89679744D01*
X136058937Y-89510226D01*
X135914774Y-89366063D01*
X135745256Y-89252795D01*
X135556898Y-89174774D01*
X135500044Y-89163465D01*
X135488619Y-89152040D01*
X136991928Y-89152040D01*
X136991928Y-89290000D01*
X137008992Y-89463254D01*
X137059528Y-89629850D01*
X137141595Y-89783386D01*
X137252038Y-89917962D01*
X137386614Y-90028405D01*
X137540150Y-90110472D01*
X137706746Y-90161008D01*
X137880000Y-90178072D01*
X138980000Y-90178072D01*
X139153254Y-90161008D01*
X139319850Y-90110472D01*
X139473386Y-90028405D01*
X139607962Y-89917962D01*
X139718405Y-89783386D01*
X139800472Y-89629850D01*
X139851008Y-89463254D01*
X139868072Y-89290000D01*
X139868072Y-89150000D01*
X142906719Y-89150000D01*
X142882071Y-89231255D01*
X142866928Y-89385000D01*
X142866928Y-89685000D01*
X142882071Y-89838745D01*
X142926916Y-89986582D01*
X142999742Y-90122829D01*
X143097749Y-90242251D01*
X143217171Y-90340258D01*
X143353418Y-90413084D01*
X143501255Y-90457929D01*
X143655000Y-90473072D01*
X145255000Y-90473072D01*
X145408745Y-90457929D01*
X145556582Y-90413084D01*
X145692829Y-90340258D01*
X145812251Y-90242251D01*
X145910258Y-90122829D01*
X145983084Y-89986582D01*
X146027929Y-89838745D01*
X146043072Y-89685000D01*
X146043072Y-89385000D01*
X146027929Y-89231255D01*
X145983084Y-89083418D01*
X145928110Y-88980569D01*
X146033817Y-88893817D01*
X146061534Y-88860044D01*
X147280050Y-87641529D01*
X147313817Y-87613817D01*
X147359832Y-87557749D01*
X147424410Y-87479060D01*
X147424411Y-87479059D01*
X147506589Y-87325313D01*
X147557195Y-87158490D01*
X147570000Y-87028477D01*
X147570000Y-87028467D01*
X147574281Y-86985001D01*
X147570000Y-86941535D01*
X147570000Y-83262976D01*
X147653386Y-83218405D01*
X147779386Y-83115000D01*
X148765614Y-83115000D01*
X148891614Y-83218405D01*
X149045150Y-83300472D01*
X149211746Y-83351008D01*
X149385000Y-83368072D01*
X150335000Y-83368072D01*
X150508254Y-83351008D01*
X150582360Y-83328528D01*
X150565719Y-83497500D01*
X150570001Y-83540979D01*
X150570000Y-84795300D01*
X150501255Y-84802071D01*
X150353418Y-84846916D01*
X150217171Y-84919742D01*
X150097749Y-85017749D01*
X149999742Y-85137171D01*
X149926916Y-85273418D01*
X149882071Y-85421255D01*
X149866928Y-85575000D01*
X149866928Y-85875000D01*
X149882071Y-86028745D01*
X149926916Y-86176582D01*
X149998730Y-86310936D01*
X149974463Y-86340506D01*
X149915498Y-86450820D01*
X149879188Y-86570518D01*
X149866928Y-86695000D01*
X149870000Y-86709250D01*
X150028750Y-86868000D01*
X151328000Y-86868000D01*
X151328000Y-86848000D01*
X151582000Y-86848000D01*
X151582000Y-86868000D01*
X152881250Y-86868000D01*
X152995000Y-86754250D01*
X153103750Y-86863000D01*
X154178000Y-86863000D01*
X154178000Y-86843000D01*
X154432000Y-86843000D01*
X154432000Y-86863000D01*
X154452000Y-86863000D01*
X154452000Y-87117000D01*
X154432000Y-87117000D01*
X154432000Y-87966250D01*
X154590750Y-88125000D01*
X155030000Y-88128072D01*
X155154482Y-88115812D01*
X155274180Y-88079502D01*
X155325001Y-88052337D01*
X155325001Y-88221521D01*
X155320719Y-88265000D01*
X155337805Y-88438490D01*
X155388412Y-88605313D01*
X155412297Y-88650000D01*
X153003281Y-88650000D01*
X153027929Y-88568745D01*
X153043072Y-88415000D01*
X153043072Y-88115000D01*
X153027929Y-87961255D01*
X152983084Y-87813418D01*
X152911270Y-87679064D01*
X152935537Y-87649494D01*
X152954211Y-87614558D01*
X152990498Y-87734180D01*
X153049463Y-87844494D01*
X153128815Y-87941185D01*
X153225506Y-88020537D01*
X153335820Y-88079502D01*
X153455518Y-88115812D01*
X153580000Y-88128072D01*
X154019250Y-88125000D01*
X154178000Y-87966250D01*
X154178000Y-87117000D01*
X153103750Y-87117000D01*
X152990000Y-87230750D01*
X152881250Y-87122000D01*
X151582000Y-87122000D01*
X151582000Y-87142000D01*
X151328000Y-87142000D01*
X151328000Y-87122000D01*
X150028750Y-87122000D01*
X149870000Y-87280750D01*
X149866928Y-87295000D01*
X149879188Y-87419482D01*
X149915498Y-87539180D01*
X149974463Y-87649494D01*
X149998730Y-87679064D01*
X149926916Y-87813418D01*
X149882071Y-87961255D01*
X149866928Y-88115000D01*
X149866928Y-88415000D01*
X149882071Y-88568745D01*
X149926916Y-88716582D01*
X149999742Y-88852829D01*
X150038454Y-88900000D01*
X149999742Y-88947171D01*
X149926916Y-89083418D01*
X149882071Y-89231255D01*
X149866928Y-89385000D01*
X149866928Y-89685000D01*
X149882071Y-89838745D01*
X149926916Y-89986582D01*
X149999742Y-90122829D01*
X150097749Y-90242251D01*
X150217171Y-90340258D01*
X150353418Y-90413084D01*
X150501255Y-90457929D01*
X150655000Y-90473072D01*
X152255000Y-90473072D01*
X152408745Y-90457929D01*
X152533783Y-90420000D01*
X157436533Y-90420000D01*
X157479999Y-90424281D01*
X157523465Y-90420000D01*
X159690132Y-90420000D01*
X159798383Y-90452837D01*
X159951640Y-90467932D01*
X160296640Y-90467932D01*
X160449897Y-90452837D01*
X160597265Y-90408134D01*
X160733080Y-90335539D01*
X160852123Y-90237843D01*
X160949819Y-90118800D01*
X161022414Y-89982985D01*
X161067117Y-89835617D01*
X161082212Y-89682360D01*
X161082212Y-89387360D01*
X161067117Y-89234103D01*
X161022414Y-89086735D01*
X161002704Y-89049860D01*
X161022414Y-89012985D01*
X161067117Y-88865617D01*
X161082212Y-88712360D01*
X161082212Y-88417360D01*
X161067117Y-88264103D01*
X161022414Y-88116735D01*
X161009140Y-88091901D01*
X161009140Y-87644295D01*
X161112585Y-87518246D01*
X161194652Y-87364710D01*
X161245188Y-87198114D01*
X161262252Y-87024860D01*
X161262252Y-86074860D01*
X161245188Y-85901606D01*
X161194652Y-85735010D01*
X161112585Y-85581474D01*
X161009180Y-85455474D01*
X161009180Y-85007744D01*
X161022414Y-84982985D01*
X161067117Y-84835617D01*
X161082212Y-84682360D01*
X161082212Y-84387360D01*
X161067117Y-84234103D01*
X161022414Y-84086735D01*
X161002704Y-84049860D01*
X161022414Y-84012985D01*
X161067117Y-83865617D01*
X161082212Y-83712360D01*
X161082212Y-83417360D01*
X161067117Y-83264103D01*
X161022414Y-83116735D01*
X161009140Y-83091901D01*
X161009140Y-82644295D01*
X161112585Y-82518246D01*
X161157156Y-82434860D01*
X162386686Y-82434860D01*
X162434884Y-82467065D01*
X162623242Y-82545086D01*
X162823201Y-82584860D01*
X163027079Y-82584860D01*
X163227038Y-82545086D01*
X163415396Y-82467065D01*
X163584914Y-82353797D01*
X163729077Y-82209634D01*
X163842345Y-82040116D01*
X163920366Y-81851758D01*
X163960140Y-81651799D01*
X163960140Y-81447921D01*
X163920366Y-81247962D01*
X163842345Y-81059604D01*
X163729077Y-80890086D01*
X163584914Y-80745923D01*
X163415396Y-80632655D01*
X163227038Y-80554634D01*
X163027079Y-80514860D01*
X162823201Y-80514860D01*
X162623242Y-80554634D01*
X162434884Y-80632655D01*
X162386686Y-80664860D01*
X161157156Y-80664860D01*
X161112585Y-80581474D01*
X161002142Y-80446898D01*
X160867566Y-80336455D01*
X160714030Y-80254388D01*
X160547434Y-80203852D01*
X160374180Y-80186788D01*
X159874180Y-80186788D01*
X159700926Y-80203852D01*
X159534330Y-80254388D01*
X159380794Y-80336455D01*
X159246218Y-80446898D01*
X159240838Y-80453454D01*
X159175365Y-80373675D01*
X159078674Y-80294323D01*
X158968360Y-80235358D01*
X158848662Y-80199048D01*
X158724180Y-80186788D01*
X158509930Y-80189860D01*
X158351180Y-80348610D01*
X158351180Y-81422860D01*
X158371180Y-81422860D01*
X158371180Y-81676860D01*
X158351180Y-81676860D01*
X158351180Y-82751110D01*
X158509930Y-82909860D01*
X158724180Y-82912932D01*
X158848662Y-82900672D01*
X158968360Y-82864362D01*
X159078674Y-82805397D01*
X159175365Y-82726045D01*
X159239140Y-82648334D01*
X159239140Y-83091901D01*
X159225866Y-83116735D01*
X159181163Y-83264103D01*
X159166068Y-83417360D01*
X159166068Y-83712360D01*
X159181163Y-83865617D01*
X159225866Y-84012985D01*
X159245576Y-84049860D01*
X159225866Y-84086735D01*
X159181163Y-84234103D01*
X159166068Y-84387360D01*
X159166068Y-84682360D01*
X159181163Y-84835617D01*
X159225866Y-84982985D01*
X159239181Y-85007895D01*
X159239181Y-85451435D01*
X159175365Y-85373675D01*
X159078674Y-85294323D01*
X158968360Y-85235358D01*
X158848662Y-85199048D01*
X158724180Y-85186788D01*
X158509930Y-85189860D01*
X158351180Y-85348610D01*
X158351180Y-86422860D01*
X158371180Y-86422860D01*
X158371180Y-86676860D01*
X158351180Y-86676860D01*
X158351180Y-87751110D01*
X158509930Y-87909860D01*
X158724180Y-87912932D01*
X158848662Y-87900672D01*
X158968360Y-87864362D01*
X159078674Y-87805397D01*
X159175365Y-87726045D01*
X159239140Y-87648334D01*
X159239140Y-88091901D01*
X159225866Y-88116735D01*
X159181163Y-88264103D01*
X159166068Y-88417360D01*
X159166068Y-88650000D01*
X157846579Y-88650000D01*
X157095000Y-87898422D01*
X157095000Y-87365145D01*
X157098368Y-87399342D01*
X157134678Y-87519040D01*
X157193643Y-87629354D01*
X157272995Y-87726045D01*
X157369686Y-87805397D01*
X157480000Y-87864362D01*
X157599698Y-87900672D01*
X157724180Y-87912932D01*
X157938430Y-87909860D01*
X158097180Y-87751110D01*
X158097180Y-86676860D01*
X158077180Y-86676860D01*
X158077180Y-86422860D01*
X158097180Y-86422860D01*
X158097180Y-85348610D01*
X157938430Y-85189860D01*
X157724180Y-85186788D01*
X157599698Y-85199048D01*
X157480000Y-85235358D01*
X157369686Y-85294323D01*
X157272995Y-85373675D01*
X157193643Y-85470366D01*
X157134678Y-85580680D01*
X157098368Y-85700378D01*
X157097612Y-85708054D01*
X157095000Y-85681531D01*
X157095000Y-85681523D01*
X157082195Y-85551510D01*
X157057326Y-85469528D01*
X157031589Y-85384686D01*
X156949411Y-85230941D01*
X156866532Y-85129953D01*
X156866530Y-85129951D01*
X156838817Y-85096183D01*
X156805050Y-85068471D01*
X156231532Y-84494954D01*
X156203817Y-84461183D01*
X156069059Y-84350589D01*
X155915313Y-84268411D01*
X155748490Y-84217805D01*
X155618477Y-84205000D01*
X155618469Y-84205000D01*
X155575000Y-84200719D01*
X155531531Y-84205000D01*
X155399386Y-84205000D01*
X155273386Y-84101595D01*
X155187500Y-84055688D01*
X155187500Y-83644386D01*
X155290905Y-83518386D01*
X155372972Y-83364850D01*
X155423508Y-83198254D01*
X155440572Y-83025000D01*
X155440572Y-82274860D01*
X157086108Y-82274860D01*
X157098368Y-82399342D01*
X157134678Y-82519040D01*
X157193643Y-82629354D01*
X157272995Y-82726045D01*
X157369686Y-82805397D01*
X157480000Y-82864362D01*
X157599698Y-82900672D01*
X157724180Y-82912932D01*
X157938430Y-82909860D01*
X158097180Y-82751110D01*
X158097180Y-81676860D01*
X157247930Y-81676860D01*
X157089180Y-81835610D01*
X157086108Y-82274860D01*
X155440572Y-82274860D01*
X155440572Y-82075000D01*
X155423508Y-81901746D01*
X155372972Y-81735150D01*
X155290905Y-81581614D01*
X155180462Y-81447038D01*
X155045886Y-81336595D01*
X154892350Y-81254528D01*
X154725754Y-81203992D01*
X154552500Y-81186928D01*
X154052500Y-81186928D01*
X153879246Y-81203992D01*
X153712650Y-81254528D01*
X153559114Y-81336595D01*
X153424538Y-81447038D01*
X153352500Y-81534817D01*
X153280462Y-81447038D01*
X153145886Y-81336595D01*
X152992350Y-81254528D01*
X152825754Y-81203992D01*
X152652500Y-81186928D01*
X152152500Y-81186928D01*
X151979246Y-81203992D01*
X151812650Y-81254528D01*
X151659114Y-81336595D01*
X151524538Y-81447038D01*
X151414095Y-81581614D01*
X151332028Y-81735150D01*
X151281492Y-81901746D01*
X151264428Y-82075000D01*
X151264428Y-82436494D01*
X151223072Y-82477850D01*
X151223072Y-81980000D01*
X151206008Y-81806746D01*
X151155472Y-81640150D01*
X151073405Y-81486614D01*
X150962962Y-81352038D01*
X150956406Y-81346658D01*
X151036185Y-81281185D01*
X151115537Y-81184494D01*
X151174502Y-81074180D01*
X151210812Y-80954482D01*
X151223072Y-80830000D01*
X151222999Y-80824860D01*
X157086108Y-80824860D01*
X157089180Y-81264110D01*
X157247930Y-81422860D01*
X158097180Y-81422860D01*
X158097180Y-80348610D01*
X157938430Y-80189860D01*
X157724180Y-80186788D01*
X157599698Y-80199048D01*
X157480000Y-80235358D01*
X157369686Y-80294323D01*
X157272995Y-80373675D01*
X157193643Y-80470366D01*
X157134678Y-80580680D01*
X157098368Y-80700378D01*
X157086108Y-80824860D01*
X151222999Y-80824860D01*
X151220000Y-80615750D01*
X151061250Y-80457000D01*
X149987000Y-80457000D01*
X149987000Y-80477000D01*
X149733000Y-80477000D01*
X149733000Y-80457000D01*
X148658750Y-80457000D01*
X148500000Y-80615750D01*
X148496928Y-80830000D01*
X148509188Y-80954482D01*
X148545498Y-81074180D01*
X148604463Y-81184494D01*
X148683815Y-81281185D01*
X148761574Y-81345000D01*
X147783426Y-81345000D01*
X147861185Y-81281185D01*
X147940537Y-81184494D01*
X147999502Y-81074180D01*
X148035812Y-80954482D01*
X148048072Y-80830000D01*
X148045000Y-80615750D01*
X147886250Y-80457000D01*
X146812000Y-80457000D01*
X146812000Y-80477000D01*
X146558000Y-80477000D01*
X146558000Y-80457000D01*
X145483750Y-80457000D01*
X145325000Y-80615750D01*
X145321928Y-80830000D01*
X145334188Y-80954482D01*
X145370498Y-81074180D01*
X145429463Y-81184494D01*
X145508815Y-81281185D01*
X145588594Y-81346658D01*
X145582038Y-81352038D01*
X145471595Y-81486614D01*
X145389528Y-81640150D01*
X145338992Y-81806746D01*
X145321928Y-81980000D01*
X145321928Y-82480000D01*
X145338992Y-82653254D01*
X145389528Y-82819850D01*
X145471595Y-82973386D01*
X145582038Y-83107962D01*
X145716614Y-83218405D01*
X145800001Y-83262976D01*
X145800000Y-85007695D01*
X145692829Y-84919742D01*
X145556582Y-84846916D01*
X145408745Y-84802071D01*
X145255000Y-84786928D01*
X143655000Y-84786928D01*
X143501255Y-84802071D01*
X143353418Y-84846916D01*
X143217171Y-84919742D01*
X143097749Y-85017749D01*
X142999742Y-85137171D01*
X142926916Y-85273418D01*
X142882071Y-85421255D01*
X142866928Y-85575000D01*
X142866928Y-85875000D01*
X142882071Y-86028745D01*
X142926916Y-86176582D01*
X142998730Y-86310936D01*
X142974463Y-86340506D01*
X142915498Y-86450820D01*
X142879188Y-86570518D01*
X142866928Y-86695000D01*
X142870000Y-86709250D01*
X143028750Y-86868000D01*
X144328000Y-86868000D01*
X144328000Y-86848000D01*
X144582000Y-86848000D01*
X144582000Y-86868000D01*
X144602000Y-86868000D01*
X144602000Y-87122000D01*
X144582000Y-87122000D01*
X144582000Y-87142000D01*
X144328000Y-87142000D01*
X144328000Y-87122000D01*
X143028750Y-87122000D01*
X142870000Y-87280750D01*
X142866928Y-87295000D01*
X142875299Y-87380000D01*
X139868072Y-87380000D01*
X139868072Y-86290000D01*
X139851008Y-86116746D01*
X139800472Y-85950150D01*
X139718405Y-85796614D01*
X139607962Y-85662038D01*
X139473386Y-85551595D01*
X139319850Y-85469528D01*
X139153254Y-85418992D01*
X138980000Y-85401928D01*
X137880000Y-85401928D01*
X137706746Y-85418992D01*
X137540150Y-85469528D01*
X137386614Y-85551595D01*
X137252038Y-85662038D01*
X137141595Y-85796614D01*
X137059528Y-85950150D01*
X137008992Y-86116746D01*
X136991928Y-86290000D01*
X136991928Y-87382040D01*
X133395509Y-87382040D01*
X133352040Y-87377759D01*
X133308571Y-87382040D01*
X132843262Y-87382040D01*
X132924831Y-87282648D01*
X133002278Y-87137756D01*
X133049969Y-86980540D01*
X133066072Y-86817040D01*
X133066072Y-86417040D01*
X133049969Y-86253540D01*
X133002278Y-86096324D01*
X132924831Y-85951432D01*
X132838000Y-85845629D01*
X132838000Y-85579191D01*
X132899164Y-85546498D01*
X133032792Y-85436832D01*
X133142458Y-85303204D01*
X133223947Y-85150749D01*
X133274128Y-84985325D01*
X133291072Y-84813290D01*
X133291072Y-84325790D01*
X133274128Y-84153755D01*
X133269956Y-84140000D01*
X136991928Y-84140000D01*
X137004188Y-84264482D01*
X137040498Y-84384180D01*
X137099463Y-84494494D01*
X137178815Y-84591185D01*
X137275506Y-84670537D01*
X137385820Y-84729502D01*
X137505518Y-84765812D01*
X137630000Y-84778072D01*
X138144250Y-84775000D01*
X138303000Y-84616250D01*
X138303000Y-82517000D01*
X138557000Y-82517000D01*
X138557000Y-84616250D01*
X138715750Y-84775000D01*
X139230000Y-84778072D01*
X139354482Y-84765812D01*
X139474180Y-84729502D01*
X139584494Y-84670537D01*
X139681185Y-84591185D01*
X139760537Y-84494494D01*
X139819502Y-84384180D01*
X139855812Y-84264482D01*
X139868072Y-84140000D01*
X139865000Y-82675750D01*
X139706250Y-82517000D01*
X138557000Y-82517000D01*
X138303000Y-82517000D01*
X137153750Y-82517000D01*
X136995000Y-82675750D01*
X136991928Y-84140000D01*
X133269956Y-84140000D01*
X133223947Y-83988331D01*
X133142458Y-83835876D01*
X133032792Y-83702248D01*
X133026436Y-83697032D01*
X133104185Y-83633225D01*
X133183537Y-83536534D01*
X133242502Y-83426220D01*
X133278812Y-83306522D01*
X133291072Y-83182040D01*
X133288000Y-82980290D01*
X133129250Y-82821540D01*
X132080000Y-82821540D01*
X132080000Y-82841540D01*
X131826000Y-82841540D01*
X131826000Y-82821540D01*
X130776750Y-82821540D01*
X130618000Y-82980290D01*
X130614928Y-83182040D01*
X130627188Y-83306522D01*
X130663498Y-83426220D01*
X130722463Y-83536534D01*
X130801815Y-83633225D01*
X130879564Y-83697032D01*
X130873208Y-83702248D01*
X130763542Y-83835876D01*
X130682053Y-83988331D01*
X130631872Y-84153755D01*
X130614928Y-84325790D01*
X130614928Y-84813290D01*
X130631872Y-84985325D01*
X130682053Y-85150749D01*
X130763542Y-85303204D01*
X130873208Y-85436832D01*
X131006836Y-85546498D01*
X131068001Y-85579191D01*
X131068000Y-85845628D01*
X130981169Y-85951432D01*
X130903722Y-86096324D01*
X130856031Y-86253540D01*
X130839928Y-86417040D01*
X130839928Y-86817040D01*
X130856031Y-86980540D01*
X130903722Y-87137756D01*
X130981169Y-87282648D01*
X131085394Y-87409646D01*
X131124866Y-87442040D01*
X131085394Y-87474434D01*
X131060342Y-87504960D01*
X130829660Y-87504960D01*
X130829660Y-87497958D01*
X130694912Y-87497958D01*
X130829660Y-87363210D01*
X130823817Y-87288669D01*
X130790991Y-87167969D01*
X130735249Y-87055992D01*
X130658732Y-86957041D01*
X130564382Y-86874920D01*
X130455823Y-86812783D01*
X130337227Y-86773019D01*
X130226410Y-86759960D01*
X130067660Y-86918710D01*
X130067660Y-87396888D01*
X129921660Y-87396888D01*
X129921660Y-86918710D01*
X129762910Y-86759960D01*
X129652093Y-86773019D01*
X129533497Y-86812783D01*
X129424938Y-86874920D01*
X129385793Y-86908991D01*
X128522000Y-86045199D01*
X128522000Y-85127322D01*
X128525676Y-85089999D01*
X128522000Y-85052676D01*
X128522000Y-85052667D01*
X128511003Y-84941014D01*
X128467546Y-84797753D01*
X128396974Y-84665724D01*
X128302001Y-84549999D01*
X128273002Y-84526200D01*
X127710803Y-83964002D01*
X127687001Y-83934999D01*
X127571276Y-83840026D01*
X127439247Y-83769454D01*
X127295986Y-83725997D01*
X127283249Y-83724742D01*
X127293072Y-83625000D01*
X127293072Y-83325000D01*
X127282741Y-83220107D01*
X127290000Y-83156750D01*
X127257753Y-83124503D01*
X127244502Y-83080820D01*
X127185537Y-82970506D01*
X127152725Y-82930525D01*
X127290000Y-82793250D01*
X127277675Y-82685674D01*
X127238529Y-82566873D01*
X127176959Y-82457992D01*
X127095330Y-82363215D01*
X126996780Y-82286184D01*
X126885095Y-82229859D01*
X126802881Y-82207040D01*
X130614928Y-82207040D01*
X130618000Y-82408790D01*
X130776750Y-82567540D01*
X131826000Y-82567540D01*
X131826000Y-81730790D01*
X132080000Y-81730790D01*
X132080000Y-82567540D01*
X133129250Y-82567540D01*
X133288000Y-82408790D01*
X133291072Y-82207040D01*
X133278812Y-82082558D01*
X133242502Y-81962860D01*
X133183537Y-81852546D01*
X133104185Y-81755855D01*
X133007494Y-81676503D01*
X132897180Y-81617538D01*
X132777482Y-81581228D01*
X132653000Y-81568968D01*
X132238750Y-81572040D01*
X132080000Y-81730790D01*
X131826000Y-81730790D01*
X131667250Y-81572040D01*
X131253000Y-81568968D01*
X131128518Y-81581228D01*
X131008820Y-81617538D01*
X130898506Y-81676503D01*
X130801815Y-81755855D01*
X130722463Y-81852546D01*
X130663498Y-81962860D01*
X130627188Y-82082558D01*
X130614928Y-82207040D01*
X126802881Y-82207040D01*
X126764567Y-82196406D01*
X126639829Y-82187108D01*
X126605000Y-82189160D01*
X126605000Y-82030448D01*
X126568108Y-81844978D01*
X126495741Y-81670269D01*
X126390681Y-81513036D01*
X126256964Y-81379319D01*
X126099731Y-81274259D01*
X125925022Y-81201892D01*
X125739552Y-81165000D01*
X125639792Y-81165000D01*
X125626128Y-81125582D01*
X125516658Y-80952948D01*
X125375612Y-80804987D01*
X125208410Y-80687386D01*
X125101329Y-80640000D01*
X136991928Y-80640000D01*
X136995000Y-82104250D01*
X137153750Y-82263000D01*
X138303000Y-82263000D01*
X138303000Y-80163750D01*
X138557000Y-80163750D01*
X138557000Y-82263000D01*
X139706250Y-82263000D01*
X139865000Y-82104250D01*
X139868072Y-80640000D01*
X139855812Y-80515518D01*
X139819502Y-80395820D01*
X139760537Y-80285506D01*
X139681185Y-80188815D01*
X139584494Y-80109463D01*
X139474180Y-80050498D01*
X139354482Y-80014188D01*
X139230000Y-80001928D01*
X138715750Y-80005000D01*
X138557000Y-80163750D01*
X138303000Y-80163750D01*
X138144250Y-80005000D01*
X137630000Y-80001928D01*
X137505518Y-80014188D01*
X137385820Y-80050498D01*
X137275506Y-80109463D01*
X137178815Y-80188815D01*
X137099463Y-80285506D01*
X137040498Y-80395820D01*
X137004188Y-80515518D01*
X136991928Y-80640000D01*
X125101329Y-80640000D01*
X125021478Y-80604664D01*
X124822000Y-80560000D01*
X124522000Y-80560000D01*
X124522000Y-81468000D01*
X124542000Y-81468000D01*
X124542000Y-81722000D01*
X124522000Y-81722000D01*
X124522000Y-81742000D01*
X124268000Y-81742000D01*
X124268000Y-81722000D01*
X123228002Y-81722000D01*
X123100334Y-81881123D01*
X119562777Y-81881123D01*
X119566658Y-81877052D01*
X119676128Y-81704418D01*
X119739666Y-81521123D01*
X119611998Y-81362000D01*
X118572000Y-81362000D01*
X118318000Y-81362000D01*
X117278002Y-81362000D01*
X117150334Y-81521123D01*
X116230000Y-81521123D01*
X116230000Y-81308877D01*
X123100334Y-81308877D01*
X123228002Y-81468000D01*
X124268000Y-81468000D01*
X124268000Y-80560000D01*
X123968000Y-80560000D01*
X123768522Y-80604664D01*
X123581590Y-80687386D01*
X123414388Y-80804987D01*
X123273342Y-80952948D01*
X123163872Y-81125582D01*
X123100334Y-81308877D01*
X116230000Y-81308877D01*
X116230000Y-80948877D01*
X117150334Y-80948877D01*
X117278002Y-81108000D01*
X118318000Y-81108000D01*
X118318000Y-80200000D01*
X118572000Y-80200000D01*
X118572000Y-81108000D01*
X119611998Y-81108000D01*
X119739666Y-80948877D01*
X119676128Y-80765582D01*
X119566658Y-80592948D01*
X119425612Y-80444987D01*
X119258410Y-80327386D01*
X119071478Y-80244664D01*
X118872000Y-80200000D01*
X118572000Y-80200000D01*
X118318000Y-80200000D01*
X118018000Y-80200000D01*
X117818522Y-80244664D01*
X117631590Y-80327386D01*
X117464388Y-80444987D01*
X117323342Y-80592948D01*
X117213872Y-80765582D01*
X117150334Y-80948877D01*
X116230000Y-80948877D01*
X116230000Y-80677277D01*
X116256815Y-80403796D01*
X116326867Y-80171774D01*
X116440650Y-79957778D01*
X116593832Y-79769959D01*
X116780577Y-79615470D01*
X116993769Y-79500199D01*
X117225300Y-79428528D01*
X117496725Y-79400000D01*
X145491429Y-79400000D01*
X145429463Y-79475506D01*
G37*
%TD.AperFunction*%
%TD*%
M02*
