%TF.GenerationSoftware,KiCad,Pcbnew,(5.1.7)-1*%
%TF.CreationDate,2021-09-09T12:13:45+02:00*%
%TF.ProjectId,SAW LNA Combo NOAA,53415720-4c4e-4412-9043-6f6d626f204e,rev?*%
%TF.SameCoordinates,Original*%
%TF.FileFunction,Soldermask,Top*%
%TF.FilePolarity,Negative*%
%FSLAX46Y46*%
G04 Gerber Fmt 4.6, Leading zero omitted, Abs format (unit mm)*
G04 Created by KiCad (PCBNEW (5.1.7)-1) date 2021-09-09 12:13:45*
%MOMM*%
%LPD*%
G01*
G04 APERTURE LIST*
%ADD10C,1.000000*%
%ADD11R,5.080000X1.500000*%
%ADD12R,1.350000X0.710000*%
%ADD13R,0.710000X1.350000*%
%ADD14C,0.100000*%
%ADD15R,0.900000X1.300000*%
%ADD16R,0.700000X0.300000*%
%ADD17C,0.650000*%
%ADD18O,0.650000X0.950000*%
%ADD19O,1.400000X0.800000*%
G04 APERTURE END LIST*
D10*
%TO.C,Shield*%
X126492000Y-101918000D02*
X126492000Y-107118000D01*
X160392000Y-104618000D02*
X160392000Y-107118000D01*
X160392000Y-93218000D02*
X160392000Y-100118000D01*
X126492000Y-107118000D02*
X160392000Y-107118000D01*
X126492000Y-93218000D02*
X160392000Y-93218000D01*
X126492000Y-93218000D02*
X126492000Y-97518000D01*
%TD*%
%TO.C,C9*%
G36*
G01*
X146210000Y-81730000D02*
X147160000Y-81730000D01*
G75*
G02*
X147410000Y-81980000I0J-250000D01*
G01*
X147410000Y-82480000D01*
G75*
G02*
X147160000Y-82730000I-250000J0D01*
G01*
X146210000Y-82730000D01*
G75*
G02*
X145960000Y-82480000I0J250000D01*
G01*
X145960000Y-81980000D01*
G75*
G02*
X146210000Y-81730000I250000J0D01*
G01*
G37*
G36*
G01*
X146210000Y-79830000D02*
X147160000Y-79830000D01*
G75*
G02*
X147410000Y-80080000I0J-250000D01*
G01*
X147410000Y-80580000D01*
G75*
G02*
X147160000Y-80830000I-250000J0D01*
G01*
X146210000Y-80830000D01*
G75*
G02*
X145960000Y-80580000I0J250000D01*
G01*
X145960000Y-80080000D01*
G75*
G02*
X146210000Y-79830000I250000J0D01*
G01*
G37*
%TD*%
%TO.C,C8*%
G36*
G01*
X138980000Y-84140000D02*
X137880000Y-84140000D01*
G75*
G02*
X137630000Y-83890000I0J250000D01*
G01*
X137630000Y-80890000D01*
G75*
G02*
X137880000Y-80640000I250000J0D01*
G01*
X138980000Y-80640000D01*
G75*
G02*
X139230000Y-80890000I0J-250000D01*
G01*
X139230000Y-83890000D01*
G75*
G02*
X138980000Y-84140000I-250000J0D01*
G01*
G37*
G36*
G01*
X138980000Y-89540000D02*
X137880000Y-89540000D01*
G75*
G02*
X137630000Y-89290000I0J250000D01*
G01*
X137630000Y-86290000D01*
G75*
G02*
X137880000Y-86040000I250000J0D01*
G01*
X138980000Y-86040000D01*
G75*
G02*
X139230000Y-86290000I0J-250000D01*
G01*
X139230000Y-89290000D01*
G75*
G02*
X138980000Y-89540000I-250000J0D01*
G01*
G37*
%TD*%
%TO.C,U1*%
G36*
G01*
X150505000Y-85875000D02*
X150505000Y-85575000D01*
G75*
G02*
X150655000Y-85425000I150000J0D01*
G01*
X152255000Y-85425000D01*
G75*
G02*
X152405000Y-85575000I0J-150000D01*
G01*
X152405000Y-85875000D01*
G75*
G02*
X152255000Y-86025000I-150000J0D01*
G01*
X150655000Y-86025000D01*
G75*
G02*
X150505000Y-85875000I0J150000D01*
G01*
G37*
G36*
G01*
X150505000Y-87145000D02*
X150505000Y-86845000D01*
G75*
G02*
X150655000Y-86695000I150000J0D01*
G01*
X152255000Y-86695000D01*
G75*
G02*
X152405000Y-86845000I0J-150000D01*
G01*
X152405000Y-87145000D01*
G75*
G02*
X152255000Y-87295000I-150000J0D01*
G01*
X150655000Y-87295000D01*
G75*
G02*
X150505000Y-87145000I0J150000D01*
G01*
G37*
G36*
G01*
X150505000Y-88415000D02*
X150505000Y-88115000D01*
G75*
G02*
X150655000Y-87965000I150000J0D01*
G01*
X152255000Y-87965000D01*
G75*
G02*
X152405000Y-88115000I0J-150000D01*
G01*
X152405000Y-88415000D01*
G75*
G02*
X152255000Y-88565000I-150000J0D01*
G01*
X150655000Y-88565000D01*
G75*
G02*
X150505000Y-88415000I0J150000D01*
G01*
G37*
G36*
G01*
X150505000Y-89685000D02*
X150505000Y-89385000D01*
G75*
G02*
X150655000Y-89235000I150000J0D01*
G01*
X152255000Y-89235000D01*
G75*
G02*
X152405000Y-89385000I0J-150000D01*
G01*
X152405000Y-89685000D01*
G75*
G02*
X152255000Y-89835000I-150000J0D01*
G01*
X150655000Y-89835000D01*
G75*
G02*
X150505000Y-89685000I0J150000D01*
G01*
G37*
G36*
G01*
X143505000Y-89685000D02*
X143505000Y-89385000D01*
G75*
G02*
X143655000Y-89235000I150000J0D01*
G01*
X145255000Y-89235000D01*
G75*
G02*
X145405000Y-89385000I0J-150000D01*
G01*
X145405000Y-89685000D01*
G75*
G02*
X145255000Y-89835000I-150000J0D01*
G01*
X143655000Y-89835000D01*
G75*
G02*
X143505000Y-89685000I0J150000D01*
G01*
G37*
G36*
G01*
X143505000Y-88415000D02*
X143505000Y-88115000D01*
G75*
G02*
X143655000Y-87965000I150000J0D01*
G01*
X145255000Y-87965000D01*
G75*
G02*
X145405000Y-88115000I0J-150000D01*
G01*
X145405000Y-88415000D01*
G75*
G02*
X145255000Y-88565000I-150000J0D01*
G01*
X143655000Y-88565000D01*
G75*
G02*
X143505000Y-88415000I0J150000D01*
G01*
G37*
G36*
G01*
X143505000Y-87145000D02*
X143505000Y-86845000D01*
G75*
G02*
X143655000Y-86695000I150000J0D01*
G01*
X145255000Y-86695000D01*
G75*
G02*
X145405000Y-86845000I0J-150000D01*
G01*
X145405000Y-87145000D01*
G75*
G02*
X145255000Y-87295000I-150000J0D01*
G01*
X143655000Y-87295000D01*
G75*
G02*
X143505000Y-87145000I0J150000D01*
G01*
G37*
G36*
G01*
X143505000Y-85875000D02*
X143505000Y-85575000D01*
G75*
G02*
X143655000Y-85425000I150000J0D01*
G01*
X145255000Y-85425000D01*
G75*
G02*
X145405000Y-85575000I0J-150000D01*
G01*
X145405000Y-85875000D01*
G75*
G02*
X145255000Y-86025000I-150000J0D01*
G01*
X143655000Y-86025000D01*
G75*
G02*
X143505000Y-85875000I0J150000D01*
G01*
G37*
%TD*%
%TO.C,C7*%
G36*
G01*
X154780000Y-85590000D02*
X153830000Y-85590000D01*
G75*
G02*
X153580000Y-85340000I0J250000D01*
G01*
X153580000Y-84840000D01*
G75*
G02*
X153830000Y-84590000I250000J0D01*
G01*
X154780000Y-84590000D01*
G75*
G02*
X155030000Y-84840000I0J-250000D01*
G01*
X155030000Y-85340000D01*
G75*
G02*
X154780000Y-85590000I-250000J0D01*
G01*
G37*
G36*
G01*
X154780000Y-87490000D02*
X153830000Y-87490000D01*
G75*
G02*
X153580000Y-87240000I0J250000D01*
G01*
X153580000Y-86740000D01*
G75*
G02*
X153830000Y-86490000I250000J0D01*
G01*
X154780000Y-86490000D01*
G75*
G02*
X155030000Y-86740000I0J-250000D01*
G01*
X155030000Y-87240000D01*
G75*
G02*
X154780000Y-87490000I-250000J0D01*
G01*
G37*
%TD*%
%TO.C,C6*%
G36*
G01*
X152902500Y-82075000D02*
X152902500Y-83025000D01*
G75*
G02*
X152652500Y-83275000I-250000J0D01*
G01*
X152152500Y-83275000D01*
G75*
G02*
X151902500Y-83025000I0J250000D01*
G01*
X151902500Y-82075000D01*
G75*
G02*
X152152500Y-81825000I250000J0D01*
G01*
X152652500Y-81825000D01*
G75*
G02*
X152902500Y-82075000I0J-250000D01*
G01*
G37*
G36*
G01*
X154802500Y-82075000D02*
X154802500Y-83025000D01*
G75*
G02*
X154552500Y-83275000I-250000J0D01*
G01*
X154052500Y-83275000D01*
G75*
G02*
X153802500Y-83025000I0J250000D01*
G01*
X153802500Y-82075000D01*
G75*
G02*
X154052500Y-81825000I250000J0D01*
G01*
X154552500Y-81825000D01*
G75*
G02*
X154802500Y-82075000I0J-250000D01*
G01*
G37*
%TD*%
D11*
%TO.C,J1*%
X119380000Y-97985000D03*
X119380000Y-106485000D03*
X119380000Y-102235000D03*
%TD*%
%TO.C,R1*%
G36*
G01*
X132228000Y-87017040D02*
X131678000Y-87017040D01*
G75*
G02*
X131478000Y-86817040I0J200000D01*
G01*
X131478000Y-86417040D01*
G75*
G02*
X131678000Y-86217040I200000J0D01*
G01*
X132228000Y-86217040D01*
G75*
G02*
X132428000Y-86417040I0J-200000D01*
G01*
X132428000Y-86817040D01*
G75*
G02*
X132228000Y-87017040I-200000J0D01*
G01*
G37*
G36*
G01*
X132228000Y-88667040D02*
X131678000Y-88667040D01*
G75*
G02*
X131478000Y-88467040I0J200000D01*
G01*
X131478000Y-88067040D01*
G75*
G02*
X131678000Y-87867040I200000J0D01*
G01*
X132228000Y-87867040D01*
G75*
G02*
X132428000Y-88067040I0J-200000D01*
G01*
X132428000Y-88467040D01*
G75*
G02*
X132228000Y-88667040I-200000J0D01*
G01*
G37*
%TD*%
%TO.C,D4*%
G36*
G01*
X131496750Y-84082040D02*
X132409250Y-84082040D01*
G75*
G02*
X132653000Y-84325790I0J-243750D01*
G01*
X132653000Y-84813290D01*
G75*
G02*
X132409250Y-85057040I-243750J0D01*
G01*
X131496750Y-85057040D01*
G75*
G02*
X131253000Y-84813290I0J243750D01*
G01*
X131253000Y-84325790D01*
G75*
G02*
X131496750Y-84082040I243750J0D01*
G01*
G37*
G36*
G01*
X131496750Y-82207040D02*
X132409250Y-82207040D01*
G75*
G02*
X132653000Y-82450790I0J-243750D01*
G01*
X132653000Y-82938290D01*
G75*
G02*
X132409250Y-83182040I-243750J0D01*
G01*
X131496750Y-83182040D01*
G75*
G02*
X131253000Y-82938290I0J243750D01*
G01*
X131253000Y-82450790D01*
G75*
G02*
X131496750Y-82207040I243750J0D01*
G01*
G37*
%TD*%
%TO.C,J2*%
X167640000Y-106485000D03*
X167640000Y-97985000D03*
X167640000Y-102235000D03*
%TD*%
%TO.C,L3*%
G36*
G01*
X140480200Y-104075600D02*
X140480200Y-102375600D01*
G75*
G02*
X140730200Y-102125600I250000J0D01*
G01*
X141655200Y-102125600D01*
G75*
G02*
X141905200Y-102375600I0J-250000D01*
G01*
X141905200Y-104075600D01*
G75*
G02*
X141655200Y-104325600I-250000J0D01*
G01*
X140730200Y-104325600D01*
G75*
G02*
X140480200Y-104075600I0J250000D01*
G01*
G37*
G36*
G01*
X138155200Y-104075600D02*
X138155200Y-102375600D01*
G75*
G02*
X138405200Y-102125600I250000J0D01*
G01*
X139330200Y-102125600D01*
G75*
G02*
X139580200Y-102375600I0J-250000D01*
G01*
X139580200Y-104075600D01*
G75*
G02*
X139330200Y-104325600I-250000J0D01*
G01*
X138405200Y-104325600D01*
G75*
G02*
X138155200Y-104075600I0J250000D01*
G01*
G37*
%TD*%
D12*
%TO.C,U3*%
X148513000Y-99695000D03*
D13*
X150368000Y-98840000D03*
X151638000Y-98840000D03*
X152908000Y-98840000D03*
D12*
X154763000Y-99695000D03*
X154763000Y-102235000D03*
D13*
X152908000Y-103090000D03*
X151638000Y-103090000D03*
X150368000Y-103090000D03*
D12*
X148513000Y-102235000D03*
%TD*%
D14*
%TO.C,U2*%
G36*
X140566500Y-95744000D02*
G01*
X140566500Y-98869000D01*
X140150000Y-98869000D01*
X140150000Y-100344000D01*
X139250000Y-100344000D01*
X139250000Y-98869000D01*
X138833500Y-98869000D01*
X138833500Y-95744000D01*
X140566500Y-95744000D01*
G37*
D15*
X141200000Y-99694000D03*
X138200000Y-99694000D03*
%TD*%
D16*
%TO.C,P1*%
X124605000Y-82725000D03*
X124605000Y-83225000D03*
X124605000Y-83725000D03*
X124605000Y-84225000D03*
X124605000Y-84725000D03*
X124605000Y-85225000D03*
X124605000Y-85725000D03*
X124605000Y-86225000D03*
X124605000Y-86725000D03*
X124605000Y-87225000D03*
X124605000Y-87725000D03*
D17*
X125645000Y-82125000D03*
D18*
X125645000Y-89325000D03*
D19*
X118445000Y-81235000D03*
X118445000Y-90215000D03*
X124395000Y-89855000D03*
D16*
X124605000Y-88225000D03*
X126305000Y-87975000D03*
X126305000Y-86475000D03*
X126305000Y-86975000D03*
X126305000Y-87475000D03*
X126305000Y-88475000D03*
X126305000Y-85975000D03*
X126305000Y-85475000D03*
X126305000Y-84975000D03*
X126305000Y-84475000D03*
X126305000Y-83975000D03*
X126305000Y-83475000D03*
X126305000Y-82975000D03*
D19*
X124395000Y-81595000D03*
%TD*%
%TO.C,L4*%
G36*
G01*
X160296640Y-83859860D02*
X159951640Y-83859860D01*
G75*
G02*
X159804140Y-83712360I0J147500D01*
G01*
X159804140Y-83417360D01*
G75*
G02*
X159951640Y-83269860I147500J0D01*
G01*
X160296640Y-83269860D01*
G75*
G02*
X160444140Y-83417360I0J-147500D01*
G01*
X160444140Y-83712360D01*
G75*
G02*
X160296640Y-83859860I-147500J0D01*
G01*
G37*
G36*
G01*
X160296640Y-84829860D02*
X159951640Y-84829860D01*
G75*
G02*
X159804140Y-84682360I0J147500D01*
G01*
X159804140Y-84387360D01*
G75*
G02*
X159951640Y-84239860I147500J0D01*
G01*
X160296640Y-84239860D01*
G75*
G02*
X160444140Y-84387360I0J-147500D01*
G01*
X160444140Y-84682360D01*
G75*
G02*
X160296640Y-84829860I-147500J0D01*
G01*
G37*
%TD*%
%TO.C,L2*%
G36*
G01*
X160296640Y-88859860D02*
X159951640Y-88859860D01*
G75*
G02*
X159804140Y-88712360I0J147500D01*
G01*
X159804140Y-88417360D01*
G75*
G02*
X159951640Y-88269860I147500J0D01*
G01*
X160296640Y-88269860D01*
G75*
G02*
X160444140Y-88417360I0J-147500D01*
G01*
X160444140Y-88712360D01*
G75*
G02*
X160296640Y-88859860I-147500J0D01*
G01*
G37*
G36*
G01*
X160296640Y-89829860D02*
X159951640Y-89829860D01*
G75*
G02*
X159804140Y-89682360I0J147500D01*
G01*
X159804140Y-89387360D01*
G75*
G02*
X159951640Y-89239860I147500J0D01*
G01*
X160296640Y-89239860D01*
G75*
G02*
X160444140Y-89387360I0J-147500D01*
G01*
X160444140Y-89682360D01*
G75*
G02*
X160296640Y-89829860I-147500J0D01*
G01*
G37*
%TD*%
%TO.C,L1*%
G36*
G01*
X135953000Y-99867500D02*
X135953000Y-99522500D01*
G75*
G02*
X136100500Y-99375000I147500J0D01*
G01*
X136395500Y-99375000D01*
G75*
G02*
X136543000Y-99522500I0J-147500D01*
G01*
X136543000Y-99867500D01*
G75*
G02*
X136395500Y-100015000I-147500J0D01*
G01*
X136100500Y-100015000D01*
G75*
G02*
X135953000Y-99867500I0J147500D01*
G01*
G37*
G36*
G01*
X134983000Y-99867500D02*
X134983000Y-99522500D01*
G75*
G02*
X135130500Y-99375000I147500J0D01*
G01*
X135425500Y-99375000D01*
G75*
G02*
X135573000Y-99522500I0J-147500D01*
G01*
X135573000Y-99867500D01*
G75*
G02*
X135425500Y-100015000I-147500J0D01*
G01*
X135130500Y-100015000D01*
G75*
G02*
X134983000Y-99867500I0J147500D01*
G01*
G37*
%TD*%
%TO.C,D3*%
G36*
G01*
X157554600Y-101827500D02*
X157354600Y-101827500D01*
G75*
G02*
X157254600Y-101727500I0J100000D01*
G01*
X157254600Y-101467500D01*
G75*
G02*
X157354600Y-101367500I100000J0D01*
G01*
X157554600Y-101367500D01*
G75*
G02*
X157654600Y-101467500I0J-100000D01*
G01*
X157654600Y-101727500D01*
G75*
G02*
X157554600Y-101827500I-100000J0D01*
G01*
G37*
G36*
G01*
X157554600Y-102467500D02*
X157354600Y-102467500D01*
G75*
G02*
X157254600Y-102367500I0J100000D01*
G01*
X157254600Y-102107500D01*
G75*
G02*
X157354600Y-102007500I100000J0D01*
G01*
X157554600Y-102007500D01*
G75*
G02*
X157654600Y-102107500I0J-100000D01*
G01*
X157654600Y-102367500D01*
G75*
G02*
X157554600Y-102467500I-100000J0D01*
G01*
G37*
%TD*%
%TO.C,D2*%
G36*
G01*
X130094660Y-87854960D02*
X129894660Y-87854960D01*
G75*
G02*
X129794660Y-87754960I0J100000D01*
G01*
X129794660Y-87494960D01*
G75*
G02*
X129894660Y-87394960I100000J0D01*
G01*
X130094660Y-87394960D01*
G75*
G02*
X130194660Y-87494960I0J-100000D01*
G01*
X130194660Y-87754960D01*
G75*
G02*
X130094660Y-87854960I-100000J0D01*
G01*
G37*
G36*
G01*
X130094660Y-88494960D02*
X129894660Y-88494960D01*
G75*
G02*
X129794660Y-88394960I0J100000D01*
G01*
X129794660Y-88134960D01*
G75*
G02*
X129894660Y-88034960I100000J0D01*
G01*
X130094660Y-88034960D01*
G75*
G02*
X130194660Y-88134960I0J-100000D01*
G01*
X130194660Y-88394960D01*
G75*
G02*
X130094660Y-88494960I-100000J0D01*
G01*
G37*
%TD*%
%TO.C,D1*%
G36*
G01*
X129440000Y-100105000D02*
X129640000Y-100105000D01*
G75*
G02*
X129740000Y-100205000I0J-100000D01*
G01*
X129740000Y-100465000D01*
G75*
G02*
X129640000Y-100565000I-100000J0D01*
G01*
X129440000Y-100565000D01*
G75*
G02*
X129340000Y-100465000I0J100000D01*
G01*
X129340000Y-100205000D01*
G75*
G02*
X129440000Y-100105000I100000J0D01*
G01*
G37*
G36*
G01*
X129440000Y-99465000D02*
X129640000Y-99465000D01*
G75*
G02*
X129740000Y-99565000I0J-100000D01*
G01*
X129740000Y-99825000D01*
G75*
G02*
X129640000Y-99925000I-100000J0D01*
G01*
X129440000Y-99925000D01*
G75*
G02*
X129340000Y-99825000I0J100000D01*
G01*
X129340000Y-99565000D01*
G75*
G02*
X129440000Y-99465000I100000J0D01*
G01*
G37*
%TD*%
%TO.C,C5*%
G36*
G01*
X159624180Y-82024860D02*
X159624180Y-81074860D01*
G75*
G02*
X159874180Y-80824860I250000J0D01*
G01*
X160374180Y-80824860D01*
G75*
G02*
X160624180Y-81074860I0J-250000D01*
G01*
X160624180Y-82024860D01*
G75*
G02*
X160374180Y-82274860I-250000J0D01*
G01*
X159874180Y-82274860D01*
G75*
G02*
X159624180Y-82024860I0J250000D01*
G01*
G37*
G36*
G01*
X157724180Y-82024860D02*
X157724180Y-81074860D01*
G75*
G02*
X157974180Y-80824860I250000J0D01*
G01*
X158474180Y-80824860D01*
G75*
G02*
X158724180Y-81074860I0J-250000D01*
G01*
X158724180Y-82024860D01*
G75*
G02*
X158474180Y-82274860I-250000J0D01*
G01*
X157974180Y-82274860D01*
G75*
G02*
X157724180Y-82024860I0J250000D01*
G01*
G37*
%TD*%
%TO.C,C4*%
G36*
G01*
X144330000Y-99220000D02*
X144330000Y-100170000D01*
G75*
G02*
X144080000Y-100420000I-250000J0D01*
G01*
X143580000Y-100420000D01*
G75*
G02*
X143330000Y-100170000I0J250000D01*
G01*
X143330000Y-99220000D01*
G75*
G02*
X143580000Y-98970000I250000J0D01*
G01*
X144080000Y-98970000D01*
G75*
G02*
X144330000Y-99220000I0J-250000D01*
G01*
G37*
G36*
G01*
X146230000Y-99220000D02*
X146230000Y-100170000D01*
G75*
G02*
X145980000Y-100420000I-250000J0D01*
G01*
X145480000Y-100420000D01*
G75*
G02*
X145230000Y-100170000I0J250000D01*
G01*
X145230000Y-99220000D01*
G75*
G02*
X145480000Y-98970000I250000J0D01*
G01*
X145980000Y-98970000D01*
G75*
G02*
X146230000Y-99220000I0J-250000D01*
G01*
G37*
%TD*%
%TO.C,C3*%
G36*
G01*
X159624180Y-87024860D02*
X159624180Y-86074860D01*
G75*
G02*
X159874180Y-85824860I250000J0D01*
G01*
X160374180Y-85824860D01*
G75*
G02*
X160624180Y-86074860I0J-250000D01*
G01*
X160624180Y-87024860D01*
G75*
G02*
X160374180Y-87274860I-250000J0D01*
G01*
X159874180Y-87274860D01*
G75*
G02*
X159624180Y-87024860I0J250000D01*
G01*
G37*
G36*
G01*
X157724180Y-87024860D02*
X157724180Y-86074860D01*
G75*
G02*
X157974180Y-85824860I250000J0D01*
G01*
X158474180Y-85824860D01*
G75*
G02*
X158724180Y-86074860I0J-250000D01*
G01*
X158724180Y-87024860D01*
G75*
G02*
X158474180Y-87274860I-250000J0D01*
G01*
X157974180Y-87274860D01*
G75*
G02*
X157724180Y-87024860I0J250000D01*
G01*
G37*
%TD*%
%TO.C,C2*%
G36*
G01*
X149385000Y-81730000D02*
X150335000Y-81730000D01*
G75*
G02*
X150585000Y-81980000I0J-250000D01*
G01*
X150585000Y-82480000D01*
G75*
G02*
X150335000Y-82730000I-250000J0D01*
G01*
X149385000Y-82730000D01*
G75*
G02*
X149135000Y-82480000I0J250000D01*
G01*
X149135000Y-81980000D01*
G75*
G02*
X149385000Y-81730000I250000J0D01*
G01*
G37*
G36*
G01*
X149385000Y-79830000D02*
X150335000Y-79830000D01*
G75*
G02*
X150585000Y-80080000I0J-250000D01*
G01*
X150585000Y-80580000D01*
G75*
G02*
X150335000Y-80830000I-250000J0D01*
G01*
X149385000Y-80830000D01*
G75*
G02*
X149135000Y-80580000I0J250000D01*
G01*
X149135000Y-80080000D01*
G75*
G02*
X149385000Y-79830000I250000J0D01*
G01*
G37*
%TD*%
%TO.C,C1*%
G36*
G01*
X132138000Y-99220000D02*
X132138000Y-100170000D01*
G75*
G02*
X131888000Y-100420000I-250000J0D01*
G01*
X131388000Y-100420000D01*
G75*
G02*
X131138000Y-100170000I0J250000D01*
G01*
X131138000Y-99220000D01*
G75*
G02*
X131388000Y-98970000I250000J0D01*
G01*
X131888000Y-98970000D01*
G75*
G02*
X132138000Y-99220000I0J-250000D01*
G01*
G37*
G36*
G01*
X134038000Y-99220000D02*
X134038000Y-100170000D01*
G75*
G02*
X133788000Y-100420000I-250000J0D01*
G01*
X133288000Y-100420000D01*
G75*
G02*
X133038000Y-100170000I0J250000D01*
G01*
X133038000Y-99220000D01*
G75*
G02*
X133288000Y-98970000I250000J0D01*
G01*
X133788000Y-98970000D01*
G75*
G02*
X134038000Y-99220000I0J-250000D01*
G01*
G37*
%TD*%
M02*
