%TF.GenerationSoftware,KiCad,Pcbnew,(5.1.7)-1*%
%TF.CreationDate,2021-09-09T12:13:45+02:00*%
%TF.ProjectId,SAW LNA Combo NOAA,53415720-4c4e-4412-9043-6f6d626f204e,rev?*%
%TF.SameCoordinates,Original*%
%TF.FileFunction,Copper,L3,Inr*%
%TF.FilePolarity,Positive*%
%FSLAX46Y46*%
G04 Gerber Fmt 4.6, Leading zero omitted, Abs format (unit mm)*
G04 Created by KiCad (PCBNEW (5.1.7)-1) date 2021-09-09 12:13:45*
%MOMM*%
%LPD*%
G01*
G04 APERTURE LIST*
%TA.AperFunction,ComponentPad*%
%ADD10O,1.400000X0.800000*%
%TD*%
%TA.AperFunction,ViaPad*%
%ADD11C,0.800000*%
%TD*%
%TA.AperFunction,ViaPad*%
%ADD12C,0.600000*%
%TD*%
%TA.AperFunction,Conductor*%
%ADD13C,0.500000*%
%TD*%
%TA.AperFunction,Conductor*%
%ADD14C,0.254000*%
%TD*%
%TA.AperFunction,Conductor*%
%ADD15C,0.100000*%
%TD*%
G04 APERTURE END LIST*
D10*
%TO.N,GND*%
%TO.C,P1*%
X118445000Y-81235000D03*
X118445000Y-90215000D03*
X124395000Y-89855000D03*
X124395000Y-81595000D03*
%TD*%
D11*
%TO.N,Net-(C2-Pad2)*%
X135255000Y-90170000D03*
%TO.N,GND*%
X157454600Y-100584000D03*
X139700000Y-97282000D03*
X139700000Y-98298000D03*
X151638000Y-100965000D03*
D12*
X162351081Y-94048146D03*
X163359218Y-93114258D03*
X164314986Y-92126738D03*
X165078068Y-90986865D03*
X165568806Y-89705836D03*
X165761030Y-88347625D03*
X165765000Y-86972919D03*
X165765000Y-85598166D03*
X165703477Y-84226277D03*
X165358383Y-82898625D03*
X164728740Y-81679837D03*
X162789318Y-83508656D03*
X163148727Y-84758933D03*
X163165000Y-86066980D03*
X163165000Y-87375511D03*
X163127089Y-88682255D03*
X162703205Y-89912215D03*
X161876661Y-90919859D03*
X160939142Y-91832430D03*
D11*
X126492000Y-97282000D03*
X126492000Y-94742000D03*
X126492000Y-102362000D03*
X126492000Y-104902000D03*
X129032000Y-93218000D03*
X132207000Y-93218000D03*
X135382000Y-93218000D03*
X138557000Y-93218000D03*
X141732000Y-93218000D03*
X144907000Y-93218000D03*
X148082000Y-93218000D03*
X151257000Y-93218000D03*
X154432000Y-93218000D03*
X157607000Y-93218000D03*
X128397000Y-107061000D03*
X131572000Y-107061000D03*
X134747000Y-107061000D03*
X137922000Y-107061000D03*
X141097000Y-107061000D03*
X144272000Y-107061000D03*
X147447000Y-107061000D03*
X150622000Y-107061000D03*
X153797000Y-107061000D03*
X156972000Y-107061000D03*
X160401000Y-96901000D03*
X160401000Y-100076000D03*
X160401000Y-107061000D03*
X160401000Y-104648000D03*
X162560000Y-99060000D03*
X162560000Y-105410000D03*
X124460000Y-97155000D03*
X124460000Y-104140000D03*
X129540000Y-101244400D03*
X163830000Y-99060000D03*
X163830000Y-105410000D03*
X123190000Y-104775000D03*
X123190000Y-97790000D03*
%TO.N,+5V*%
X162925140Y-81549860D03*
X136944100Y-103225600D03*
%TD*%
D13*
%TO.N,+5V*%
X148692400Y-95899539D02*
X149284700Y-95885000D01*
X148101528Y-95943125D02*
X148692400Y-95899539D01*
X147513506Y-96015650D02*
X148101528Y-95943125D01*
X146929751Y-96116941D02*
X147513506Y-96015650D01*
X136944100Y-103225600D02*
X140749166Y-99420533D01*
X140749166Y-99420533D02*
X141178266Y-99011995D01*
X141178266Y-99011995D02*
X141626895Y-98625005D01*
X142578374Y-97919341D02*
X143078930Y-97602366D01*
X143078930Y-97602366D02*
X143594438Y-97310335D01*
X141626895Y-98625005D02*
X142093973Y-98260494D01*
X143594438Y-97310335D02*
X144123653Y-97043951D01*
X144123653Y-97043951D02*
X144665302Y-96803854D01*
X144665302Y-96803854D02*
X145218079Y-96590625D01*
X142093973Y-98260494D02*
X142578374Y-97919341D01*
X145218079Y-96590625D02*
X145780654Y-96404775D01*
X145780654Y-96404775D02*
X146351669Y-96246754D01*
X146351669Y-96246754D02*
X146929751Y-96116941D01*
X153750000Y-95885000D02*
X149284700Y-95885000D01*
X153750000Y-95885000D02*
X154342299Y-95870459D01*
X154342299Y-95870459D02*
X154933171Y-95826874D01*
X154933171Y-95826874D02*
X155521193Y-95754348D01*
X155521193Y-95754348D02*
X156104948Y-95653057D01*
X156104948Y-95653057D02*
X156683029Y-95523244D01*
X156683029Y-95523244D02*
X157254045Y-95365223D01*
X157254045Y-95365223D02*
X157816619Y-95179374D01*
X157816619Y-95179374D02*
X158369397Y-94966144D01*
X158369397Y-94966144D02*
X158911045Y-94726047D01*
X158911045Y-94726047D02*
X159440261Y-94459663D01*
X159440261Y-94459663D02*
X159955768Y-94167631D01*
X159955768Y-94167631D02*
X160456325Y-93850657D01*
X160456325Y-93850657D02*
X160940725Y-93509504D01*
X160940725Y-93509504D02*
X161407803Y-93144993D01*
X161407803Y-93144993D02*
X161856432Y-92758002D01*
X161856432Y-92758002D02*
X162285533Y-92349466D01*
X164465000Y-88170000D02*
X164459183Y-88406919D01*
X164459183Y-88406919D02*
X164441749Y-88643268D01*
X164441749Y-88643268D02*
X164412739Y-88878477D01*
X164412739Y-88878477D02*
X164372222Y-89111979D01*
X164372222Y-89111979D02*
X164320297Y-89343211D01*
X164320297Y-89343211D02*
X164257089Y-89571618D01*
X164257089Y-89571618D02*
X164182749Y-89796647D01*
X164182749Y-89796647D02*
X164097457Y-90017758D01*
X164097457Y-90017758D02*
X164001418Y-90234418D01*
X164001418Y-90234418D02*
X163894864Y-90446104D01*
X163894864Y-90446104D02*
X163778052Y-90652307D01*
X163778052Y-90652307D02*
X163651262Y-90852529D01*
X163651262Y-90852529D02*
X163514801Y-91046290D01*
X163514801Y-91046290D02*
X163368996Y-91233121D01*
X163368996Y-91233121D02*
X163214200Y-91412572D01*
X163214200Y-91412572D02*
X163050786Y-91584213D01*
X163050786Y-91584213D02*
X162285533Y-92349466D01*
X163050786Y-81675506D02*
X162925140Y-81549860D01*
X163050786Y-81675506D02*
X163214200Y-81847146D01*
X163214200Y-81847146D02*
X163368997Y-82026597D01*
X163368997Y-82026597D02*
X163514801Y-82213428D01*
X163514801Y-82213428D02*
X163651262Y-82407189D01*
X163651262Y-82407189D02*
X163778052Y-82607412D01*
X163778052Y-82607412D02*
X163894865Y-82813614D01*
X163894865Y-82813614D02*
X164001418Y-83025301D01*
X164001418Y-83025301D02*
X164097457Y-83241960D01*
X164097457Y-83241960D02*
X164182749Y-83463071D01*
X164182749Y-83463071D02*
X164257089Y-83688101D01*
X164257089Y-83688101D02*
X164320297Y-83916507D01*
X164320297Y-83916507D02*
X164372222Y-84147740D01*
X164372222Y-84147740D02*
X164412739Y-84381242D01*
X164412739Y-84381242D02*
X164441749Y-84616451D01*
X164441749Y-84616451D02*
X164459183Y-84852800D01*
X164459183Y-84852800D02*
X164465000Y-85089720D01*
X164465000Y-85089720D02*
X164465000Y-88170000D01*
%TD*%
D14*
%TO.N,GND*%
X169786204Y-79426815D02*
X170018226Y-79496867D01*
X170232222Y-79610650D01*
X170420041Y-79763832D01*
X170574530Y-79950577D01*
X170689801Y-80163769D01*
X170761472Y-80395300D01*
X170790001Y-80666734D01*
X170790000Y-90772581D01*
X170790000Y-90772582D01*
X170790001Y-109822712D01*
X170763185Y-110096205D01*
X170693133Y-110328226D01*
X170579350Y-110542222D01*
X170426169Y-110730039D01*
X170239424Y-110884529D01*
X170026231Y-110999802D01*
X169794701Y-111071472D01*
X169523276Y-111100000D01*
X117507277Y-111100000D01*
X117233795Y-111073185D01*
X117001774Y-111003133D01*
X116787778Y-110889350D01*
X116599961Y-110736169D01*
X116445471Y-110549424D01*
X116330198Y-110336231D01*
X116258528Y-110104701D01*
X116230000Y-109833276D01*
X116230000Y-103123661D01*
X135909100Y-103123661D01*
X135909100Y-103327539D01*
X135948874Y-103527498D01*
X136026895Y-103715856D01*
X136140163Y-103885374D01*
X136284326Y-104029537D01*
X136453844Y-104142805D01*
X136642202Y-104220826D01*
X136842161Y-104260600D01*
X137046039Y-104260600D01*
X137245998Y-104220826D01*
X137434356Y-104142805D01*
X137603874Y-104029537D01*
X137748037Y-103885374D01*
X137861305Y-103715856D01*
X137939326Y-103527498D01*
X137950635Y-103470643D01*
X141367300Y-100053978D01*
X141772781Y-99667927D01*
X142188490Y-99309334D01*
X142621323Y-98971548D01*
X143070210Y-98655407D01*
X143534040Y-98361689D01*
X144011744Y-98091073D01*
X144502152Y-97844223D01*
X145004072Y-97621736D01*
X145516308Y-97424145D01*
X146037642Y-97251919D01*
X146566755Y-97105494D01*
X147102462Y-96985196D01*
X147643396Y-96891335D01*
X148188297Y-96824129D01*
X148735833Y-96783739D01*
X149295535Y-96770000D01*
X153717411Y-96770000D01*
X153728257Y-96770800D01*
X153760844Y-96770000D01*
X153793477Y-96770000D01*
X153804312Y-96768933D01*
X154342299Y-96755725D01*
X154364043Y-96756259D01*
X154385735Y-96754659D01*
X154407482Y-96754125D01*
X154429071Y-96751462D01*
X154976603Y-96711074D01*
X154998355Y-96710540D01*
X155019950Y-96707877D01*
X155041634Y-96706277D01*
X155063060Y-96702559D01*
X155607971Y-96635351D01*
X155629657Y-96633751D01*
X155651080Y-96630034D01*
X155672677Y-96627370D01*
X155693908Y-96622602D01*
X156234832Y-96528743D01*
X156256432Y-96526079D01*
X156277666Y-96521311D01*
X156299086Y-96517594D01*
X156320043Y-96511795D01*
X156855742Y-96391499D01*
X156877167Y-96387781D01*
X156898125Y-96381981D01*
X156919354Y-96377214D01*
X156940012Y-96370390D01*
X157469152Y-96223958D01*
X157490370Y-96219193D01*
X157511017Y-96212372D01*
X157531987Y-96206569D01*
X157552286Y-96198739D01*
X158073600Y-96026520D01*
X158094562Y-96020719D01*
X158114855Y-96012891D01*
X158135509Y-96006068D01*
X158155396Y-95997253D01*
X158667638Y-95799660D01*
X158688289Y-95792837D01*
X158708169Y-95784025D01*
X158728467Y-95776195D01*
X158747902Y-95766412D01*
X159249821Y-95543926D01*
X159270115Y-95536098D01*
X159289544Y-95526318D01*
X159309431Y-95517503D01*
X159328358Y-95506781D01*
X159818753Y-95259938D01*
X159838648Y-95251119D01*
X159857579Y-95240395D01*
X159877000Y-95230619D01*
X159895373Y-95218985D01*
X160373083Y-94948364D01*
X160392508Y-94938586D01*
X160410883Y-94926950D01*
X160429812Y-94916227D01*
X160447597Y-94903701D01*
X160911446Y-94609973D01*
X160930369Y-94599253D01*
X160948148Y-94586732D01*
X160966529Y-94575092D01*
X160983681Y-94561706D01*
X161432543Y-94245582D01*
X161450929Y-94233939D01*
X161468086Y-94220550D01*
X161485861Y-94208031D01*
X161502326Y-94193828D01*
X161935153Y-93856047D01*
X161952940Y-93843520D01*
X161969412Y-93829311D01*
X161986557Y-93815931D01*
X162002308Y-93800934D01*
X162418035Y-93442325D01*
X162435185Y-93428941D01*
X162450942Y-93413939D01*
X162467412Y-93399732D01*
X162482408Y-93383981D01*
X162872167Y-93012902D01*
X162880579Y-93005998D01*
X162903643Y-92982934D01*
X162927262Y-92960447D01*
X162934369Y-92952208D01*
X163653529Y-92233049D01*
X163661769Y-92225941D01*
X163684252Y-92202326D01*
X163707318Y-92179260D01*
X163714225Y-92170844D01*
X163840175Y-92038552D01*
X163855930Y-92023552D01*
X163870144Y-92007074D01*
X163885140Y-91991323D01*
X163898517Y-91974183D01*
X164024936Y-91827627D01*
X164039932Y-91811877D01*
X164053311Y-91794733D01*
X164067522Y-91778259D01*
X164080050Y-91760471D01*
X164199118Y-91607900D01*
X164213330Y-91591424D01*
X164225857Y-91573637D01*
X164239234Y-91556496D01*
X164250869Y-91538122D01*
X164362323Y-91379870D01*
X164375695Y-91362735D01*
X164387325Y-91344369D01*
X164399860Y-91326571D01*
X164410587Y-91307635D01*
X164514121Y-91144138D01*
X164526650Y-91126349D01*
X164537372Y-91107422D01*
X164549006Y-91089050D01*
X164558787Y-91069620D01*
X164654182Y-90901223D01*
X164665819Y-90882845D01*
X164675600Y-90863413D01*
X164686321Y-90844488D01*
X164695136Y-90824602D01*
X164782148Y-90651739D01*
X164792874Y-90632804D01*
X164801693Y-90612908D01*
X164811468Y-90593489D01*
X164819292Y-90573205D01*
X164897727Y-90396261D01*
X164907508Y-90376829D01*
X164915337Y-90356533D01*
X164924151Y-90336649D01*
X164930975Y-90315994D01*
X165000629Y-90135421D01*
X165009442Y-90115539D01*
X165016264Y-90094888D01*
X165024094Y-90074590D01*
X165029897Y-90053623D01*
X165090605Y-89869857D01*
X165098435Y-89849558D01*
X165104237Y-89828593D01*
X165111058Y-89807945D01*
X165115824Y-89786721D01*
X165167445Y-89600185D01*
X165174267Y-89579536D01*
X165179032Y-89558315D01*
X165184835Y-89537347D01*
X165188554Y-89515916D01*
X165230959Y-89327077D01*
X165236759Y-89306119D01*
X165240477Y-89284693D01*
X165245244Y-89263464D01*
X165247907Y-89241871D01*
X165280996Y-89051177D01*
X165285761Y-89029959D01*
X165288423Y-89008379D01*
X165292142Y-88986944D01*
X165293743Y-88965245D01*
X165317434Y-88773158D01*
X165321152Y-88751731D01*
X165322752Y-88730045D01*
X165325415Y-88708451D01*
X165325949Y-88686702D01*
X165340186Y-88493693D01*
X165342849Y-88472105D01*
X165343383Y-88450356D01*
X165344983Y-88428665D01*
X165344449Y-88406924D01*
X165348933Y-88224313D01*
X165350000Y-88213477D01*
X165350000Y-88180844D01*
X165350800Y-88148260D01*
X165350000Y-88137414D01*
X165350000Y-85122307D01*
X165350800Y-85111461D01*
X165350000Y-85078877D01*
X165350000Y-85046243D01*
X165348933Y-85035407D01*
X165344449Y-84852795D01*
X165344983Y-84831054D01*
X165343383Y-84809363D01*
X165342849Y-84787614D01*
X165340186Y-84766026D01*
X165325949Y-84573017D01*
X165325415Y-84551268D01*
X165322752Y-84529674D01*
X165321152Y-84507988D01*
X165317434Y-84486561D01*
X165293743Y-84294474D01*
X165292142Y-84272775D01*
X165288423Y-84251340D01*
X165285761Y-84229760D01*
X165280996Y-84208542D01*
X165247907Y-84017845D01*
X165245244Y-83996256D01*
X165240478Y-83975030D01*
X165236759Y-83953600D01*
X165230958Y-83932639D01*
X165188555Y-83743811D01*
X165184835Y-83722370D01*
X165179030Y-83701393D01*
X165174267Y-83680183D01*
X165167448Y-83659542D01*
X165115826Y-83473003D01*
X165111059Y-83451775D01*
X165104235Y-83431118D01*
X165098435Y-83410160D01*
X165090608Y-83389869D01*
X165029893Y-83206084D01*
X165024094Y-83185128D01*
X165016269Y-83164841D01*
X165009443Y-83144180D01*
X165000626Y-83124290D01*
X164930973Y-82943721D01*
X164924150Y-82923067D01*
X164915338Y-82903188D01*
X164907508Y-82882889D01*
X164897724Y-82863452D01*
X164819297Y-82686525D01*
X164811470Y-82666234D01*
X164801688Y-82646801D01*
X164792873Y-82626914D01*
X164782154Y-82607992D01*
X164695137Y-82435118D01*
X164686320Y-82415226D01*
X164675599Y-82396302D01*
X164665822Y-82376877D01*
X164654183Y-82358497D01*
X164558784Y-82190095D01*
X164549006Y-82170670D01*
X164537371Y-82152296D01*
X164526647Y-82133366D01*
X164514120Y-82115579D01*
X164410587Y-81952082D01*
X164399860Y-81933147D01*
X164387328Y-81915353D01*
X164375696Y-81896984D01*
X164362321Y-81879845D01*
X164250874Y-81721602D01*
X164239236Y-81703224D01*
X164225852Y-81686074D01*
X164213330Y-81668294D01*
X164199124Y-81651826D01*
X164080053Y-81499249D01*
X164067522Y-81481457D01*
X164053310Y-81464982D01*
X164039935Y-81447843D01*
X164024938Y-81432091D01*
X163936628Y-81329716D01*
X163920366Y-81247962D01*
X163842345Y-81059604D01*
X163729077Y-80890086D01*
X163584914Y-80745923D01*
X163415396Y-80632655D01*
X163227038Y-80554634D01*
X163027079Y-80514860D01*
X162823201Y-80514860D01*
X162623242Y-80554634D01*
X162434884Y-80632655D01*
X162265366Y-80745923D01*
X162121203Y-80890086D01*
X162007935Y-81059604D01*
X161929914Y-81247962D01*
X161890140Y-81447921D01*
X161890140Y-81651799D01*
X161929914Y-81851758D01*
X162007935Y-82040116D01*
X162121203Y-82209634D01*
X162265366Y-82353797D01*
X162434884Y-82467065D01*
X162623242Y-82545086D01*
X162652504Y-82550906D01*
X162684677Y-82588204D01*
X162803748Y-82740780D01*
X162915189Y-82899014D01*
X163018733Y-83062527D01*
X163114133Y-83230931D01*
X163201149Y-83403805D01*
X163279577Y-83580734D01*
X163349229Y-83761300D01*
X163409940Y-83945075D01*
X163461561Y-84131610D01*
X163503965Y-84320442D01*
X163537055Y-84511141D01*
X163560746Y-84703221D01*
X163574983Y-84896234D01*
X163580000Y-85100572D01*
X163580001Y-88159108D01*
X163574983Y-88363485D01*
X163560746Y-88556498D01*
X163537055Y-88748578D01*
X163503966Y-88939272D01*
X163461559Y-89128118D01*
X163409943Y-89314636D01*
X163349233Y-89498408D01*
X163279580Y-89678976D01*
X163201143Y-89855926D01*
X163114137Y-90028779D01*
X163018735Y-90197187D01*
X162915188Y-90360704D01*
X162803754Y-90518931D01*
X162684679Y-90671511D01*
X162558274Y-90818050D01*
X162417324Y-90966096D01*
X161667426Y-91715995D01*
X161261927Y-92102060D01*
X160846196Y-92460673D01*
X160413383Y-92798444D01*
X159964494Y-93114587D01*
X159500662Y-93408305D01*
X159022957Y-93678924D01*
X158532544Y-93925776D01*
X158030622Y-94148264D01*
X157518390Y-94345854D01*
X156997066Y-94518076D01*
X156467930Y-94664507D01*
X155932233Y-94784803D01*
X155391306Y-94878662D01*
X154846397Y-94945871D01*
X154298867Y-94986259D01*
X153739154Y-95000000D01*
X149317291Y-95000000D01*
X149306446Y-94999200D01*
X149273855Y-95000000D01*
X149241223Y-95000000D01*
X149230390Y-95001067D01*
X148692403Y-95014273D01*
X148670653Y-95013739D01*
X148648958Y-95015339D01*
X148627219Y-95015873D01*
X148605632Y-95018535D01*
X148058092Y-95058925D01*
X148036345Y-95059459D01*
X148014753Y-95062122D01*
X147993064Y-95063722D01*
X147971638Y-95067440D01*
X147426734Y-95134647D01*
X147405042Y-95136247D01*
X147383613Y-95139965D01*
X147362024Y-95142628D01*
X147340800Y-95147394D01*
X146799869Y-95241255D01*
X146778266Y-95243919D01*
X146757029Y-95248688D01*
X146735613Y-95252404D01*
X146714661Y-95258202D01*
X146178959Y-95378499D01*
X146157530Y-95382217D01*
X146136568Y-95388018D01*
X146115344Y-95392784D01*
X146094690Y-95399607D01*
X145565551Y-95546039D01*
X145544328Y-95550805D01*
X145523676Y-95557627D01*
X145502712Y-95563429D01*
X145482418Y-95571257D01*
X144961106Y-95743476D01*
X144940136Y-95749279D01*
X144919832Y-95757111D01*
X144899188Y-95763931D01*
X144879314Y-95772741D01*
X144367081Y-95970331D01*
X144346409Y-95977160D01*
X144326506Y-95985982D01*
X144306232Y-95993803D01*
X144286821Y-96003574D01*
X143784882Y-96226069D01*
X143764582Y-96233900D01*
X143745147Y-96243683D01*
X143725267Y-96252495D01*
X143706348Y-96263213D01*
X143215929Y-96510068D01*
X143196052Y-96518879D01*
X143177136Y-96529595D01*
X143157698Y-96539379D01*
X143139312Y-96551022D01*
X142661635Y-96821622D01*
X142642186Y-96831412D01*
X142623791Y-96843061D01*
X142604888Y-96853769D01*
X142587120Y-96866282D01*
X142123258Y-97160022D01*
X142104330Y-97170744D01*
X142086542Y-97183272D01*
X142068168Y-97194907D01*
X142051023Y-97208287D01*
X141602152Y-97524418D01*
X141583769Y-97536059D01*
X141566616Y-97549445D01*
X141548838Y-97561966D01*
X141532370Y-97576171D01*
X141099539Y-97913956D01*
X141081759Y-97926478D01*
X141065295Y-97940680D01*
X141048141Y-97954067D01*
X141032382Y-97969071D01*
X140616658Y-98327676D01*
X140599511Y-98341058D01*
X140583759Y-98356055D01*
X140567287Y-98370264D01*
X140552286Y-98386020D01*
X140162537Y-98757093D01*
X140154119Y-98764001D01*
X140131036Y-98787084D01*
X140107434Y-98809555D01*
X140100333Y-98817787D01*
X136699057Y-102219065D01*
X136642202Y-102230374D01*
X136453844Y-102308395D01*
X136284326Y-102421663D01*
X136140163Y-102565826D01*
X136026895Y-102735344D01*
X135948874Y-102923702D01*
X135909100Y-103123661D01*
X116230000Y-103123661D01*
X116230000Y-90501123D01*
X117150334Y-90501123D01*
X117213872Y-90684418D01*
X117323342Y-90857052D01*
X117464388Y-91005013D01*
X117631590Y-91122614D01*
X117818522Y-91205336D01*
X118018000Y-91250000D01*
X118318000Y-91250000D01*
X118318000Y-90342000D01*
X118572000Y-90342000D01*
X118572000Y-91250000D01*
X118872000Y-91250000D01*
X119071478Y-91205336D01*
X119258410Y-91122614D01*
X119425612Y-91005013D01*
X119566658Y-90857052D01*
X119676128Y-90684418D01*
X119739666Y-90501123D01*
X119611998Y-90342000D01*
X118572000Y-90342000D01*
X118318000Y-90342000D01*
X117278002Y-90342000D01*
X117150334Y-90501123D01*
X116230000Y-90501123D01*
X116230000Y-90141123D01*
X123100334Y-90141123D01*
X123163872Y-90324418D01*
X123273342Y-90497052D01*
X123414388Y-90645013D01*
X123581590Y-90762614D01*
X123768522Y-90845336D01*
X123968000Y-90890000D01*
X124268000Y-90890000D01*
X124268000Y-89982000D01*
X123228002Y-89982000D01*
X123100334Y-90141123D01*
X116230000Y-90141123D01*
X116230000Y-89928877D01*
X117150334Y-89928877D01*
X117278002Y-90088000D01*
X118318000Y-90088000D01*
X118318000Y-89180000D01*
X118572000Y-89180000D01*
X118572000Y-90088000D01*
X119611998Y-90088000D01*
X119739666Y-89928877D01*
X119676128Y-89745582D01*
X119566658Y-89572948D01*
X119562778Y-89568877D01*
X123100334Y-89568877D01*
X123228002Y-89728000D01*
X124268000Y-89728000D01*
X124268000Y-88820000D01*
X124522000Y-88820000D01*
X124522000Y-89728000D01*
X124542000Y-89728000D01*
X124542000Y-89982000D01*
X124522000Y-89982000D01*
X124522000Y-90890000D01*
X124822000Y-90890000D01*
X125021478Y-90845336D01*
X125208410Y-90762614D01*
X125375612Y-90645013D01*
X125516658Y-90497052D01*
X125558465Y-90431122D01*
X125645000Y-90439645D01*
X125833192Y-90421110D01*
X126014153Y-90366216D01*
X126180928Y-90277073D01*
X126327107Y-90157107D01*
X126400185Y-90068061D01*
X134220000Y-90068061D01*
X134220000Y-90271939D01*
X134259774Y-90471898D01*
X134337795Y-90660256D01*
X134451063Y-90829774D01*
X134595226Y-90973937D01*
X134764744Y-91087205D01*
X134953102Y-91165226D01*
X135153061Y-91205000D01*
X135356939Y-91205000D01*
X135556898Y-91165226D01*
X135745256Y-91087205D01*
X135914774Y-90973937D01*
X136058937Y-90829774D01*
X136172205Y-90660256D01*
X136250226Y-90471898D01*
X136290000Y-90271939D01*
X136290000Y-90068061D01*
X136250226Y-89868102D01*
X136172205Y-89679744D01*
X136058937Y-89510226D01*
X135914774Y-89366063D01*
X135745256Y-89252795D01*
X135556898Y-89174774D01*
X135356939Y-89135000D01*
X135153061Y-89135000D01*
X134953102Y-89174774D01*
X134764744Y-89252795D01*
X134595226Y-89366063D01*
X134451063Y-89510226D01*
X134337795Y-89679744D01*
X134259774Y-89868102D01*
X134220000Y-90068061D01*
X126400185Y-90068061D01*
X126447073Y-90010928D01*
X126536216Y-89844154D01*
X126591110Y-89663193D01*
X126605000Y-89522162D01*
X126605000Y-89127839D01*
X126591110Y-88986808D01*
X126536216Y-88805846D01*
X126447073Y-88639072D01*
X126327107Y-88492893D01*
X126180928Y-88372927D01*
X126014154Y-88283784D01*
X125833193Y-88228890D01*
X125645000Y-88210355D01*
X125456808Y-88228890D01*
X125275847Y-88283784D01*
X125109073Y-88372927D01*
X124962894Y-88492893D01*
X124842927Y-88639072D01*
X124753784Y-88805846D01*
X124749490Y-88820000D01*
X124522000Y-88820000D01*
X124268000Y-88820000D01*
X123968000Y-88820000D01*
X123768522Y-88864664D01*
X123581590Y-88947386D01*
X123414388Y-89064987D01*
X123273342Y-89212948D01*
X123163872Y-89385582D01*
X123100334Y-89568877D01*
X119562778Y-89568877D01*
X119425612Y-89424987D01*
X119258410Y-89307386D01*
X119071478Y-89224664D01*
X118872000Y-89180000D01*
X118572000Y-89180000D01*
X118318000Y-89180000D01*
X118018000Y-89180000D01*
X117818522Y-89224664D01*
X117631590Y-89307386D01*
X117464388Y-89424987D01*
X117323342Y-89572948D01*
X117213872Y-89745582D01*
X117150334Y-89928877D01*
X116230000Y-89928877D01*
X116230000Y-81521123D01*
X117150334Y-81521123D01*
X117213872Y-81704418D01*
X117323342Y-81877052D01*
X117464388Y-82025013D01*
X117631590Y-82142614D01*
X117818522Y-82225336D01*
X118018000Y-82270000D01*
X118318000Y-82270000D01*
X118318000Y-81362000D01*
X118572000Y-81362000D01*
X118572000Y-82270000D01*
X118872000Y-82270000D01*
X119071478Y-82225336D01*
X119258410Y-82142614D01*
X119425612Y-82025013D01*
X119562777Y-81881123D01*
X123100334Y-81881123D01*
X123163872Y-82064418D01*
X123273342Y-82237052D01*
X123414388Y-82385013D01*
X123581590Y-82502614D01*
X123768522Y-82585336D01*
X123968000Y-82630000D01*
X124268000Y-82630000D01*
X124268000Y-81722000D01*
X123228002Y-81722000D01*
X123100334Y-81881123D01*
X119562777Y-81881123D01*
X119566658Y-81877052D01*
X119676128Y-81704418D01*
X119739666Y-81521123D01*
X119611998Y-81362000D01*
X118572000Y-81362000D01*
X118318000Y-81362000D01*
X117278002Y-81362000D01*
X117150334Y-81521123D01*
X116230000Y-81521123D01*
X116230000Y-81308877D01*
X123100334Y-81308877D01*
X123228002Y-81468000D01*
X124268000Y-81468000D01*
X124268000Y-80560000D01*
X124522000Y-80560000D01*
X124522000Y-81468000D01*
X124542000Y-81468000D01*
X124542000Y-81722000D01*
X124522000Y-81722000D01*
X124522000Y-82630000D01*
X124822000Y-82630000D01*
X124827087Y-82628861D01*
X124899319Y-82736964D01*
X125033036Y-82870681D01*
X125190269Y-82975741D01*
X125364978Y-83048108D01*
X125550448Y-83085000D01*
X125739552Y-83085000D01*
X125925022Y-83048108D01*
X126099731Y-82975741D01*
X126256964Y-82870681D01*
X126390681Y-82736964D01*
X126495741Y-82579731D01*
X126568108Y-82405022D01*
X126605000Y-82219552D01*
X126605000Y-82030448D01*
X126568108Y-81844978D01*
X126495741Y-81670269D01*
X126390681Y-81513036D01*
X126256964Y-81379319D01*
X126099731Y-81274259D01*
X125925022Y-81201892D01*
X125739552Y-81165000D01*
X125639792Y-81165000D01*
X125626128Y-81125582D01*
X125516658Y-80952948D01*
X125375612Y-80804987D01*
X125208410Y-80687386D01*
X125021478Y-80604664D01*
X124822000Y-80560000D01*
X124522000Y-80560000D01*
X124268000Y-80560000D01*
X123968000Y-80560000D01*
X123768522Y-80604664D01*
X123581590Y-80687386D01*
X123414388Y-80804987D01*
X123273342Y-80952948D01*
X123163872Y-81125582D01*
X123100334Y-81308877D01*
X116230000Y-81308877D01*
X116230000Y-80948877D01*
X117150334Y-80948877D01*
X117278002Y-81108000D01*
X118318000Y-81108000D01*
X118318000Y-80200000D01*
X118572000Y-80200000D01*
X118572000Y-81108000D01*
X119611998Y-81108000D01*
X119739666Y-80948877D01*
X119676128Y-80765582D01*
X119566658Y-80592948D01*
X119425612Y-80444987D01*
X119258410Y-80327386D01*
X119071478Y-80244664D01*
X118872000Y-80200000D01*
X118572000Y-80200000D01*
X118318000Y-80200000D01*
X118018000Y-80200000D01*
X117818522Y-80244664D01*
X117631590Y-80327386D01*
X117464388Y-80444987D01*
X117323342Y-80592948D01*
X117213872Y-80765582D01*
X117150334Y-80948877D01*
X116230000Y-80948877D01*
X116230000Y-80677277D01*
X116256815Y-80403796D01*
X116326867Y-80171774D01*
X116440650Y-79957778D01*
X116593832Y-79769959D01*
X116780577Y-79615470D01*
X116993769Y-79500199D01*
X117225300Y-79428528D01*
X117496725Y-79400000D01*
X169512723Y-79400000D01*
X169786204Y-79426815D01*
%TA.AperFunction,Conductor*%
D15*
G36*
X169786204Y-79426815D02*
G01*
X170018226Y-79496867D01*
X170232222Y-79610650D01*
X170420041Y-79763832D01*
X170574530Y-79950577D01*
X170689801Y-80163769D01*
X170761472Y-80395300D01*
X170790001Y-80666734D01*
X170790000Y-90772581D01*
X170790000Y-90772582D01*
X170790001Y-109822712D01*
X170763185Y-110096205D01*
X170693133Y-110328226D01*
X170579350Y-110542222D01*
X170426169Y-110730039D01*
X170239424Y-110884529D01*
X170026231Y-110999802D01*
X169794701Y-111071472D01*
X169523276Y-111100000D01*
X117507277Y-111100000D01*
X117233795Y-111073185D01*
X117001774Y-111003133D01*
X116787778Y-110889350D01*
X116599961Y-110736169D01*
X116445471Y-110549424D01*
X116330198Y-110336231D01*
X116258528Y-110104701D01*
X116230000Y-109833276D01*
X116230000Y-103123661D01*
X135909100Y-103123661D01*
X135909100Y-103327539D01*
X135948874Y-103527498D01*
X136026895Y-103715856D01*
X136140163Y-103885374D01*
X136284326Y-104029537D01*
X136453844Y-104142805D01*
X136642202Y-104220826D01*
X136842161Y-104260600D01*
X137046039Y-104260600D01*
X137245998Y-104220826D01*
X137434356Y-104142805D01*
X137603874Y-104029537D01*
X137748037Y-103885374D01*
X137861305Y-103715856D01*
X137939326Y-103527498D01*
X137950635Y-103470643D01*
X141367300Y-100053978D01*
X141772781Y-99667927D01*
X142188490Y-99309334D01*
X142621323Y-98971548D01*
X143070210Y-98655407D01*
X143534040Y-98361689D01*
X144011744Y-98091073D01*
X144502152Y-97844223D01*
X145004072Y-97621736D01*
X145516308Y-97424145D01*
X146037642Y-97251919D01*
X146566755Y-97105494D01*
X147102462Y-96985196D01*
X147643396Y-96891335D01*
X148188297Y-96824129D01*
X148735833Y-96783739D01*
X149295535Y-96770000D01*
X153717411Y-96770000D01*
X153728257Y-96770800D01*
X153760844Y-96770000D01*
X153793477Y-96770000D01*
X153804312Y-96768933D01*
X154342299Y-96755725D01*
X154364043Y-96756259D01*
X154385735Y-96754659D01*
X154407482Y-96754125D01*
X154429071Y-96751462D01*
X154976603Y-96711074D01*
X154998355Y-96710540D01*
X155019950Y-96707877D01*
X155041634Y-96706277D01*
X155063060Y-96702559D01*
X155607971Y-96635351D01*
X155629657Y-96633751D01*
X155651080Y-96630034D01*
X155672677Y-96627370D01*
X155693908Y-96622602D01*
X156234832Y-96528743D01*
X156256432Y-96526079D01*
X156277666Y-96521311D01*
X156299086Y-96517594D01*
X156320043Y-96511795D01*
X156855742Y-96391499D01*
X156877167Y-96387781D01*
X156898125Y-96381981D01*
X156919354Y-96377214D01*
X156940012Y-96370390D01*
X157469152Y-96223958D01*
X157490370Y-96219193D01*
X157511017Y-96212372D01*
X157531987Y-96206569D01*
X157552286Y-96198739D01*
X158073600Y-96026520D01*
X158094562Y-96020719D01*
X158114855Y-96012891D01*
X158135509Y-96006068D01*
X158155396Y-95997253D01*
X158667638Y-95799660D01*
X158688289Y-95792837D01*
X158708169Y-95784025D01*
X158728467Y-95776195D01*
X158747902Y-95766412D01*
X159249821Y-95543926D01*
X159270115Y-95536098D01*
X159289544Y-95526318D01*
X159309431Y-95517503D01*
X159328358Y-95506781D01*
X159818753Y-95259938D01*
X159838648Y-95251119D01*
X159857579Y-95240395D01*
X159877000Y-95230619D01*
X159895373Y-95218985D01*
X160373083Y-94948364D01*
X160392508Y-94938586D01*
X160410883Y-94926950D01*
X160429812Y-94916227D01*
X160447597Y-94903701D01*
X160911446Y-94609973D01*
X160930369Y-94599253D01*
X160948148Y-94586732D01*
X160966529Y-94575092D01*
X160983681Y-94561706D01*
X161432543Y-94245582D01*
X161450929Y-94233939D01*
X161468086Y-94220550D01*
X161485861Y-94208031D01*
X161502326Y-94193828D01*
X161935153Y-93856047D01*
X161952940Y-93843520D01*
X161969412Y-93829311D01*
X161986557Y-93815931D01*
X162002308Y-93800934D01*
X162418035Y-93442325D01*
X162435185Y-93428941D01*
X162450942Y-93413939D01*
X162467412Y-93399732D01*
X162482408Y-93383981D01*
X162872167Y-93012902D01*
X162880579Y-93005998D01*
X162903643Y-92982934D01*
X162927262Y-92960447D01*
X162934369Y-92952208D01*
X163653529Y-92233049D01*
X163661769Y-92225941D01*
X163684252Y-92202326D01*
X163707318Y-92179260D01*
X163714225Y-92170844D01*
X163840175Y-92038552D01*
X163855930Y-92023552D01*
X163870144Y-92007074D01*
X163885140Y-91991323D01*
X163898517Y-91974183D01*
X164024936Y-91827627D01*
X164039932Y-91811877D01*
X164053311Y-91794733D01*
X164067522Y-91778259D01*
X164080050Y-91760471D01*
X164199118Y-91607900D01*
X164213330Y-91591424D01*
X164225857Y-91573637D01*
X164239234Y-91556496D01*
X164250869Y-91538122D01*
X164362323Y-91379870D01*
X164375695Y-91362735D01*
X164387325Y-91344369D01*
X164399860Y-91326571D01*
X164410587Y-91307635D01*
X164514121Y-91144138D01*
X164526650Y-91126349D01*
X164537372Y-91107422D01*
X164549006Y-91089050D01*
X164558787Y-91069620D01*
X164654182Y-90901223D01*
X164665819Y-90882845D01*
X164675600Y-90863413D01*
X164686321Y-90844488D01*
X164695136Y-90824602D01*
X164782148Y-90651739D01*
X164792874Y-90632804D01*
X164801693Y-90612908D01*
X164811468Y-90593489D01*
X164819292Y-90573205D01*
X164897727Y-90396261D01*
X164907508Y-90376829D01*
X164915337Y-90356533D01*
X164924151Y-90336649D01*
X164930975Y-90315994D01*
X165000629Y-90135421D01*
X165009442Y-90115539D01*
X165016264Y-90094888D01*
X165024094Y-90074590D01*
X165029897Y-90053623D01*
X165090605Y-89869857D01*
X165098435Y-89849558D01*
X165104237Y-89828593D01*
X165111058Y-89807945D01*
X165115824Y-89786721D01*
X165167445Y-89600185D01*
X165174267Y-89579536D01*
X165179032Y-89558315D01*
X165184835Y-89537347D01*
X165188554Y-89515916D01*
X165230959Y-89327077D01*
X165236759Y-89306119D01*
X165240477Y-89284693D01*
X165245244Y-89263464D01*
X165247907Y-89241871D01*
X165280996Y-89051177D01*
X165285761Y-89029959D01*
X165288423Y-89008379D01*
X165292142Y-88986944D01*
X165293743Y-88965245D01*
X165317434Y-88773158D01*
X165321152Y-88751731D01*
X165322752Y-88730045D01*
X165325415Y-88708451D01*
X165325949Y-88686702D01*
X165340186Y-88493693D01*
X165342849Y-88472105D01*
X165343383Y-88450356D01*
X165344983Y-88428665D01*
X165344449Y-88406924D01*
X165348933Y-88224313D01*
X165350000Y-88213477D01*
X165350000Y-88180844D01*
X165350800Y-88148260D01*
X165350000Y-88137414D01*
X165350000Y-85122307D01*
X165350800Y-85111461D01*
X165350000Y-85078877D01*
X165350000Y-85046243D01*
X165348933Y-85035407D01*
X165344449Y-84852795D01*
X165344983Y-84831054D01*
X165343383Y-84809363D01*
X165342849Y-84787614D01*
X165340186Y-84766026D01*
X165325949Y-84573017D01*
X165325415Y-84551268D01*
X165322752Y-84529674D01*
X165321152Y-84507988D01*
X165317434Y-84486561D01*
X165293743Y-84294474D01*
X165292142Y-84272775D01*
X165288423Y-84251340D01*
X165285761Y-84229760D01*
X165280996Y-84208542D01*
X165247907Y-84017845D01*
X165245244Y-83996256D01*
X165240478Y-83975030D01*
X165236759Y-83953600D01*
X165230958Y-83932639D01*
X165188555Y-83743811D01*
X165184835Y-83722370D01*
X165179030Y-83701393D01*
X165174267Y-83680183D01*
X165167448Y-83659542D01*
X165115826Y-83473003D01*
X165111059Y-83451775D01*
X165104235Y-83431118D01*
X165098435Y-83410160D01*
X165090608Y-83389869D01*
X165029893Y-83206084D01*
X165024094Y-83185128D01*
X165016269Y-83164841D01*
X165009443Y-83144180D01*
X165000626Y-83124290D01*
X164930973Y-82943721D01*
X164924150Y-82923067D01*
X164915338Y-82903188D01*
X164907508Y-82882889D01*
X164897724Y-82863452D01*
X164819297Y-82686525D01*
X164811470Y-82666234D01*
X164801688Y-82646801D01*
X164792873Y-82626914D01*
X164782154Y-82607992D01*
X164695137Y-82435118D01*
X164686320Y-82415226D01*
X164675599Y-82396302D01*
X164665822Y-82376877D01*
X164654183Y-82358497D01*
X164558784Y-82190095D01*
X164549006Y-82170670D01*
X164537371Y-82152296D01*
X164526647Y-82133366D01*
X164514120Y-82115579D01*
X164410587Y-81952082D01*
X164399860Y-81933147D01*
X164387328Y-81915353D01*
X164375696Y-81896984D01*
X164362321Y-81879845D01*
X164250874Y-81721602D01*
X164239236Y-81703224D01*
X164225852Y-81686074D01*
X164213330Y-81668294D01*
X164199124Y-81651826D01*
X164080053Y-81499249D01*
X164067522Y-81481457D01*
X164053310Y-81464982D01*
X164039935Y-81447843D01*
X164024938Y-81432091D01*
X163936628Y-81329716D01*
X163920366Y-81247962D01*
X163842345Y-81059604D01*
X163729077Y-80890086D01*
X163584914Y-80745923D01*
X163415396Y-80632655D01*
X163227038Y-80554634D01*
X163027079Y-80514860D01*
X162823201Y-80514860D01*
X162623242Y-80554634D01*
X162434884Y-80632655D01*
X162265366Y-80745923D01*
X162121203Y-80890086D01*
X162007935Y-81059604D01*
X161929914Y-81247962D01*
X161890140Y-81447921D01*
X161890140Y-81651799D01*
X161929914Y-81851758D01*
X162007935Y-82040116D01*
X162121203Y-82209634D01*
X162265366Y-82353797D01*
X162434884Y-82467065D01*
X162623242Y-82545086D01*
X162652504Y-82550906D01*
X162684677Y-82588204D01*
X162803748Y-82740780D01*
X162915189Y-82899014D01*
X163018733Y-83062527D01*
X163114133Y-83230931D01*
X163201149Y-83403805D01*
X163279577Y-83580734D01*
X163349229Y-83761300D01*
X163409940Y-83945075D01*
X163461561Y-84131610D01*
X163503965Y-84320442D01*
X163537055Y-84511141D01*
X163560746Y-84703221D01*
X163574983Y-84896234D01*
X163580000Y-85100572D01*
X163580001Y-88159108D01*
X163574983Y-88363485D01*
X163560746Y-88556498D01*
X163537055Y-88748578D01*
X163503966Y-88939272D01*
X163461559Y-89128118D01*
X163409943Y-89314636D01*
X163349233Y-89498408D01*
X163279580Y-89678976D01*
X163201143Y-89855926D01*
X163114137Y-90028779D01*
X163018735Y-90197187D01*
X162915188Y-90360704D01*
X162803754Y-90518931D01*
X162684679Y-90671511D01*
X162558274Y-90818050D01*
X162417324Y-90966096D01*
X161667426Y-91715995D01*
X161261927Y-92102060D01*
X160846196Y-92460673D01*
X160413383Y-92798444D01*
X159964494Y-93114587D01*
X159500662Y-93408305D01*
X159022957Y-93678924D01*
X158532544Y-93925776D01*
X158030622Y-94148264D01*
X157518390Y-94345854D01*
X156997066Y-94518076D01*
X156467930Y-94664507D01*
X155932233Y-94784803D01*
X155391306Y-94878662D01*
X154846397Y-94945871D01*
X154298867Y-94986259D01*
X153739154Y-95000000D01*
X149317291Y-95000000D01*
X149306446Y-94999200D01*
X149273855Y-95000000D01*
X149241223Y-95000000D01*
X149230390Y-95001067D01*
X148692403Y-95014273D01*
X148670653Y-95013739D01*
X148648958Y-95015339D01*
X148627219Y-95015873D01*
X148605632Y-95018535D01*
X148058092Y-95058925D01*
X148036345Y-95059459D01*
X148014753Y-95062122D01*
X147993064Y-95063722D01*
X147971638Y-95067440D01*
X147426734Y-95134647D01*
X147405042Y-95136247D01*
X147383613Y-95139965D01*
X147362024Y-95142628D01*
X147340800Y-95147394D01*
X146799869Y-95241255D01*
X146778266Y-95243919D01*
X146757029Y-95248688D01*
X146735613Y-95252404D01*
X146714661Y-95258202D01*
X146178959Y-95378499D01*
X146157530Y-95382217D01*
X146136568Y-95388018D01*
X146115344Y-95392784D01*
X146094690Y-95399607D01*
X145565551Y-95546039D01*
X145544328Y-95550805D01*
X145523676Y-95557627D01*
X145502712Y-95563429D01*
X145482418Y-95571257D01*
X144961106Y-95743476D01*
X144940136Y-95749279D01*
X144919832Y-95757111D01*
X144899188Y-95763931D01*
X144879314Y-95772741D01*
X144367081Y-95970331D01*
X144346409Y-95977160D01*
X144326506Y-95985982D01*
X144306232Y-95993803D01*
X144286821Y-96003574D01*
X143784882Y-96226069D01*
X143764582Y-96233900D01*
X143745147Y-96243683D01*
X143725267Y-96252495D01*
X143706348Y-96263213D01*
X143215929Y-96510068D01*
X143196052Y-96518879D01*
X143177136Y-96529595D01*
X143157698Y-96539379D01*
X143139312Y-96551022D01*
X142661635Y-96821622D01*
X142642186Y-96831412D01*
X142623791Y-96843061D01*
X142604888Y-96853769D01*
X142587120Y-96866282D01*
X142123258Y-97160022D01*
X142104330Y-97170744D01*
X142086542Y-97183272D01*
X142068168Y-97194907D01*
X142051023Y-97208287D01*
X141602152Y-97524418D01*
X141583769Y-97536059D01*
X141566616Y-97549445D01*
X141548838Y-97561966D01*
X141532370Y-97576171D01*
X141099539Y-97913956D01*
X141081759Y-97926478D01*
X141065295Y-97940680D01*
X141048141Y-97954067D01*
X141032382Y-97969071D01*
X140616658Y-98327676D01*
X140599511Y-98341058D01*
X140583759Y-98356055D01*
X140567287Y-98370264D01*
X140552286Y-98386020D01*
X140162537Y-98757093D01*
X140154119Y-98764001D01*
X140131036Y-98787084D01*
X140107434Y-98809555D01*
X140100333Y-98817787D01*
X136699057Y-102219065D01*
X136642202Y-102230374D01*
X136453844Y-102308395D01*
X136284326Y-102421663D01*
X136140163Y-102565826D01*
X136026895Y-102735344D01*
X135948874Y-102923702D01*
X135909100Y-103123661D01*
X116230000Y-103123661D01*
X116230000Y-90501123D01*
X117150334Y-90501123D01*
X117213872Y-90684418D01*
X117323342Y-90857052D01*
X117464388Y-91005013D01*
X117631590Y-91122614D01*
X117818522Y-91205336D01*
X118018000Y-91250000D01*
X118318000Y-91250000D01*
X118318000Y-90342000D01*
X118572000Y-90342000D01*
X118572000Y-91250000D01*
X118872000Y-91250000D01*
X119071478Y-91205336D01*
X119258410Y-91122614D01*
X119425612Y-91005013D01*
X119566658Y-90857052D01*
X119676128Y-90684418D01*
X119739666Y-90501123D01*
X119611998Y-90342000D01*
X118572000Y-90342000D01*
X118318000Y-90342000D01*
X117278002Y-90342000D01*
X117150334Y-90501123D01*
X116230000Y-90501123D01*
X116230000Y-90141123D01*
X123100334Y-90141123D01*
X123163872Y-90324418D01*
X123273342Y-90497052D01*
X123414388Y-90645013D01*
X123581590Y-90762614D01*
X123768522Y-90845336D01*
X123968000Y-90890000D01*
X124268000Y-90890000D01*
X124268000Y-89982000D01*
X123228002Y-89982000D01*
X123100334Y-90141123D01*
X116230000Y-90141123D01*
X116230000Y-89928877D01*
X117150334Y-89928877D01*
X117278002Y-90088000D01*
X118318000Y-90088000D01*
X118318000Y-89180000D01*
X118572000Y-89180000D01*
X118572000Y-90088000D01*
X119611998Y-90088000D01*
X119739666Y-89928877D01*
X119676128Y-89745582D01*
X119566658Y-89572948D01*
X119562778Y-89568877D01*
X123100334Y-89568877D01*
X123228002Y-89728000D01*
X124268000Y-89728000D01*
X124268000Y-88820000D01*
X124522000Y-88820000D01*
X124522000Y-89728000D01*
X124542000Y-89728000D01*
X124542000Y-89982000D01*
X124522000Y-89982000D01*
X124522000Y-90890000D01*
X124822000Y-90890000D01*
X125021478Y-90845336D01*
X125208410Y-90762614D01*
X125375612Y-90645013D01*
X125516658Y-90497052D01*
X125558465Y-90431122D01*
X125645000Y-90439645D01*
X125833192Y-90421110D01*
X126014153Y-90366216D01*
X126180928Y-90277073D01*
X126327107Y-90157107D01*
X126400185Y-90068061D01*
X134220000Y-90068061D01*
X134220000Y-90271939D01*
X134259774Y-90471898D01*
X134337795Y-90660256D01*
X134451063Y-90829774D01*
X134595226Y-90973937D01*
X134764744Y-91087205D01*
X134953102Y-91165226D01*
X135153061Y-91205000D01*
X135356939Y-91205000D01*
X135556898Y-91165226D01*
X135745256Y-91087205D01*
X135914774Y-90973937D01*
X136058937Y-90829774D01*
X136172205Y-90660256D01*
X136250226Y-90471898D01*
X136290000Y-90271939D01*
X136290000Y-90068061D01*
X136250226Y-89868102D01*
X136172205Y-89679744D01*
X136058937Y-89510226D01*
X135914774Y-89366063D01*
X135745256Y-89252795D01*
X135556898Y-89174774D01*
X135356939Y-89135000D01*
X135153061Y-89135000D01*
X134953102Y-89174774D01*
X134764744Y-89252795D01*
X134595226Y-89366063D01*
X134451063Y-89510226D01*
X134337795Y-89679744D01*
X134259774Y-89868102D01*
X134220000Y-90068061D01*
X126400185Y-90068061D01*
X126447073Y-90010928D01*
X126536216Y-89844154D01*
X126591110Y-89663193D01*
X126605000Y-89522162D01*
X126605000Y-89127839D01*
X126591110Y-88986808D01*
X126536216Y-88805846D01*
X126447073Y-88639072D01*
X126327107Y-88492893D01*
X126180928Y-88372927D01*
X126014154Y-88283784D01*
X125833193Y-88228890D01*
X125645000Y-88210355D01*
X125456808Y-88228890D01*
X125275847Y-88283784D01*
X125109073Y-88372927D01*
X124962894Y-88492893D01*
X124842927Y-88639072D01*
X124753784Y-88805846D01*
X124749490Y-88820000D01*
X124522000Y-88820000D01*
X124268000Y-88820000D01*
X123968000Y-88820000D01*
X123768522Y-88864664D01*
X123581590Y-88947386D01*
X123414388Y-89064987D01*
X123273342Y-89212948D01*
X123163872Y-89385582D01*
X123100334Y-89568877D01*
X119562778Y-89568877D01*
X119425612Y-89424987D01*
X119258410Y-89307386D01*
X119071478Y-89224664D01*
X118872000Y-89180000D01*
X118572000Y-89180000D01*
X118318000Y-89180000D01*
X118018000Y-89180000D01*
X117818522Y-89224664D01*
X117631590Y-89307386D01*
X117464388Y-89424987D01*
X117323342Y-89572948D01*
X117213872Y-89745582D01*
X117150334Y-89928877D01*
X116230000Y-89928877D01*
X116230000Y-81521123D01*
X117150334Y-81521123D01*
X117213872Y-81704418D01*
X117323342Y-81877052D01*
X117464388Y-82025013D01*
X117631590Y-82142614D01*
X117818522Y-82225336D01*
X118018000Y-82270000D01*
X118318000Y-82270000D01*
X118318000Y-81362000D01*
X118572000Y-81362000D01*
X118572000Y-82270000D01*
X118872000Y-82270000D01*
X119071478Y-82225336D01*
X119258410Y-82142614D01*
X119425612Y-82025013D01*
X119562777Y-81881123D01*
X123100334Y-81881123D01*
X123163872Y-82064418D01*
X123273342Y-82237052D01*
X123414388Y-82385013D01*
X123581590Y-82502614D01*
X123768522Y-82585336D01*
X123968000Y-82630000D01*
X124268000Y-82630000D01*
X124268000Y-81722000D01*
X123228002Y-81722000D01*
X123100334Y-81881123D01*
X119562777Y-81881123D01*
X119566658Y-81877052D01*
X119676128Y-81704418D01*
X119739666Y-81521123D01*
X119611998Y-81362000D01*
X118572000Y-81362000D01*
X118318000Y-81362000D01*
X117278002Y-81362000D01*
X117150334Y-81521123D01*
X116230000Y-81521123D01*
X116230000Y-81308877D01*
X123100334Y-81308877D01*
X123228002Y-81468000D01*
X124268000Y-81468000D01*
X124268000Y-80560000D01*
X124522000Y-80560000D01*
X124522000Y-81468000D01*
X124542000Y-81468000D01*
X124542000Y-81722000D01*
X124522000Y-81722000D01*
X124522000Y-82630000D01*
X124822000Y-82630000D01*
X124827087Y-82628861D01*
X124899319Y-82736964D01*
X125033036Y-82870681D01*
X125190269Y-82975741D01*
X125364978Y-83048108D01*
X125550448Y-83085000D01*
X125739552Y-83085000D01*
X125925022Y-83048108D01*
X126099731Y-82975741D01*
X126256964Y-82870681D01*
X126390681Y-82736964D01*
X126495741Y-82579731D01*
X126568108Y-82405022D01*
X126605000Y-82219552D01*
X126605000Y-82030448D01*
X126568108Y-81844978D01*
X126495741Y-81670269D01*
X126390681Y-81513036D01*
X126256964Y-81379319D01*
X126099731Y-81274259D01*
X125925022Y-81201892D01*
X125739552Y-81165000D01*
X125639792Y-81165000D01*
X125626128Y-81125582D01*
X125516658Y-80952948D01*
X125375612Y-80804987D01*
X125208410Y-80687386D01*
X125021478Y-80604664D01*
X124822000Y-80560000D01*
X124522000Y-80560000D01*
X124268000Y-80560000D01*
X123968000Y-80560000D01*
X123768522Y-80604664D01*
X123581590Y-80687386D01*
X123414388Y-80804987D01*
X123273342Y-80952948D01*
X123163872Y-81125582D01*
X123100334Y-81308877D01*
X116230000Y-81308877D01*
X116230000Y-80948877D01*
X117150334Y-80948877D01*
X117278002Y-81108000D01*
X118318000Y-81108000D01*
X118318000Y-80200000D01*
X118572000Y-80200000D01*
X118572000Y-81108000D01*
X119611998Y-81108000D01*
X119739666Y-80948877D01*
X119676128Y-80765582D01*
X119566658Y-80592948D01*
X119425612Y-80444987D01*
X119258410Y-80327386D01*
X119071478Y-80244664D01*
X118872000Y-80200000D01*
X118572000Y-80200000D01*
X118318000Y-80200000D01*
X118018000Y-80200000D01*
X117818522Y-80244664D01*
X117631590Y-80327386D01*
X117464388Y-80444987D01*
X117323342Y-80592948D01*
X117213872Y-80765582D01*
X117150334Y-80948877D01*
X116230000Y-80948877D01*
X116230000Y-80677277D01*
X116256815Y-80403796D01*
X116326867Y-80171774D01*
X116440650Y-79957778D01*
X116593832Y-79769959D01*
X116780577Y-79615470D01*
X116993769Y-79500199D01*
X117225300Y-79428528D01*
X117496725Y-79400000D01*
X169512723Y-79400000D01*
X169786204Y-79426815D01*
G37*
%TD.AperFunction*%
%TD*%
M02*
